<?xml version="1.0" encoding="UTF-8"?>
<svg xmlns="http://www.w3.org/2000/svg" xmlns:xlink="http://www.w3.org/1999/xlink" version="1.2" >
<font id="Abula Organic ExtraLight">
<font-face  font-family="Abula Organic" units-per-em="1000" ascent="750" descent="-250" font-style="normal" font-weight="100" font-stretch="normal" cap-height="400" x-height="500" underline-position="-91" underline-thickness="35" />
<missing-glyph  horiz-adv-x="629" d="M569 0 L569 628 L60 628 L60 0 L569 0 Z M106 46 L98 46 C103 45 106 41 106 35 L106 46 Z M523 582 L531 582 C526 582 523 585 523 590 L523 582 Z M523 46 L523 37 C523 42 526 45 531 46 L523 46 Z M106 582 L106 590 C105 585 102 582 98 582 L106 582 Z M106 582 L523 582 L523 46 L106 46 L106 582 Z " />
<glyph glyph-name="space" unicode="&#x20;" horiz-adv-x="208" d="" />
<glyph glyph-name="exclam" unicode="&#x21;" horiz-adv-x="203" d="M114 110 C117 257 117 395 120 542 C120 549 111 555 100 555 C89 555 80 549 80 542 C83 395 85 257 88 110 C88 105 92 102 101 102 C110 102 114 105 114 110 L114 110 Z M80 15 C80 27 89 37 101 37 C113 37 123 27 123 15 C123 3 113 -6 101 -6 C89 -6 80 3 80 15 L80 15 Z " />
<glyph glyph-name="quotedbl" unicode="&#x22;" horiz-adv-x="280" d="M86 453 C86 449 89 447 96 447 C103 447 107 449 107 453 C110 513 110 517 113 545 C113 550 105 555 96 555 C88 555 80 550 80 546 L86 453 Z M173 453 C173 449 176 447 183 447 C190 447 194 449 194 453 C197 513 197 517 200 545 C200 550 192 555 183 555 C175 555 167 550 167 546 L173 453 Z " />
<glyph glyph-name="numbersign" unicode="&#x23;" horiz-adv-x="750" d="M260 363 L522 363 L502 178 L239 178 L260 363 Z M236 146 L499 146 L483 12 C483 9 484 0 500 0 C508 0 516 2 517 9 L533 146 L633 146 C636 146 642 147 642 163 C642 171 638 178 633 178 L535 178 L556 363 L661 363 C664 363 670 364 670 380 C670 388 666 395 661 395 L560 395 L576 538 C576 541 575 550 559 550 C551 550 544 548 543 541 L526 395 L264 395 L280 538 C280 541 279 550 263 550 C254 550 249 547 248 541 L231 395 L120 395 C115 395 111 388 111 380 C111 364 117 363 120 363 L228 363 L206 178 L89 178 C84 178 80 171 80 163 C80 147 86 146 89 146 L202 146 L187 12 C187 9 188 0 204 0 C212 0 219 2 220 9 L236 146 Z " />
<glyph glyph-name="dollar" unicode="&#x24;" horiz-adv-x="589" d="M509 133 C509 268 118 274 118 412 C118 477 163 523 296 523 C372 523 446 514 455 505 C458 496 466 488 477 488 C489 488 499 498 499 511 C499 520 495 526 487 531 C458 547 354 552 311 555 L311 610 C311 613 310 623 293 623 C286 623 279 615 279 610 L279 555 C179 550 86 514 86 412 C86 241 477 236 477 129 C477 25 377 25 296 25 L287 25 C228 25 115 50 115 70 L115 74 C115 78 107 81 99 81 C86 81 80 71 80 58 C80 11 225 -2 279 -5 L279 -51 C279 -56 286 -64 293 -64 C310 -64 311 -54 311 -51 L311 -5 C407 -5 509 1 509 133 L509 133 Z " />
<glyph glyph-name="percent" unicode="&#x25;" horiz-adv-x="621" d="M429 219 C368 219 317 168 317 107 C317 46 368 -5 429 -5 C490 -5 541 46 541 107 C541 168 490 219 429 219 L429 219 Z M429 30 C388 30 353 65 353 106 C353 148 388 184 429 184 C472 184 507 149 507 106 C507 65 471 30 429 30 L429 30 Z M192 555 C131 555 80 504 80 443 C80 382 131 331 192 331 C253 331 304 382 304 443 C304 504 253 555 192 555 L192 555 Z M192 366 C151 366 116 401 116 442 C116 484 151 520 192 520 C235 520 270 485 270 442 C270 401 234 366 192 366 L192 366 Z M103 11 C102 10 102 9 102 8 C102 3 107 0 118 0 C133 0 136 2 140 9 L516 539 C517 540 517 541 517 542 C517 547 512 550 502 550 C487 550 484 547 480 540 L103 11 Z " />
<glyph glyph-name="ampersand" unicode="&#x26;" horiz-adv-x="634" d="M497 246 L545 246 C548 246 554 247 554 263 C554 272 551 276 545 276 L497 276 L497 339 C497 342 496 350 479 350 C472 350 465 344 465 339 L465 276 L271 276 C149 276 114 333 114 387 C114 464 165 523 297 523 C314 523 380 522 441 503 C442 503 444 502 445 502 C452 502 455 514 455 521 C455 524 455 532 451 533 C398 552 326 555 294 555 C213 555 82 532 82 388 C82 351 91 304 162 257 C82 217 80 149 80 129 C80 5 205 -5 301 -5 C365 -5 436 6 480 21 C491 24 497 32 497 44 L497 246 Z M465 51 C422 31 357 24 296 24 C155 24 112 68 112 126 C112 212 180 246 274 246 L465 246 L465 51 Z " />
<glyph glyph-name="quotesingle" unicode="&#x27;" horiz-adv-x="193" d="M86 453 C86 449 89 447 96 447 C103 447 107 449 107 453 C110 513 110 517 113 545 C113 550 105 555 96 555 C88 555 80 550 80 546 L86 453 Z " />
<glyph glyph-name="parenleft" unicode="&#x28;" horiz-adv-x="218" d="M136 548 C136 551 136 560 121 560 C112 560 107 557 106 551 C89 448 80 349 80 254 C80 158 92 58 108 -45 C109 -51 114 -54 123 -54 C138 -54 138 -45 138 -42 C119 57 112 151 112 254 C112 350 117 452 136 548 L136 548 Z " />
<glyph glyph-name="parenright" unicode="&#x29;" horiz-adv-x="218" d="M82 548 C101 452 106 350 106 254 C106 151 99 57 80 -42 C80 -45 80 -54 95 -54 C104 -54 109 -51 110 -45 C126 58 138 158 138 254 C138 349 129 448 112 551 C111 557 106 560 97 560 C82 560 82 551 82 548 L82 548 Z " />
<glyph glyph-name="asterisk" unicode="&#x2a;" horiz-adv-x="416" d="M208 399 L268 300 C269 297 273 296 278 296 C282 296 285 297 289 300 C296 303 299 308 299 315 C299 317 299 318 298 319 L230 405 L330 447 C334 448 336 452 336 459 C336 466 330 477 322 477 L220 428 L225 544 C225 549 217 555 208 555 C199 555 191 549 191 544 L196 428 L94 477 C86 477 80 466 80 459 C80 452 82 448 86 447 L186 405 L118 319 C117 318 117 317 117 315 C117 308 120 303 127 300 C131 297 134 296 138 296 C143 296 147 297 148 300 L208 399 Z " />
<glyph glyph-name="plus" unicode="&#x2b;" horiz-adv-x="490" d="M230 15 C230 11 237 5 246 5 C255 5 262 11 262 15 L262 172 L401 172 C404 172 410 173 410 189 C410 197 406 204 401 204 L262 204 L262 355 C262 359 255 365 246 365 C237 365 230 359 230 355 L230 204 L89 204 C84 204 80 197 80 189 C80 173 86 172 89 172 L230 172 L230 15 Z " />
<glyph glyph-name="comma" unicode="&#x2c;" horiz-adv-x="195" d="M80 -53 C80 -58 83 -60 90 -60 C98 -60 102 -58 102 -53 L115 53 C115 58 107 63 98 63 C90 63 80 58 80 53 L80 -53 Z " />
<glyph glyph-name="hyphen" unicode="&#x2d;" horiz-adv-x="433" d="M343 172 C348 172 353 180 353 187 C353 202 346 204 343 204 L90 204 C87 204 80 202 80 187 C80 180 85 172 90 172 L343 172 Z " />
<glyph glyph-name="period" unicode="&#x2e;" horiz-adv-x="203" d="M80 15 C80 3 89 -6 101 -6 C113 -6 123 3 123 15 C123 27 113 37 101 37 C89 37 80 27 80 15 L80 15 Z " />
<glyph glyph-name="slash" unicode="&#x2f;" horiz-adv-x="407" d="M327 551 C326 557 321 560 311 560 C300 560 297 555 294 551 L80 -45 C81 -51 86 -54 96 -54 C107 -54 110 -49 113 -45 L327 551 Z " />
<glyph glyph-name="zero" unicode="0" horiz-adv-x="590" d="M295 24 C234 24 102 23 102 163 L102 390 C102 522 261 523 296 523 C329 523 488 522 488 390 L488 163 C488 23 356 24 295 24 L295 24 Z M295 -5 C374 -5 520 7 520 155 L520 384 C520 535 374 555 295 555 C216 555 70 535 70 384 L70 155 C70 7 216 -5 295 -5 L295 -5 Z " />
<glyph glyph-name="one" unicode="1" horiz-adv-x="446" d="M224 515 L224 44 C224 37 224 30 216 30 L111 30 C110 30 103 30 103 15 C103 8 104 0 113 0 L369 0 C372 0 376 1 376 17 C376 26 374 30 369 30 L258 30 L258 531 C258 535 256 550 233 550 L220 550 C218 550 216 549 215 548 L73 447 C71 446 70 444 70 441 C70 438 73 434 76 429 C81 424 86 421 89 421 C92 421 94 422 95 424 L224 515 Z " />
<glyph glyph-name="two" unicode="2" horiz-adv-x="537" d="M431 30 L104 30 C112 140 454 257 454 406 C454 554 324 555 248 555 C227 555 142 548 92 532 C79 528 78 508 78 493 C78 481 79 472 95 472 C103 472 114 471 115 478 L116 502 C172 521 242 525 250 525 C381 525 422 493 422 406 C422 279 70 159 70 31 L70 18 C70 7 77 0 88 0 L453 0 C466 3 467 21 467 33 C467 44 467 67 452 67 C445 67 432 66 432 57 L431 30 Z " />
<glyph glyph-name="three" unicode="3" horiz-adv-x="526" d="M237 -5 C332 -5 456 0 456 131 C456 150 451 224 368 261 C454 296 456 366 456 405 C456 510 376 555 245 555 C203 555 109 547 82 531 C74 526 70 520 70 511 C70 498 80 488 92 488 C103 488 111 496 114 505 C122 513 179 522 246 523 L252 523 C287 523 424 517 424 405 C424 356 417 277 270 277 L250 277 C246 277 240 271 240 264 C240 248 249 247 250 247 L265 247 C364 247 424 213 424 126 C424 68 383 24 242 24 C174 24 122 39 114 47 C111 56 103 64 92 64 C80 64 70 54 70 41 C70 32 74 26 82 21 C109 5 196 -5 237 -5 L237 -5 Z " />
<glyph glyph-name="four" unicode="4" horiz-adv-x="546" d="M363 526 L363 172 L67 172 L363 526 Z M363 12 C363 5 370 0 378 0 C395 0 396 9 396 12 L396 142 L466 142 C469 142 476 143 476 158 C476 167 473 172 466 172 L396 172 L396 530 C396 534 395 550 368 550 L350 550 C343 550 335 545 331 540 L50 200 C47 197 40 189 40 185 L40 167 C40 143 55 142 59 142 L363 142 L363 12 Z " />
<glyph glyph-name="five" unicode="5" horiz-adv-x="536" d="M251 -5 C347 -5 466 9 466 159 C466 287 380 319 267 319 C251 319 172 320 103 285 L103 518 L431 518 C434 518 441 519 441 535 C441 543 436 550 431 550 L85 550 C77 550 71 541 71 530 L71 257 C78 248 87 244 99 244 C102 244 104 245 107 245 C148 284 211 290 267 290 C335 290 434 276 434 157 C434 85 391 24 251 24 L242 24 C183 24 105 41 105 61 L105 68 C105 72 97 75 89 75 C76 75 70 65 70 52 C70 -4 225 -5 251 -5 L251 -5 Z " />
<glyph glyph-name="six" unicode="6" horiz-adv-x="521" d="M263 555 C185 555 70 541 70 393 L70 124 C70 12 187 -5 264 -5 C337 -5 451 5 451 134 L451 192 C451 300 349 317 277 317 C265 317 153 316 102 255 L102 392 C102 471 136 526 266 526 C320 526 384 515 408 507 C409 506 411 505 412 505 C420 505 421 523 421 528 C421 544 307 555 263 555 L263 555 Z M419 128 C419 27 315 27 264 27 C231 27 102 27 102 128 L102 184 C110 277 246 290 277 290 C309 290 419 283 419 198 L419 128 Z " />
<glyph glyph-name="seven" unicode="7" horiz-adv-x="527" d="M96 518 L425 518 L212 9 C213 2 220 0 228 0 C239 0 243 4 246 7 L457 513 L457 533 C457 536 455 550 434 550 L75 550 C60 547 60 532 60 519 C60 507 61 470 78 470 C85 470 93 471 94 476 L96 518 Z " />
<glyph glyph-name="eight" unicode="8" horiz-adv-x="518" d="M448 443 C448 543 335 555 259 555 C183 555 70 543 70 443 L70 366 C70 349 70 297 128 260 C70 236 70 185 70 167 L70 101 C70 5 183 -5 259 -5 C335 -5 448 5 448 101 L448 167 C448 185 448 236 390 260 C448 297 448 349 448 366 L448 443 Z M416 109 C416 32 283 24 259 24 C235 24 102 32 102 109 L102 169 C102 242 209 251 245 251 L273 251 C309 251 416 242 416 169 L416 109 Z M259 283 C163 283 102 291 102 368 L102 437 C102 518 192 523 259 523 C325 523 416 518 416 437 L416 368 C416 291 355 283 259 283 L259 283 Z " />
<glyph glyph-name="nine" unicode="9" horiz-adv-x="521" d="M259 -5 C337 -5 451 9 451 157 L451 426 C451 538 334 555 257 555 C184 555 70 545 70 416 L70 358 C70 250 172 233 244 233 C254 233 368 234 419 295 L419 158 C419 79 385 24 255 24 C208 24 158 27 114 44 C113 45 111 46 109 46 C102 46 98 32 98 24 C98 22 98 21 99 20 C117 0 236 -5 259 -5 L259 -5 Z M102 422 C102 523 206 523 257 523 C290 523 419 523 419 422 L419 366 C411 273 275 260 244 260 C212 260 102 267 102 352 L102 422 Z " />
<glyph glyph-name="colon" unicode="&#x3a;" horiz-adv-x="203" d="M80 15 C80 3 89 -6 101 -6 C113 -6 123 3 123 15 C123 27 113 37 101 37 C89 37 80 27 80 15 L80 15 Z M80 295 C80 283 89 274 101 274 C113 274 123 283 123 295 C123 307 113 317 101 317 C89 317 80 307 80 295 L80 295 Z " />
<glyph glyph-name="semicolon" unicode="&#x3b;" horiz-adv-x="203" d="M87 -53 C87 -58 90 -60 97 -60 C105 -60 109 -58 109 -53 L122 53 C122 58 114 63 105 63 C97 63 87 58 87 53 L87 -53 Z M80 295 C80 283 89 274 101 274 C113 274 123 283 123 295 C123 307 113 317 101 317 C89 317 80 307 80 295 L80 295 Z " />
<glyph glyph-name="less" unicode="&#x3c;" horiz-adv-x="359" d="M238 53 C242 48 246 44 258 44 C269 44 276 47 277 55 L114 252 L279 450 C278 458 271 461 260 461 C248 461 244 457 240 452 L91 274 C84 268 80 260 80 251 C80 242 83 236 88 231 C147 159 182 120 238 53 L238 53 Z " />
<glyph glyph-name="equal" unicode="&#x3d;" horiz-adv-x="460" d="M370 264 C375 264 380 272 380 279 C380 294 373 296 370 296 L90 296 C87 296 80 294 80 279 C80 272 85 264 90 264 L370 264 Z M370 97 C375 97 380 105 380 112 C380 127 373 129 370 129 L90 129 C87 129 80 127 80 112 C80 105 85 97 90 97 L370 97 Z " />
<glyph glyph-name="greater" unicode="&#x3e;" horiz-adv-x="359" d="M121 53 C177 120 212 159 271 231 C276 236 279 242 279 251 C279 260 275 268 268 274 L119 452 C115 457 111 461 99 461 C88 461 81 458 80 450 L245 252 L82 55 C83 47 90 44 101 44 C113 44 117 48 121 53 L121 53 Z " />
<glyph glyph-name="question" unicode="&#x3f;" horiz-adv-x="504" d="M208 133 C208 128 216 121 224 121 C233 121 240 127 240 134 L240 163 C244 275 424 296 424 420 C424 555 304 555 228 555 C207 555 124 552 92 533 C84 528 80 522 80 513 C80 500 90 490 102 490 C113 490 121 498 124 507 C133 516 198 523 228 523 C357 523 392 501 392 421 C392 314 208 283 208 171 L208 133 Z M203 15 C203 3 212 -6 224 -6 C236 -6 246 3 246 15 C246 27 236 37 224 37 C212 37 203 27 203 15 L203 15 Z " />
<glyph glyph-name="at" unicode="&#x40;" horiz-adv-x="643" d="M229 234 C229 323 315 330 356 330 C389 330 480 310 494 250 L494 135 C494 57 407 25 359 25 C285 25 229 25 229 118 L229 234 Z M202 -136 C205 -136 213 -135 213 -119 C213 -111 207 -104 202 -104 L191 -104 C139 -104 112 -103 112 -32 L112 412 C112 516 242 519 266 519 L341 519 C366 519 494 516 494 412 L494 311 C446 362 360 362 350 362 C278 362 197 339 197 247 L197 115 C197 -5 292 -5 363 -5 C392 -5 456 1 494 52 L494 23 C494 4 511 0 526 0 C539 0 563 1 563 19 C563 26 561 30 557 30 L526 30 L526 420 C526 527 415 551 339 551 L269 551 C193 551 80 527 80 420 L80 -34 C80 -106 107 -136 158 -136 L202 -136 Z " />
<glyph glyph-name="A" unicode="A" horiz-adv-x="656" d="M454 229 L202 229 L328 522 L454 229 Z M541 30 L483 30 C478 30 476 26 476 17 C476 1 480 0 483 0 L601 0 C610 0 611 8 611 15 C611 30 604 30 603 30 L582 30 C579 30 577 31 575 33 L360 528 C354 543 344 550 329 550 L292 550 C269 550 236 550 227 547 C218 546 214 543 214 539 C214 528 218 523 225 523 L292 520 L81 33 C79 31 77 30 74 30 L53 30 C52 30 45 30 45 15 C45 8 46 0 55 0 L173 0 C176 0 180 1 180 17 C180 26 178 30 173 30 L115 30 L187 197 L469 197 L541 30 Z " />
<glyph glyph-name="B" unicode="B" horiz-adv-x="577" d="M150 30 L150 246 L319 246 C412 246 475 211 475 126 C475 75 467 30 322 30 L150 30 Z M150 278 L150 518 L317 518 C395 518 475 515 475 414 C475 363 467 278 322 278 L150 278 Z M356 0 C425 0 507 13 507 122 C507 144 506 222 427 259 C505 302 507 375 507 417 C507 535 415 550 346 550 L121 550 C98 550 82 549 73 547 C71 545 70 541 70 536 C70 527 72 522 76 522 L118 520 L118 30 L76 28 C72 28 70 23 70 14 C70 9 71 5 73 3 C82 1 98 0 121 0 L356 0 Z " />
<glyph glyph-name="C" unicode="C" horiz-adv-x="561" d="M299 -5 C384 -5 491 7 491 28 C491 35 492 40 489 45 C486 48 484 49 481 49 C480 49 479 48 476 47 C437 34 398 24 297 24 C220 24 102 27 102 151 L102 390 C102 523 247 523 299 523 C375 523 438 514 447 505 C450 496 458 488 469 488 C481 488 491 498 491 511 C491 520 487 526 479 531 C447 550 320 555 299 555 C219 555 70 538 70 395 L70 149 C70 -5 219 -5 299 -5 L299 -5 Z " />
<glyph glyph-name="D" unicode="D" horiz-adv-x="612" d="M325 518 C353 518 510 517 510 364 L510 187 C510 30 353 30 325 30 L154 30 L154 518 L325 518 Z M347 0 C422 0 542 33 542 181 L542 364 C542 515 422 550 347 550 L125 550 C102 550 82 550 73 547 C71 545 70 541 70 536 C70 527 72 522 76 522 L122 520 L122 30 L76 28 C72 28 70 23 70 14 C70 9 71 5 73 3 C82 0 102 0 125 0 L347 0 Z " />
<glyph glyph-name="E" unicode="E" horiz-adv-x="565" d="M464 30 L151 30 L151 248 L421 248 C424 248 430 249 430 264 C430 273 427 278 421 278 L151 278 L151 518 L464 518 L465 496 C465 492 477 492 482 492 C494 492 495 512 495 521 C495 532 494 547 483 550 L121 550 C98 550 82 549 73 547 C71 545 70 541 70 536 C70 527 72 522 76 522 L119 520 L119 30 L76 28 C72 28 70 23 70 14 C70 9 71 5 73 3 C82 1 98 0 121 0 L483 0 C494 3 495 18 495 29 C495 38 494 58 482 58 C477 58 465 58 465 54 L464 30 Z " />
<glyph glyph-name="F" unicode="F" horiz-adv-x="545" d="M119 44 C119 37 119 30 111 30 L78 30 C77 30 70 30 70 15 C70 8 71 0 80 0 L214 0 C217 0 221 1 221 17 C221 26 219 30 214 30 L151 30 L151 248 L421 248 C424 248 430 249 430 264 C430 273 427 278 421 278 L151 278 L151 518 L464 518 L465 496 C465 492 477 492 482 492 C494 492 495 512 495 521 C495 532 494 547 483 550 L121 550 C98 550 82 549 73 547 C71 545 70 541 70 536 C70 527 72 522 76 522 L119 520 L119 44 Z " />
<glyph glyph-name="G" unicode="G" horiz-adv-x="573" d="M503 236 C503 244 499 251 492 251 C471 251 409 249 401 246 C398 245 397 242 397 236 C397 228 399 224 402 224 L471 224 L471 45 C433 32 394 24 297 24 C220 24 102 27 102 151 L102 390 C102 523 253 523 306 523 C382 523 449 514 458 505 C461 496 469 488 480 488 C492 488 502 498 502 511 C502 520 498 526 490 531 C458 550 327 555 306 555 C226 555 70 538 70 395 L70 149 C70 -5 219 -5 299 -5 C384 -5 503 7 503 28 L503 236 Z " />
<glyph glyph-name="H" unicode="H" horiz-adv-x="665" d="M550 506 C550 513 550 520 558 520 L587 520 C588 520 595 520 595 535 C595 542 594 550 585 550 L475 550 C472 550 468 549 468 533 C468 524 470 520 475 520 L518 520 L518 278 L147 278 L147 520 L190 520 C195 520 197 524 197 533 C197 549 193 550 190 550 L80 550 C71 550 70 542 70 535 C70 520 77 520 78 520 L107 520 C115 520 115 513 115 506 L115 44 C115 37 115 30 107 30 L78 30 C77 30 70 30 70 15 C70 8 71 0 80 0 L190 0 C193 0 197 1 197 17 C197 26 195 30 190 30 L147 30 L147 248 L518 248 L518 30 L475 30 C470 30 468 26 468 17 C468 1 472 0 475 0 L585 0 C594 0 595 8 595 15 C595 30 588 30 587 30 L558 30 C550 30 550 37 550 44 L550 506 Z " />
<glyph glyph-name="I" unicode="I" horiz-adv-x="262" d="M115 45 C115 38 115 30 107 30 L78 30 C77 30 70 30 70 15 C70 8 70 0 81 0 L181 0 C192 0 192 8 192 15 C192 30 185 30 184 30 L155 30 C147 30 147 38 147 45 L147 505 C147 512 147 520 155 520 L184 520 C185 520 192 520 192 535 C192 542 192 550 181 550 L81 550 C70 550 70 542 70 535 C70 520 77 520 78 520 L107 520 C115 520 115 512 115 505 L115 45 Z " />
<glyph glyph-name="J" unicode="J" horiz-adv-x="414" d="M149 -5 C224 -5 329 11 329 116 L329 534 C329 542 325 550 317 550 C293 550 190 547 183 545 C180 543 179 539 179 534 C179 525 181 520 185 520 L297 520 L297 119 C297 32 189 24 152 24 C131 24 96 27 45 39 C42 40 41 41 40 41 C37 41 35 40 32 37 C29 32 30 27 30 20 C30 -1 98 -5 149 -5 L149 -5 Z " />
<glyph glyph-name="K" unicode="K" horiz-adv-x="655" d="M514 13 C517 6 522 0 533 0 L587 0 C588 0 595 0 595 15 C595 22 594 30 585 30 L543 30 L386 279 L562 520 L586 520 C589 520 595 520 595 535 C595 543 593 550 584 550 L471 550 C462 550 460 543 460 535 C460 520 466 520 469 520 L522 520 L351 286 L147 286 L147 520 L196 520 C201 520 203 524 203 533 C203 549 199 550 196 550 L80 550 C71 550 70 542 70 535 C70 520 77 520 78 520 L107 520 C115 520 115 513 115 506 L115 44 C115 37 115 30 107 30 L78 30 C77 30 70 30 70 15 C70 8 71 0 80 0 L196 0 C199 0 203 1 203 17 C203 26 201 30 196 30 L147 30 L147 256 L362 256 L514 13 Z " />
<glyph glyph-name="L" unicode="L" horiz-adv-x="536" d="M115 30 L76 28 C72 28 70 23 70 14 C70 9 71 5 73 3 C82 1 96 0 117 0 L479 0 C490 3 491 18 491 29 C491 38 490 58 478 58 C473 58 461 58 461 54 L460 30 L147 30 L147 520 L185 520 C190 520 192 524 192 533 C192 549 188 550 185 550 L80 550 C71 550 70 542 70 535 C70 520 77 520 78 520 L107 520 C115 520 115 513 115 506 L115 30 Z " />
<glyph glyph-name="M" unicode="M" horiz-adv-x="830" d="M429 52 C434 52 440 55 443 63 L610 516 L677 30 L631 30 C626 30 624 26 624 17 C624 1 628 0 631 0 L750 0 C759 0 760 8 760 15 C760 30 753 30 752 30 L715 30 C712 30 710 31 710 33 L641 520 L714 523 C718 523 720 527 720 535 C720 541 719 545 716 547 C707 549 690 550 667 550 L599 550 C592 550 586 546 583 537 L415 79 L247 537 C244 546 238 550 231 550 L163 550 C139 550 123 549 114 547 C111 545 110 541 110 535 C110 527 112 523 116 523 L189 520 L120 33 C120 31 118 30 115 30 L78 30 C77 30 70 30 70 15 C70 8 71 0 80 0 L199 0 C202 0 206 1 206 17 C206 26 204 30 199 30 L153 30 L220 516 L387 63 C390 55 396 52 401 52 L429 52 Z " />
<glyph glyph-name="N" unicode="N" horiz-adv-x="674" d="M516 11 C520 4 531 0 538 0 L547 0 C552 0 564 2 564 17 L564 506 C564 513 564 520 572 520 L601 520 C602 520 609 520 609 535 C609 542 608 550 599 550 L482 550 C479 550 474 549 474 533 C474 524 477 520 482 520 L532 520 L532 46 L172 539 C167 546 161 550 153 550 L118 550 C94 550 78 549 69 547 C66 545 65 541 65 535 C65 526 67 522 71 522 L114 520 L114 44 C114 37 114 30 106 30 L73 30 C72 30 65 30 65 15 C65 8 66 0 75 0 L196 0 C199 0 203 1 203 17 C203 26 201 30 196 30 L146 30 L146 520 L516 11 Z " />
<glyph glyph-name="O" unicode="O" horiz-adv-x="590" d="M295 24 C234 24 102 24 102 164 L102 398 C102 523 244 523 296 523 C346 523 488 523 488 398 L488 164 C488 24 356 24 295 24 L295 24 Z M295 -5 C374 -5 520 1 520 162 L520 407 C520 539 374 555 295 555 C216 555 70 539 70 407 L70 162 C70 1 216 -5 295 -5 L295 -5 Z " />
<glyph glyph-name="P" unicode="P" horiz-adv-x="557" d="M152 250 L152 518 L337 518 C387 518 474 518 474 396 C474 333 473 250 326 250 L152 250 Z M152 30 L152 218 L324 218 C505 218 507 334 507 395 C507 519 431 550 339 550 L121 550 C98 550 82 549 73 547 C71 545 70 541 70 536 C70 527 72 522 76 522 L119 520 L119 44 C119 37 119 30 111 30 L78 30 C77 30 70 30 70 15 C70 8 71 0 80 0 L203 0 C206 0 210 1 210 17 C210 26 208 30 203 30 L152 30 Z " />
<glyph glyph-name="Q" unicode="Q" horiz-adv-x="590" d="M312 -5 C393 -2 520 12 520 162 L520 407 C520 539 374 555 295 555 C216 555 70 539 70 407 L70 162 C70 13 192 -2 274 -5 L332 -92 C335 -96 342 -104 351 -104 L434 -104 C437 -104 443 -103 443 -88 C443 -79 440 -75 433 -75 L372 -75 C361 -75 359 -72 352 -64 L312 -5 Z M295 24 C234 24 102 24 102 164 L102 398 C102 523 244 523 296 523 C346 523 488 523 488 398 L488 164 C488 24 356 24 295 24 L295 24 Z " />
<glyph glyph-name="R" unicode="R" horiz-adv-x="581" d="M152 250 L152 518 L345 518 C395 518 482 518 482 396 C482 333 481 250 334 250 L152 250 Z M439 13 C443 6 448 0 459 0 L519 0 C522 0 526 1 526 17 C526 26 524 30 519 30 L470 30 L351 218 C515 226 515 335 515 395 C515 519 439 550 347 550 L121 550 C98 550 82 549 73 547 C71 545 70 541 70 536 C70 527 72 522 76 522 L119 520 L119 44 C119 37 119 30 111 30 L78 30 C77 30 70 30 70 15 C70 8 71 0 80 0 L203 0 C206 0 210 1 210 17 C210 26 208 30 203 30 L152 30 L152 218 L311 218 L439 13 Z " />
<glyph glyph-name="S" unicode="S" horiz-adv-x="569" d="M286 -5 C386 -5 499 -6 499 133 C499 268 108 274 108 412 C108 477 153 523 286 523 C362 523 436 514 445 505 C448 496 456 488 467 488 C479 488 489 498 489 511 C489 520 485 526 477 531 C444 550 306 555 285 555 C180 555 76 519 76 412 C76 241 467 236 467 129 C467 25 367 25 286 25 L277 25 C218 25 105 50 105 70 L105 74 C105 78 97 81 89 81 C76 81 70 71 70 58 C70 3 259 -5 286 -5 L286 -5 Z " />
<glyph glyph-name="T" unicode="T" horiz-adv-x="569" d="M86 518 L270 518 L270 45 C270 38 270 30 262 30 L230 30 C229 30 222 30 222 15 C222 8 222 0 233 0 L340 0 C351 0 351 8 351 15 C351 30 344 30 343 30 L310 30 C302 30 302 38 302 45 L302 518 L483 518 L484 496 C484 492 496 492 501 492 C513 492 514 512 514 521 C514 532 513 547 502 550 L67 550 C56 547 55 532 55 521 C55 512 56 492 68 492 C73 492 85 492 85 496 L86 518 Z " />
<glyph glyph-name="U" unicode="U" horiz-adv-x="673" d="M530 163 C530 23 394 24 334 24 C278 24 143 23 143 163 L143 505 C143 512 143 520 151 520 L192 520 C193 520 200 520 200 535 C200 542 200 550 189 550 L76 550 C65 550 65 542 65 535 C65 520 72 520 73 520 L102 520 C110 520 110 512 110 505 L110 150 C110 3 255 -5 334 -5 C417 -5 563 3 563 150 L563 505 C563 512 563 520 571 520 L600 520 C601 520 608 520 608 535 C608 542 608 550 597 550 L484 550 C473 550 473 542 473 535 C473 520 480 520 481 520 L522 520 C530 520 530 512 530 505 L530 163 Z " />
<glyph glyph-name="V" unicode="V" horiz-adv-x="656" d="M328 0 C355 0 359 14 362 21 L567 520 L603 520 C604 520 611 520 611 535 C611 542 610 550 601 550 L478 550 C469 550 468 542 468 535 C468 520 475 520 476 520 L529 520 L328 29 L127 520 L180 520 C181 520 188 520 188 535 C188 542 187 550 178 550 L55 550 C46 550 45 542 45 535 C45 520 52 520 53 520 L89 520 L294 21 C297 14 301 0 328 0 L328 0 Z " />
<glyph glyph-name="W" unicode="W" horiz-adv-x="886" d="M438 469 C419 469 415 459 414 455 L264 30 L141 520 L217 520 C218 520 225 520 225 535 C225 542 224 550 215 550 L65 550 C56 550 55 542 55 535 C55 520 62 520 63 520 L108 520 L235 18 C236 11 239 0 263 0 C287 0 291 11 292 18 L443 441 L594 18 C595 11 599 0 623 0 C647 0 650 11 651 18 L778 520 L823 520 C824 520 831 520 831 535 C831 542 830 550 821 550 L671 550 C662 550 661 542 661 535 C661 520 668 520 669 520 L745 520 L622 30 L472 455 C471 459 467 469 448 469 L438 469 Z " />
<glyph glyph-name="X" unicode="X" horiz-adv-x="680" d="M340 238 L514 30 L453 30 C450 30 445 30 445 15 C445 8 446 0 454 0 L606 0 C614 0 615 8 615 15 C615 30 610 30 607 30 L558 30 L366 260 L565 520 L607 520 C610 520 615 520 615 535 C615 542 614 550 606 550 L454 550 C446 550 445 542 445 535 C445 520 450 520 453 520 L522 520 L340 281 L158 520 L227 520 C230 520 235 520 235 535 C235 542 234 550 226 550 L74 550 C66 550 65 542 65 535 C65 520 70 520 73 520 L115 520 L314 260 L122 30 L73 30 C70 30 65 30 65 15 C65 8 66 0 74 0 L226 0 C234 0 235 8 235 15 C235 30 230 30 227 30 L166 30 L340 238 Z " />
<glyph glyph-name="Y" unicode="Y" horiz-adv-x="644" d="M306 45 C306 38 306 30 298 30 L267 30 C266 30 259 30 259 15 C259 8 259 0 270 0 L373 0 C384 0 384 8 384 15 C384 30 377 30 376 30 L346 30 C338 30 338 38 338 45 L338 213 L553 520 L591 520 C592 520 599 520 599 535 C599 542 598 550 589 550 L437 550 C428 550 427 542 427 535 C427 520 434 520 435 520 L515 520 L322 247 L129 520 L209 520 C210 520 217 520 217 535 C217 542 216 550 207 550 L55 550 C46 550 45 542 45 535 C45 520 52 520 53 520 L91 520 L306 214 L306 45 Z " />
<glyph glyph-name="Z" unicode="Z" horiz-adv-x="551" d="M467 0 C480 3 481 15 481 28 C481 39 480 56 465 56 C458 56 450 56 449 49 L447 30 L115 30 L475 512 C479 517 481 523 481 529 C481 542 471 550 456 550 L84 550 C71 547 70 535 70 522 C70 511 71 494 86 494 C93 494 101 494 102 501 L104 518 L440 518 L79 36 C71 29 70 23 70 16 C70 3 79 0 94 0 L467 0 Z " />
<glyph glyph-name="bracketleft" unicode="&#x5b;" horiz-adv-x="287" d="M80 -40 C80 -47 85 -53 90 -53 L197 -53 C202 -53 207 -47 207 -40 C207 -24 200 -23 197 -23 L112 -23 L112 525 L197 525 C200 525 207 526 207 542 C207 549 202 555 197 555 L90 555 C85 555 80 549 80 542 L80 -40 Z " />
<glyph glyph-name="backslash" unicode="&#x5c;" horiz-adv-x="407" d="M294 -45 C297 -49 300 -54 311 -54 C321 -54 326 -51 327 -45 L113 551 C110 555 107 560 96 560 C86 560 81 557 80 551 L294 -45 Z " />
<glyph glyph-name="bracketright" unicode="&#x5d;" horiz-adv-x="287" d="M207 542 C207 549 202 555 197 555 L90 555 C85 555 80 549 80 542 C80 526 87 525 90 525 L175 525 L175 -23 L90 -23 C87 -23 80 -24 80 -40 C80 -47 85 -53 90 -53 L197 -53 C202 -53 207 -47 207 -40 L207 542 Z " />
<glyph glyph-name="asciicircum" unicode="&#x5e;" horiz-adv-x="424" d="M200 555 C193 555 187 552 184 546 L80 353 C81 347 86 344 96 344 C107 344 113 349 116 353 L212 533 L308 353 C311 349 317 344 328 344 C338 344 343 347 344 353 L240 546 C237 552 231 555 224 555 L200 555 Z " />
<glyph glyph-name="underscore" unicode="&#x5f;" horiz-adv-x="498" d="M408 -81 C413 -81 418 -73 418 -66 C418 -51 411 -49 408 -49 L90 -49 C87 -49 80 -51 80 -66 C80 -73 85 -81 90 -81 L408 -81 Z " />
<glyph glyph-name="grave" unicode="&#x60;" horiz-adv-x="204" d="M119 542 C119 549 115 555 98 555 C89 555 80 550 80 543 L107 426 C107 423 110 421 115 421 C121 421 124 423 124 426 L119 542 Z " />
<glyph glyph-name="a" unicode="a" horiz-adv-x="481" d="M357 102 C306 58 239 25 184 25 C157 25 92 25 92 93 L92 100 C92 181 299 192 357 192 L357 102 Z M357 23 C357 4 374 0 389 0 C402 0 426 1 426 19 C426 26 424 30 420 30 L389 30 L389 279 C389 396 293 407 216 407 C195 407 112 404 80 385 C72 380 68 374 68 365 C68 352 78 342 90 342 C101 342 109 350 112 359 C121 368 186 375 216 375 C262 375 357 375 357 282 L357 227 C208 214 60 196 60 100 L60 82 C60 18 105 -5 169 -5 C204 -5 272 -5 357 62 L357 23 Z " />
<glyph glyph-name="b" unicode="b" horiz-adv-x="489" d="M392 118 C392 25 336 25 262 25 C214 25 127 57 127 135 L127 295 C141 355 232 375 265 375 C306 375 392 368 392 279 L392 118 Z M95 11 C95 4 98 0 105 0 L118 0 C124 0 127 5 127 16 L127 52 C162 0 230 -5 258 -5 C329 -5 424 -5 424 115 L424 292 C424 384 343 407 271 407 C261 407 175 407 127 356 L127 537 C127 546 123 550 115 550 C91 550 62 547 53 544 C51 543 50 539 50 533 C50 524 52 520 56 520 L95 520 L95 11 Z " />
<glyph glyph-name="c" unicode="c" horiz-adv-x="448" d="M243 -5 C293 -5 383 9 383 30 C383 37 384 42 381 47 C378 50 376 51 373 51 C372 51 371 50 368 49 C326 25 265 25 244 25 C172 25 97 28 97 121 L97 283 C97 374 201 375 244 375 C270 375 336 366 342 364 C345 354 352 349 362 349 C374 349 383 358 383 370 C383 378 379 384 372 388 C345 399 266 407 246 407 C166 407 65 388 65 286 L65 110 C65 1 163 -5 243 -5 L243 -5 Z " />
<glyph glyph-name="d" unicode="d" horiz-adv-x="486" d="M97 279 C97 368 183 375 224 375 C257 375 348 355 362 295 L362 135 C362 57 275 25 227 25 C153 25 97 25 97 118 L97 279 Z M362 23 C362 4 379 0 394 0 C407 0 431 1 431 19 C431 26 429 30 425 30 L394 30 L394 537 C394 546 390 550 382 550 C358 550 329 547 320 544 C318 543 317 539 317 533 C317 524 319 520 323 520 L362 520 L362 356 C314 407 228 407 218 407 C146 407 65 384 65 292 L65 115 C65 -5 160 -5 231 -5 C260 -5 324 1 362 52 L362 23 Z " />
<glyph glyph-name="e" unicode="e" horiz-adv-x="458" d="M231 407 C154 407 65 388 65 286 L65 122 C65 8 173 -5 252 -5 C302 -5 376 2 376 22 C376 29 377 34 374 39 C371 42 369 43 366 43 C365 43 364 42 361 41 C321 28 272 25 251 25 C211 25 97 31 97 122 L97 187 L375 187 C387 187 393 197 393 208 L393 286 C393 388 304 407 231 407 L231 407 Z M361 218 L97 218 L97 282 C97 372 190 375 231 375 C274 375 361 372 361 282 L361 218 Z " />
<glyph glyph-name="f" unicode="f" horiz-adv-x="321" d="M250 368 C251 368 258 368 258 385 C258 393 255 400 250 400 L157 400 L157 442 C157 526 184 540 241 540 C252 540 274 539 279 539 C283 539 286 556 286 559 C286 571 261 572 245 572 C173 572 125 551 125 444 L125 400 L58 400 C53 400 50 393 50 385 C50 368 57 368 58 368 L125 368 L125 44 C125 37 125 30 117 30 L90 30 C89 30 82 30 82 15 C82 8 83 0 92 0 L224 0 C227 0 231 1 231 17 C231 26 229 30 224 30 L157 30 L157 368 L250 368 Z " />
<glyph glyph-name="g" unicode="g" horiz-adv-x="489" d="M97 279 C97 368 183 375 224 375 C257 375 348 355 362 295 L362 135 C362 57 275 25 227 25 C153 25 97 25 97 118 L97 279 Z M207 -182 C284 -182 394 -175 394 -64 L394 370 L433 370 C437 370 439 374 439 383 C439 389 438 393 436 394 C427 397 398 400 374 400 C366 400 362 396 362 387 L362 356 C314 407 228 407 218 407 C146 407 65 384 65 292 L65 115 C65 -5 160 -5 231 -5 C260 -5 324 1 362 52 L362 -61 C362 -151 249 -151 210 -151 C189 -151 140 -148 100 -135 C97 -134 96 -133 95 -133 C92 -133 90 -134 87 -137 C84 -142 85 -147 85 -154 C85 -175 156 -182 207 -182 L207 -182 Z " />
<glyph glyph-name="h" unicode="h" horiz-adv-x="539" d="M358 30 C353 30 351 26 351 17 C351 1 355 0 358 0 L474 0 C483 0 484 8 484 15 C484 30 477 30 476 30 L446 30 C438 30 438 37 438 44 L438 288 C438 368 384 407 291 407 C264 407 198 406 143 361 L143 537 C143 546 139 550 131 550 C107 550 77 547 68 544 C66 543 65 539 65 533 C65 524 67 520 71 520 L111 520 L111 44 C111 37 111 30 103 30 L73 30 C72 30 65 30 65 15 C65 8 66 0 75 0 L191 0 C194 0 198 1 198 17 C198 26 196 30 191 30 L143 30 L143 320 C174 354 236 375 288 375 C401 375 406 307 406 291 L406 30 L358 30 Z " />
<glyph glyph-name="i" unicode="i" horiz-adv-x="249" d="M87 465 C87 450 98 439 113 439 C128 439 140 450 140 465 C140 480 128 492 113 492 C98 492 87 480 87 465 L87 465 Z M108 370 L108 45 C108 38 108 30 100 30 L73 30 C72 30 65 30 65 15 C65 8 65 0 76 0 L173 0 C184 0 184 8 184 15 C184 30 177 30 176 30 L148 30 C140 30 140 38 140 45 L140 387 C140 396 136 400 128 400 C104 400 77 397 68 394 C66 393 65 389 65 383 C65 374 67 370 71 370 L108 370 Z " />
<glyph glyph-name="j" unicode="j" horiz-adv-x="260" d="M122 465 C122 450 133 439 148 439 C163 439 175 450 175 465 C175 480 163 492 148 492 C133 492 122 480 122 465 L122 465 Z M58 -151 C51 -151 35 -152 30 -149 C23 -149 20 -162 20 -167 C20 -174 22 -179 26 -180 C34 -182 44 -183 56 -183 C128 -183 175 -168 175 -50 L175 387 C175 396 171 400 163 400 C139 400 82 397 74 394 C68 393 65 389 65 383 C65 374 67 370 71 370 L143 370 L143 -48 C143 -133 119 -151 58 -151 L58 -151 Z " />
<glyph glyph-name="k" unicode="k" horiz-adv-x="527" d="M391 370 L309 231 L144 231 L144 537 C144 546 140 550 132 550 C108 550 77 547 68 544 C66 543 65 539 65 533 C65 524 67 520 71 520 L112 520 L112 44 C112 37 112 30 104 30 L73 30 C72 30 65 30 65 15 C65 8 66 0 75 0 L192 0 C195 0 200 1 200 17 C200 26 198 30 193 30 L144 30 L144 199 L315 199 L407 9 C410 6 411 0 420 0 L459 0 C468 0 469 8 469 15 C469 30 462 30 461 30 L434 30 L341 223 L428 370 L461 370 C464 370 469 375 469 383 C469 398 464 400 461 400 L334 400 C331 400 326 398 326 383 C326 375 331 370 334 370 L391 370 Z " />
<glyph glyph-name="l" unicode="l" horiz-adv-x="249" d="M140 537 C140 546 136 550 128 550 C104 550 77 547 69 544 C66 543 65 540 65 533 C65 524 67 520 71 520 L108 520 L108 45 C108 38 108 30 100 30 L73 30 C72 30 65 30 65 15 C65 8 65 0 76 0 L173 0 C184 0 184 8 184 15 C184 30 177 30 176 30 L148 30 C140 30 140 38 140 45 L140 537 Z " />
<glyph glyph-name="m" unicode="m" horiz-adv-x="725" d="M308 30 C303 30 301 26 301 17 C301 1 305 0 308 0 L424 0 C433 0 434 8 434 15 C434 30 427 30 426 30 L393 30 C385 30 385 37 385 44 L385 311 C401 362 445 375 494 375 C506 375 594 374 594 281 L594 30 L549 30 C544 30 542 26 542 17 C542 1 546 0 549 0 L660 0 C669 0 670 8 670 15 C670 30 663 30 662 30 L634 30 C626 30 626 37 626 44 L626 284 C626 377 560 407 488 407 C478 407 401 407 366 351 C331 407 284 407 253 407 C235 407 174 408 142 360 L142 387 C142 396 138 400 131 400 C107 400 77 397 68 394 C66 393 65 389 65 383 C65 374 67 370 71 370 L110 370 L110 44 C110 37 110 30 102 30 L73 30 C72 30 65 30 65 15 C65 8 66 0 75 0 L187 0 C190 0 194 1 194 17 C194 26 192 30 187 30 L142 30 L142 299 C155 358 202 375 253 375 C272 374 288 371 303 364 C328 353 353 333 353 290 L353 30 L308 30 Z " />
<glyph glyph-name="n" unicode="n" horiz-adv-x="539" d="M143 387 C143 396 139 400 131 400 C107 400 77 397 68 394 C66 393 65 389 65 383 C65 374 67 370 71 370 L111 370 L111 44 C111 37 111 30 103 30 L73 30 C72 30 65 30 65 15 C65 8 66 0 75 0 L191 0 C194 0 198 1 198 17 C198 26 196 30 191 30 L143 30 L143 320 C174 354 236 375 288 375 C401 375 406 307 406 291 L406 30 L358 30 C353 30 351 26 351 17 C351 1 355 0 358 0 L474 0 C483 0 484 8 484 15 C484 30 477 30 476 30 L446 30 C438 30 438 37 438 44 L438 288 C438 368 384 407 291 407 C264 407 198 406 143 361 L143 387 Z " />
<glyph glyph-name="o" unicode="o" horiz-adv-x="462" d="M231 25 C192 25 97 31 97 122 L97 279 C97 368 192 375 231 375 C270 375 365 368 365 279 L365 122 C365 31 270 25 231 25 L231 25 Z M231 -5 C306 -5 397 17 397 110 L397 282 C397 384 306 407 231 407 C156 407 65 384 65 282 L65 110 C65 17 156 -5 231 -5 L231 -5 Z " />
<glyph glyph-name="p" unicode="p" horiz-adv-x="506" d="M288 407 C278 407 192 407 144 356 L144 387 C144 396 140 400 132 400 C108 400 79 397 70 394 C68 393 67 389 67 383 C67 374 69 370 73 370 L112 370 L112 -129 C112 -136 112 -143 104 -143 L74 -143 C73 -143 65 -143 65 -158 C65 -165 67 -173 76 -173 L192 -173 C195 -173 199 -172 199 -156 C199 -147 197 -143 192 -143 L144 -143 L144 52 C179 0 247 -5 275 -5 C346 -5 441 -5 441 115 L441 292 C441 384 360 407 288 407 L288 407 Z M409 118 C409 25 353 25 279 25 C231 25 144 57 144 135 L144 295 C158 355 249 375 282 375 C323 375 409 368 409 279 L409 118 Z " />
<glyph glyph-name="q" unicode="q" horiz-adv-x="491" d="M97 279 C97 368 183 375 224 375 C257 375 348 355 362 295 L362 135 C362 57 275 25 227 25 C153 25 97 25 97 118 L97 279 Z M394 384 C394 395 391 400 385 400 L372 400 C365 400 362 396 362 389 L362 356 C314 407 228 407 218 407 C146 407 65 384 65 292 L65 115 C65 -5 160 -5 231 -5 C260 -5 324 1 362 52 L362 -143 L314 -143 C309 -143 307 -147 307 -156 C307 -172 311 -173 314 -173 L430 -173 C439 -173 441 -165 441 -158 C441 -143 433 -143 432 -143 L402 -143 C394 -143 394 -136 394 -129 L394 384 Z " />
<glyph glyph-name="r" unicode="r" horiz-adv-x="356" d="M112 44 C112 37 112 30 104 30 L74 30 C73 30 65 30 65 15 C65 8 67 0 76 0 L219 0 C222 0 226 1 226 17 C226 26 224 30 219 30 L144 30 L144 309 C165 327 221 358 269 363 C273 356 283 353 291 353 C306 353 316 362 316 377 C316 390 305 402 290 402 C261 402 181 374 144 348 L144 387 C144 396 140 400 132 400 C108 400 78 397 69 394 C66 393 65 389 65 383 C65 374 67 370 72 370 L112 370 L112 44 Z " />
<glyph glyph-name="s" unicode="s" horiz-adv-x="436" d="M231 -5 C304 -5 381 10 381 87 L381 102 C381 202 100 194 92 289 L92 298 C92 348 128 375 241 375 L245 375 C272 375 313 367 320 365 C323 354 330 349 340 349 C352 349 361 358 361 370 C361 379 357 385 350 389 C323 400 258 407 238 407 C161 407 60 401 60 304 L60 284 C60 165 349 166 349 97 L349 87 C349 26 270 25 230 25 C193 25 97 38 97 53 L97 57 C97 61 89 64 81 64 C66 64 61 55 61 40 C61 5 174 -5 231 -5 L231 -5 Z " />
<glyph glyph-name="t" unicode="t" horiz-adv-x="310" d="M267 26 C258 25 245 25 238 25 C181 25 152 42 152 125 L152 368 L254 368 C255 368 262 368 262 385 C262 393 259 400 254 400 L152 400 L152 539 C152 546 148 550 141 550 L129 550 C123 550 120 546 120 539 L120 400 L48 400 C43 400 40 393 40 385 C40 368 47 368 48 368 L120 368 L120 119 C120 12 167 -5 236 -5 C248 -5 261 -4 272 -3 C274 1 275 5 275 9 C275 15 272 21 267 26 L267 26 Z " />
<glyph glyph-name="u" unicode="u" horiz-adv-x="515" d="M383 23 C383 4 405 0 420 0 C433 0 460 1 460 19 C460 26 458 30 454 30 L415 30 L415 387 C415 396 411 400 403 400 C379 400 348 397 339 394 C337 393 336 389 336 383 C336 374 338 370 342 370 L383 370 L383 109 C338 58 253 25 216 25 C121 25 119 76 119 104 L119 387 C119 396 115 400 107 400 C83 400 52 397 43 394 C41 393 40 389 40 383 C40 374 42 370 46 370 L87 370 L87 110 C87 30 117 -5 212 -5 C269 -5 339 24 383 64 L383 23 Z " />
<glyph glyph-name="v" unicode="v" horiz-adv-x="506" d="M253 0 C281 0 284 14 287 21 L426 368 L462 368 C465 368 471 368 471 384 C471 392 471 400 460 400 L332 400 C321 400 321 392 321 384 C321 368 327 368 330 368 L392 368 L253 25 L114 368 L176 368 C179 368 185 368 185 384 C185 392 185 400 174 400 L46 400 C35 400 35 392 35 384 C35 368 41 368 44 368 L80 368 L219 21 C222 14 225 0 253 0 L253 0 Z " />
<glyph glyph-name="w" unicode="w" horiz-adv-x="636" d="M312 298 C301 298 295 296 290 285 L183 25 L114 368 L163 368 C166 368 172 368 172 384 C172 392 172 400 161 400 L53 400 C42 400 42 392 42 384 C42 368 48 368 51 368 L81 368 L153 19 C154 12 157 0 184 0 C209 0 212 12 215 19 L318 268 L421 19 C424 12 427 0 452 0 C479 0 482 12 483 19 L555 368 L585 368 C588 368 594 368 594 384 C594 392 594 400 583 400 L475 400 C464 400 464 392 464 384 C464 368 470 368 473 368 L522 368 L453 25 L346 285 C341 296 335 298 324 298 L312 298 Z " />
<glyph glyph-name="x" unicode="x" horiz-adv-x="522" d="M261 177 L374 5 C376 2 379 0 383 0 L452 0 C461 0 462 8 462 16 C462 31 456 30 453 30 L397 30 L285 198 L398 368 L453 368 C456 368 462 368 462 383 C462 392 462 400 451 400 L387 400 C383 400 380 398 378 395 L261 219 L144 395 C142 398 139 400 135 400 L71 400 C60 400 60 392 60 383 C60 368 66 368 69 368 L124 368 L237 198 L125 30 L69 30 C66 30 60 31 60 16 C60 8 61 0 70 0 L139 0 C143 0 146 2 148 5 L261 177 Z " />
<glyph glyph-name="y" unicode="y" horiz-adv-x="529" d="M267 18 L124 368 L180 368 C183 368 189 368 189 384 C189 392 189 400 178 400 L56 400 C45 400 45 392 45 384 C45 368 51 368 54 368 L90 368 L249 -29 L229 -80 C205 -140 172 -141 144 -141 L123 -141 C114 -141 109 -148 109 -156 C109 -160 111 -169 114 -170 C131 -173 141 -172 154 -172 C188 -172 236 -156 260 -92 L439 368 L475 368 C478 368 484 368 484 384 C484 392 484 400 473 400 L351 400 C340 400 340 392 340 384 C340 368 346 368 349 368 L405 368 L267 18 Z " />
<glyph glyph-name="z" unicode="z" horiz-adv-x="453" d="M113 30 L381 361 C386 366 388 371 388 378 C388 393 378 400 363 400 L78 400 C66 397 65 385 65 372 C65 361 66 345 81 345 C88 345 100 345 101 352 L103 368 L346 368 L78 39 C73 34 71 29 71 22 C71 7 81 0 96 0 L374 0 C386 3 387 15 387 28 C387 39 386 55 371 55 C364 55 352 55 351 48 L349 30 L113 30 Z " />
<glyph glyph-name="braceleft" unicode="&#x7b;" horiz-adv-x="347" d="M96 272 C89 272 80 262 80 251 C80 231 92 227 95 227 C118 219 136 202 136 169 L136 49 C136 -20 154 -54 222 -54 L257 -54 C260 -54 267 -53 267 -37 C267 -30 262 -24 257 -24 L234 -24 C182 -24 168 -11 168 45 L168 139 C168 170 167 213 124 248 C167 283 168 327 168 358 L168 462 C168 517 180 530 234 530 L257 530 C260 530 267 531 267 547 C267 554 262 560 257 560 L222 560 C154 560 136 528 136 459 L136 329 C136 297 119 280 96 272 L96 272 Z " />
<glyph glyph-name="bar" unicode="&#x7c;" horiz-adv-x="192" d="M80 -40 C80 -45 87 -53 95 -53 C111 -53 112 -43 112 -40 L112 547 C112 550 111 560 95 560 C87 560 80 552 80 547 L80 -40 Z " />
<glyph glyph-name="braceright" unicode="&#x7d;" horiz-adv-x="347" d="M251 272 C228 280 211 297 211 329 L211 459 C211 528 193 560 125 560 L90 560 C85 560 80 554 80 547 C80 531 87 530 90 530 L113 530 C167 530 179 517 179 462 L179 358 C179 328 179 282 223 248 C179 214 179 169 179 139 L179 45 C179 -11 165 -24 113 -24 L90 -24 C85 -24 80 -30 80 -37 C80 -53 87 -54 90 -54 L125 -54 C193 -54 211 -20 211 49 L211 169 C211 202 229 219 252 227 C255 227 267 231 267 251 C267 262 258 272 251 272 L251 272 Z " />
<glyph glyph-name="asciitilde" unicode="&#x7e;" horiz-adv-x="479" d="M164 199 C216 199 259 163 309 163 C340 163 366 173 399 198 C399 210 393 218 380 223 C353 204 329 195 309 195 C256 195 215 231 164 231 C133 231 108 220 80 200 C80 185 87 180 98 175 C123 190 149 199 164 199 L164 199 Z " />
<glyph glyph-name="uni00A0" unicode="&#xa0;" horiz-adv-x="207" d="" />
<glyph glyph-name="exclamdown" unicode="&#xa1;" horiz-adv-x="203" d="M114 270 C114 275 110 278 101 278 C92 278 88 275 88 270 C85 123 83 -15 80 -162 C80 -169 89 -175 100 -175 C111 -175 120 -169 120 -162 C117 -15 117 123 114 270 L114 270 Z M80 365 C80 353 89 343 101 343 C113 343 123 353 123 365 C123 377 113 386 101 386 C89 386 80 377 80 365 L80 365 Z " />
<glyph glyph-name="cent" unicode="&#xa2;" horiz-adv-x="478" d="M223 -55 C223 -60 230 -68 238 -68 C254 -68 255 -58 255 -55 L255 -5 C308 -5 398 9 398 30 C398 37 399 42 396 47 C393 50 391 51 388 51 C387 51 386 50 383 49 C341 25 280 25 259 25 C187 25 112 28 112 121 L112 283 C112 374 216 375 259 375 C285 375 351 366 357 364 C360 354 367 349 377 349 C389 349 398 358 398 370 C398 378 394 384 387 388 C360 399 281 407 261 407 L255 407 L255 461 C255 464 254 474 238 474 C230 474 223 466 223 461 L223 405 C152 400 80 371 80 286 L80 110 C80 17 152 -1 223 -4 L223 -55 Z " />
<glyph glyph-name="sterling" unicode="&#xa3;" horiz-adv-x="581" d="M488 58 C483 58 471 58 471 54 L470 30 L157 30 L157 244 L281 244 C285 244 290 251 290 258 C290 273 282 274 281 274 L157 274 L157 434 C157 524 270 524 309 524 C328 524 376 520 413 512 C418 511 421 510 422 510 C425 510 428 512 431 515 C433 519 434 524 434 531 C434 536 433 538 432 539 C389 553 325 555 312 555 C235 555 125 550 125 438 L125 274 L89 274 C88 274 80 273 80 258 C80 251 85 244 89 244 L125 244 L125 30 L86 28 C82 28 80 23 80 14 C80 9 81 5 83 3 C92 1 106 0 127 0 L489 0 C500 3 501 18 501 29 C501 38 500 58 488 58 L488 58 Z " />
<glyph glyph-name="currency" unicode="&#xa4;" horiz-adv-x="536" d="M268 116 C206 116 160 167 160 226 C160 290 206 343 268 343 C330 343 376 290 376 226 C376 167 330 116 268 116 L268 116 Z M268 86 C295 86 335 95 364 122 C427 57 430 57 430 57 C445 57 453 65 453 81 L386 148 C401 173 408 204 408 227 C408 246 404 278 389 305 L456 371 C454 388 445 396 430 396 L367 334 C342 358 316 375 268 375 C220 375 194 358 169 334 L106 396 C91 396 82 388 80 371 L147 305 C132 278 128 246 128 227 C128 204 135 173 150 148 L83 81 C83 65 91 57 106 57 C106 57 109 57 172 122 C201 95 241 86 268 86 L268 86 Z " />
<glyph glyph-name="yen" unicode="&#xa5;" horiz-adv-x="714" d="M497 140 C502 140 507 148 507 155 C507 170 500 172 497 172 L373 172 L373 213 L405 259 L497 259 C502 259 507 267 507 274 C507 289 500 291 497 291 L427 291 L588 520 L626 520 C627 520 634 520 634 535 C634 542 633 550 624 550 L472 550 C463 550 462 542 462 535 C462 520 469 520 470 520 L550 520 L357 247 L164 520 L244 520 C245 520 252 520 252 535 C252 542 251 550 242 550 L90 550 C81 550 80 542 80 535 C80 520 87 520 88 520 L126 520 L287 291 L217 291 C214 291 207 289 207 274 C207 267 212 259 217 259 L309 259 L341 214 L341 172 L217 172 C214 172 207 170 207 155 C207 148 212 140 217 140 L341 140 L341 45 C341 38 341 30 333 30 L302 30 C301 30 294 30 294 15 C294 8 294 0 305 0 L408 0 C419 0 419 8 419 15 C419 30 412 30 411 30 L381 30 C373 30 373 38 373 45 L373 140 L497 140 Z " />
<glyph glyph-name="brokenbar" unicode="&#xa6;" horiz-adv-x="192" d="M80 -47 C80 -52 87 -60 95 -60 C111 -60 112 -50 112 -47 L112 189 C112 192 111 202 95 202 C87 202 80 194 80 189 L80 -47 Z M80 340 C80 335 87 327 95 327 C111 327 112 337 112 340 L112 576 C112 579 111 589 95 589 C87 589 80 581 80 576 L80 340 Z " />
<glyph glyph-name="section" unicode="&#xa7;" horiz-adv-x="537" d="M425 215 C425 154 346 153 306 153 C291 153 257 152 217 163 C162 181 115 203 112 241 L112 250 C112 299 143 318 191 318 C338 318 425 259 425 225 L425 215 Z M321 503 C348 503 389 495 396 493 C399 482 406 477 416 477 C428 477 437 486 437 498 C437 507 433 513 426 517 C399 528 334 535 314 535 C237 535 136 529 136 432 L136 412 C136 387 154 363 173 351 C125 340 80 315 80 254 L80 236 C80 117 369 118 369 49 L369 39 C369 -22 290 -23 250 -23 C213 -23 117 -10 117 5 L117 9 C117 13 109 16 101 16 C86 16 81 7 81 -8 C81 -43 194 -53 251 -53 C324 -53 401 -38 401 39 L401 54 C401 86 372 107 332 124 C397 127 457 148 457 215 L457 229 C457 346 168 333 168 417 L168 426 C168 476 204 503 317 503 L321 503 Z " />
<glyph glyph-name="dieresis" unicode="&#xa8;" horiz-adv-x="350" d="M80 533 C80 521 89 512 101 512 C113 512 123 521 123 533 C123 545 113 555 101 555 C89 555 80 545 80 533 L80 533 Z M227 533 C227 521 236 512 248 512 C260 512 270 521 270 533 C270 545 260 555 248 555 C236 555 227 545 227 533 L227 533 Z " />
<glyph glyph-name="copyright" unicode="&#xa9;" horiz-adv-x="720" d="M360 555 C205 555 80 430 80 275 C80 120 205 -5 360 -5 C515 -5 640 120 640 275 C640 430 515 555 360 555 L360 555 Z M360 22 C221 22 107 136 107 275 C107 416 221 530 360 530 C501 530 615 416 615 275 C615 136 501 22 360 22 L360 22 Z M368 115 C388 115 472 117 472 138 C472 145 472 153 469 156 C469 159 465 160 464 160 C461 160 458 159 455 156 C442 148 393 146 371 146 L362 146 C338 146 261 155 261 200 L261 333 C261 386 338 394 362 394 L373 394 C386 394 420 389 430 384 C429 381 428 378 428 375 C428 364 438 354 451 354 C467 354 472 371 472 383 C472 397 465 407 452 412 C431 420 395 427 363 427 C304 427 225 413 225 329 L225 203 C225 127 308 115 368 115 L368 115 Z " />
<glyph glyph-name="ordfeminine" unicode="&#xaa;" horiz-adv-x="386" d="M259 349 C240 328 188 317 161 317 C132 317 106 327 106 348 L106 369 C106 413 231 419 259 419 L259 349 Z M262 308 C262 297 277 297 285 297 C294 297 306 298 306 309 C306 314 305 317 303 317 L285 317 L285 482 C285 544 236 555 185 555 C169 555 108 550 97 542 C91 537 88 532 88 527 C88 515 94 509 105 509 C113 509 118 513 121 522 C136 527 175 530 180 530 L186 530 C206 530 259 530 259 489 L259 445 C174 437 80 426 80 366 L80 353 C80 307 117 294 160 294 C184 294 228 296 262 322 L262 308 Z " />
<glyph glyph-name="guillemotleft" unicode="&#xab;" horiz-adv-x="467" d="M111 194 L219 374 C215 379 212 382 200 382 C192 382 185 380 182 375 L87 213 C82 207 80 201 80 195 C80 189 82 183 85 178 L182 13 C185 8 192 6 200 6 C212 6 215 9 219 14 L111 194 Z M279 194 L387 374 C383 379 380 382 368 382 C360 382 353 380 350 375 L255 213 C250 207 248 201 248 195 C248 189 250 183 253 178 L350 13 C353 8 360 6 368 6 C380 6 383 9 387 14 L279 194 Z " />
<glyph glyph-name="logicalnot" unicode="&#xac;" horiz-adv-x="550" d="M438 76 C438 69 444 62 452 62 C471 62 470 73 470 76 L470 206 C470 209 470 220 451 220 L90 220 C87 220 80 219 80 202 C80 195 85 188 90 188 L438 188 L438 76 Z " />
<glyph glyph-name="uni00AD" unicode="&#xad;" horiz-adv-x="513" d="" />
<glyph glyph-name="registered" unicode="&#xae;" horiz-adv-x="720" d="M360 555 C205 555 80 430 80 275 C80 120 205 -5 360 -5 C515 -5 640 120 640 275 C640 430 515 555 360 555 L360 555 Z M360 22 C221 22 107 136 107 275 C107 416 221 530 360 530 C501 530 615 416 615 275 C615 136 501 22 360 22 L360 22 Z M295 394 L378 394 C393 394 453 394 453 338 C453 300 451 268 375 268 L295 268 L295 394 Z M433 127 C437 122 443 115 454 115 L488 115 C492 115 496 116 496 132 C496 141 493 145 488 145 L459 145 L405 236 C489 244 489 303 489 339 C489 404 439 427 397 427 L284 427 C259 427 243 426 235 423 C233 423 232 420 232 413 C232 404 234 399 238 399 L259 397 L259 159 C259 152 259 145 252 145 L240 145 C239 145 232 145 232 130 C232 122 234 115 242 115 L317 115 C321 115 325 116 325 132 C325 139 322 145 317 145 L295 145 L295 236 L365 236 L433 127 Z " />
<glyph glyph-name="macron" unicode="&#xaf;" horiz-adv-x="508" d="M418 523 C423 523 428 531 428 538 C428 553 421 555 418 555 L90 555 C87 555 80 553 80 538 C80 531 85 523 90 523 L418 523 Z " />
<glyph glyph-name="degree" unicode="&#xb0;" horiz-adv-x="366" d="M182 555 C126 555 80 507 80 451 C80 395 126 349 182 349 C241 349 286 395 286 451 C286 507 241 555 182 555 L182 555 Z M182 382 C143 382 113 413 113 452 C113 493 143 524 182 524 C225 524 255 493 255 452 C255 413 225 382 182 382 L182 382 Z " />
<glyph glyph-name="plusminus" unicode="&#xb1;" horiz-adv-x="490" d="M230 139 C230 135 237 129 246 129 C255 129 262 135 262 139 L262 296 L401 296 C404 296 410 297 410 313 C410 321 406 328 401 328 L262 328 L262 479 C262 483 255 489 246 489 C237 489 230 483 230 479 L230 328 L89 328 C84 328 80 321 80 313 C80 297 86 296 89 296 L230 296 L230 139 Z M400 0 C405 0 410 8 410 15 C410 30 403 32 400 32 L90 32 C87 32 80 30 80 15 C80 8 85 0 90 0 L400 0 Z " />
<glyph glyph-name="twosuperior" unicode="&#xb2;" horiz-adv-x="344" d="M170 529 C223 529 228 510 228 483 C228 446 80 365 80 340 L80 326 C80 321 86 315 91 315 L253 315 C264 318 264 321 264 328 C264 339 263 354 251 354 C246 354 239 352 239 347 L238 338 L111 338 C211 421 258 447 258 482 C258 545 211 555 169 555 C138 555 101 545 94 545 C83 540 82 533 82 522 C82 513 83 506 94 506 C101 506 104 507 104 510 L106 519 C108 521 150 529 170 529 L170 529 Z " />
<glyph glyph-name="threesuperior" unicode="&#xb3;" horiz-adv-x="346" d="M168 443 C164 443 159 438 159 431 C159 419 167 418 170 418 L183 418 C226 418 236 398 236 375 C236 343 207 332 166 332 C161 332 127 332 107 343 C105 350 100 353 93 353 C82 353 80 344 80 337 C81 330 86 327 89 324 C101 312 153 310 165 310 C206 310 266 312 266 375 C266 386 265 413 238 428 C263 451 266 469 266 486 C266 533 227 555 167 555 C152 555 105 554 91 540 C88 537 82 533 81 526 C81 518 83 506 96 506 C103 506 108 510 111 519 C114 528 162 530 167 530 C184 530 236 528 236 488 C236 457 226 443 186 443 L168 443 Z " />
<glyph glyph-name="acute" unicode="&#xb4;" horiz-adv-x="235" d="M155 546 C155 550 149 555 136 555 C129 555 117 554 114 547 C82 476 80 469 80 467 C80 462 86 460 91 460 C100 460 105 462 108 467 L155 546 Z " />
<glyph glyph-name="mu" unicode="&#xb5;" horiz-adv-x="580" d="M423 23 C423 4 445 0 460 0 C473 0 500 1 500 19 C500 26 498 30 494 30 L455 30 L455 387 C455 396 451 400 443 400 C419 400 388 397 379 394 C377 393 376 389 376 383 C376 374 378 370 382 370 L423 370 L423 109 C378 59 309 25 273 25 C178 25 159 76 159 104 L159 387 C159 396 155 400 147 400 C123 400 92 397 83 394 C81 393 80 389 80 383 C80 374 82 370 86 370 L127 370 L127 -171 C127 -176 133 -184 144 -184 C157 -184 159 -174 159 -171 L159 32 C184 5 226 -5 269 -5 C326 -5 379 24 423 64 L423 23 Z " />
<glyph glyph-name="paragraph" unicode="&#xb6;" horiz-adv-x="635" d="M507 516 L549 516 C553 516 555 520 555 528 C555 535 554 539 551 540 C542 543 524 546 500 546 L246 546 C158 527 80 451 80 359 C80 265 165 185 273 174 L273 -153 C273 -158 280 -165 289 -165 C304 -165 305 -156 305 -153 L305 516 L436 516 L436 -153 C436 -158 443 -165 452 -165 C467 -165 468 -156 468 -153 L468 516 L507 516 Z " />
<glyph glyph-name="periodcentered" unicode="&#xb7;" horiz-adv-x="203" d="M80 177 C80 165 89 156 101 156 C113 156 123 165 123 177 C123 189 113 199 101 199 C89 199 80 189 80 177 L80 177 Z " />
<glyph glyph-name="cedilla" unicode="&#xb8;" horiz-adv-x="236" d="M156 -65 C156 -59 152 -56 143 -56 C136 -56 133 -61 130 -65 L80 -150 C80 -157 88 -161 99 -161 C108 -161 119 -157 120 -150 L156 -65 Z " />
<glyph glyph-name="onesuperior" unicode="&#xb9;" horiz-adv-x="285" d="M134 502 L134 351 C134 344 135 340 128 340 L99 340 C98 339 97 339 96 338 C94 336 93 333 93 328 C93 321 95 316 100 316 L199 316 C202 316 205 317 205 329 C205 336 203 340 199 340 L164 340 L164 541 C164 544 164 550 155 550 L149 550 C148 550 144 547 143 546 L86 506 C83 503 80 503 80 496 C80 491 85 478 92 478 C93 478 95 479 98 480 L134 502 Z " />
<glyph glyph-name="ordmasculine" unicode="&#xba;" horiz-adv-x="345" d="M171 555 C116 555 80 507 80 451 C80 395 115 349 171 349 C230 349 265 395 265 451 C265 507 230 555 171 555 L171 555 Z M171 382 C132 382 113 413 113 452 C113 493 132 524 171 524 C214 524 234 493 234 452 C234 413 214 382 171 382 L171 382 Z " />
<glyph glyph-name="guillemotright" unicode="&#xbb;" horiz-adv-x="467" d="M248 14 C252 9 255 6 267 6 C275 6 282 8 285 13 L382 178 C385 183 387 189 387 195 C387 201 385 207 380 213 L285 375 C282 380 275 382 267 382 C255 382 252 379 248 374 L356 194 L248 14 Z M80 14 C84 9 87 6 99 6 C107 6 114 8 117 13 L214 178 C217 183 219 189 219 195 C219 201 217 207 212 213 L117 375 C114 380 107 382 99 382 C87 382 84 379 80 374 L188 194 L80 14 Z " />
<glyph glyph-name="onequarter" unicode="&#xbc;" horiz-adv-x="589" d="M98 480 C95 479 93 478 92 478 C85 478 80 491 80 496 C80 503 83 503 86 506 L143 546 C144 547 148 550 149 550 L155 550 C164 550 164 544 164 541 L164 340 L199 340 C203 340 205 336 205 329 C205 317 202 316 199 316 L100 316 C95 316 93 321 93 328 C93 333 94 336 96 338 C97 339 98 339 99 340 L128 340 C135 340 134 344 134 351 L134 502 L98 480 Z M421 540 C421 541 422 542 422 543 C422 550 413 550 405 550 C393 550 390 545 387 541 L123 10 C123 9 122 8 122 7 C122 0 131 0 139 0 C151 0 154 5 157 9 L421 540 Z M411 128 C407 128 402 123 402 116 C402 104 410 103 413 103 L426 103 C469 103 479 83 479 60 C479 28 450 17 409 17 C404 17 370 17 350 28 C348 35 343 38 336 38 C325 38 323 29 323 22 C324 15 329 12 332 9 C344 -3 396 -5 408 -5 C449 -5 509 -3 509 60 C509 71 508 98 481 113 C506 136 509 154 509 171 C509 218 470 240 410 240 C395 240 348 239 334 225 C331 222 325 218 324 211 C324 203 326 191 339 191 C346 191 351 195 354 204 C357 213 405 215 410 215 C427 215 479 213 479 173 C479 142 469 128 429 128 L411 128 Z " />
<glyph glyph-name="onehalf" unicode="&#xbd;" horiz-adv-x="586" d="M98 480 C95 479 93 478 92 478 C85 478 80 491 80 496 C80 503 83 503 86 506 L143 546 C144 547 148 550 149 550 L155 550 C164 550 164 544 164 541 L164 340 L199 340 C203 340 205 336 205 329 C205 317 202 316 199 316 L100 316 C95 316 93 321 93 328 C93 333 94 336 96 338 C97 339 98 339 99 340 L128 340 C135 340 134 344 134 351 L134 502 L98 480 Z M421 540 C421 541 422 542 422 543 C422 550 413 550 405 550 C393 550 390 545 387 541 L123 10 C123 9 122 8 122 7 C122 0 131 0 139 0 C151 0 154 5 157 9 L421 540 Z M412 214 C465 214 470 195 470 168 C470 131 322 50 322 25 L322 11 C322 6 328 0 333 0 L495 0 C506 3 506 6 506 13 C506 24 505 39 493 39 C488 39 481 37 481 32 L480 23 L353 23 C453 106 500 132 500 167 C500 230 453 240 411 240 C380 240 343 230 336 230 C325 225 324 218 324 207 C324 198 325 191 336 191 C343 191 346 192 346 195 L348 204 C350 206 392 214 412 214 L412 214 Z " />
<glyph glyph-name="threequarters" unicode="&#xbe;" horiz-adv-x="583" d="M440 194 L440 71 L337 71 L440 194 Z M168 443 C164 443 159 438 159 431 C159 419 167 418 170 418 L183 418 C226 418 236 398 236 375 C236 343 207 332 166 332 C161 332 127 332 107 343 C105 350 100 353 93 353 C82 353 80 344 80 337 C81 330 86 327 89 324 C101 312 153 310 165 310 C206 310 266 312 266 375 C266 386 265 413 238 428 C263 451 266 469 266 486 C266 533 227 555 167 555 C152 555 105 554 91 540 C88 537 82 533 81 526 C81 518 83 506 96 506 C103 506 108 510 111 519 C114 528 162 530 167 530 C184 530 236 528 236 488 C236 457 226 443 186 443 L168 443 Z M457 540 C457 541 458 542 458 543 C458 550 449 550 441 550 C429 550 426 545 423 541 L159 10 C159 9 158 8 158 7 C158 0 167 0 175 0 C187 0 190 5 193 9 L457 540 Z M440 9 C440 1 447 0 454 0 C467 0 470 4 470 9 L470 45 L495 45 C496 45 503 46 503 59 C503 66 498 71 495 71 L470 71 L470 223 C470 226 469 235 454 235 L444 235 C439 235 435 233 432 229 L304 73 C303 70 301 69 301 68 L301 59 C301 46 308 45 311 45 L440 45 L440 9 Z " />
<glyph glyph-name="questiondown" unicode="&#xbf;" horiz-adv-x="504" d="M296 416 C296 421 288 428 280 428 C271 428 264 422 264 415 L264 386 C256 274 80 252 80 129 C80 -6 200 -6 276 -6 C297 -6 380 -3 412 16 C420 21 424 27 424 36 C424 49 414 59 402 59 C391 59 383 51 380 42 C371 33 306 26 276 26 C147 26 112 48 112 128 C112 235 296 266 296 378 L296 416 Z M301 534 C301 546 292 555 280 555 C268 555 258 546 258 534 C258 522 268 512 280 512 C292 512 301 522 301 534 L301 534 Z " />
<glyph glyph-name="Agrave" unicode="&#xc0;" horiz-adv-x="656" d="M454 229 L202 229 L328 522 L454 229 Z M541 30 L483 30 C478 30 476 26 476 17 C476 1 480 0 483 0 L601 0 C610 0 611 8 611 15 C611 30 604 30 603 30 L582 30 C579 30 577 31 575 33 L360 528 C354 543 344 550 329 550 L292 550 C269 550 236 550 227 547 C218 546 214 543 214 539 C214 528 218 523 225 523 L292 520 L81 33 C79 31 77 30 74 30 L53 30 C52 30 45 30 45 15 C45 8 46 0 55 0 L173 0 C176 0 180 1 180 17 C180 26 178 30 173 30 L115 30 L187 197 L469 197 L541 30 Z M263 686 C263 690 269 695 282 695 C289 695 301 694 304 687 C336 616 338 609 338 607 C338 602 332 600 327 600 C320 600 313 600 310 607 L263 686 Z " />
<glyph glyph-name="Aacute" unicode="&#xc1;" horiz-adv-x="656" d="M454 229 L202 229 L328 522 L454 229 Z M541 30 L483 30 C478 30 476 26 476 17 C476 1 480 0 483 0 L601 0 C610 0 611 8 611 15 C611 30 604 30 603 30 L582 30 C579 30 577 31 575 33 L360 528 C354 543 344 550 329 550 L292 550 C269 550 236 550 227 547 C218 546 214 543 214 539 C214 528 218 523 225 523 L292 520 L81 33 C79 31 77 30 74 30 L53 30 C52 30 45 30 45 15 C45 8 46 0 55 0 L173 0 C176 0 180 1 180 17 C180 26 178 30 173 30 L115 30 L187 197 L469 197 L541 30 Z M353 607 C350 602 345 600 336 600 C331 600 325 602 325 607 C325 609 327 616 359 687 C362 694 374 695 381 695 C394 695 400 690 400 686 L353 607 Z " />
<glyph glyph-name="Acircumflex" unicode="&#xc2;" horiz-adv-x="656" d="M454 229 L202 229 L328 522 L454 229 Z M541 30 L483 30 C478 30 476 26 476 17 C476 1 480 0 483 0 L601 0 C610 0 611 8 611 15 C611 30 604 30 603 30 L582 30 C579 30 577 31 575 33 L360 528 C354 543 344 550 329 550 L292 550 C269 550 236 550 227 547 C218 546 214 543 214 539 C214 528 218 523 225 523 L292 520 L81 33 C79 31 77 30 74 30 L53 30 C52 30 45 30 45 15 C45 8 46 0 55 0 L173 0 C176 0 180 1 180 17 C180 26 178 30 173 30 L115 30 L187 197 L469 197 L541 30 Z M318 726 C312 726 308 723 305 717 L247 610 C248 603 253 600 262 600 C273 600 276 603 279 606 L328 704 L377 606 C380 603 383 600 394 600 C403 600 408 603 409 610 L351 717 C348 723 343 726 338 726 L318 726 Z " />
<glyph glyph-name="Atilde" unicode="&#xc3;" horiz-adv-x="656" d="M336 600 C359 600 381 607 401 620 C401 623 402 624 402 627 C402 634 398 640 390 643 C373 631 356 628 336 628 C303 628 283 645 253 645 C228 645 213 643 193 628 L193 623 C193 615 197 608 205 605 C222 614 235 617 250 617 C285 617 305 600 336 600 L336 600 Z M454 229 L202 229 L328 522 L454 229 Z M541 30 L483 30 C478 30 476 26 476 17 C476 1 480 0 483 0 L601 0 C610 0 611 8 611 15 C611 30 604 30 603 30 L582 30 C579 30 577 31 575 33 L360 528 C354 543 344 550 329 550 L292 550 C269 550 236 550 227 547 C218 546 214 543 214 539 C214 528 218 523 225 523 L292 520 L81 33 C79 31 77 30 74 30 L53 30 C52 30 45 30 45 15 C45 8 46 0 55 0 L173 0 C176 0 180 1 180 17 C180 26 178 30 173 30 L115 30 L187 197 L469 197 L541 30 Z " />
<glyph glyph-name="Adieresis" unicode="&#xc4;" horiz-adv-x="656" d="M454 229 L202 229 L328 522 L454 229 Z M541 30 L483 30 C478 30 476 26 476 17 C476 1 480 0 483 0 L601 0 C610 0 611 8 611 15 C611 30 604 30 603 30 L582 30 C579 30 577 31 575 33 L360 528 C354 543 344 550 329 550 L292 550 C269 550 236 550 227 547 C218 546 214 543 214 539 C214 528 218 523 225 523 L292 520 L81 33 C79 31 77 30 74 30 L53 30 C52 30 45 30 45 15 C45 8 46 0 55 0 L173 0 C176 0 180 1 180 17 C180 26 178 30 173 30 L115 30 L187 197 L469 197 L541 30 Z M252 621 C252 609 261 600 273 600 C285 600 295 609 295 621 C295 633 285 643 273 643 C261 643 252 633 252 621 L252 621 Z M360 621 C360 609 369 600 381 600 C393 600 403 609 403 621 C403 633 393 643 381 643 C369 643 360 633 360 621 L360 621 Z " />
<glyph glyph-name="Aring" unicode="&#xc5;" horiz-adv-x="656" d="M316 733 C281 733 252 703 252 666 C252 631 281 600 316 600 C353 600 383 631 383 666 C383 703 353 733 316 733 L316 733 Z M316 630 C295 630 282 647 282 666 C282 682 295 700 316 700 C339 700 351 682 351 666 C351 647 339 630 316 630 L316 630 Z M454 229 L202 229 L328 522 L454 229 Z M541 30 L483 30 C478 30 476 26 476 17 C476 1 480 0 483 0 L601 0 C610 0 611 8 611 15 C611 30 604 30 603 30 L582 30 C579 30 577 31 575 33 L360 528 C354 543 344 550 329 550 L292 550 C269 550 236 550 227 547 C218 546 214 543 214 539 C214 528 218 523 225 523 L292 520 L81 33 C79 31 77 30 74 30 L53 30 C52 30 45 30 45 15 C45 8 46 0 55 0 L173 0 C176 0 180 1 180 17 C180 26 178 30 173 30 L115 30 L187 197 L469 197 L541 30 Z " />
<glyph glyph-name="AE" unicode="&#xc6;" horiz-adv-x="972" d="M526 225 L288 225 L526 518 L526 225 Z M91 32 C90 31 88 30 85 30 L48 30 C47 30 40 30 40 15 C40 8 41 0 50 0 L203 0 C206 0 210 1 210 16 C210 25 208 30 203 30 L131 30 L263 195 L526 195 L526 30 L483 28 C479 28 477 23 477 14 C477 9 478 5 480 3 C489 1 505 0 528 0 L890 0 C901 3 902 18 902 29 C902 38 901 58 889 58 C884 58 872 58 872 54 L871 30 L558 30 L558 248 L828 248 C831 248 837 249 837 264 C837 273 834 278 828 278 L558 278 L558 518 L871 518 L872 496 C872 492 884 492 889 492 C901 492 902 512 902 521 C902 532 901 547 890 550 L531 550 C518 550 507 545 498 534 L91 32 Z " />
<glyph glyph-name="Ccedilla" unicode="&#xc7;" horiz-adv-x="561" d="M299 -5 C384 -5 491 7 491 28 C491 35 492 40 489 45 C486 48 484 49 481 49 C480 49 479 48 476 47 C437 34 398 24 297 24 C220 24 102 27 102 151 L102 390 C102 523 247 523 299 523 C375 523 438 514 447 505 C450 496 458 488 469 488 C481 488 491 498 491 511 C491 520 487 526 479 531 C447 550 320 555 299 555 C219 555 70 538 70 395 L70 149 C70 -5 219 -5 299 -5 L299 -5 Z M317 -65 C317 -59 313 -56 304 -56 C297 -56 294 -61 291 -65 L241 -150 C241 -157 249 -161 260 -161 C269 -161 280 -157 281 -150 L317 -65 Z " />
<glyph glyph-name="Egrave" unicode="&#xc8;" horiz-adv-x="565" d="M464 30 L151 30 L151 248 L421 248 C424 248 430 249 430 264 C430 273 427 278 421 278 L151 278 L151 518 L464 518 L465 496 C465 492 477 492 482 492 C494 492 495 512 495 521 C495 532 494 547 483 550 L121 550 C98 550 82 549 73 547 C71 545 70 541 70 536 C70 527 72 522 76 522 L119 520 L119 30 L76 28 C72 28 70 23 70 14 C70 9 71 5 73 3 C82 1 98 0 121 0 L483 0 C494 3 495 18 495 29 C495 38 494 58 482 58 C477 58 465 58 465 54 L464 30 Z M228 686 C228 690 234 695 247 695 C254 695 266 694 269 687 C301 616 303 609 303 607 C303 602 297 600 292 600 C285 600 278 600 275 607 L228 686 Z " />
<glyph glyph-name="Eacute" unicode="&#xc9;" horiz-adv-x="565" d="M464 30 L151 30 L151 248 L421 248 C424 248 430 249 430 264 C430 273 427 278 421 278 L151 278 L151 518 L464 518 L465 496 C465 492 477 492 482 492 C494 492 495 512 495 521 C495 532 494 547 483 550 L121 550 C98 550 82 549 73 547 C71 545 70 541 70 536 C70 527 72 522 76 522 L119 520 L119 30 L76 28 C72 28 70 23 70 14 C70 9 71 5 73 3 C82 1 98 0 121 0 L483 0 C494 3 495 18 495 29 C495 38 494 58 482 58 C477 58 465 58 465 54 L464 30 Z M309 607 C306 602 301 600 292 600 C287 600 281 602 281 607 C281 609 283 616 315 687 C318 694 330 695 337 695 C350 695 356 690 356 686 L309 607 Z " />
<glyph glyph-name="Ecircumflex" unicode="&#xca;" horiz-adv-x="565" d="M464 30 L151 30 L151 248 L421 248 C424 248 430 249 430 264 C430 273 427 278 421 278 L151 278 L151 518 L464 518 L465 496 C465 492 477 492 482 492 C494 492 495 512 495 521 C495 532 494 547 483 550 L121 550 C98 550 82 549 73 547 C71 545 70 541 70 536 C70 527 72 522 76 522 L119 520 L119 30 L76 28 C72 28 70 23 70 14 C70 9 71 5 73 3 C82 1 98 0 121 0 L483 0 C494 3 495 18 495 29 C495 38 494 58 482 58 C477 58 465 58 465 54 L464 30 Z M284 726 C278 726 274 723 271 717 L213 610 C214 603 219 600 228 600 C239 600 242 603 245 606 L294 704 L343 606 C346 603 349 600 360 600 C369 600 374 603 375 610 L317 717 C314 723 309 726 304 726 L284 726 Z " />
<glyph glyph-name="Edieresis" unicode="&#xcb;" horiz-adv-x="565" d="M464 30 L151 30 L151 248 L421 248 C424 248 430 249 430 264 C430 273 427 278 421 278 L151 278 L151 518 L464 518 L465 496 C465 492 477 492 482 492 C494 492 495 512 495 521 C495 532 494 547 483 550 L121 550 C98 550 82 549 73 547 C71 545 70 541 70 536 C70 527 72 522 76 522 L119 520 L119 30 L76 28 C72 28 70 23 70 14 C70 9 71 5 73 3 C82 1 98 0 121 0 L483 0 C494 3 495 18 495 29 C495 38 494 58 482 58 C477 58 465 58 465 54 L464 30 Z M194 621 C194 609 203 600 215 600 C227 600 237 609 237 621 C237 633 227 643 215 643 C203 643 194 633 194 621 L194 621 Z M341 621 C341 609 350 600 362 600 C374 600 384 609 384 621 C384 633 374 643 362 643 C350 643 341 633 341 621 L341 621 Z " />
<glyph glyph-name="Igrave" unicode="&#xcc;" horiz-adv-x="262" d="M115 45 C115 38 115 30 107 30 L78 30 C77 30 70 30 70 15 C70 8 70 0 81 0 L181 0 C192 0 192 8 192 15 C192 30 185 30 184 30 L155 30 C147 30 147 38 147 45 L147 505 C147 512 147 520 155 520 L184 520 C185 520 192 520 192 535 C192 542 192 550 181 550 L81 550 C70 550 70 542 70 535 C70 520 77 520 78 520 L107 520 C115 520 115 512 115 505 L115 45 Z M68 686 C68 690 74 695 87 695 C94 695 106 694 109 687 C141 616 143 609 143 607 C143 602 137 600 132 600 C125 600 118 600 115 607 L68 686 Z " />
<glyph glyph-name="Iacute" unicode="&#xcd;" horiz-adv-x="262" d="M115 45 C115 38 115 30 107 30 L78 30 C77 30 70 30 70 15 C70 8 70 0 81 0 L181 0 C192 0 192 8 192 15 C192 30 185 30 184 30 L155 30 C147 30 147 38 147 45 L147 505 C147 512 147 520 155 520 L184 520 C185 520 192 520 192 535 C192 542 192 550 181 550 L81 550 C70 550 70 542 70 535 C70 520 77 520 78 520 L107 520 C115 520 115 512 115 505 L115 45 Z M148 607 C145 602 140 600 131 600 C126 600 120 602 120 607 C120 609 122 616 154 687 C157 694 169 695 176 695 C189 695 195 690 195 686 L148 607 Z " />
<glyph glyph-name="Icircumflex" unicode="&#xce;" horiz-adv-x="262" d="M115 45 C115 38 115 30 107 30 L78 30 C77 30 70 30 70 15 C70 8 70 0 81 0 L181 0 C192 0 192 8 192 15 C192 30 185 30 184 30 L155 30 C147 30 147 38 147 45 L147 505 C147 512 147 520 155 520 L184 520 C185 520 192 520 192 535 C192 542 192 550 181 550 L81 550 C70 550 70 542 70 535 C70 520 77 520 78 520 L107 520 C115 520 115 512 115 505 L115 45 Z M121 726 C115 726 111 723 108 717 L50 610 C51 603 56 600 65 600 C76 600 79 603 82 606 L131 704 L180 606 C183 603 186 600 197 600 C206 600 211 603 212 610 L154 717 C151 723 146 726 141 726 L121 726 Z " />
<glyph glyph-name="Idieresis" unicode="&#xcf;" horiz-adv-x="262" d="M115 45 C115 38 115 30 107 30 L78 30 C77 30 70 30 70 15 C70 8 70 0 81 0 L181 0 C192 0 192 8 192 15 C192 30 185 30 184 30 L155 30 C147 30 147 38 147 45 L147 505 C147 512 147 520 155 520 L184 520 C185 520 192 520 192 535 C192 542 192 550 181 550 L81 550 C70 550 70 542 70 535 C70 520 77 520 78 520 L107 520 C115 520 115 512 115 505 L115 45 Z M65 620 C65 608 74 599 86 599 C98 599 108 608 108 620 C108 632 98 642 86 642 C74 642 65 632 65 620 L65 620 Z M153 620 C153 608 162 599 174 599 C186 599 196 608 196 620 C196 632 186 642 174 642 C162 642 153 632 153 620 L153 620 Z " />
<glyph glyph-name="Eth" unicode="&#xd0;" horiz-adv-x="614" d="M349 0 C424 0 544 33 544 181 L544 364 C544 515 424 550 349 550 L127 550 C104 550 84 550 75 547 C73 545 72 541 72 536 C72 527 74 522 78 522 L124 520 L124 291 L80 291 C77 291 70 289 70 274 C70 267 75 259 80 259 L124 259 L124 30 L78 28 C74 28 72 23 72 14 C72 9 73 5 75 3 C84 0 104 0 127 0 L349 0 Z M244 259 C249 259 254 267 254 274 C254 289 247 291 244 291 L156 291 L156 518 L327 518 C355 518 512 517 512 364 L512 187 C512 30 355 30 327 30 L156 30 L156 259 L244 259 Z " />
<glyph glyph-name="Ntilde" unicode="&#xd1;" horiz-adv-x="674" d="M516 11 C520 4 531 0 538 0 L547 0 C552 0 564 2 564 17 L564 506 C564 513 564 520 572 520 L601 520 C602 520 609 520 609 535 C609 542 608 550 599 550 L482 550 C479 550 474 549 474 533 C474 524 477 520 482 520 L532 520 L532 46 L172 539 C167 546 161 550 153 550 L118 550 C94 550 78 549 69 547 C66 545 65 541 65 535 C65 526 67 522 71 522 L114 520 L114 44 C114 37 114 30 106 30 L73 30 C72 30 65 30 65 15 C65 8 66 0 75 0 L196 0 C199 0 203 1 203 17 C203 26 201 30 196 30 L146 30 L146 520 L516 11 Z M367 600 C390 600 412 607 432 620 C432 623 433 624 433 627 C433 634 429 640 421 643 C404 631 387 628 367 628 C334 628 314 645 284 645 C259 645 244 643 224 628 L224 623 C224 615 228 608 236 605 C253 614 266 617 281 617 C316 617 336 600 367 600 L367 600 Z " />
<glyph glyph-name="Ograve" unicode="&#xd2;" horiz-adv-x="590" d="M295 24 C234 24 102 24 102 164 L102 398 C102 523 244 523 296 523 C346 523 488 523 488 398 L488 164 C488 24 356 24 295 24 L295 24 Z M295 -5 C374 -5 520 1 520 162 L520 407 C520 539 374 555 295 555 C216 555 70 539 70 407 L70 162 C70 1 216 -5 295 -5 L295 -5 Z M228 686 C228 690 234 695 247 695 C254 695 266 694 269 687 C301 616 303 609 303 607 C303 602 297 600 292 600 C285 600 278 600 275 607 L228 686 Z " />
<glyph glyph-name="Oacute" unicode="&#xd3;" horiz-adv-x="590" d="M295 24 C234 24 102 24 102 164 L102 398 C102 523 244 523 296 523 C346 523 488 523 488 398 L488 164 C488 24 356 24 295 24 L295 24 Z M295 -5 C374 -5 520 1 520 162 L520 407 C520 539 374 555 295 555 C216 555 70 539 70 407 L70 162 C70 1 216 -5 295 -5 L295 -5 Z M308 607 C305 602 300 600 291 600 C286 600 280 602 280 607 C280 609 282 616 314 687 C317 694 329 695 336 695 C349 695 355 690 355 686 L308 607 Z " />
<glyph glyph-name="Ocircumflex" unicode="&#xd4;" horiz-adv-x="590" d="M295 24 C234 24 102 24 102 164 L102 398 C102 523 244 523 296 523 C346 523 488 523 488 398 L488 164 C488 24 356 24 295 24 L295 24 Z M295 -5 C374 -5 520 1 520 162 L520 407 C520 539 374 555 295 555 C216 555 70 539 70 407 L70 162 C70 1 216 -5 295 -5 L295 -5 Z M285 726 C279 726 275 723 272 717 L214 610 C215 603 220 600 229 600 C240 600 243 603 246 606 L295 704 L344 606 C347 603 350 600 361 600 C370 600 375 603 376 610 L318 717 C315 723 310 726 305 726 L285 726 Z " />
<glyph glyph-name="Otilde" unicode="&#xd5;" horiz-adv-x="590" d="M295 24 C234 24 102 24 102 164 L102 398 C102 523 244 523 296 523 C346 523 488 523 488 398 L488 164 C488 24 356 24 295 24 L295 24 Z M295 -5 C374 -5 520 1 520 162 L520 407 C520 539 374 555 295 555 C216 555 70 539 70 407 L70 162 C70 1 216 -5 295 -5 L295 -5 Z M334 600 C357 600 379 607 399 620 C399 623 400 624 400 627 C400 634 396 640 388 643 C371 631 354 628 334 628 C301 628 281 645 251 645 C226 645 211 643 191 628 L191 623 C191 615 195 608 203 605 C220 614 233 617 248 617 C283 617 303 600 334 600 L334 600 Z " />
<glyph glyph-name="Odieresis" unicode="&#xd6;" horiz-adv-x="590" d="M295 24 C234 24 102 24 102 164 L102 398 C102 523 244 523 296 523 C346 523 488 523 488 398 L488 164 C488 24 356 24 295 24 L295 24 Z M295 -5 C374 -5 520 1 520 162 L520 407 C520 539 374 555 295 555 C216 555 70 539 70 407 L70 162 C70 1 216 -5 295 -5 L295 -5 Z M200 621 C200 609 209 600 221 600 C233 600 243 609 243 621 C243 633 233 643 221 643 C209 643 200 633 200 621 L200 621 Z M347 621 C347 609 356 600 368 600 C380 600 390 609 390 621 C390 633 380 643 368 643 C356 643 347 633 347 621 L347 621 Z " />
<glyph glyph-name="multiply" unicode="&#xd7;" horiz-adv-x="442" d="M221 214 L332 103 C335 100 339 99 342 99 C344 99 346 100 349 101 C354 104 361 110 361 117 C361 120 361 122 360 123 L245 238 L361 354 C362 355 362 356 362 359 C362 366 355 372 350 375 C347 376 345 377 343 377 C340 377 336 376 333 373 L221 261 L109 373 C106 376 102 377 99 377 C97 377 95 376 92 375 C87 372 80 366 80 359 C80 356 80 355 81 354 L197 238 L82 123 C81 122 81 120 81 117 C81 110 88 104 93 101 C96 100 98 99 100 99 C103 99 107 100 110 103 L221 214 Z " />
<glyph glyph-name="Oslash" unicode="&#xd8;" horiz-adv-x="590" d="M102 398 C102 523 244 523 296 523 C319 523 357 523 396 512 L163 47 C128 66 102 100 102 164 L102 398 Z M488 164 C488 24 356 24 295 24 C268 24 229 24 192 35 L426 501 C461 484 488 454 488 398 L488 164 Z M179 8 C219 -4 263 -5 295 -5 C374 -5 520 1 520 162 L520 407 C520 472 485 508 440 529 L488 627 C487 634 482 637 472 637 C461 637 457 632 454 628 L410 540 C370 552 327 555 295 555 C216 555 70 539 70 407 L70 162 C70 82 105 43 150 20 L100 -78 C101 -85 106 -88 116 -88 C127 -88 131 -83 134 -79 L179 8 Z " />
<glyph glyph-name="Ugrave" unicode="&#xd9;" horiz-adv-x="673" d="M530 163 C530 23 394 24 334 24 C278 24 143 23 143 163 L143 505 C143 512 143 520 151 520 L192 520 C193 520 200 520 200 535 C200 542 200 550 189 550 L76 550 C65 550 65 542 65 535 C65 520 72 520 73 520 L102 520 C110 520 110 512 110 505 L110 150 C110 3 255 -5 334 -5 C417 -5 563 3 563 150 L563 505 C563 512 563 520 571 520 L600 520 C601 520 608 520 608 535 C608 542 608 550 597 550 L484 550 C473 550 473 542 473 535 C473 520 480 520 481 520 L522 520 C530 520 530 512 530 505 L530 163 Z M269 686 C269 690 275 695 288 695 C295 695 307 694 310 687 C342 616 344 609 344 607 C344 602 338 600 333 600 C326 600 319 600 316 607 L269 686 Z " />
<glyph glyph-name="Uacute" unicode="&#xda;" horiz-adv-x="673" d="M530 163 C530 23 394 24 334 24 C278 24 143 23 143 163 L143 505 C143 512 143 520 151 520 L192 520 C193 520 200 520 200 535 C200 542 200 550 189 550 L76 550 C65 550 65 542 65 535 C65 520 72 520 73 520 L102 520 C110 520 110 512 110 505 L110 150 C110 3 255 -5 334 -5 C417 -5 563 3 563 150 L563 505 C563 512 563 520 571 520 L600 520 C601 520 608 520 608 535 C608 542 608 550 597 550 L484 550 C473 550 473 542 473 535 C473 520 480 520 481 520 L522 520 C530 520 530 512 530 505 L530 163 Z M345 607 C342 602 337 600 328 600 C323 600 317 602 317 607 C317 609 319 616 351 687 C354 694 366 695 373 695 C386 695 392 690 392 686 L345 607 Z " />
<glyph glyph-name="Ucircumflex" unicode="&#xdb;" horiz-adv-x="673" d="M530 163 C530 23 394 24 334 24 C278 24 143 23 143 163 L143 505 C143 512 143 520 151 520 L192 520 C193 520 200 520 200 535 C200 542 200 550 189 550 L76 550 C65 550 65 542 65 535 C65 520 72 520 73 520 L102 520 C110 520 110 512 110 505 L110 150 C110 3 255 -5 334 -5 C417 -5 563 3 563 150 L563 505 C563 512 563 520 571 520 L600 520 C601 520 608 520 608 535 C608 542 608 550 597 550 L484 550 C473 550 473 542 473 535 C473 520 480 520 481 520 L522 520 C530 520 530 512 530 505 L530 163 Z M325 726 C319 726 315 723 312 717 L254 610 C255 603 260 600 269 600 C280 600 283 603 286 606 L335 704 L384 606 C387 603 390 600 401 600 C410 600 415 603 416 610 L358 717 C355 723 350 726 345 726 L325 726 Z " />
<glyph glyph-name="Udieresis" unicode="&#xdc;" horiz-adv-x="673" d="M530 163 C530 23 394 24 334 24 C278 24 143 23 143 163 L143 505 C143 512 143 520 151 520 L192 520 C193 520 200 520 200 535 C200 542 200 550 189 550 L76 550 C65 550 65 542 65 535 C65 520 72 520 73 520 L102 520 C110 520 110 512 110 505 L110 150 C110 3 255 -5 334 -5 C417 -5 563 3 563 150 L563 505 C563 512 563 520 571 520 L600 520 C601 520 608 520 608 535 C608 542 608 550 597 550 L484 550 C473 550 473 542 473 535 C473 520 480 520 481 520 L522 520 C530 520 530 512 530 505 L530 163 Z M239 621 C239 609 248 600 260 600 C272 600 282 609 282 621 C282 633 272 643 260 643 C248 643 239 633 239 621 L239 621 Z M386 621 C386 609 395 600 407 600 C419 600 429 609 429 621 C429 633 419 643 407 643 C395 643 386 633 386 621 L386 621 Z " />
<glyph glyph-name="Yacute" unicode="&#xdd;" horiz-adv-x="644" d="M306 45 C306 38 306 30 298 30 L267 30 C266 30 259 30 259 15 C259 8 259 0 270 0 L373 0 C384 0 384 8 384 15 C384 30 377 30 376 30 L346 30 C338 30 338 38 338 45 L338 213 L553 520 L591 520 C592 520 599 520 599 535 C599 542 598 550 589 550 L437 550 C428 550 427 542 427 535 C427 520 434 520 435 520 L515 520 L322 247 L129 520 L209 520 C210 520 217 520 217 535 C217 542 216 550 207 550 L55 550 C46 550 45 542 45 535 C45 520 52 520 53 520 L91 520 L306 214 L306 45 Z M337 607 C334 602 329 600 320 600 C315 600 309 602 309 607 C309 609 311 616 343 687 C346 694 358 695 365 695 C378 695 384 690 384 686 L337 607 Z " />
<glyph glyph-name="Thorn" unicode="&#xde;" horiz-adv-x="549" d="M149 160 L149 389 L313 389 C372 389 465 383 465 282 C465 236 462 160 317 160 L149 160 Z M149 520 L188 520 C193 520 195 524 195 533 C195 549 191 550 188 550 L81 550 C72 550 70 542 70 535 C70 520 78 520 79 520 L107 520 C115 520 115 513 115 506 L115 44 C115 37 115 30 107 30 L79 30 C78 30 70 30 70 15 C70 8 72 0 81 0 L188 0 C191 0 195 1 195 17 C195 26 193 30 188 30 L149 30 L149 130 L318 130 C498 130 499 241 499 285 C499 374 441 419 325 419 L149 419 L149 520 Z " />
<glyph glyph-name="germandbls" unicode="&#xdf;" horiz-adv-x="596" d="M375 0 C447 0 526 21 526 126 C526 147 526 240 429 264 C526 291 526 376 526 415 C526 522 423 555 349 555 L284 555 C209 555 107 529 107 406 L107 43 C107 36 107 30 100 30 L64 30 C61 30 55 30 55 15 C55 8 56 0 65 0 L115 0 C138 0 139 13 139 17 L139 402 C139 513 248 523 280 523 L326 523 C357 523 494 524 494 412 C494 359 487 280 339 280 L310 280 C305 280 301 273 301 265 C301 249 307 248 310 248 L336 248 C435 248 494 214 494 127 C494 77 475 35 375 27 C370 27 367 23 367 14 C367 1 372 0 375 0 L375 0 Z " />
<glyph glyph-name="agrave" unicode="&#xe0;" horiz-adv-x="481" d="M357 102 C306 58 239 25 184 25 C157 25 92 25 92 93 L92 100 C92 181 299 192 357 192 L357 102 Z M357 23 C357 4 374 0 389 0 C402 0 426 1 426 19 C426 26 424 30 420 30 L389 30 L389 279 C389 396 293 407 216 407 C195 407 112 404 80 385 C72 380 68 374 68 365 C68 352 78 342 90 342 C101 342 109 350 112 359 C121 368 186 375 216 375 C262 375 357 375 357 282 L357 227 C208 214 60 196 60 100 L60 82 C60 18 105 -5 169 -5 C204 -5 272 -5 357 62 L357 23 Z M178 543 C178 547 184 552 197 552 C204 552 216 551 219 544 C251 473 253 466 253 464 C253 459 247 457 242 457 C235 457 228 457 225 464 L178 543 Z " />
<glyph glyph-name="aacute" unicode="&#xe1;" horiz-adv-x="481" d="M357 102 C306 58 239 25 184 25 C157 25 92 25 92 93 L92 100 C92 181 299 192 357 192 L357 102 Z M357 23 C357 4 374 0 389 0 C402 0 426 1 426 19 C426 26 424 30 420 30 L389 30 L389 279 C389 396 293 407 216 407 C195 407 112 404 80 385 C72 380 68 374 68 365 C68 352 78 342 90 342 C101 342 109 350 112 359 C121 368 186 375 216 375 C262 375 357 375 357 282 L357 227 C208 214 60 196 60 100 L60 82 C60 18 105 -5 169 -5 C204 -5 272 -5 357 62 L357 23 Z M247 464 C244 459 239 457 230 457 C225 457 219 459 219 464 C219 466 221 473 253 544 C256 551 268 552 275 552 C288 552 294 547 294 543 L247 464 Z " />
<glyph glyph-name="acircumflex" unicode="&#xe2;" horiz-adv-x="481" d="M357 102 C306 58 239 25 184 25 C157 25 92 25 92 93 L92 100 C92 181 299 192 357 192 L357 102 Z M357 23 C357 4 374 0 389 0 C402 0 426 1 426 19 C426 26 424 30 420 30 L389 30 L389 279 C389 396 293 407 216 407 C195 407 112 404 80 385 C72 380 68 374 68 365 C68 352 78 342 90 342 C101 342 109 350 112 359 C121 368 186 375 216 375 C262 375 357 375 357 282 L357 227 C208 214 60 196 60 100 L60 82 C60 18 105 -5 169 -5 C204 -5 272 -5 357 62 L357 23 Z M230 583 C224 583 220 580 217 574 L159 467 C160 460 165 457 174 457 C185 457 188 460 191 463 L240 561 L289 463 C292 460 295 457 306 457 C315 457 320 460 321 467 L263 574 C260 580 255 583 250 583 L230 583 Z " />
<glyph glyph-name="atilde" unicode="&#xe3;" horiz-adv-x="481" d="M357 102 C306 58 239 25 184 25 C157 25 92 25 92 93 L92 100 C92 181 299 192 357 192 L357 102 Z M357 23 C357 4 374 0 389 0 C402 0 426 1 426 19 C426 26 424 30 420 30 L389 30 L389 279 C389 396 293 407 216 407 C195 407 112 404 80 385 C72 380 68 374 68 365 C68 352 78 342 90 342 C101 342 109 350 112 359 C121 368 186 375 216 375 C262 375 357 375 357 282 L357 227 C208 214 60 196 60 100 L60 82 C60 18 105 -5 169 -5 C204 -5 272 -5 357 62 L357 23 Z M272 457 C295 457 317 464 337 477 C337 480 338 481 338 484 C338 491 334 497 326 500 C309 488 292 485 272 485 C239 485 219 502 189 502 C164 502 149 500 129 485 L129 480 C129 472 133 465 141 462 C158 471 171 474 186 474 C221 474 241 457 272 457 L272 457 Z " />
<glyph glyph-name="adieresis" unicode="&#xe4;" horiz-adv-x="481" d="M357 102 C306 58 239 25 184 25 C157 25 92 25 92 93 L92 100 C92 181 299 192 357 192 L357 102 Z M357 23 C357 4 374 0 389 0 C402 0 426 1 426 19 C426 26 424 30 420 30 L389 30 L389 279 C389 396 293 407 216 407 C195 407 112 404 80 385 C72 380 68 374 68 365 C68 352 78 342 90 342 C101 342 109 350 112 359 C121 368 186 375 216 375 C262 375 357 375 357 282 L357 227 C208 214 60 196 60 100 L60 82 C60 18 105 -5 169 -5 C204 -5 272 -5 357 62 L357 23 Z M148 477 C148 465 157 456 169 456 C181 456 191 465 191 477 C191 489 181 499 169 499 C157 499 148 489 148 477 L148 477 Z M294 477 C294 465 303 456 315 456 C327 456 337 465 337 477 C337 489 327 499 315 499 C303 499 294 489 294 477 L294 477 Z " />
<glyph glyph-name="aring" unicode="&#xe5;" horiz-adv-x="481" d="M242 590 C207 590 178 560 178 523 C178 488 207 457 242 457 C279 457 309 488 309 523 C309 560 279 590 242 590 L242 590 Z M242 487 C221 487 208 504 208 523 C208 539 221 557 242 557 C265 557 277 539 277 523 C277 504 265 487 242 487 L242 487 Z M357 102 C306 58 239 25 184 25 C157 25 92 25 92 93 L92 100 C92 181 299 192 357 192 L357 102 Z M357 23 C357 4 374 0 389 0 C402 0 426 1 426 19 C426 26 424 30 420 30 L389 30 L389 279 C389 396 293 407 216 407 C195 407 112 404 80 385 C72 380 68 374 68 365 C68 352 78 342 90 342 C101 342 109 350 112 359 C121 368 186 375 216 375 C262 375 357 375 357 282 L357 227 C208 214 60 196 60 100 L60 82 C60 18 105 -5 169 -5 C204 -5 272 -5 357 62 L357 23 Z " />
<glyph glyph-name="ae" unicode="&#xe6;" horiz-adv-x="750" d="M389 282 C389 372 482 375 523 375 C566 375 653 372 653 282 L653 218 L389 218 L389 282 Z M357 102 C306 58 239 25 184 25 C157 25 92 25 92 93 L92 100 C92 181 299 192 357 192 L357 102 Z M216 375 C262 375 357 375 357 282 L357 227 C208 214 60 196 60 100 L60 82 C60 18 105 -5 169 -5 C203 -5 285 0 367 69 C394 4 480 -5 544 -5 C594 -5 668 2 668 22 C668 29 669 34 666 39 C663 42 661 43 658 43 C657 43 656 42 653 41 C613 28 564 25 543 25 C503 25 389 31 389 122 L389 187 L667 187 C679 187 685 197 685 208 L685 286 C685 388 596 407 523 407 C467 407 402 396 373 349 C341 400 276 407 216 407 C195 407 112 404 80 385 C72 380 68 374 68 365 C68 352 78 342 90 342 C101 342 109 350 112 359 C121 368 186 375 216 375 L216 375 Z " />
<glyph glyph-name="ccedilla" unicode="&#xe7;" horiz-adv-x="448" d="M243 -5 C293 -5 383 9 383 30 C383 37 384 42 381 47 C378 50 376 51 373 51 C372 51 371 50 368 49 C326 25 265 25 244 25 C172 25 97 28 97 121 L97 283 C97 374 201 375 244 375 C270 375 336 366 342 364 C345 354 352 349 362 349 C374 349 383 358 383 370 C383 378 379 384 372 388 C345 399 266 407 246 407 C166 407 65 388 65 286 L65 110 C65 1 163 -5 243 -5 L243 -5 Z M246 -65 C246 -59 242 -56 233 -56 C226 -56 223 -61 220 -65 L170 -150 C170 -157 178 -161 189 -161 C198 -161 209 -157 210 -150 L246 -65 Z " />
<glyph glyph-name="egrave" unicode="&#xe8;" horiz-adv-x="458" d="M231 407 C154 407 65 388 65 286 L65 122 C65 8 173 -5 252 -5 C302 -5 376 2 376 22 C376 29 377 34 374 39 C371 42 369 43 366 43 C365 43 364 42 361 41 C321 28 272 25 251 25 C211 25 97 31 97 122 L97 187 L375 187 C387 187 393 197 393 208 L393 286 C393 388 304 407 231 407 L231 407 Z M361 218 L97 218 L97 282 C97 372 190 375 231 375 C274 375 361 372 361 282 L361 218 Z M167 543 C167 547 173 552 186 552 C193 552 205 551 208 544 C240 473 242 466 242 464 C242 459 236 457 231 457 C224 457 217 457 214 464 L167 543 Z " />
<glyph glyph-name="eacute" unicode="&#xe9;" horiz-adv-x="458" d="M231 407 C154 407 65 388 65 286 L65 122 C65 8 173 -5 252 -5 C302 -5 376 2 376 22 C376 29 377 34 374 39 C371 42 369 43 366 43 C365 43 364 42 361 41 C321 28 272 25 251 25 C211 25 97 31 97 122 L97 187 L375 187 C387 187 393 197 393 208 L393 286 C393 388 304 407 231 407 L231 407 Z M361 218 L97 218 L97 282 C97 372 190 375 231 375 C274 375 361 372 361 282 L361 218 Z M248 464 C245 459 240 457 231 457 C226 457 220 459 220 464 C220 466 222 473 254 544 C257 551 269 552 276 552 C289 552 295 547 295 543 L248 464 Z " />
<glyph glyph-name="ecircumflex" unicode="&#xea;" horiz-adv-x="458" d="M231 407 C154 407 65 388 65 286 L65 122 C65 8 173 -5 252 -5 C302 -5 376 2 376 22 C376 29 377 34 374 39 C371 42 369 43 366 43 C365 43 364 42 361 41 C321 28 272 25 251 25 C211 25 97 31 97 122 L97 187 L375 187 C387 187 393 197 393 208 L393 286 C393 388 304 407 231 407 L231 407 Z M361 218 L97 218 L97 282 C97 372 190 375 231 375 C274 375 361 372 361 282 L361 218 Z M221 583 C215 583 211 580 208 574 L150 467 C151 460 156 457 165 457 C176 457 179 460 182 463 L231 561 L280 463 C283 460 286 457 297 457 C306 457 311 460 312 467 L254 574 C251 580 246 583 241 583 L221 583 Z " />
<glyph glyph-name="edieresis" unicode="&#xeb;" horiz-adv-x="458" d="M231 407 C154 407 65 388 65 286 L65 122 C65 8 173 -5 252 -5 C302 -5 376 2 376 22 C376 29 377 34 374 39 C371 42 369 43 366 43 C365 43 364 42 361 41 C321 28 272 25 251 25 C211 25 97 31 97 122 L97 187 L375 187 C387 187 393 197 393 208 L393 286 C393 388 304 407 231 407 L231 407 Z M361 218 L97 218 L97 282 C97 372 190 375 231 375 C274 375 361 372 361 282 L361 218 Z M136 477 C136 465 145 456 157 456 C169 456 179 465 179 477 C179 489 169 499 157 499 C145 499 136 489 136 477 L136 477 Z M282 477 C282 465 291 456 303 456 C315 456 325 465 325 477 C325 489 315 499 303 499 C291 499 282 489 282 477 L282 477 Z " />
<glyph glyph-name="igrave" unicode="&#xec;" horiz-adv-x="249" d="M108 370 L108 45 C108 38 108 30 100 30 L73 30 C72 30 65 30 65 15 C65 8 65 0 76 0 L173 0 C184 0 184 8 184 15 C184 30 177 30 176 30 L148 30 C140 30 140 38 140 45 L140 387 C140 396 136 400 128 400 C104 400 77 397 68 394 C66 393 65 389 65 383 C65 374 67 370 71 370 L108 370 Z M62 543 C62 547 68 552 81 552 C88 552 100 551 103 544 C135 473 137 466 137 464 C137 459 131 457 126 457 C119 457 112 457 109 464 L62 543 Z " />
<glyph glyph-name="iacute" unicode="&#xed;" horiz-adv-x="249" d="M108 370 L108 45 C108 38 108 30 100 30 L73 30 C72 30 65 30 65 15 C65 8 65 0 76 0 L173 0 C184 0 184 8 184 15 C184 30 177 30 176 30 L148 30 C140 30 140 38 140 45 L140 387 C140 396 136 400 128 400 C104 400 77 397 68 394 C66 393 65 389 65 383 C65 374 67 370 71 370 L108 370 Z M140 464 C137 459 132 457 123 457 C118 457 112 459 112 464 C112 466 114 473 146 544 C149 551 161 552 168 552 C181 552 187 547 187 543 L140 464 Z " />
<glyph glyph-name="icircumflex" unicode="&#xee;" horiz-adv-x="249" d="M108 370 L108 45 C108 38 108 30 100 30 L73 30 C72 30 65 30 65 15 C65 8 65 0 76 0 L173 0 C184 0 184 8 184 15 C184 30 177 30 176 30 L148 30 C140 30 140 38 140 45 L140 387 C140 396 136 400 128 400 C104 400 77 397 68 394 C66 393 65 389 65 383 C65 374 67 370 71 370 L108 370 Z M102 583 C96 583 92 580 89 574 L31 467 C32 460 37 457 46 457 C57 457 60 460 63 463 L112 561 L161 463 C164 460 167 457 178 457 C187 457 192 460 193 467 L135 574 C132 580 127 583 122 583 L102 583 Z " />
<glyph glyph-name="idieresis" unicode="&#xef;" horiz-adv-x="249" d="M108 370 L108 45 C108 38 108 30 100 30 L73 30 C72 30 65 30 65 15 C65 8 65 0 76 0 L173 0 C184 0 184 8 184 15 C184 30 177 30 176 30 L148 30 C140 30 140 38 140 45 L140 387 C140 396 136 400 128 400 C104 400 77 397 68 394 C66 393 65 389 65 383 C65 374 67 370 71 370 L108 370 Z M47 477 C47 465 56 456 68 456 C80 456 90 465 90 477 C90 489 80 499 68 499 C56 499 47 489 47 477 L47 477 Z M135 477 C135 465 144 456 156 456 C168 456 178 465 178 477 C178 489 168 499 156 499 C144 499 135 489 135 477 L135 477 Z " />
<glyph glyph-name="eth" unicode="&#xf0;" horiz-adv-x="462" d="M231 25 C192 25 97 31 97 122 L97 279 C97 368 192 375 231 375 C270 375 365 368 365 279 L365 122 C365 31 270 25 231 25 L231 25 Z M256 556 C256 563 251 566 244 567 C237 567 233 565 231 561 L225 535 C186 532 161 528 148 521 C147 520 147 517 147 514 C147 507 150 501 157 496 C172 501 188 504 220 507 L212 481 C212 474 217 469 224 469 C229 469 232 471 235 476 L244 503 C281 492 351 454 354 375 C321 400 274 407 231 407 C156 407 65 384 65 282 L65 110 C65 17 156 -5 231 -5 C306 -5 397 17 397 110 L397 289 C397 468 321 507 249 531 L256 556 Z " />
<glyph glyph-name="ntilde" unicode="&#xf1;" horiz-adv-x="539" d="M143 387 C143 396 139 400 131 400 C107 400 77 397 68 394 C66 393 65 389 65 383 C65 374 67 370 71 370 L111 370 L111 44 C111 37 111 30 103 30 L73 30 C72 30 65 30 65 15 C65 8 66 0 75 0 L191 0 C194 0 198 1 198 17 C198 26 196 30 191 30 L143 30 L143 320 C174 354 236 375 288 375 C401 375 406 307 406 291 L406 30 L358 30 C353 30 351 26 351 17 C351 1 355 0 358 0 L474 0 C483 0 484 8 484 15 C484 30 477 30 476 30 L446 30 C438 30 438 37 438 44 L438 288 C438 368 384 407 291 407 C264 407 198 406 143 361 L143 387 Z M314 457 C337 457 359 464 379 477 C379 480 380 481 380 484 C380 491 376 497 368 500 C351 488 334 485 314 485 C281 485 261 502 231 502 C206 502 191 500 171 485 L171 480 C171 472 175 465 183 462 C200 471 213 474 228 474 C263 474 283 457 314 457 L314 457 Z " />
<glyph glyph-name="ograve" unicode="&#xf2;" horiz-adv-x="462" d="M231 25 C192 25 97 31 97 122 L97 279 C97 368 192 375 231 375 C270 375 365 368 365 279 L365 122 C365 31 270 25 231 25 L231 25 Z M231 -5 C306 -5 397 17 397 110 L397 282 C397 384 306 407 231 407 C156 407 65 384 65 282 L65 110 C65 17 156 -5 231 -5 L231 -5 Z M167 543 C167 547 173 552 186 552 C193 552 205 551 208 544 C240 473 242 466 242 464 C242 459 236 457 231 457 C224 457 217 457 214 464 L167 543 Z " />
<glyph glyph-name="oacute" unicode="&#xf3;" horiz-adv-x="462" d="M231 25 C192 25 97 31 97 122 L97 279 C97 368 192 375 231 375 C270 375 365 368 365 279 L365 122 C365 31 270 25 231 25 L231 25 Z M231 -5 C306 -5 397 17 397 110 L397 282 C397 384 306 407 231 407 C156 407 65 384 65 282 L65 110 C65 17 156 -5 231 -5 L231 -5 Z M247 464 C244 459 239 457 230 457 C225 457 219 459 219 464 C219 466 221 473 253 544 C256 551 268 552 275 552 C288 552 294 547 294 543 L247 464 Z " />
<glyph glyph-name="ocircumflex" unicode="&#xf4;" horiz-adv-x="462" d="M231 25 C192 25 97 31 97 122 L97 279 C97 368 192 375 231 375 C270 375 365 368 365 279 L365 122 C365 31 270 25 231 25 L231 25 Z M231 -5 C306 -5 397 17 397 110 L397 282 C397 384 306 407 231 407 C156 407 65 384 65 282 L65 110 C65 17 156 -5 231 -5 L231 -5 Z M221 583 C215 583 211 580 208 574 L150 467 C151 460 156 457 165 457 C176 457 179 460 182 463 L231 561 L280 463 C283 460 286 457 297 457 C306 457 311 460 312 467 L254 574 C251 580 246 583 241 583 L221 583 Z " />
<glyph glyph-name="otilde" unicode="&#xf5;" horiz-adv-x="462" d="M231 25 C192 25 97 31 97 122 L97 279 C97 368 192 375 231 375 C270 375 365 368 365 279 L365 122 C365 31 270 25 231 25 L231 25 Z M231 -5 C306 -5 397 17 397 110 L397 282 C397 384 306 407 231 407 C156 407 65 384 65 282 L65 110 C65 17 156 -5 231 -5 L231 -5 Z M272 457 C295 457 317 464 337 477 C337 480 338 481 338 484 C338 491 334 497 326 500 C309 488 292 485 272 485 C239 485 219 502 189 502 C164 502 149 500 129 485 L129 480 C129 472 133 465 141 462 C158 471 171 474 186 474 C221 474 241 457 272 457 L272 457 Z " />
<glyph glyph-name="odieresis" unicode="&#xf6;" horiz-adv-x="462" d="M231 25 C192 25 97 31 97 122 L97 279 C97 368 192 375 231 375 C270 375 365 368 365 279 L365 122 C365 31 270 25 231 25 L231 25 Z M231 -5 C306 -5 397 17 397 110 L397 282 C397 384 306 407 231 407 C156 407 65 384 65 282 L65 110 C65 17 156 -5 231 -5 L231 -5 Z M136 477 C136 465 145 456 157 456 C169 456 179 465 179 477 C179 489 169 499 157 499 C145 499 136 489 136 477 L136 477 Z M282 477 C282 465 291 456 303 456 C315 456 325 465 325 477 C325 489 315 499 303 499 C291 499 282 489 282 477 L282 477 Z " />
<glyph glyph-name="divide" unicode="&#xf7;" horiz-adv-x="497" d="M407 172 C412 172 417 180 417 187 C417 202 410 204 407 204 L90 204 C87 204 80 202 80 187 C80 180 85 172 90 172 L407 172 Z M228 44 C228 32 237 23 249 23 C261 23 271 32 271 44 C271 56 261 66 249 66 C237 66 228 56 228 44 L228 44 Z M228 330 C228 318 237 309 249 309 C261 309 271 318 271 330 C271 342 261 352 249 352 C237 352 228 342 228 330 L228 330 Z " />
<glyph glyph-name="oslash" unicode="&#xf8;" horiz-adv-x="462" d="M97 278 C97 367 192 374 231 374 C247 374 272 373 296 365 L136 46 C113 61 97 82 97 121 L97 278 Z M365 121 C365 30 270 24 231 24 C215 24 189 25 165 33 L325 353 C348 338 365 317 365 278 L365 121 Z M72 -78 C73 -85 78 -88 88 -88 C99 -88 103 -83 106 -79 L150 4 C177 -3 204 -6 231 -6 C306 -6 397 16 397 109 L397 281 C397 333 373 364 340 383 L387 481 C386 488 381 491 371 491 C360 491 356 486 353 482 L311 395 C284 403 258 406 231 406 C156 406 65 383 65 281 L65 109 C65 62 88 33 121 16 L72 -78 Z " />
<glyph glyph-name="ugrave" unicode="&#xf9;" horiz-adv-x="515" d="M383 23 C383 4 405 0 420 0 C433 0 460 1 460 19 C460 26 458 30 454 30 L415 30 L415 387 C415 396 411 400 403 400 C379 400 348 397 339 394 C337 393 336 389 336 383 C336 374 338 370 342 370 L383 370 L383 109 C338 58 253 25 216 25 C121 25 119 76 119 104 L119 387 C119 396 115 400 107 400 C83 400 52 397 43 394 C41 393 40 389 40 383 C40 374 42 370 46 370 L87 370 L87 110 C87 30 117 -5 212 -5 C269 -5 339 24 383 64 L383 23 Z M175 543 C175 547 181 552 194 552 C201 552 213 551 216 544 C248 473 250 466 250 464 C250 459 244 457 239 457 C232 457 225 457 222 464 L175 543 Z " />
<glyph glyph-name="uacute" unicode="&#xfa;" horiz-adv-x="515" d="M383 23 C383 4 405 0 420 0 C433 0 460 1 460 19 C460 26 458 30 454 30 L415 30 L415 387 C415 396 411 400 403 400 C379 400 348 397 339 394 C337 393 336 389 336 383 C336 374 338 370 342 370 L383 370 L383 109 C338 58 253 25 216 25 C121 25 119 76 119 104 L119 387 C119 396 115 400 107 400 C83 400 52 397 43 394 C41 393 40 389 40 383 C40 374 42 370 46 370 L87 370 L87 110 C87 30 117 -5 212 -5 C269 -5 339 24 383 64 L383 23 Z M254 464 C251 459 246 457 237 457 C232 457 226 459 226 464 C226 466 228 473 260 544 C263 551 275 552 282 552 C295 552 301 547 301 543 L254 464 Z " />
<glyph glyph-name="ucircumflex" unicode="&#xfb;" horiz-adv-x="515" d="M383 23 C383 4 405 0 420 0 C433 0 460 1 460 19 C460 26 458 30 454 30 L415 30 L415 387 C415 396 411 400 403 400 C379 400 348 397 339 394 C337 393 336 389 336 383 C336 374 338 370 342 370 L383 370 L383 109 C338 58 253 25 216 25 C121 25 119 76 119 104 L119 387 C119 396 115 400 107 400 C83 400 52 397 43 394 C41 393 40 389 40 383 C40 374 42 370 46 370 L87 370 L87 110 C87 30 117 -5 212 -5 C269 -5 339 24 383 64 L383 23 Z M230 583 C224 583 220 580 217 574 L159 467 C160 460 165 457 174 457 C185 457 188 460 191 463 L240 561 L289 463 C292 460 295 457 306 457 C315 457 320 460 321 467 L263 574 C260 580 255 583 250 583 L230 583 Z " />
<glyph glyph-name="udieresis" unicode="&#xfc;" horiz-adv-x="515" d="M383 23 C383 4 405 0 420 0 C433 0 460 1 460 19 C460 26 458 30 454 30 L415 30 L415 387 C415 396 411 400 403 400 C379 400 348 397 339 394 C337 393 336 389 336 383 C336 374 338 370 342 370 L383 370 L383 109 C338 58 253 25 216 25 C121 25 119 76 119 104 L119 387 C119 396 115 400 107 400 C83 400 52 397 43 394 C41 393 40 389 40 383 C40 374 42 370 46 370 L87 370 L87 110 C87 30 117 -5 212 -5 C269 -5 339 24 383 64 L383 23 Z M136 477 C136 465 145 456 157 456 C169 456 179 465 179 477 C179 489 169 499 157 499 C145 499 136 489 136 477 L136 477 Z M282 477 C282 465 291 456 303 456 C315 456 325 465 325 477 C325 489 315 499 303 499 C291 499 282 489 282 477 L282 477 Z " />
<glyph glyph-name="yacute" unicode="&#xfd;" horiz-adv-x="569" d="M287 18 L144 368 L200 368 C203 368 209 368 209 384 C209 392 209 400 198 400 L76 400 C65 400 65 392 65 384 C65 368 71 368 74 368 L110 368 L269 -29 L249 -80 C225 -140 192 -141 164 -141 L143 -141 C134 -141 129 -148 129 -156 C129 -160 131 -169 134 -170 C151 -173 161 -172 174 -172 C208 -172 256 -156 280 -92 L459 368 L495 368 C498 368 504 368 504 384 C504 392 504 400 493 400 L371 400 C360 400 360 392 360 384 C360 368 366 368 369 368 L425 368 L287 18 Z M351 543 C351 547 345 552 332 552 C325 552 313 551 310 544 C278 473 276 466 276 464 C276 459 282 457 287 457 C296 457 301 459 304 464 L351 543 Z " />
<glyph glyph-name="thorn" unicode="&#xfe;" horiz-adv-x="549" d="M149 30 L149 327 L293 327 C408 327 465 277 465 176 C465 131 438 30 294 30 L149 30 Z M115 -139 C115 -146 115 -153 107 -153 L79 -153 C78 -153 70 -153 70 -168 C70 -175 72 -183 81 -183 L188 -183 C191 -183 195 -182 195 -166 C195 -157 193 -153 188 -153 L149 -153 L149 0 L297 0 C479 0 499 135 499 179 C499 267 449 357 305 357 L149 357 L149 531 L188 531 C193 531 195 535 195 544 C195 560 191 561 188 561 L81 561 C72 561 70 553 70 546 C70 531 78 531 79 531 L107 531 C115 531 115 524 115 517 L115 -139 Z " />
<glyph glyph-name="ydieresis" unicode="&#xff;" horiz-adv-x="569" d="M287 18 L144 368 L200 368 C203 368 209 368 209 384 C209 392 209 400 198 400 L76 400 C65 400 65 392 65 384 C65 368 71 368 74 368 L110 368 L269 -29 L249 -80 C225 -140 192 -141 164 -141 L143 -141 C134 -141 129 -148 129 -156 C129 -160 131 -169 134 -170 C151 -173 161 -172 174 -172 C208 -172 256 -156 280 -92 L459 368 L495 368 C498 368 504 368 504 384 C504 392 504 400 493 400 L371 400 C360 400 360 392 360 384 C360 368 366 368 369 368 L425 368 L287 18 Z M193 477 C193 465 202 456 214 456 C226 456 236 465 236 477 C236 489 226 499 214 499 C202 499 193 489 193 477 L193 477 Z M339 477 C339 465 348 456 360 456 C372 456 382 465 382 477 C382 489 372 499 360 499 C348 499 339 489 339 477 L339 477 Z " />
<glyph glyph-name="dotlessi" unicode="&#x131;" horiz-adv-x="249" d="M108 370 L108 45 C108 38 108 30 100 30 L73 30 C72 30 65 30 65 15 C65 8 65 0 76 0 L173 0 C184 0 184 8 184 15 C184 30 177 30 176 30 L148 30 C140 30 140 38 140 45 L140 387 C140 396 136 400 128 400 C104 400 77 397 68 394 C66 393 65 389 65 383 C65 374 67 370 71 370 L108 370 Z " />
<glyph glyph-name="Lslash" unicode="&#x141;" horiz-adv-x="538" d="M480 58 C475 58 463 58 463 54 L462 30 L149 30 L149 254 L242 279 C247 282 250 287 250 294 C250 305 245 311 234 311 L149 289 L149 520 L187 520 C192 520 194 524 194 533 C194 549 190 550 187 550 L82 550 C73 550 72 542 72 535 C72 520 79 520 80 520 L109 520 C117 520 117 513 117 506 L117 280 L78 270 C73 267 70 262 70 255 C70 244 77 237 86 237 L117 245 L117 30 L78 28 C74 28 72 23 72 14 C72 9 73 5 75 3 C84 1 98 0 119 0 L481 0 C492 3 493 18 493 29 C493 38 492 58 480 58 L480 58 Z " />
<glyph glyph-name="lslash" unicode="&#x142;" horiz-adv-x="280" d="M78 273 C73 270 70 265 70 258 C70 247 77 240 86 240 L115 248 L115 45 C115 38 115 30 107 30 L78 30 C77 30 70 30 70 15 C70 8 70 0 81 0 L181 0 C192 0 192 8 192 15 C192 30 185 30 184 30 L155 30 C147 30 147 38 147 45 L147 257 L202 272 C207 275 210 280 210 287 C210 298 205 304 194 304 L147 291 L147 505 C147 512 147 520 155 520 L184 520 C185 520 192 520 192 535 C192 542 192 550 181 550 L81 550 C70 550 70 542 70 535 C70 520 77 520 78 520 L107 520 C115 520 115 512 115 505 L115 283 L78 273 Z " />
<glyph glyph-name="OE" unicode="&#x152;" horiz-adv-x="837" d="M297 24 C220 24 102 27 102 151 L102 390 C102 523 247 523 299 523 C322 523 354 523 391 519 L391 27 C360 24 330 24 297 24 L297 24 Z M755 0 C766 3 767 18 767 29 C767 38 766 58 754 58 C749 58 737 58 737 54 L736 30 L423 30 L423 248 L693 248 C696 248 702 249 702 264 C702 273 699 278 693 278 L423 278 L423 518 L736 518 L737 496 C737 492 749 492 754 492 C766 492 767 512 767 521 C767 532 766 547 755 550 L381 550 C350 553 322 555 299 555 C219 555 70 538 70 395 L70 149 C70 -5 219 -5 299 -5 C331 -5 368 -4 403 0 L755 0 Z " />
<glyph glyph-name="oe" unicode="&#x153;" horiz-adv-x="758" d="M531 375 C574 375 661 372 661 282 L661 218 L397 218 L397 282 C397 372 490 375 531 375 L531 375 Z M231 25 C192 25 97 31 97 122 L97 279 C97 368 192 375 231 375 C270 375 365 368 365 279 L365 122 C365 31 270 25 231 25 L231 25 Z M675 187 C687 187 693 197 693 208 L693 286 C693 388 604 407 531 407 C473 407 410 396 380 347 C349 394 287 407 231 407 C156 407 65 384 65 282 L65 110 C65 17 156 -5 231 -5 C288 -5 354 8 383 55 C418 2 492 -5 552 -5 C602 -5 676 2 676 22 C676 29 677 34 674 39 C671 42 669 43 666 43 C665 43 664 42 661 41 C621 28 572 25 551 25 C511 25 397 31 397 122 L397 187 L675 187 Z " />
<glyph glyph-name="Scaron" unicode="&#x160;" horiz-adv-x="529" d="M286 -5 C386 -5 499 -6 499 133 C499 268 108 274 108 412 C108 477 153 523 286 523 C362 523 436 514 445 505 C448 496 456 488 467 488 C479 488 489 498 489 511 C489 520 485 526 477 531 C444 550 306 555 285 555 C180 555 76 519 76 412 C76 241 467 236 467 129 C467 25 367 25 286 25 L277 25 C218 25 105 50 105 70 L105 74 C105 78 97 81 89 81 C76 81 70 71 70 58 C70 3 259 -5 286 -5 L286 -5 Z M296 600 C301 600 306 603 309 609 L367 716 C366 723 361 726 352 726 C341 726 338 723 335 720 L286 622 L237 720 C234 723 231 726 220 726 C211 726 206 723 205 716 L263 609 C266 603 270 600 276 600 L296 600 Z " />
<glyph glyph-name="scaron" unicode="&#x161;" horiz-adv-x="436" d="M231 -5 C304 -5 381 10 381 87 L381 102 C381 202 100 194 92 289 L92 298 C92 348 128 375 241 375 L245 375 C272 375 313 367 320 365 C323 354 330 349 340 349 C352 349 361 358 361 370 C361 379 357 385 350 389 C323 400 258 407 238 407 C161 407 60 401 60 304 L60 284 C60 165 349 166 349 97 L349 87 C349 26 270 25 230 25 C193 25 97 38 97 53 L97 57 C97 61 89 64 81 64 C66 64 61 55 61 40 C61 5 174 -5 231 -5 L231 -5 Z M220 457 C225 457 230 460 233 466 L291 573 C290 580 285 583 276 583 C265 583 262 580 259 577 L210 479 L161 577 C158 580 155 583 144 583 C135 583 130 580 129 573 L187 466 C190 460 194 457 200 457 L220 457 Z " />
<glyph glyph-name="Ydieresis" unicode="&#x178;" horiz-adv-x="644" d="M306 45 C306 38 306 30 298 30 L267 30 C266 30 259 30 259 15 C259 8 259 0 270 0 L373 0 C384 0 384 8 384 15 C384 30 377 30 376 30 L346 30 C338 30 338 38 338 45 L338 213 L553 520 L591 520 C592 520 599 520 599 535 C599 542 598 550 589 550 L437 550 C428 550 427 542 427 535 C427 520 434 520 435 520 L515 520 L322 247 L129 520 L209 520 C210 520 217 520 217 535 C217 542 216 550 207 550 L55 550 C46 550 45 542 45 535 C45 520 52 520 53 520 L91 520 L306 214 L306 45 Z M226 621 C226 609 235 600 247 600 C259 600 269 609 269 621 C269 633 259 643 247 643 C235 643 226 633 226 621 L226 621 Z M372 621 C372 609 381 600 393 600 C405 600 415 609 415 621 C415 633 405 643 393 643 C381 643 372 633 372 621 L372 621 Z " />
<glyph glyph-name="Zcaron" unicode="&#x17d;" horiz-adv-x="551" d="M467 0 C480 3 481 15 481 28 C481 39 480 56 465 56 C458 56 450 56 449 49 L447 30 L115 30 L475 512 C479 517 481 523 481 529 C481 542 471 550 456 550 L84 550 C71 547 70 535 70 522 C70 511 71 494 86 494 C93 494 101 494 102 501 L104 518 L440 518 L79 36 C71 29 70 23 70 16 C70 3 79 0 94 0 L467 0 Z M283 600 C288 600 293 603 296 609 L354 716 C353 723 348 726 339 726 C328 726 325 723 322 720 L273 622 L224 720 C221 723 218 726 207 726 C198 726 193 723 192 716 L250 609 C253 603 257 600 263 600 L283 600 Z " />
<glyph glyph-name="zcaron" unicode="&#x17e;" horiz-adv-x="453" d="M113 30 L381 361 C386 366 388 371 388 378 C388 393 378 400 363 400 L78 400 C66 397 65 385 65 372 C65 361 66 345 81 345 C88 345 100 345 101 352 L103 368 L346 368 L78 39 C73 34 71 29 71 22 C71 7 81 0 96 0 L374 0 C386 3 387 15 387 28 C387 39 386 55 371 55 C364 55 352 55 351 48 L349 30 L113 30 Z M234 457 C239 457 244 460 247 466 L305 573 C304 580 299 583 290 583 C279 583 276 580 273 577 L224 479 L175 577 C172 580 169 583 158 583 C149 583 144 580 143 573 L201 466 C204 460 208 457 214 457 L234 457 Z " />
<glyph glyph-name="florin" unicode="&#x192;" horiz-adv-x="329" d="M133 -48 C133 -133 109 -151 48 -151 C41 -151 25 -152 20 -149 C13 -149 10 -162 10 -167 C10 -174 12 -179 16 -180 C24 -182 34 -183 46 -183 C118 -183 165 -168 165 -50 L165 368 L258 368 C259 368 266 368 266 385 C266 393 263 400 258 400 L165 400 L165 442 C165 526 192 540 249 540 C260 540 282 539 287 539 C291 539 294 556 294 559 C294 571 269 572 253 572 C181 572 133 551 133 444 L133 400 L66 400 C61 400 58 393 58 385 C58 368 65 368 66 368 L133 368 L133 -48 Z " />
<glyph glyph-name="circumflex" unicode="&#x2c6;" horiz-adv-x="322" d="M151 555 C145 555 141 552 138 546 L80 439 C81 432 86 429 95 429 C106 429 109 432 112 435 L161 533 L210 435 C213 432 216 429 227 429 C236 429 241 432 242 439 L184 546 C181 552 176 555 171 555 L151 555 Z " />
<glyph glyph-name="caron" unicode="&#x2c7;" horiz-adv-x="322" d="M171 429 C176 429 181 432 184 438 L242 545 C241 552 236 555 227 555 C216 555 213 552 210 549 L161 451 L112 549 C109 552 106 555 95 555 C86 555 81 552 80 545 L138 438 C141 432 145 429 151 429 L171 429 Z " />
<glyph glyph-name="breve" unicode="&#x2d8;" horiz-adv-x="438" d="M219 456 C316 456 348 481 358 539 C358 550 352 555 341 555 C330 555 325 550 325 539 C318 499 296 482 219 482 C140 482 121 499 113 539 C113 550 108 555 97 555 C86 555 80 550 80 539 C90 481 122 456 219 456 L219 456 Z " />
<glyph glyph-name="dotaccent" unicode="&#x2d9;" horiz-adv-x="203" d="M80 533 C80 521 89 512 101 512 C113 512 123 521 123 533 C123 545 113 555 101 555 C89 555 80 545 80 533 L80 533 Z " />
<glyph glyph-name="ring" unicode="&#x2da;" horiz-adv-x="291" d="M144 555 C109 555 80 525 80 488 C80 453 109 422 144 422 C181 422 211 453 211 488 C211 525 181 555 144 555 L144 555 Z M144 452 C123 452 110 469 110 488 C110 504 123 522 144 522 C167 522 179 504 179 488 C179 469 167 452 144 452 L144 452 Z " />
<glyph glyph-name="ogonek" unicode="&#x2db;" horiz-adv-x="236" d="M116 -150 C117 -157 128 -161 137 -161 C148 -161 156 -157 156 -150 L106 -65 C103 -61 100 -56 93 -56 C84 -56 80 -59 80 -65 L116 -150 Z " />
<glyph glyph-name="tilde" unicode="&#x2dc;" horiz-adv-x="369" d="M223 510 C246 510 268 517 288 530 C288 533 289 534 289 537 C289 544 285 550 277 553 C260 541 243 538 223 538 C190 538 170 555 140 555 C115 555 100 553 80 538 L80 533 C80 525 84 518 92 515 C109 524 122 527 137 527 C172 527 192 510 223 510 L223 510 Z " />
<glyph glyph-name="hungarumlaut" unicode="&#x2dd;" horiz-adv-x="330" d="M183 429 C183 425 191 421 198 421 C207 421 211 424 211 429 L249 541 C249 542 250 543 250 544 C250 552 242 555 234 555 C219 555 211 551 208 544 L183 429 Z M80 429 C80 425 88 421 95 421 C104 421 108 424 108 429 L146 541 C146 542 147 543 147 544 C147 552 139 555 131 555 C116 555 108 551 105 544 L80 429 Z " />
<glyph glyph-name="pi" unicode="&#x3c0;" horiz-adv-x="614" d="M458 376 L523 376 C534 376 534 384 534 392 C534 408 526 408 523 408 L91 408 C88 408 80 408 80 392 C80 384 80 376 91 376 L154 376 L154 13 C154 8 161 0 168 0 C185 0 186 10 186 13 L186 376 L426 376 L426 13 C426 8 433 0 440 0 C457 0 458 10 458 13 L458 376 Z " />
<glyph glyph-name="ZWSP" unicode="&#x200b;" d="" />
<glyph glyph-name="endash" unicode="&#x2013;" horiz-adv-x="539" d="M449 172 C454 172 459 180 459 187 C459 202 452 204 449 204 L90 204 C87 204 80 202 80 187 C80 180 85 172 90 172 L449 172 Z " />
<glyph glyph-name="emdash" unicode="&#x2014;" horiz-adv-x="611" d="M521 172 C526 172 531 180 531 187 C531 202 524 204 521 204 L90 204 C87 204 80 202 80 187 C80 180 85 172 90 172 L521 172 Z " />
<glyph glyph-name="quoteleft" unicode="&#x2018;" horiz-adv-x="227" d="M147 547 C147 551 139 555 132 555 C123 555 119 552 119 547 L81 435 C81 434 80 433 80 432 C80 424 88 421 96 421 C111 421 119 425 122 432 L147 547 Z " />
<glyph glyph-name="quoteright" unicode="&#x2019;" horiz-adv-x="227" d="M80 429 C80 425 88 421 95 421 C104 421 108 424 108 429 L146 541 C146 542 147 543 147 544 C147 552 139 555 131 555 C116 555 108 551 105 544 L80 429 Z " />
<glyph glyph-name="quotesinglbase" unicode="&#x201a;" horiz-adv-x="227" d="M80 -96 C80 -100 88 -104 95 -104 C104 -104 108 -101 108 -96 L146 16 C146 17 147 18 147 19 C147 27 139 30 131 30 C116 30 108 26 105 19 L80 -96 Z " />
<glyph glyph-name="quotedblleft" unicode="&#x201c;" horiz-adv-x="330" d="M147 547 C147 551 139 555 132 555 C123 555 119 552 119 547 L81 435 C81 434 80 433 80 432 C80 424 88 421 96 421 C111 421 119 425 122 432 L147 547 Z M250 547 C250 551 242 555 235 555 C226 555 222 552 222 547 L184 435 C184 434 183 433 183 432 C183 424 191 421 199 421 C214 421 222 425 225 432 L250 547 Z " />
<glyph glyph-name="quotedblright" unicode="&#x201d;" horiz-adv-x="330" d="M183 429 C183 425 191 421 198 421 C207 421 211 424 211 429 L249 541 C249 542 250 543 250 544 C250 552 242 555 234 555 C219 555 211 551 208 544 L183 429 Z M80 429 C80 425 88 421 95 421 C104 421 108 424 108 429 L146 541 C146 542 147 543 147 544 C147 552 139 555 131 555 C116 555 108 551 105 544 L80 429 Z " />
<glyph glyph-name="quotedblbase" unicode="&#x201e;" horiz-adv-x="330" d="M183 -96 C183 -100 191 -104 198 -104 C207 -104 211 -101 211 -96 L249 16 C249 17 250 18 250 19 C250 27 242 30 234 30 C219 30 211 26 208 19 L183 -96 Z M80 -96 C80 -100 88 -104 95 -104 C104 -104 108 -101 108 -96 L146 16 C146 17 147 18 147 19 C147 27 139 30 131 30 C116 30 108 26 105 19 L80 -96 Z " />
<glyph glyph-name="dagger" unicode="&#x2020;" horiz-adv-x="396" d="M215 375 L305 375 C316 375 316 383 316 391 C316 407 308 407 305 407 L215 407 L215 537 C215 540 214 550 197 550 C190 550 183 542 183 537 L183 407 L91 407 C88 407 80 407 80 391 C80 383 80 375 91 375 L183 375 L183 -162 C183 -167 190 -175 197 -175 C214 -175 215 -165 215 -162 L215 375 Z " />
<glyph glyph-name="daggerdbl" unicode="&#x2021;" horiz-adv-x="396" d="M91 21 C88 21 80 21 80 5 C80 -3 80 -11 91 -11 L183 -11 L183 -162 C183 -167 190 -175 197 -175 C214 -175 215 -165 215 -162 L215 -11 L305 -11 C316 -11 316 -3 316 5 C316 21 308 21 305 21 L215 21 L215 375 L305 375 C316 375 316 383 316 391 C316 407 308 407 305 407 L215 407 L215 537 C215 540 214 550 197 550 C190 550 183 542 183 537 L183 407 L91 407 C88 407 80 407 80 391 C80 383 80 375 91 375 L183 375 L183 21 L91 21 Z " />
<glyph glyph-name="bullet" unicode="&#x2022;" horiz-adv-x="240" d="M80 193 C80 170 97 153 120 153 C143 153 160 170 160 193 C160 216 143 233 120 233 C97 233 80 216 80 193 L80 193 Z " />
<glyph glyph-name="ellipsis" unicode="&#x2026;" horiz-adv-x="657" d="M80 15 C80 3 89 -6 101 -6 C113 -6 123 3 123 15 C123 27 113 37 101 37 C89 37 80 27 80 15 L80 15 Z M307 15 C307 3 316 -6 328 -6 C340 -6 350 3 350 15 C350 27 340 37 328 37 C316 37 307 27 307 15 L307 15 Z M534 15 C534 3 543 -6 555 -6 C567 -6 577 3 577 15 C577 27 567 37 555 37 C543 37 534 27 534 15 L534 15 Z " />
<glyph glyph-name="perthousand" unicode="&#x2030;" horiz-adv-x="871" d="M679 219 C618 219 567 168 567 107 C567 46 618 -5 679 -5 C740 -5 791 46 791 107 C791 168 740 219 679 219 L679 219 Z M679 30 C638 30 603 65 603 106 C603 148 638 184 679 184 C722 184 757 149 757 106 C757 65 721 30 679 30 L679 30 Z M429 219 C368 219 317 168 317 107 C317 46 368 -5 429 -5 C490 -5 541 46 541 107 C541 168 490 219 429 219 L429 219 Z M429 30 C388 30 353 65 353 106 C353 148 388 184 429 184 C472 184 507 149 507 106 C507 65 471 30 429 30 L429 30 Z M192 555 C131 555 80 504 80 443 C80 382 131 331 192 331 C253 331 304 382 304 443 C304 504 253 555 192 555 L192 555 Z M192 366 C151 366 116 401 116 442 C116 484 151 520 192 520 C235 520 270 485 270 442 C270 401 234 366 192 366 L192 366 Z M103 11 C102 10 102 9 102 8 C102 3 107 0 118 0 C133 0 136 2 140 9 L516 539 C517 540 517 541 517 542 C517 547 512 550 502 550 C487 550 484 547 480 540 L103 11 Z " />
<glyph glyph-name="guilsinglleft" unicode="&#x2039;" horiz-adv-x="359" d="M238 53 C242 48 246 44 258 44 C269 44 276 47 277 55 L114 252 L279 450 C278 458 271 461 260 461 C248 461 244 457 240 452 L91 274 C84 268 80 260 80 251 C80 242 83 236 88 231 C147 159 182 120 238 53 L238 53 Z " />
<glyph glyph-name="guilsinglright" unicode="&#x203a;" horiz-adv-x="359" d="M121 53 C177 120 212 159 271 231 C276 236 279 242 279 251 C279 260 275 268 268 274 L119 452 C115 457 111 461 99 461 C88 461 81 458 80 450 L245 252 L82 55 C83 47 90 44 101 44 C113 44 117 48 121 53 L121 53 Z " />
<glyph glyph-name="fraction" unicode="&#x2044;" horiz-adv-x="407" d="M327 551 C326 557 321 560 311 560 C300 560 297 555 294 551 L80 -45 C81 -51 86 -54 96 -54 C107 -54 110 -49 113 -45 L327 551 Z " />
<glyph glyph-name="Euro" unicode="&#x20ac;" horiz-adv-x="632" d="M254 174 C259 174 264 182 264 189 C264 204 257 206 254 206 L163 206 L163 315 L254 315 C259 315 264 323 264 330 C264 345 257 347 254 347 L163 347 L163 390 C163 523 308 523 360 523 C436 523 499 514 508 505 C511 496 519 488 530 488 C542 488 552 498 552 511 C552 520 548 526 540 531 C508 550 381 555 360 555 C280 555 131 538 131 395 L131 347 L90 347 C87 347 80 345 80 330 C80 323 85 315 90 315 L131 315 L131 206 L90 206 C87 206 80 204 80 189 C80 182 85 174 90 174 L131 174 L131 149 C131 -5 280 -5 360 -5 C445 -5 552 7 552 28 C552 35 553 40 550 45 C547 48 545 49 542 49 C541 49 540 48 537 47 C498 34 459 24 358 24 C281 24 163 27 163 151 L163 174 L254 174 Z " />
<glyph glyph-name="trademark" unicode="&#x2122;" horiz-adv-x="658" d="M255 522 L255 509 C255 506 263 505 267 505 C278 505 278 517 278 524 C278 532 277 545 270 546 L88 546 C81 545 80 532 80 524 C80 517 80 505 91 505 C95 505 103 506 103 509 L103 522 L167 522 L167 360 C167 355 168 349 161 349 L150 349 C147 349 143 349 143 336 C143 331 144 325 151 325 L211 325 C218 325 219 331 219 336 C219 341 218 344 215 347 C214 348 213 349 212 349 L199 349 C192 349 193 355 193 360 L193 522 L255 522 Z M441 360 C448 360 455 363 458 374 L517 522 L530 358 C530 352 528 349 525 349 L513 349 C512 349 511 348 510 347 C508 345 507 341 507 336 C507 331 508 325 515 325 L570 325 C577 325 578 331 578 336 C578 349 575 349 572 349 L563 349 C558 349 556 353 556 360 L543 522 L569 524 C572 524 573 531 573 536 C573 540 572 543 570 544 C563 545 553 546 538 546 L510 546 C503 546 496 544 493 533 L436 388 L379 533 C376 544 369 546 362 546 L334 546 C319 546 309 545 302 544 C300 543 299 540 299 536 C299 531 300 524 303 524 L329 522 L316 360 C316 353 314 349 309 349 L300 349 C297 349 294 349 294 336 C294 331 295 325 302 325 L357 325 C364 325 365 331 365 336 C365 343 363 344 362 347 C361 348 360 349 359 349 L347 349 C344 349 342 352 342 358 L355 522 L414 374 C417 363 424 360 431 360 L441 360 Z " />
<glyph glyph-name="Omega" unicode="&#x2126;" horiz-adv-x="648" d="M324 523 C469 523 536 454 536 286 C536 100 474 30 434 30 L396 30 C392 30 388 23 388 16 C388 1 393 0 396 0 L560 0 C563 0 568 0 568 15 C568 23 564 30 560 30 L497 30 C553 96 568 197 568 286 C568 465 487 555 324 555 C161 555 80 465 80 286 C80 197 95 96 151 30 L88 30 C84 30 80 23 80 15 C80 0 85 0 88 0 L252 0 C255 0 260 1 260 16 C260 23 256 30 252 30 L214 30 C174 30 112 100 112 286 C112 454 179 523 324 523 L324 523 Z " />
<glyph glyph-name="partialdiff" unicode="&#x2202;" horiz-adv-x="526" d="M112 228 C112 317 198 324 239 324 C272 324 363 304 377 244 L377 135 C377 57 290 25 242 25 C168 25 112 25 112 118 L112 228 Z M377 305 C329 356 243 356 233 356 C161 356 80 333 80 241 L80 115 C80 -5 175 -5 246 -5 C275 -5 339 1 377 52 L377 23 C377 4 394 0 409 0 C422 0 446 1 446 19 C446 26 444 30 440 30 L409 30 L409 427 C409 544 313 555 236 555 C215 555 132 552 100 533 C92 528 88 522 88 513 C88 500 98 490 110 490 C121 490 129 498 132 507 C141 516 206 523 236 523 C282 523 377 523 377 430 L377 305 Z " />
<glyph glyph-name="Delta" unicode="&#x2206;" horiz-adv-x="588" d="M121 30 L294 521 L469 30 L121 30 Z M492 0 C503 0 508 5 508 15 L329 519 C324 536 314 550 294 550 C275 550 264 536 259 519 L80 15 C80 5 85 0 96 0 L492 0 Z " />
<glyph glyph-name="product" unicode="&#x220f;" horiz-adv-x="614" d="M458 523 L523 523 C534 523 534 531 534 539 C534 555 526 555 523 555 L91 555 C88 555 80 555 80 539 C80 531 80 523 91 523 L154 523 L154 -176 C154 -181 161 -189 168 -189 C185 -189 186 -179 186 -176 L186 523 L426 523 L426 -176 C426 -181 433 -189 440 -189 C457 -189 458 -179 458 -176 L458 523 Z " />
<glyph glyph-name="summation" unicode="&#x2211;" horiz-adv-x="520" d="M219 197 C222 192 223 187 223 181 C223 177 222 173 221 169 L81 -159 C81 -162 80 -163 80 -166 C80 -177 87 -184 98 -184 L429 -184 C440 -181 440 -166 440 -155 C440 -144 439 -134 427 -134 C420 -134 409 -134 409 -138 L409 -154 L118 -154 L255 169 C256 173 257 177 257 181 C257 187 256 192 253 197 L117 523 L409 523 L409 509 C409 505 420 505 427 505 C439 505 440 515 440 526 C440 537 440 552 429 555 L98 555 C87 555 80 548 80 537 C80 534 81 533 81 530 L219 197 Z " />
<glyph glyph-name="minus" unicode="&#x2212;" horiz-adv-x="496" d="M406 172 C411 172 416 180 416 187 C416 202 409 204 406 204 L90 204 C87 204 80 202 80 187 C80 180 85 172 90 172 L406 172 Z " />
<glyph glyph-name="radical" unicode="&#x221a;" horiz-adv-x="685" d="M526 555 C518 555 512 551 509 543 L298 25 L159 368 L221 368 C224 368 230 368 230 384 C230 392 230 400 219 400 L91 400 C80 400 80 392 80 384 C80 368 86 368 89 368 L125 368 L264 21 C267 14 270 0 298 0 C326 0 329 14 332 21 L535 523 L596 523 C599 523 605 523 605 539 C605 547 605 555 594 555 L526 555 Z " />
<glyph glyph-name="infinity" unicode="&#x221e;" horiz-adv-x="916" d="M458 207 C523 142 601 89 677 89 C782 89 836 119 836 235 L836 249 C836 361 786 394 680 394 C584 394 509 326 458 267 C407 326 332 394 236 394 C130 394 80 361 80 249 L80 235 C80 119 134 89 239 89 C315 89 393 142 458 207 L458 207 Z M239 362 C306 362 393 298 440 235 C393 180 292 118 239 118 C156 118 114 143 114 235 L114 249 C114 338 156 362 239 362 L239 362 Z M677 362 C760 362 802 338 802 249 L802 235 C802 143 760 118 677 118 C624 118 523 180 476 235 C523 298 609 362 677 362 L677 362 Z " />
<glyph glyph-name="integral" unicode="&#x222b;" horiz-adv-x="438" d="M235 420 C235 505 259 523 320 523 C327 523 343 524 348 521 C355 521 358 534 358 539 C358 546 356 551 352 552 C344 554 334 555 322 555 C250 555 203 540 203 422 L203 -48 C203 -133 179 -151 118 -151 C111 -151 95 -152 90 -149 C83 -149 80 -162 80 -167 C80 -174 82 -179 86 -180 C94 -182 104 -183 116 -183 C188 -183 235 -168 235 -50 L235 420 Z " />
<glyph glyph-name="approxequal" unicode="&#x2248;" horiz-adv-x="479" d="M164 141 C216 141 259 105 309 105 C340 105 366 115 399 140 C399 152 393 160 380 165 C353 146 329 137 309 137 C256 137 215 173 164 173 C133 173 108 162 80 142 C80 127 87 122 98 117 C123 132 149 141 164 141 L164 141 Z M164 289 C216 289 259 253 309 253 C340 253 366 263 399 288 C399 300 393 308 380 313 C353 294 329 285 309 285 C256 285 215 321 164 321 C133 321 108 310 80 290 C80 275 87 270 98 265 C123 280 149 289 164 289 L164 289 Z " />
<glyph glyph-name="notequal" unicode="&#x2260;" horiz-adv-x="460" d="M328 384 C325 388 323 392 312 392 C303 392 296 389 293 384 L253 296 L90 296 C87 296 80 294 80 279 C80 272 85 264 90 264 L239 264 L178 129 L90 129 C87 129 80 127 80 112 C80 105 85 97 90 97 L164 97 L132 24 C135 20 137 16 148 16 C157 16 164 19 167 24 L199 97 L370 97 C375 97 380 105 380 112 C380 127 373 129 370 129 L214 129 L274 264 L370 264 C375 264 380 272 380 279 C380 294 373 296 370 296 L289 296 L328 384 Z " />
<glyph glyph-name="lessequal" unicode="&#x2264;" horiz-adv-x="502" d="M412 -97 C417 -97 422 -89 422 -82 C422 -67 415 -65 412 -65 L96 -65 C93 -65 86 -67 86 -82 C86 -89 91 -97 96 -97 L412 -97 Z M80 242 C80 230 87 219 98 212 L390 47 C393 46 395 45 398 45 C409 45 414 50 414 60 C414 65 411 70 406 74 L110 242 L406 410 C411 414 414 419 414 424 C414 434 409 439 398 439 C395 439 393 438 390 437 L98 272 C87 265 80 254 80 242 L80 242 Z " />
<glyph glyph-name="greaterequal" unicode="&#x2265;" horiz-adv-x="502" d="M406 -97 C411 -97 416 -89 416 -82 C416 -67 409 -65 406 -65 L90 -65 C87 -65 80 -67 80 -82 C80 -89 85 -97 90 -97 L406 -97 Z M422 242 C422 254 415 265 404 272 L112 437 C109 438 107 439 104 439 C93 439 88 434 88 424 C88 419 91 414 96 410 L392 242 L96 74 C91 70 88 65 88 60 C88 50 93 45 104 45 C107 45 109 46 112 47 L404 212 C415 219 422 230 422 242 L422 242 Z " />
<glyph glyph-name="lozenge" unicode="&#x25ca;" horiz-adv-x="506" d="M253 23 L113 280 L253 536 L393 280 L253 23 Z M254 555 C237 555 224 549 217 537 C164 444 134 383 83 292 C81 289 80 285 80 282 C80 278 81 275 82 273 L219 18 C226 6 238 0 254 0 C269 0 280 6 287 18 L424 273 C425 275 426 278 426 282 C426 285 425 289 423 292 C372 383 340 443 289 537 C281 550 269 555 254 555 L254 555 Z " />
<glyph glyph-name="uni25CC" unicode="&#x25cc;" horiz-adv-x="512" d="" />
<glyph glyph-name="fi" unicode="&#xfb01;" horiz-adv-x="569" d="M250 368 C251 368 258 368 258 385 C258 393 255 400 250 400 L157 400 L157 442 C157 526 184 540 241 540 C252 540 274 539 279 539 C283 539 286 556 286 559 C286 571 261 572 245 572 C173 572 125 551 125 444 L125 400 L58 400 C53 400 50 393 50 385 C50 368 57 368 58 368 L125 368 L125 44 C125 37 125 30 117 30 L90 30 C89 30 82 30 82 15 C82 8 83 0 92 0 L224 0 C227 0 231 1 231 17 C231 26 229 30 224 30 L157 30 L157 368 L250 368 Z M407 465 C407 480 418 492 433 492 C448 492 460 480 460 465 C460 450 448 439 433 439 C418 439 407 450 407 465 L407 465 Z M391 370 C387 370 385 374 385 383 C385 389 386 393 388 394 C397 397 424 400 448 400 C456 400 460 396 460 387 L460 45 C460 38 460 30 468 30 L496 30 C497 30 504 30 504 15 C504 8 504 0 493 0 L396 0 C385 0 385 8 385 15 C385 30 392 30 393 30 L420 30 C428 30 428 38 428 45 L428 370 L391 370 Z " />
<glyph glyph-name="fl" unicode="&#xfb02;" horiz-adv-x="569" d="M250 368 C251 368 258 368 258 385 C258 393 255 400 250 400 L157 400 L157 442 C157 526 184 540 241 540 C252 540 274 539 279 539 C283 539 286 556 286 559 C286 571 261 572 245 572 C173 572 125 551 125 444 L125 400 L58 400 C53 400 50 393 50 385 C50 368 57 368 58 368 L125 368 L125 44 C125 37 125 30 117 30 L90 30 C89 30 82 30 82 15 C82 8 83 0 92 0 L224 0 C227 0 231 1 231 17 C231 26 229 30 224 30 L157 30 L157 368 L250 368 Z M460 45 C460 38 460 30 468 30 L496 30 C497 30 504 30 504 15 C504 8 504 0 493 0 L396 0 C385 0 385 8 385 15 C385 30 392 30 393 30 L420 30 C428 30 428 38 428 45 L428 520 L391 520 C387 520 385 524 385 533 C385 540 386 543 389 544 C397 547 424 550 448 550 C456 550 460 546 460 537 L460 45 Z " />
</font>
</svg>
