<?xml version="1.0" encoding="utf-8"?>
<!-- Generator: Adobe Illustrator 27.5.0, SVG Export Plug-In . SVG Version: 6.00 Build 0)  -->
<svg version="1.1" id="Ebene_1" xmlns="http://www.w3.org/2000/svg" xmlns:xlink="http://www.w3.org/1999/xlink" x="0px" y="0px"
	 viewBox="0 0 170.6 147" style="enable-background:new 0 0 170.6 147;" xml:space="preserve">
<style type="text/css">
	.st0{fill:#0B2F42;}
</style>
<g id="logo">
	<path class="st0" d="M128.8,129l-21.7-21.7c5.6-5.5,9-13.2,9-21.7s-3.4-16.1-9-21.7c-5.6-5.5-13.2-9-21.7-9s-16.1,3.4-21.7,9
		s-9,13.2-9,21.7s3.4,16.1,9,21.7L42.1,129c11.1,11.1,26.4,18,43.4,18C102.4,147,117.7,140.1,128.8,129z"/>
	<path class="st0" d="M170.4,79.8l0.2,6.7L145.9,96c0.4-2,0.6-4,0.7-6.1l5.1-1.8l-0.3-9l-5.2-1.5c-0.3-2-0.6-3.9-1.1-5.8L170.4,79.8
		L170.4,79.8z M165.7,83.2l-9.6-2.8l0.2,6.1L165.7,83.2z"/>
	<path class="st0" d="M21.6,89.8c1.3-1.1,2.1-2.6,2.6-4.2c0.3-1,0.5-2.1,0.5-3.2c0-1,0-1.9-0.2-2.8c-0.8-3.9-3.8-6.7-8.3-7.3
		L16,77.7c2,0.2,4,1.4,3.9,4.4c-0.1,1.6-0.6,2.7-1.4,3.5C17,87,15,87.3,12.2,87.1C9.4,87,7.4,86.6,6,85c-0.7-0.8-1.2-1.9-1.1-3.4
		C5,78.9,6.7,77.4,9,77.4l0.3-5.5c-5.2,0-9.1,4.1-9.3,9.4c-0.1,2.9,0.6,5.6,2.4,7.6c2.4,2.6,5.7,3.6,9.5,3.7
		C15.7,92.8,19,92.1,21.6,89.8L21.6,89.8z"/>
	<path class="st0" d="M165.3,56.1l-22.1,9c-0.6-1.7-1.3-3.5-2.1-5.1l22.1-9L165.3,56.1L165.3,56.1z"/>
	<path class="st0" d="M137.8,28.2L126,39.6c-1.3-1.2-2.8-2.3-4.2-3.4l17.7-17.1l4.7,4.8L139,40.4l10.9-10.6l3.7,3.8l-17.7,17.1
		c-1.2-1.7-2.4-3.3-3.8-4.9L137.8,28.2L137.8,28.2z"/>
	<path class="st0" d="M41.5,25.6l3.6-2.4c2.1-1.4,2.2-3.1,1.3-4.5c-1-1.5-2.6-2-4.7-0.6l-3.6,2.4L41.5,25.6z M47.1,27.4L44,29.5
		l4.7,7.1c-1.5,1.1-2.9,2.2-4.3,3.5L31,19.7l8.5-5.7c5.1-3.4,9.3-1.9,11.6,1.5c1.6,2.5,1.8,5.6-0.1,8l9.9,5.8
		c-2,0.9-3.9,1.8-5.7,2.9L47.1,27.4L47.1,27.4z"/>
	<path class="st0" d="M102.2,16.9l5.8,1.7l-0.3-10L102.2,16.9L102.2,16.9z M108.1,23.3l-8.6-2.5l-3,4.5c-1.9-0.4-3.9-0.6-5.9-0.8
		L106,3l6.5,1.9l1.4,26.4c-1.8-1-3.7-1.8-5.6-2.6L108.1,23.3L108.1,23.3z"/>
	<path class="st0" d="M79.2,24.6c-1.5,0.2-3,0.4-4.5,0.6L72.3,6.5l-7,0.9l-0.6-4.8L84,0l0.6,4.9l-6.9,0.9l2.6,18.7
		C79.9,24.5,79.5,24.6,79.2,24.6L79.2,24.6z"/>
	<path class="st0" d="M37.1,48.1l-4.8-2.7l-5.6,9.9l-4.3-2.4l4.9-8.6l-4-2.3l-4.9,8.6l-3.9-2.2l5.6-9.9l-4.2-2.4L7.6,50.7l21.2,12
		C30.8,57.4,33.6,52.6,37.1,48.1C37,48.2,37.1,48.2,37.1,48.1L37.1,48.1z"/>
	<path class="st0" d="M107.1,107.3l21.7,21.7c-11.1,11.1-26.4,18-43.4,18s-32.3-6.9-43.4-18l21.7-21.7c-5.6-5.5-9-13.2-9-21.7
		s3.4-16.1,9-21.7c5.5-5.6,13.2-9,21.7-9s16.1,3.4,21.7,9c5.5,5.6,9,13.2,9,21.7C116.1,94.1,112.7,101.8,107.1,107.3z"/>
</g>
</svg>
