<?xml version="1.0" encoding="UTF-8"?>
<svg xmlns="http://www.w3.org/2000/svg" xmlns:xlink="http://www.w3.org/1999/xlink" version="1.2" >
<font id="Abula Organic ExtraLight Italic">
<font-face  font-family="Abula Organic" units-per-em="1000" ascent="750" descent="-250" font-style="italic" font-weight="100" font-stretch="normal" cap-height="400" x-height="500" underline-position="-91" underline-thickness="35" />
<missing-glyph  horiz-adv-x="629" d="M569 0 L569 628 L60 628 L60 0 L569 0 Z M106 46 L98 46 C103 45 106 41 106 35 L106 46 Z M523 582 L531 582 C526 582 523 585 523 590 L523 582 Z M523 46 L523 37 C523 42 526 45 531 46 L523 46 Z M106 582 L106 590 C105 585 102 582 98 582 L106 582 Z M106 582 L523 582 L523 46 L106 46 L106 582 Z " />
<glyph glyph-name="space" unicode="&#x20;" horiz-adv-x="208" d="" />
<glyph glyph-name="exclam" unicode="&#x21;" horiz-adv-x="203" d="M133 110 C162 257 186 395 215 542 C216 549 208 555 197 555 C186 555 176 549 175 542 C152 395 130 257 107 110 C106 105 109 102 118 102 C127 102 132 105 133 110 L133 110 Z M82 15 C85 27 95 37 107 37 C119 37 128 27 125 15 C122 3 111 -6 99 -6 C87 -6 79 3 82 15 L82 15 Z " />
<glyph glyph-name="quotedbl" unicode="&#x22;" horiz-adv-x="280" d="M165 453 C165 449 168 447 174 447 C181 447 186 450 186 453 C200 513 201 517 209 545 C209 552 204 555 193 555 C185 555 176 550 176 546 L165 453 Z M252 453 C252 449 255 447 261 447 C268 447 273 450 273 453 C287 513 288 517 296 545 C296 552 291 555 280 555 C272 555 263 550 263 546 L252 453 Z " />
<glyph glyph-name="numbersign" unicode="&#x23;" horiz-adv-x="750" d="M324 363 L586 363 L533 178 L270 178 L324 363 Z M261 146 L524 146 L485 12 C484 9 484 0 500 0 C508 0 515 2 518 9 L558 146 L658 146 C661 146 667 147 670 163 C673 171 669 178 664 178 L566 178 L620 363 L725 363 C728 363 734 364 737 380 C738 388 735 395 730 395 L629 395 L670 538 C671 541 671 550 655 550 C646 550 640 547 638 541 L595 395 L333 395 L374 538 C375 541 375 550 359 550 C350 550 345 547 343 541 L300 395 L189 395 C184 395 179 388 178 380 C175 364 181 363 184 363 L292 363 L237 178 L120 178 C115 178 111 171 108 163 C105 147 111 146 114 146 L227 146 L189 12 C188 9 188 0 204 0 C213 0 219 3 221 9 L261 146 Z " />
<glyph glyph-name="dollar" unicode="&#x24;" horiz-adv-x="589" d="M532 133 C556 268 166 274 190 412 C201 477 255 523 388 523 C464 523 535 514 544 505 C545 496 552 488 563 488 C575 488 586 498 589 511 C590 520 587 526 580 531 C556 547 451 552 408 555 L418 610 C419 613 419 623 402 623 C395 623 387 615 386 610 L376 555 C277 550 177 514 158 412 C126 241 519 236 499 129 C480 25 381 25 300 25 L291 25 C233 25 122 50 127 70 L128 74 C128 78 121 81 113 81 C100 81 93 71 90 58 C82 11 223 -2 278 -5 L270 -51 C269 -56 274 -64 281 -64 C298 -64 301 -54 302 -51 L310 -5 C407 -5 508 1 532 133 L532 133 Z " />
<glyph glyph-name="percent" unicode="&#x25;" horiz-adv-x="621" d="M467 219 C406 219 346 168 335 107 C324 45 366 -5 428 -5 C489 -5 548 46 559 107 C570 168 529 219 467 219 L467 219 Z M434 30 C394 30 364 66 371 106 C379 148 421 184 461 184 C504 184 533 149 525 106 C517 65 477 30 434 30 L434 30 Z M289 555 C228 555 169 504 158 443 C147 382 188 331 250 331 C311 331 371 382 382 443 C393 505 351 555 289 555 L289 555 Z M256 366 C216 366 186 402 193 442 C201 484 243 520 283 520 C326 520 355 485 347 442 C339 401 299 366 256 366 L256 366 Z M104 11 C103 10 103 9 103 8 C102 3 107 0 118 0 C133 0 136 2 141 9 L611 539 C612 540 612 541 612 542 C613 547 608 550 598 550 C583 550 580 547 575 540 L104 11 Z " />
<glyph glyph-name="ampersand" unicode="&#x26;" horiz-adv-x="634" d="M540 246 L588 246 C591 246 597 247 600 263 C601 272 599 276 593 276 L545 276 L556 339 C557 342 557 350 540 350 C533 350 525 344 524 339 L513 276 L319 276 C197 276 171 333 182 387 C195 464 257 523 389 523 C404 523 473 522 529 503 C530 503 532 502 533 502 C540 502 545 514 546 521 C547 524 548 532 544 533 C495 552 423 555 391 555 C311 555 174 532 150 388 C145 351 143 305 207 257 C121 218 105 148 102 129 C81 5 204 -5 300 -5 C364 -5 436 6 483 21 C495 24 502 32 504 44 L540 246 Z M473 51 C428 31 361 24 300 24 C157 24 123 68 134 126 C150 212 223 246 317 246 L508 246 L473 51 Z " />
<glyph glyph-name="quotesingle" unicode="&#x27;" horiz-adv-x="193" d="M165 453 C165 449 168 447 174 447 C181 447 186 450 186 453 C200 513 201 517 209 545 C209 552 204 555 193 555 C185 555 176 550 176 546 L165 453 Z " />
<glyph glyph-name="parenleft" unicode="&#x28;" horiz-adv-x="218" d="M232 548 C232 551 234 560 219 560 C210 560 205 557 203 551 C168 448 141 349 124 254 C108 158 103 58 100 -45 C99 -51 104 -54 113 -54 C128 -54 130 -45 130 -42 C127 57 137 151 156 254 C173 350 196 452 232 548 L232 548 Z " />
<glyph glyph-name="parenright" unicode="&#x29;" horiz-adv-x="218" d="M178 548 C181 452 167 350 150 254 C131 151 108 57 72 -42 C72 -45 70 -54 85 -54 C94 -54 99 -51 102 -45 C137 58 166 158 182 254 C199 350 208 450 209 551 C209 557 204 560 195 560 C180 560 178 551 178 548 L178 548 Z " />
<glyph glyph-name="asterisk" unicode="&#x2a;" horiz-adv-x="416" d="M278 399 L320 300 C321 297 325 296 330 296 C334 296 337 297 341 300 C348 303 353 308 354 315 L354 319 L301 405 L408 447 C412 448 415 452 416 459 C419 466 414 477 406 477 L295 428 L320 544 C321 549 314 555 305 555 C296 555 287 549 286 544 L271 428 L178 477 C170 477 163 466 160 459 C159 452 160 448 164 447 L257 405 L174 319 C173 318 172 316 172 315 C171 308 173 303 179 300 C183 297 186 296 190 296 C195 296 199 297 200 300 L278 399 Z " />
<glyph glyph-name="plus" unicode="&#x2b;" horiz-adv-x="490" d="M232 15 C231 11 237 5 246 5 C255 5 263 11 264 15 L292 172 L431 172 C434 172 440 173 443 189 C444 197 441 204 436 204 L297 204 L324 355 C325 359 319 365 310 365 C301 365 293 359 292 355 L265 204 L124 204 C119 204 114 197 113 189 C110 173 116 172 119 172 L260 172 L232 15 Z " />
<glyph glyph-name="comma" unicode="&#x2c;" horiz-adv-x="195" d="M70 -53 C69 -57 74 -60 79 -60 C86 -60 91 -58 92 -53 L124 53 C125 58 118 63 109 63 C101 63 90 58 89 53 L70 -53 Z " />
<glyph glyph-name="hyphen" unicode="&#x2d;" horiz-adv-x="433" d="M373 172 C378 172 384 180 385 187 C388 202 381 204 378 204 L125 204 C122 204 115 202 112 187 C111 180 115 172 120 172 L373 172 Z " />
<glyph glyph-name="period" unicode="&#x2e;" horiz-adv-x="203" d="M82 15 C79 3 87 -6 99 -6 C111 -6 122 3 125 15 C128 27 119 37 107 37 C95 37 85 27 82 15 L82 15 Z " />
<glyph glyph-name="slash" unicode="&#x2f;" horiz-adv-x="407" d="M424 551 C424 557 419 560 409 560 C398 560 394 555 391 551 L72 -45 C71 -51 76 -54 86 -54 C97 -54 102 -49 105 -45 L424 551 Z " />
<glyph glyph-name="zero" unicode="0" horiz-adv-x="590" d="M299 24 C237 24 106 23 130 163 L170 390 C194 522 353 523 388 523 C421 523 580 522 556 390 L516 163 C492 23 361 24 299 24 L299 24 Z M294 -5 C374 -5 521 7 547 155 L587 384 C613 535 472 555 392 555 C313 555 163 535 137 384 L97 155 C71 7 215 -5 294 -5 L294 -5 Z " />
<glyph glyph-name="one" unicode="1" horiz-adv-x="446" d="M314 515 L231 44 C230 37 229 30 221 30 L116 30 C115 30 108 30 105 15 C104 8 104 0 113 0 L369 0 C372 0 375 1 378 17 C381 26 379 30 374 30 L263 30 L351 531 C352 535 352 550 329 550 L316 550 C314 550 312 549 311 548 L151 447 C150 446 148 444 147 441 C147 440 148 436 151 429 C155 424 159 421 163 421 C166 421 168 422 169 424 L314 515 Z " />
<glyph glyph-name="two" unicode="2" horiz-adv-x="537" d="M436 30 L109 30 C136 140 498 257 525 406 C551 554 422 555 345 555 C324 555 238 548 185 532 C172 528 167 508 164 493 C161 481 162 472 178 472 C186 472 196 471 199 478 L204 502 C263 521 334 525 342 525 C471 525 509 493 493 406 C469 279 99 159 75 31 L73 18 C70 7 77 0 88 0 L453 0 C466 3 469 21 472 33 C475 44 476 67 463 67 C456 67 443 66 442 57 L436 30 Z " />
<glyph glyph-name="three" unicode="3" horiz-adv-x="526" d="M236 -5 C332 -5 455 0 479 131 C482 150 490 223 414 261 C505 296 519 366 527 405 C546 510 472 555 342 555 C300 555 207 547 175 531 C166 526 161 520 160 511 C157 498 166 488 178 488 C189 488 198 496 203 505 C212 513 270 522 338 523 L344 523 C377 523 515 517 495 405 C487 356 464 277 318 277 L298 277 C294 277 287 271 286 264 C283 248 292 247 293 247 L308 247 C407 247 461 213 446 126 C435 68 386 24 246 24 C178 24 129 39 122 47 C119 56 114 64 103 64 C91 64 80 54 77 41 C75 32 78 26 85 21 C109 5 194 -5 236 -5 L236 -5 Z " />
<glyph glyph-name="four" unicode="4" horiz-adv-x="546" d="M455 526 L393 172 L97 172 L455 526 Z M365 12 C364 5 370 0 378 0 C395 0 397 9 398 12 L421 142 L491 142 C494 142 500 143 503 158 C505 167 503 172 496 172 L426 172 L489 530 C490 534 489 550 464 550 L446 550 C439 550 431 545 426 540 L85 200 C81 197 73 189 72 185 L69 167 C65 143 80 142 84 142 L388 142 L365 12 Z " />
<glyph glyph-name="five" unicode="5" horiz-adv-x="536" d="M250 -5 C346 -5 467 9 494 159 C515 287 437 319 323 319 C306 319 228 320 153 285 L194 518 L522 518 C525 518 532 519 535 535 C536 543 532 550 527 550 L181 550 C173 550 167 541 164 530 L116 257 C121 248 129 244 142 244 C145 244 147 245 150 245 C197 282 262 290 318 290 C385 290 482 276 461 157 C448 85 396 24 255 24 L246 24 C187 24 112 41 115 61 L116 68 C117 72 110 75 102 75 C89 75 82 65 79 52 C67 -4 225 -5 250 -5 L250 -5 Z " />
<glyph glyph-name="six" unicode="6" horiz-adv-x="521" d="M360 555 C282 555 165 541 139 393 L91 124 C70 12 186 -5 263 -5 C337 -5 450 5 474 134 L484 192 C503 300 405 317 332 317 C321 317 207 316 146 255 L171 392 C184 471 229 526 358 526 C412 526 473 515 497 507 C498 506 500 505 501 505 C509 505 513 523 514 528 C517 544 403 555 360 555 L360 555 Z M441 128 C422 27 318 27 268 27 C235 27 105 27 124 128 L134 184 C161 277 296 290 328 290 C359 290 469 283 453 198 L441 128 Z " />
<glyph glyph-name="seven" unicode="7" horiz-adv-x="527" d="M187 518 L516 518 L213 9 C213 2 220 0 228 0 C239 0 244 4 247 7 L547 513 L550 533 C551 536 551 550 530 550 L171 550 C156 547 154 532 151 519 C149 507 144 470 160 470 C167 470 176 471 177 476 L187 518 Z " />
<glyph glyph-name="eight" unicode="8" horiz-adv-x="518" d="M526 443 C542 543 433 555 356 555 C280 555 164 543 148 443 L134 366 C131 348 121 298 173 260 C112 236 102 186 99 167 L87 101 C71 5 181 -5 258 -5 C334 -5 449 5 465 101 L477 167 C480 186 488 236 435 260 C500 298 509 348 512 366 L526 443 Z M435 109 C422 32 286 24 263 24 C238 24 108 32 121 109 L131 169 C145 242 252 251 289 251 L317 251 C353 251 459 242 445 169 L435 109 Z M308 283 C212 283 153 291 166 368 L179 437 C193 518 285 523 351 523 C417 523 507 518 493 437 L480 368 C467 291 404 283 308 283 L308 283 Z " />
<glyph glyph-name="nine" unicode="9" horiz-adv-x="521" d="M258 -5 C336 -5 452 9 478 157 L526 426 C545 538 433 555 354 555 C280 555 167 545 143 416 L133 358 C114 250 212 233 285 233 C296 233 410 234 471 295 L446 158 C433 79 388 24 259 24 C212 24 162 27 121 44 C120 45 118 46 117 46 C110 46 103 32 102 24 C101 22 101 21 102 20 C117 -1 234 -5 258 -5 L258 -5 Z M176 422 C195 523 299 523 349 523 C382 523 512 523 493 422 L483 366 C456 273 321 260 289 260 C258 260 148 267 164 352 L176 422 Z " />
<glyph glyph-name="colon" unicode="&#x3a;" horiz-adv-x="203" d="M82 15 C79 3 87 -6 99 -6 C111 -6 122 3 125 15 C128 27 119 37 107 37 C95 37 85 27 82 15 L82 15 Z M132 295 C129 283 137 274 149 274 C161 274 172 283 175 295 C178 307 168 317 156 317 C144 317 135 307 132 295 L132 295 Z " />
<glyph glyph-name="semicolon" unicode="&#x3b;" horiz-adv-x="203" d="M77 -53 C76 -57 81 -60 86 -60 C93 -60 98 -58 99 -53 L131 53 C132 58 125 63 116 63 C108 63 97 58 96 53 L77 -53 Z M132 295 C129 283 137 274 149 274 C161 274 172 283 175 295 C178 307 168 317 156 317 C144 317 135 307 132 295 L132 295 Z " />
<glyph glyph-name="less" unicode="&#x3c;" horiz-adv-x="359" d="M247 53 C250 48 253 44 265 44 C276 44 283 47 286 55 L158 252 L358 450 C358 457 352 461 341 461 C329 461 324 457 319 452 L139 274 C132 269 125 260 124 251 C122 242 123 236 128 231 C176 159 201 120 247 53 L247 53 Z " />
<glyph glyph-name="equal" unicode="&#x3d;" horiz-adv-x="460" d="M416 264 C421 264 426 272 429 279 C432 294 425 296 422 296 L142 296 C139 296 132 294 129 279 C126 272 131 264 136 264 L416 264 Z M387 97 C392 97 398 105 399 112 C402 127 395 129 392 129 L112 129 C109 129 102 127 99 112 C98 105 102 97 107 97 L387 97 Z " />
<glyph glyph-name="greater" unicode="&#x3e;" horiz-adv-x="359" d="M130 53 C197 120 240 160 311 231 C317 235 321 242 323 251 C324 260 322 268 316 274 L198 452 C195 457 192 461 180 461 C169 461 162 458 159 450 L289 252 L91 55 C91 48 97 44 108 44 C120 44 125 48 130 53 L130 53 Z " />
<glyph glyph-name="question" unicode="&#x3f;" horiz-adv-x="504" d="M231 133 C230 128 237 121 245 121 C254 121 262 127 263 134 L268 163 C294 275 476 297 498 420 C522 555 402 555 325 555 C304 555 222 552 185 533 C178 529 171 521 170 513 C167 500 176 490 188 490 C199 490 208 498 213 507 C224 516 289 523 320 523 C449 523 479 501 466 421 C446 314 258 283 238 171 L231 133 Z M205 15 C202 3 210 -6 222 -6 C234 -6 245 3 248 15 C251 27 242 37 230 37 C218 37 208 27 205 15 L205 15 Z " />
<glyph glyph-name="at" unicode="&#x40;" horiz-adv-x="643" d="M270 234 C286 323 372 330 414 330 C446 330 535 310 538 250 L517 135 C504 57 411 25 363 25 C288 25 233 25 249 118 L270 234 Z M178 -136 C181 -136 189 -135 192 -119 C193 -111 188 -104 183 -104 L172 -104 C121 -104 93 -103 106 -32 L184 412 C203 516 333 519 357 519 L432 519 C457 519 585 516 566 412 L548 311 C508 362 424 362 413 362 C341 362 256 339 240 247 L217 115 C196 -5 290 -5 362 -5 C391 -5 457 1 503 52 L498 23 C494 4 511 0 526 0 C539 0 563 1 566 19 C567 26 565 30 562 30 L531 30 L600 420 C619 527 510 551 436 551 L366 551 C289 551 173 527 154 420 L74 -34 C61 -106 83 -136 134 -136 L178 -136 Z " />
<glyph glyph-name="A" unicode="A" horiz-adv-x="656" d="M494 229 L242 229 L420 522 L494 229 Z M546 30 L488 30 C481 30 481 24 478 17 C475 1 480 0 483 0 L601 0 C610 0 612 8 613 15 C616 30 609 30 608 30 L587 30 C584 30 582 31 580 33 L453 528 C449 543 440 550 425 550 L388 550 C365 550 332 550 323 547 C314 546 309 543 309 539 C306 528 309 523 317 523 L383 520 L86 33 C84 31 82 30 79 30 L58 30 C57 30 50 30 47 15 C46 8 46 0 55 0 L173 0 C176 0 179 1 182 17 C185 26 183 30 178 30 L120 30 L221 197 L503 197 L546 30 Z " />
<glyph glyph-name="B" unicode="B" horiz-adv-x="577" d="M155 30 L193 246 L362 246 C455 246 512 213 497 126 C489 75 471 30 327 30 L155 30 Z M199 278 L241 518 L408 518 C485 518 566 515 547 414 C539 363 516 278 371 278 L199 278 Z M356 0 C425 0 509 13 528 122 C531 144 546 222 472 259 C558 302 572 376 580 417 C601 535 511 550 442 550 L217 550 C194 550 178 549 169 547 C166 544 165 541 164 536 C162 527 163 522 168 522 L209 520 L123 30 L80 28 C77 28 74 23 72 14 C71 9 71 5 73 3 C82 1 98 0 121 0 L356 0 Z " />
<glyph glyph-name="C" unicode="C" horiz-adv-x="561" d="M298 -5 C383 -5 492 7 495 28 C496 35 499 40 496 45 C495 48 492 49 489 49 C488 49 487 48 484 47 C442 34 401 24 301 24 C224 24 107 27 128 151 L170 390 C194 523 338 523 391 523 C467 523 528 514 536 505 C537 496 544 488 555 488 C567 488 578 498 581 511 C582 520 579 526 572 531 C543 550 416 555 396 555 C317 555 163 538 139 395 L96 149 C70 -5 218 -5 298 -5 L298 -5 Z " />
<glyph glyph-name="D" unicode="D" horiz-adv-x="612" d="M416 518 C444 518 602 517 574 364 L542 187 C515 30 358 30 330 30 L159 30 L245 518 L416 518 Z M347 0 C421 0 547 33 573 181 L606 364 C632 515 517 550 443 550 L221 550 C198 550 178 550 169 547 C166 544 165 541 164 536 C162 527 163 522 168 522 L213 520 L127 30 L80 28 C77 28 74 23 72 14 C71 9 71 5 73 3 C82 0 102 0 125 0 L347 0 Z " />
<glyph glyph-name="E" unicode="E" horiz-adv-x="565" d="M469 30 L156 30 L194 248 L464 248 C467 248 473 249 476 264 C477 273 475 278 470 278 L200 278 L242 518 L555 518 L552 496 C551 492 563 492 568 492 C580 492 585 512 586 521 C589 532 590 547 579 550 L217 550 C194 550 178 549 169 547 C166 544 165 541 164 536 C162 527 163 522 168 522 L210 520 L124 30 L80 28 C77 28 74 23 72 14 C71 9 71 5 73 3 C82 1 98 0 121 0 L483 0 C494 3 497 18 500 29 C501 38 504 58 492 58 C487 58 475 58 474 54 L469 30 Z " />
<glyph glyph-name="F" unicode="F" horiz-adv-x="545" d="M126 44 C125 37 124 30 116 30 L83 30 C82 30 75 30 72 15 C71 8 71 0 80 0 L214 0 C217 0 220 1 223 17 C226 26 224 30 219 30 L156 30 L194 248 L464 248 C467 248 473 249 476 264 C477 273 475 278 470 278 L200 278 L242 518 L555 518 L552 496 C551 492 563 492 568 492 C580 492 585 512 586 521 C589 532 590 547 579 550 L217 550 C194 550 178 549 169 547 C166 544 165 541 164 536 C162 527 163 522 168 522 L210 520 L126 44 Z " />
<glyph glyph-name="G" unicode="G" horiz-adv-x="573" d="M544 236 C547 244 543 251 536 251 C514 251 452 249 444 246 C441 245 439 242 438 236 C437 228 438 224 441 224 L510 224 L478 45 C439 32 396 24 301 24 C224 24 107 27 128 151 L170 390 C194 523 346 523 398 523 C474 523 538 514 547 505 C548 496 555 488 566 488 C578 488 589 498 592 511 C593 520 590 526 583 531 C554 550 424 555 403 555 C324 555 163 538 139 395 L96 149 C70 -5 218 -5 298 -5 C382 -5 504 7 507 28 L544 236 Z " />
<glyph glyph-name="H" unicode="H" horiz-adv-x="665" d="M639 506 C640 513 641 520 649 520 L678 520 C679 520 686 520 689 535 C690 542 690 550 681 550 L571 550 C568 550 564 549 561 533 C560 524 561 520 566 520 L609 520 L567 278 L196 278 L238 520 L281 520 C286 520 289 524 290 533 C293 549 289 550 286 550 L176 550 C167 550 165 542 164 535 C161 520 168 520 169 520 L198 520 C206 520 205 513 204 506 L122 44 C121 37 120 30 112 30 L83 30 C82 30 75 30 72 15 C71 8 71 0 80 0 L190 0 C193 0 196 1 199 17 C202 26 200 30 195 30 L152 30 L190 248 L561 248 L523 30 L480 30 C473 30 473 24 470 17 C467 1 472 0 475 0 L585 0 C594 0 596 8 597 15 C600 30 593 30 592 30 L563 30 C555 30 556 37 557 44 L639 506 Z " />
<glyph glyph-name="I" unicode="I" horiz-adv-x="262" d="M122 45 C121 38 120 30 112 30 L83 30 C82 30 75 30 72 15 C71 8 70 0 81 0 L181 0 C192 0 193 8 194 15 C197 30 190 30 189 30 L160 30 C152 30 153 38 154 45 L236 505 C237 512 238 520 246 520 L275 520 C276 520 283 520 286 535 C287 542 288 550 277 550 L177 550 C166 550 165 542 164 535 C161 520 168 520 169 520 L198 520 C206 520 205 512 204 505 L122 45 Z " />
<glyph glyph-name="J" unicode="J" horiz-adv-x="414" d="M148 -5 C222 -5 330 11 349 116 L423 534 C424 542 421 550 413 550 C389 550 286 547 279 545 C276 544 274 540 273 534 C271 525 272 520 276 520 L388 520 L317 119 C301 32 194 24 156 24 C135 24 99 27 51 39 C50 40 48 41 47 41 C44 41 41 40 38 37 C35 32 34 27 33 20 C30 -1 98 -5 148 -5 L148 -5 Z " />
<glyph glyph-name="K" unicode="K" horiz-adv-x="655" d="M516 13 C517 6 522 0 533 0 L587 0 C588 0 594 0 597 15 C598 22 599 30 590 30 L548 30 L435 279 L653 520 L677 520 C680 520 686 520 689 535 C690 543 689 550 680 550 L567 550 C558 550 555 543 554 535 C551 520 557 520 560 520 L613 520 L401 286 L197 286 L238 520 L287 520 C292 520 295 524 296 533 C299 549 295 550 292 550 L176 550 C167 550 165 542 164 535 C161 520 168 520 169 520 L198 520 C206 520 205 513 204 506 L122 44 C121 37 120 30 112 30 L83 30 C82 30 75 30 72 15 C71 8 71 0 80 0 L196 0 C199 0 202 1 205 17 C208 26 206 30 201 30 L152 30 L192 256 L407 256 L516 13 Z " />
<glyph glyph-name="L" unicode="L" horiz-adv-x="536" d="M120 30 L80 28 C77 28 74 23 72 14 C71 9 71 5 73 3 C82 1 96 0 117 0 L479 0 C490 3 493 18 496 29 C497 38 500 58 488 58 C483 58 471 58 470 54 L465 30 L152 30 L238 520 L276 520 C281 520 284 524 285 533 C288 549 284 550 281 550 L176 550 C167 550 165 542 164 535 C161 520 168 520 169 520 L198 520 C206 520 205 513 204 506 L120 30 Z " />
<glyph glyph-name="M" unicode="M" horiz-adv-x="830" d="M438 52 C445 52 450 56 454 63 L700 516 L682 30 L636 30 C629 30 629 24 626 17 C623 1 628 0 631 0 L750 0 C759 0 761 8 762 15 C765 30 758 30 757 30 L720 30 C717 30 715 31 715 33 L732 520 L806 523 C809 523 812 527 814 535 C815 541 815 545 812 547 C803 549 786 550 763 550 L695 550 C688 550 682 546 677 537 L428 79 L341 537 C340 546 334 550 327 550 L259 550 C235 550 219 549 210 547 C207 545 205 541 204 535 C202 527 203 523 208 523 L280 520 L125 33 C125 31 123 30 120 30 L83 30 C82 30 75 30 72 15 C71 8 71 0 80 0 L199 0 C202 0 205 1 208 17 C211 26 209 30 204 30 L158 30 L310 516 L398 63 C398 55 405 52 410 52 L438 52 Z " />
<glyph glyph-name="N" unicode="N" horiz-adv-x="674" d="M517 11 C520 4 531 0 538 0 L547 0 C552 0 563 2 566 17 L653 506 C654 513 655 520 663 520 L692 520 C693 520 700 520 703 535 C704 542 704 550 695 550 L578 550 C575 550 570 549 567 533 C566 524 568 520 573 520 L623 520 L540 46 L267 539 C263 546 257 550 249 550 L214 550 C190 550 174 549 165 547 C162 545 160 541 159 535 C157 526 158 522 163 522 L205 520 L121 44 C120 37 119 30 111 30 L78 30 C77 30 70 30 67 15 C66 8 66 0 75 0 L196 0 C199 0 202 1 205 17 C208 26 206 30 201 30 L151 30 L237 520 L517 11 Z " />
<glyph glyph-name="O" unicode="O" horiz-adv-x="590" d="M299 24 C236 24 106 24 130 164 L172 398 C193 523 336 523 388 523 C439 523 579 523 558 398 L516 164 C492 24 360 24 299 24 L299 24 Z M294 -5 C375 -5 518 1 548 162 L591 407 C615 539 471 555 392 555 C312 555 165 539 141 407 L98 162 C68 1 216 -5 294 -5 L294 -5 Z " />
<glyph glyph-name="P" unicode="P" horiz-adv-x="557" d="M196 250 L243 518 L428 518 C479 518 564 518 543 396 C532 333 517 250 370 250 L196 250 Z M157 30 L190 218 L362 218 C543 218 565 334 576 395 C598 519 526 550 435 550 L217 550 C194 550 178 549 169 547 C166 544 165 541 164 536 C163 527 164 522 168 522 L210 520 L126 44 C125 37 124 30 116 30 L83 30 C82 30 75 30 72 15 C71 8 71 0 80 0 L203 0 C206 0 209 1 212 17 C215 26 213 30 208 30 L157 30 Z " />
<glyph glyph-name="Q" unicode="Q" horiz-adv-x="590" d="M311 -5 C393 -2 521 12 548 162 L591 407 C615 539 471 555 392 555 C312 555 165 539 141 407 L98 162 C71 13 191 -2 273 -5 L315 -92 C318 -96 323 -104 332 -104 L415 -104 C418 -104 424 -103 427 -88 C429 -79 426 -75 419 -75 L358 -75 C347 -75 345 -72 340 -64 L311 -5 Z M299 24 C236 24 106 24 130 164 L172 398 C193 523 336 523 388 523 C439 523 579 523 558 398 L516 164 C492 24 360 24 299 24 L299 24 Z " />
<glyph glyph-name="R" unicode="R" horiz-adv-x="581" d="M196 250 L243 518 L436 518 C487 518 572 518 551 396 C540 333 525 250 378 250 L196 250 Z M441 13 C444 6 448 0 459 0 L519 0 C522 0 525 1 528 17 C531 26 529 30 524 30 L475 30 L389 218 C553 226 574 335 584 395 C606 519 534 550 443 550 L217 550 C194 550 178 549 169 547 C166 544 165 541 164 536 C163 527 164 522 168 522 L210 520 L126 44 C125 37 124 30 116 30 L83 30 C82 30 75 30 72 15 C71 8 71 0 80 0 L203 0 C206 0 209 1 212 17 C215 26 213 30 208 30 L157 30 L190 218 L349 218 L441 13 Z " />
<glyph glyph-name="S" unicode="S" horiz-adv-x="569" d="M285 -5 C385 -5 498 -6 522 133 C546 268 156 274 180 412 C191 477 245 523 378 523 C454 523 525 514 534 505 C535 496 542 488 553 488 C565 488 576 498 579 511 C580 520 577 526 570 531 C540 550 403 555 382 555 C277 555 167 519 148 412 C116 241 509 236 489 129 C470 25 371 25 290 25 L281 25 C223 25 112 50 117 70 L118 74 C118 78 111 81 103 81 C90 81 83 71 80 58 C68 3 260 -5 285 -5 L285 -5 Z " />
<glyph glyph-name="T" unicode="T" horiz-adv-x="569" d="M177 518 L361 518 L277 45 C276 38 275 30 267 30 L235 30 C234 30 227 30 224 15 C223 8 222 0 233 0 L340 0 C351 0 352 8 353 15 C356 30 349 30 348 30 L315 30 C307 30 308 38 309 45 L393 518 L574 518 L571 496 C570 492 582 492 587 492 C599 492 604 512 605 521 C608 532 609 547 598 550 L163 550 C152 547 149 532 146 521 C145 512 142 492 154 492 C159 492 171 492 172 496 L177 518 Z " />
<glyph glyph-name="U" unicode="U" horiz-adv-x="673" d="M558 163 C534 23 398 24 338 24 C281 24 147 23 171 163 L232 505 C233 512 234 520 242 520 L283 520 C284 520 291 520 294 535 C295 542 296 550 285 550 L172 550 C161 550 160 542 159 535 C156 520 163 520 164 520 L193 520 C201 520 200 512 199 505 L136 150 C109 3 254 -5 333 -5 C417 -5 562 3 589 150 L652 505 C653 512 654 520 662 520 L691 520 C692 520 699 520 702 535 C703 542 704 550 693 550 L580 550 C569 550 568 542 567 535 C564 520 571 520 572 520 L613 520 C621 520 620 512 619 505 L558 163 Z " />
<glyph glyph-name="V" unicode="V" horiz-adv-x="656" d="M328 0 C355 0 362 14 365 21 L658 520 L694 520 C695 520 702 520 705 535 C706 542 706 550 697 550 L574 550 C565 550 563 542 562 535 C559 520 566 520 567 520 L620 520 L333 29 L218 520 L271 520 C272 520 279 520 282 535 C283 542 283 550 274 550 L151 550 C142 550 140 542 139 535 C136 520 143 520 144 520 L180 520 L297 21 C298 14 301 0 328 0 L328 0 Z " />
<glyph glyph-name="W" unicode="W" horiz-adv-x="886" d="M520 469 C501 469 495 459 494 455 L269 30 L232 520 L308 520 C309 520 316 520 319 535 C320 542 320 550 311 550 L161 550 C152 550 150 542 149 535 C146 520 153 520 154 520 L199 520 L238 18 C238 11 239 0 263 0 C287 0 292 11 295 18 L520 441 L597 18 C597 11 599 0 623 0 C647 0 651 11 654 18 L869 520 L914 520 C915 520 922 520 925 535 C926 542 926 550 917 550 L767 550 C758 550 756 542 755 535 C752 520 759 520 760 520 L836 520 L627 30 L552 455 C551 459 549 469 530 469 L520 469 Z " />
<glyph glyph-name="X" unicode="X" horiz-adv-x="680" d="M381 238 L519 30 L458 30 C455 30 450 30 447 15 C446 8 446 0 454 0 L606 0 C614 0 616 8 617 15 C620 30 615 30 612 30 L563 30 L411 260 L656 520 L698 520 C701 520 706 520 709 535 C710 542 710 550 702 550 L550 550 C542 550 540 542 539 535 C536 520 541 520 544 520 L613 520 L389 281 L249 520 L318 520 C321 520 326 520 329 535 C330 542 330 550 322 550 L170 550 C162 550 160 542 159 535 C156 520 161 520 164 520 L206 520 L359 260 L127 30 L78 30 C75 30 70 30 67 15 C66 8 66 0 74 0 L226 0 C234 0 236 8 237 15 C240 30 235 30 232 30 L171 30 L381 238 Z " />
<glyph glyph-name="Y" unicode="Y" horiz-adv-x="644" d="M313 45 C312 38 311 30 303 30 L272 30 C271 30 264 30 261 15 C260 8 259 0 270 0 L373 0 C384 0 385 8 386 15 C389 30 382 30 381 30 L351 30 C343 30 344 38 345 45 L375 213 L644 520 L682 520 C683 520 690 520 693 535 C694 542 694 550 685 550 L533 550 C524 550 522 542 521 535 C518 520 525 520 526 520 L606 520 L365 247 L220 520 L300 520 C301 520 308 520 311 535 C312 542 312 550 303 550 L151 550 C142 550 140 542 139 535 C136 520 143 520 144 520 L182 520 L343 214 L313 45 Z " />
<glyph glyph-name="Z" unicode="Z" horiz-adv-x="551" d="M467 0 C480 3 482 15 485 28 C488 39 489 56 474 56 C467 56 460 56 457 49 L452 30 L120 30 L565 512 C568 516 573 522 574 529 C577 542 567 550 552 550 L180 550 C167 547 165 535 162 522 C159 511 158 494 173 494 C180 494 187 494 190 501 L195 518 L531 518 L85 36 C76 29 75 23 72 16 C69 3 79 0 94 0 L467 0 Z " />
<glyph glyph-name="bracketleft" unicode="&#x5b;" horiz-adv-x="287" d="M72 -40 C71 -47 75 -53 80 -53 L187 -53 C192 -53 198 -47 199 -40 C202 -24 195 -23 192 -23 L107 -23 L204 525 L289 525 C292 525 299 526 302 542 C303 549 299 555 294 555 L187 555 C182 555 176 549 175 542 L72 -40 Z " />
<glyph glyph-name="backslash" unicode="&#x5c;" horiz-adv-x="407" d="M286 -45 C287 -49 290 -54 301 -54 C310 -54 316 -51 319 -45 L210 551 C207 555 205 560 194 560 C185 560 179 557 177 551 L286 -45 Z " />
<glyph glyph-name="bracketright" unicode="&#x5d;" horiz-adv-x="287" d="M302 542 C303 549 299 555 294 555 L187 555 C182 555 176 549 175 542 C172 526 179 525 182 525 L267 525 L170 -23 L85 -23 C82 -23 75 -24 72 -40 C71 -47 75 -53 80 -53 L187 -53 C192 -53 198 -47 199 -40 L302 542 Z " />
<glyph glyph-name="asciicircum" unicode="&#x5e;" horiz-adv-x="424" d="M297 555 C290 555 285 552 280 546 L142 353 C142 347 147 344 156 344 C167 344 175 349 178 353 L305 533 L370 353 C371 349 377 344 388 344 C398 344 404 347 406 353 L336 546 C333 552 328 555 321 555 L297 555 Z " />
<glyph glyph-name="underscore" unicode="&#x5f;" horiz-adv-x="498" d="M393 -81 C398 -81 405 -73 406 -66 C409 -51 402 -49 399 -49 L81 -49 C78 -49 71 -51 68 -66 C67 -73 70 -81 75 -81 L393 -81 Z " />
<glyph glyph-name="grave" unicode="&#x60;" horiz-adv-x="204" d="M214 542 C215 549 212 555 195 555 C186 555 176 550 175 543 L182 426 C181 423 185 421 189 421 C194 421 198 423 199 426 L214 542 Z " />
<glyph glyph-name="a" unicode="a" horiz-adv-x="481" d="M374 102 C315 58 244 25 188 25 C162 25 95 25 108 93 L109 100 C121 182 333 192 390 192 L374 102 Z M361 23 C357 4 374 0 389 0 C402 0 426 1 429 19 C430 26 428 30 425 30 L394 30 L438 279 C457 396 365 407 287 407 C266 407 184 404 147 385 C140 381 133 373 132 365 C129 352 138 342 150 342 C161 342 170 350 175 359 C186 368 251 375 282 375 C328 375 422 375 406 282 L397 227 C245 214 93 196 77 100 L74 82 C63 18 104 -5 168 -5 C203 -5 271 -5 367 62 L361 23 Z " />
<glyph glyph-name="b" unicode="b" horiz-adv-x="489" d="M412 118 C396 25 341 25 266 25 C219 25 137 57 150 135 L179 295 C203 354 297 375 331 375 C371 375 457 368 441 279 L412 118 Z M96 11 C95 4 98 0 105 0 L118 0 C124 0 128 5 129 16 L136 52 C163 0 229 -5 257 -5 C329 -5 423 -5 444 115 L475 292 C491 384 414 407 342 407 C330 407 248 407 189 356 L221 537 C223 546 220 550 211 550 C187 550 159 547 148 544 C147 543 145 540 143 533 C142 524 143 520 147 520 L186 520 L96 11 Z " />
<glyph glyph-name="c" unicode="c" horiz-adv-x="448" d="M242 -5 C293 -5 383 9 388 30 C389 37 390 42 389 47 C386 50 384 51 381 51 C380 51 379 50 376 49 C331 25 268 25 248 25 C175 25 102 27 118 121 L146 283 C162 374 267 375 310 375 C337 375 399 366 406 364 C407 354 413 349 423 349 C435 349 445 358 448 370 C449 377 445 385 440 388 C414 399 337 407 317 407 C237 407 134 388 115 286 L84 110 C65 1 162 -5 242 -5 L242 -5 Z " />
<glyph glyph-name="d" unicode="d" horiz-adv-x="486" d="M146 279 C162 368 248 375 290 375 C322 375 411 355 414 295 L385 135 C372 57 279 25 231 25 C156 25 101 25 117 118 L146 279 Z M366 23 C362 4 379 0 394 0 C407 0 431 1 434 19 C435 26 433 30 430 30 L399 30 L488 537 C490 546 487 550 478 550 C454 550 426 547 415 544 C414 543 412 540 410 533 C409 524 410 520 414 520 L453 520 L424 356 C384 407 300 407 289 407 C217 407 132 384 116 292 L85 115 C64 -5 158 -5 230 -5 C259 -5 325 1 371 52 L366 23 Z " />
<glyph glyph-name="e" unicode="e" horiz-adv-x="458" d="M302 407 C225 407 134 388 115 286 L86 122 C65 8 173 -5 251 -5 C302 -5 376 2 379 22 C380 29 381 34 380 39 C379 42 376 43 373 43 C372 43 371 42 368 41 C325 28 276 25 255 25 C214 25 102 31 118 122 L129 187 L407 187 C419 187 426 197 429 208 L443 286 C462 388 374 407 302 407 L302 407 Z M399 218 L135 218 L146 282 C162 372 256 375 297 375 C340 375 426 372 410 282 L399 218 Z " />
<glyph glyph-name="f" unicode="f" horiz-adv-x="321" d="M314 368 C315 368 322 368 325 385 C328 393 325 400 320 400 L227 400 L234 442 C250 526 279 540 336 540 C347 540 369 539 374 539 C378 539 384 556 384 559 C385 571 361 572 345 572 C273 572 222 551 203 444 L195 400 L128 400 C123 400 120 393 117 385 C114 368 121 368 122 368 L189 368 L132 44 C131 37 130 30 122 30 L95 30 C94 30 87 30 84 15 C83 8 83 0 92 0 L224 0 C227 0 230 1 233 17 C236 26 234 30 229 30 L162 30 L221 368 L314 368 Z " />
<glyph glyph-name="g" unicode="g" horiz-adv-x="489" d="M146 279 C162 368 248 375 290 375 C322 375 411 355 414 295 L385 135 C372 57 279 25 231 25 C156 25 101 25 117 118 L146 279 Z M174 -182 C251 -182 363 -175 382 -64 L459 370 L498 370 C502 370 505 374 506 383 C507 390 506 393 505 394 C497 397 468 400 444 400 C435 400 431 396 430 387 L424 356 C384 407 300 407 289 407 C217 407 132 384 116 292 L85 115 C64 -5 158 -5 230 -5 C259 -5 325 1 371 52 L351 -61 C335 -151 222 -151 183 -151 C162 -151 113 -148 76 -135 C73 -134 72 -133 71 -133 C69 -133 66 -134 62 -137 C59 -142 58 -147 57 -154 C54 -175 123 -182 174 -182 L174 -182 Z " />
<glyph glyph-name="h" unicode="h" horiz-adv-x="539" d="M363 30 C356 30 356 24 353 17 C350 1 355 0 358 0 L474 0 C483 0 485 8 486 15 C489 30 482 30 481 30 L451 30 C443 30 444 37 445 44 L488 288 C503 368 455 407 362 407 C334 407 269 406 206 361 L237 537 C239 546 236 550 227 550 C203 550 174 547 163 544 C162 543 160 540 158 533 C157 524 158 520 162 520 L202 520 L118 44 C117 37 116 30 108 30 L78 30 C77 30 70 30 67 15 C66 8 66 0 75 0 L191 0 C194 0 197 1 200 17 C203 26 201 30 196 30 L148 30 L199 320 C235 354 303 375 354 375 C467 375 460 307 457 291 L411 30 L363 30 Z " />
<glyph glyph-name="i" unicode="i" horiz-adv-x="249" d="M168 465 C165 450 175 439 190 439 C205 439 218 450 221 465 C224 480 214 492 199 492 C184 492 171 480 168 465 L168 465 Z M173 370 L115 45 C114 38 113 30 105 30 L78 30 C77 30 70 30 67 15 C66 8 65 0 76 0 L173 0 C184 0 185 8 186 15 C189 30 182 30 181 30 L153 30 C145 30 146 38 147 45 L208 387 C209 396 205 400 198 400 C174 400 148 397 137 394 C134 393 133 389 132 383 C131 374 132 370 136 370 L173 370 Z " />
<glyph glyph-name="j" unicode="j" horiz-adv-x="260" d="M203 465 C200 450 210 439 225 439 C240 439 253 450 256 465 C259 480 249 492 234 492 C219 492 206 480 203 465 L203 465 Z M31 -151 C26 -151 9 -152 4 -149 C-3 -149 -8 -162 -9 -167 C-10 -174 -9 -179 -5 -180 C2 -182 11 -183 24 -183 C96 -183 145 -168 166 -50 L243 387 C244 396 240 400 233 400 C209 400 152 397 143 394 C136 393 133 389 132 383 C131 374 132 370 136 370 L208 370 L134 -48 C118 -133 93 -151 31 -151 L31 -151 Z " />
<glyph glyph-name="k" unicode="k" horiz-adv-x="527" d="M456 370 L349 231 L184 231 L238 537 C240 546 237 550 228 550 C204 550 174 547 163 544 C162 543 160 540 158 533 C157 524 158 520 162 520 L203 520 L119 44 C118 37 117 30 109 30 L78 30 C77 30 70 30 67 15 C66 8 66 0 75 0 L192 0 C195 0 199 1 202 17 C205 26 203 30 198 30 L149 30 L179 199 L350 199 L408 9 C411 6 411 0 420 0 L459 0 C468 0 470 8 471 15 C474 30 467 30 466 30 L439 30 L380 223 L493 370 L526 370 C529 370 535 375 536 383 C539 398 534 400 531 400 L404 400 C401 400 396 398 393 383 C392 375 396 370 399 370 L456 370 Z " />
<glyph glyph-name="l" unicode="l" horiz-adv-x="249" d="M234 537 C236 546 233 550 224 550 C200 550 173 547 164 544 C162 543 160 540 158 533 C157 524 158 520 162 520 L199 520 L115 45 C114 38 113 30 105 30 L78 30 C77 30 70 30 67 15 C66 8 65 0 76 0 L173 0 C184 0 185 8 186 15 C189 30 182 30 181 30 L153 30 C145 30 146 38 147 45 L234 537 Z " />
<glyph glyph-name="m" unicode="m" horiz-adv-x="725" d="M313 30 C306 30 306 24 303 17 C300 1 305 0 308 0 L424 0 C433 0 435 8 436 15 C439 30 432 30 431 30 L398 30 C390 30 391 37 392 44 L439 311 C464 362 511 375 560 375 C572 375 659 374 643 281 L599 30 L554 30 C547 30 547 24 544 17 C541 1 546 0 549 0 L660 0 C669 0 671 8 672 15 C675 30 668 30 667 30 L639 30 C631 30 632 37 633 44 L676 284 C692 377 631 407 559 407 C549 407 473 407 427 351 C403 407 355 407 324 407 C306 407 245 408 205 360 L210 387 C211 396 208 400 201 400 C177 400 148 397 137 394 C134 393 133 389 132 383 C131 374 132 370 136 370 L175 370 L117 44 C116 37 115 30 107 30 L78 30 C77 30 70 30 67 15 C66 8 66 0 75 0 L187 0 C190 0 193 1 196 17 C199 26 197 30 192 30 L147 30 L194 299 C217 356 268 375 319 375 C338 374 354 371 367 364 C390 353 411 333 404 290 L358 30 L313 30 Z " />
<glyph glyph-name="n" unicode="n" horiz-adv-x="539" d="M211 387 C212 396 208 400 201 400 C177 400 148 397 137 394 C134 393 133 389 132 383 C131 374 132 370 136 370 L176 370 L118 44 C117 37 116 30 108 30 L78 30 C77 30 70 30 67 15 C66 8 66 0 75 0 L191 0 C194 0 197 1 200 17 C203 26 201 30 196 30 L148 30 L199 320 C235 354 303 375 354 375 C467 375 460 307 457 291 L411 30 L363 30 C356 30 356 24 353 17 C350 1 355 0 358 0 L474 0 C483 0 485 8 486 15 C489 30 482 30 481 30 L451 30 C443 30 444 37 445 44 L488 288 C503 368 455 407 362 407 C334 407 269 406 206 361 L211 387 Z " />
<glyph glyph-name="o" unicode="o" horiz-adv-x="462" d="M235 25 C196 25 102 31 118 122 L146 279 C162 368 257 375 297 375 C335 375 430 368 414 279 L386 122 C370 31 274 25 235 25 L235 25 Z M230 -5 C304 -5 400 17 416 110 L446 282 C465 384 376 407 302 407 C226 407 133 384 114 282 L84 110 C68 17 154 -5 230 -5 L230 -5 Z " />
<glyph glyph-name="p" unicode="p" horiz-adv-x="506" d="M359 407 C347 407 265 407 206 356 L212 387 C213 396 209 400 202 400 C178 400 150 397 139 394 C136 393 135 389 134 383 C133 374 134 370 138 370 L177 370 L89 -129 C88 -136 86 -143 78 -143 L48 -143 C47 -143 40 -143 37 -158 C34 -165 36 -173 45 -173 L161 -173 C164 -173 168 -172 171 -156 C172 -147 171 -143 166 -143 L118 -143 L153 52 C180 0 246 -5 274 -5 C346 -5 440 -5 461 115 L492 292 C508 384 431 407 359 407 L359 407 Z M429 118 C413 25 358 25 283 25 C236 25 154 57 167 135 L196 295 C220 354 314 375 348 375 C388 375 474 368 458 279 L429 118 Z " />
<glyph glyph-name="q" unicode="q" horiz-adv-x="491" d="M146 279 C162 368 248 375 290 375 C322 375 411 355 414 295 L385 135 C372 57 279 25 231 25 C156 25 101 25 117 118 L146 279 Z M461 384 C463 395 461 400 455 400 L442 400 C435 400 431 396 430 389 L424 356 C384 407 300 407 289 407 C217 407 132 384 116 292 L85 115 C64 -5 158 -5 230 -5 C259 -5 325 1 371 52 L336 -143 L288 -143 C283 -143 280 -147 279 -156 C276 -172 280 -173 283 -173 L399 -173 C408 -173 410 -165 413 -158 C416 -143 407 -143 406 -143 L376 -143 C368 -143 370 -136 371 -129 L461 384 Z " />
<glyph glyph-name="r" unicode="r" horiz-adv-x="356" d="M119 44 C118 37 117 30 109 30 L79 30 C78 30 70 30 67 15 C66 8 67 0 76 0 L219 0 C222 0 225 1 228 17 C231 26 229 30 224 30 L149 30 L198 309 C221 327 283 358 333 363 C336 356 345 353 353 353 C368 353 379 362 382 377 C385 390 375 402 360 402 C331 402 244 374 205 348 L212 387 C213 396 209 400 202 400 C178 400 149 397 138 394 C135 393 133 389 132 383 C131 374 132 370 137 370 L177 370 L119 44 Z " />
<glyph glyph-name="s" unicode="s" horiz-adv-x="436" d="M230 -5 C302 -5 383 10 396 87 L398 102 C416 202 135 194 142 289 L144 298 C153 349 194 375 307 375 L311 375 C337 375 377 367 384 365 C385 354 391 349 401 349 C413 349 423 358 426 370 C427 377 425 386 418 389 C393 400 328 407 309 407 C232 407 129 401 113 304 L110 284 C90 165 378 166 366 97 L364 87 C353 26 273 25 234 25 C197 25 103 38 106 53 L107 57 C107 61 100 64 92 64 C77 64 71 55 68 40 C63 5 173 -5 230 -5 L230 -5 Z " />
<glyph glyph-name="t" unicode="t" horiz-adv-x="310" d="M271 26 C262 25 249 25 242 25 C186 25 158 42 174 125 L216 368 L318 368 C319 368 326 368 329 385 C332 393 329 400 324 400 L222 400 L247 539 C248 546 244 550 237 550 L225 550 C220 550 216 546 215 539 L190 400 L118 400 C113 400 110 393 107 385 C104 368 111 368 112 368 L184 368 L140 119 C121 12 165 -5 235 -5 C247 -5 260 -4 271 -3 C273 0 275 4 276 9 C277 15 275 21 271 26 L271 26 Z " />
<glyph glyph-name="u" unicode="u" horiz-adv-x="515" d="M387 23 C383 4 405 0 420 0 C433 0 460 1 463 19 C464 26 462 30 459 30 L420 30 L483 387 C484 396 480 400 473 400 C449 400 419 397 408 394 C405 393 404 389 403 383 C402 374 403 370 407 370 L448 370 L402 109 C349 58 256 25 220 25 C125 25 132 76 137 104 L187 387 C188 396 184 400 177 400 C153 400 123 397 112 394 C109 393 108 389 107 383 C106 374 107 370 111 370 L152 370 L106 110 C93 30 117 -5 211 -5 C268 -5 343 24 394 64 L387 23 Z " />
<glyph glyph-name="v" unicode="v" horiz-adv-x="506" d="M253 0 C281 0 287 14 290 21 L490 368 L526 368 C529 368 535 368 538 384 C541 392 541 400 530 400 L402 400 C391 400 391 392 388 384 C385 368 391 368 394 368 L456 368 L257 25 L178 368 L240 368 C243 368 249 368 252 384 C255 392 255 400 244 400 L116 400 C105 400 105 392 102 384 C99 368 105 368 108 368 L144 368 L222 21 C223 14 225 0 253 0 L253 0 Z " />
<glyph glyph-name="w" unicode="w" horiz-adv-x="636" d="M364 298 C353 298 347 296 340 285 L187 25 L178 368 L227 368 C230 368 236 368 239 384 C242 392 242 400 231 400 L123 400 C112 400 112 392 109 384 C106 368 112 368 115 368 L145 368 L156 19 C156 12 157 0 184 0 C209 0 215 12 218 19 L365 268 L424 19 C425 12 427 0 452 0 C479 0 483 12 486 19 L619 368 L649 368 C652 368 658 368 661 384 C664 392 664 400 653 400 L545 400 C534 400 534 392 531 384 C528 368 534 368 537 368 L586 368 L457 25 L396 285 C393 296 387 298 376 298 L364 298 Z " />
<glyph glyph-name="x" unicode="x" horiz-adv-x="522" d="M292 177 L374 5 C376 2 379 0 383 0 L452 0 C461 0 463 8 464 16 C467 31 461 30 458 30 L402 30 L319 198 L462 368 L517 368 C520 368 526 368 529 383 C532 392 532 400 521 400 L457 400 C454 400 450 398 447 395 L299 219 L213 395 C212 398 209 400 205 400 L141 400 C130 400 130 392 127 383 C124 368 130 368 133 368 L188 368 L271 198 L130 30 L74 30 C71 30 65 31 62 16 C61 8 61 0 70 0 L139 0 C143 0 146 2 148 5 L292 177 Z " />
<glyph glyph-name="y" unicode="y" horiz-adv-x="529" d="M270 18 L188 368 L244 368 C247 368 253 368 256 384 C259 392 259 400 248 400 L126 400 C115 400 115 392 112 384 C109 368 115 368 118 368 L154 368 L243 -29 L214 -80 C180 -140 149 -141 119 -141 L98 -141 C89 -141 82 -148 81 -156 C80 -160 81 -169 84 -170 C100 -173 110 -172 123 -172 C159 -172 206 -156 243 -92 L503 368 L539 368 C542 368 548 368 551 384 C554 392 554 400 543 400 L421 400 C410 400 410 392 407 384 C404 368 410 368 413 368 L469 368 L270 18 Z " />
<glyph glyph-name="z" unicode="z" horiz-adv-x="453" d="M118 30 L444 361 C450 366 453 371 454 378 C457 393 448 400 433 400 L148 400 C136 397 133 385 130 372 C127 361 126 345 141 345 C148 345 160 345 163 352 L167 368 L410 368 L84 39 C79 34 76 29 74 22 C71 7 81 0 96 0 L374 0 C386 3 388 15 391 28 C394 39 395 55 380 55 C373 55 362 55 359 48 L354 30 L118 30 Z " />
<glyph glyph-name="braceleft" unicode="&#x7b;" horiz-adv-x="347" d="M143 272 C136 272 127 262 124 251 C120 231 132 227 135 227 C156 219 172 202 165 169 L144 49 C132 -20 144 -54 212 -54 L247 -54 C250 -54 257 -53 260 -37 C261 -30 257 -24 252 -24 L229 -24 C177 -24 166 -11 175 45 L192 139 C198 169 204 213 167 248 C217 282 226 328 231 358 L249 462 C259 517 273 530 327 530 L350 530 C353 530 360 531 363 547 C364 554 360 560 355 560 L320 560 C252 560 229 528 216 459 L194 329 C187 297 167 280 143 272 L143 272 Z " />
<glyph glyph-name="bar" unicode="&#x7c;" horiz-adv-x="192" d="M72 -40 C72 -45 77 -53 85 -53 C101 -53 104 -43 104 -40 L208 547 C208 550 209 560 193 560 C185 560 177 552 176 547 L72 -40 Z " />
<glyph glyph-name="braceright" unicode="&#x7d;" horiz-adv-x="347" d="M298 272 C278 280 262 297 269 329 L291 459 C304 528 291 560 223 560 L188 560 C183 560 177 554 176 547 C173 531 180 530 183 530 L206 530 C260 530 270 517 260 462 L242 358 C236 327 228 283 266 248 C215 213 209 170 203 139 L186 45 C177 -11 160 -24 108 -24 L85 -24 C80 -24 74 -30 73 -37 C70 -53 77 -54 80 -54 L115 -54 C183 -54 207 -20 219 49 L240 169 C247 202 267 219 292 227 C295 227 307 231 311 251 C314 262 305 272 298 272 L298 272 Z " />
<glyph glyph-name="asciitilde" unicode="&#x7e;" horiz-adv-x="479" d="M199 199 C250 199 287 163 337 163 C368 163 396 173 433 198 C436 211 430 219 419 223 C390 204 364 195 343 195 C290 195 254 231 204 231 C173 231 146 220 115 200 C112 185 119 180 128 175 C156 190 184 199 199 199 L199 199 Z " />
<glyph glyph-name="uni00A0" unicode="&#xa0;" horiz-adv-x="207" d="" />
<glyph glyph-name="exclamdown" unicode="&#xa1;" horiz-adv-x="203" d="M161 270 C162 275 159 278 150 278 C141 278 136 275 135 270 C106 123 80 -15 51 -162 C50 -169 58 -175 69 -175 C80 -175 90 -169 91 -162 C114 -15 138 123 161 270 L161 270 Z M144 365 C141 353 149 343 161 343 C173 343 184 353 187 365 C190 377 181 386 169 386 C157 386 147 377 144 365 L144 365 Z " />
<glyph glyph-name="cent" unicode="&#xa2;" horiz-adv-x="478" d="M213 -55 C212 -60 218 -68 226 -68 C242 -68 244 -58 245 -55 L254 -5 C307 -5 398 9 403 30 C404 37 405 42 404 47 C401 50 399 51 396 51 C395 51 394 50 391 49 C346 25 283 25 263 25 C190 25 117 27 133 121 L161 283 C177 374 282 375 325 375 C352 375 414 366 421 364 C422 354 428 349 438 349 C450 349 460 358 463 370 C464 377 460 385 455 388 C429 399 352 407 332 407 L326 407 L336 461 C336 464 337 474 321 474 C313 474 305 466 304 461 L294 405 C221 400 146 371 130 286 L99 110 C83 16 149 -1 222 -4 L213 -55 Z " />
<glyph glyph-name="sterling" unicode="&#xa3;" horiz-adv-x="581" d="M498 58 C493 58 481 58 480 54 L475 30 L162 30 L200 244 L324 244 C328 244 334 251 335 258 C338 273 330 274 329 274 L205 274 L233 434 C249 524 362 524 401 524 C420 524 466 520 503 512 C507 511 508 510 511 510 C514 510 518 512 521 515 C524 519 526 526 527 531 C528 535 528 538 527 539 C486 553 422 555 409 555 C333 555 221 550 202 438 L173 274 L137 274 C136 274 128 273 125 258 C124 251 128 244 132 244 L168 244 L130 30 L90 28 C87 28 84 23 82 14 C81 9 81 5 83 3 C92 1 106 0 127 0 L489 0 C500 3 503 18 506 29 C507 38 510 58 498 58 L498 58 Z " />
<glyph glyph-name="currency" unicode="&#xa4;" horiz-adv-x="536" d="M288 116 C226 116 188 167 199 226 C210 290 267 343 328 343 C391 343 426 290 415 226 C404 167 350 116 288 116 L288 116 Z M283 86 C310 86 350 95 385 122 C438 57 439 57 440 57 C455 57 464 65 467 81 L412 148 C431 173 443 204 448 227 C451 246 453 278 442 305 L521 371 C522 388 515 396 499 396 L425 334 C405 358 382 375 334 375 C286 375 258 358 227 334 L175 396 C160 396 150 388 145 371 L200 305 C181 278 171 246 168 227 C163 204 165 173 176 148 L97 81 C94 65 100 57 116 57 C116 57 118 57 193 122 C217 95 256 86 283 86 L283 86 Z " />
<glyph glyph-name="yen" unicode="&#xa5;" horiz-adv-x="714" d="M521 140 C526 140 533 148 534 155 C537 170 530 172 527 172 L403 172 L410 213 L450 259 L542 259 C547 259 554 267 555 274 C558 289 551 291 548 291 L478 291 L679 520 L717 520 C718 520 725 520 728 535 C729 542 729 550 720 550 L568 550 C559 550 557 542 556 535 C553 520 560 520 561 520 L641 520 L400 247 L255 520 L335 520 C336 520 343 520 346 535 C347 542 347 550 338 550 L186 550 C177 550 175 542 174 535 C171 520 178 520 179 520 L217 520 L338 291 L268 291 C265 291 258 289 255 274 C254 267 257 259 262 259 L354 259 L378 214 L371 172 L247 172 C244 172 237 170 234 155 C233 148 236 140 241 140 L365 140 L348 45 C347 38 346 30 338 30 L307 30 C306 30 299 30 296 15 C295 8 294 0 305 0 L408 0 C419 0 420 8 421 15 C424 30 417 30 416 30 L386 30 C378 30 379 38 380 45 L397 140 L521 140 Z " />
<glyph glyph-name="brokenbar" unicode="&#xa6;" horiz-adv-x="192" d="M71 -47 C70 -52 76 -60 84 -60 C100 -60 103 -50 103 -47 L145 189 C145 192 146 202 130 202 C122 202 114 194 113 189 L71 -47 Z M139 340 C139 335 144 327 152 327 C168 327 171 337 171 340 L213 576 C213 579 214 589 198 589 C190 589 182 581 181 576 L139 340 Z " />
<glyph glyph-name="section" unicode="&#xa7;" horiz-adv-x="537" d="M462 215 C451 154 373 153 332 153 C317 153 284 152 245 163 C193 182 150 202 154 241 L156 250 C164 299 199 318 247 318 C394 318 469 259 464 225 L462 215 Z M409 503 C435 503 477 495 482 493 C485 482 491 477 500 477 C512 477 521 486 524 498 C527 505 522 514 517 517 C492 528 427 535 408 535 C331 535 228 529 212 432 L208 412 C204 387 219 363 234 351 C186 340 135 315 124 254 L121 236 C101 117 389 118 377 49 L375 39 C364 -22 286 -23 245 -23 C208 -23 114 -10 117 5 L118 9 C119 13 111 16 103 16 C88 16 82 7 79 -8 C74 -43 184 -53 241 -53 C314 -53 394 -38 407 39 L410 54 C417 86 390 107 353 124 C420 127 481 148 494 215 L497 229 C517 346 225 333 241 417 L243 426 C251 475 292 503 405 503 L409 503 Z " />
<glyph glyph-name="dieresis" unicode="&#xa8;" horiz-adv-x="350" d="M173 533 C170 521 179 512 191 512 C203 512 213 521 216 533 C219 545 210 555 198 555 C186 555 176 545 173 533 L173 533 Z M320 533 C317 521 326 512 338 512 C350 512 360 521 363 533 C366 545 357 555 345 555 C333 555 323 545 320 533 L320 533 Z " />
<glyph glyph-name="copyright" unicode="&#xa9;" horiz-adv-x="720" d="M457 555 C302 555 155 430 128 275 C101 120 204 -5 359 -5 C513 -5 661 120 688 275 C715 430 612 555 457 555 L457 555 Z M363 22 C225 22 131 136 155 275 C179 416 315 530 453 530 C595 530 687 416 663 275 C639 136 504 22 363 22 L363 22 Z M388 115 C409 115 491 117 496 138 C497 145 499 153 496 156 C497 159 493 160 492 160 C490 160 487 159 482 156 C469 148 417 146 396 146 L387 146 C363 146 288 155 296 200 L319 333 C330 386 407 394 431 394 L442 394 C457 394 486 389 497 384 C496 381 494 378 494 375 C491 364 500 354 513 354 C529 354 536 371 539 383 C541 397 536 407 524 412 C505 420 470 427 438 427 C379 427 296 413 283 329 L260 203 C247 127 328 115 388 115 L388 115 Z " />
<glyph glyph-name="ordfeminine" unicode="&#xaa;" horiz-adv-x="386" d="M320 349 C297 328 244 317 216 317 C187 317 163 327 167 348 L171 369 C179 413 304 419 332 419 L320 349 Z M316 308 C313 297 329 297 337 297 C346 297 357 298 360 309 C361 314 361 317 358 317 L340 317 L369 482 C380 544 333 555 282 555 C267 555 203 550 192 542 C185 537 181 532 180 527 C178 515 183 509 194 509 C202 509 208 513 213 522 C229 527 269 530 273 530 L279 530 C297 530 353 530 345 489 L337 445 C250 437 155 426 144 366 L142 353 C134 307 168 294 211 294 C234 294 280 295 318 322 L316 308 Z " />
<glyph glyph-name="guillemotleft" unicode="&#xab;" horiz-adv-x="467" d="M145 194 L284 374 C281 379 279 382 267 382 C259 382 251 380 248 375 L124 213 C118 207 115 201 114 195 C113 190 114 184 116 178 L184 13 C185 8 193 6 201 6 C213 6 216 9 221 14 L145 194 Z M313 194 L452 374 C449 379 447 382 435 382 C427 382 419 380 416 375 L292 213 C286 207 283 201 282 195 C281 190 282 184 284 178 L352 13 C353 8 361 6 369 6 C381 6 384 9 389 14 L313 194 Z " />
<glyph glyph-name="logicalnot" unicode="&#xac;" horiz-adv-x="550" d="M451 76 C450 69 454 62 462 62 C481 62 482 73 483 76 L506 206 C506 209 508 220 489 220 L128 220 C125 220 118 219 115 202 C114 195 118 188 123 188 L471 188 L451 76 Z " />
<glyph glyph-name="uni00AD" unicode="&#xad;" horiz-adv-x="513" d="" />
<glyph glyph-name="registered" unicode="&#xae;" horiz-adv-x="720" d="M457 555 C302 555 155 430 128 275 C101 120 204 -5 359 -5 C513 -5 661 120 688 275 C715 430 612 555 457 555 L457 555 Z M363 22 C225 22 131 136 155 275 C179 416 315 530 453 530 C595 530 687 416 663 275 C639 136 504 22 363 22 L363 22 Z M364 394 L447 394 C462 394 523 394 512 338 C504 300 498 268 422 268 L342 268 L364 394 Z M455 127 C458 122 463 115 474 115 L508 115 C512 115 516 116 519 132 C520 141 518 145 513 145 L484 145 L446 236 C530 244 543 303 548 339 C559 404 515 427 472 427 L359 427 C334 427 318 426 309 423 C307 423 305 420 304 413 C303 404 304 399 308 399 L329 397 L287 159 C284 152 284 145 277 145 L265 145 C264 145 257 145 254 130 C253 122 254 115 262 115 L337 115 C341 115 345 116 348 132 C349 139 347 145 342 145 L320 145 L336 236 L406 236 L455 127 Z " />
<glyph glyph-name="macron" unicode="&#xaf;" horiz-adv-x="508" d="M510 523 C515 523 521 531 522 538 C525 553 518 555 515 555 L187 555 C184 555 177 553 174 538 C173 531 177 523 182 523 L510 523 Z " />
<glyph glyph-name="degree" unicode="&#xb0;" horiz-adv-x="366" d="M279 555 C224 555 170 507 159 451 C148 395 188 349 243 349 C301 349 354 395 365 451 C376 507 337 555 279 555 L279 555 Z M249 382 C210 382 185 413 192 452 C199 493 235 524 274 524 C317 524 341 493 334 452 C327 413 292 382 249 382 L249 382 Z " />
<glyph glyph-name="plusminus" unicode="&#xb1;" horiz-adv-x="490" d="M254 139 C253 135 259 129 268 129 C277 129 285 135 286 139 L314 296 L453 296 C456 296 462 297 465 313 C466 321 463 328 458 328 L319 328 L346 479 C347 483 341 489 332 489 C323 489 315 483 314 479 L287 328 L146 328 C141 328 136 321 135 313 C132 297 138 296 141 296 L282 296 L254 139 Z M400 0 C405 0 411 8 412 15 C415 30 408 32 405 32 L95 32 C92 32 85 30 82 15 C81 8 85 0 90 0 L400 0 Z " />
<glyph glyph-name="twosuperior" unicode="&#xb2;" horiz-adv-x="344" d="M263 529 C317 529 316 510 313 483 C305 447 143 364 139 340 L137 326 C136 321 141 315 146 315 L308 315 C319 318 320 321 321 328 C324 339 325 354 313 354 C308 354 301 352 300 347 L297 338 L170 338 C285 421 337 447 342 482 C352 545 310 555 266 555 C236 555 198 545 190 545 C178 540 175 533 174 522 C171 513 172 506 183 506 C190 506 193 507 193 510 L197 519 C199 521 242 529 263 529 L263 529 Z " />
<glyph glyph-name="threesuperior" unicode="&#xb3;" horiz-adv-x="346" d="M246 443 C242 443 237 438 234 431 C231 419 240 418 243 418 L256 418 C299 418 306 398 302 375 C295 343 265 332 224 332 C219 332 184 332 167 343 C166 350 162 353 155 353 C144 353 140 344 139 337 C139 330 143 327 146 324 C157 313 205 310 219 310 C259 310 321 312 332 375 C333 386 336 413 313 428 C342 451 348 469 351 486 C359 533 324 555 264 555 C249 555 202 554 186 540 C182 537 176 533 173 526 C172 518 172 506 185 506 C193 506 199 512 202 519 C208 528 253 530 260 530 C276 530 330 528 322 488 C315 457 304 443 264 443 L246 443 Z " />
<glyph glyph-name="acute" unicode="&#xb4;" horiz-adv-x="235" d="M251 546 C251 550 246 555 233 555 C226 555 213 554 210 547 C165 476 162 469 162 467 C161 462 167 460 172 460 C181 460 187 462 190 467 L251 546 Z " />
<glyph glyph-name="mu" unicode="&#xb5;" horiz-adv-x="580" d="M427 23 C423 4 445 0 460 0 C473 0 500 1 503 19 C504 26 502 30 499 30 L460 30 L523 387 C524 396 520 400 513 400 C489 400 459 397 448 394 C445 393 444 389 443 383 C442 374 443 370 447 370 L488 370 L442 109 C389 59 314 25 277 25 C182 25 172 76 177 104 L227 387 C228 396 224 400 217 400 C193 400 163 397 152 394 C149 393 148 389 147 383 C146 374 147 370 151 370 L192 370 L96 -171 C95 -176 100 -184 111 -184 C124 -184 128 -174 128 -171 L164 32 C185 5 225 -5 268 -5 C325 -5 383 24 434 64 L427 23 Z " />
<glyph glyph-name="paragraph" unicode="&#xb6;" horiz-adv-x="635" d="M597 516 L639 516 C643 516 646 520 648 528 C649 535 649 539 646 540 C637 543 620 546 596 546 L342 546 C251 527 159 451 143 359 C127 265 196 185 303 174 L246 -153 C245 -158 250 -165 259 -165 C274 -165 277 -156 278 -153 L395 516 L526 516 L409 -153 C408 -158 413 -165 422 -165 C437 -165 440 -156 441 -153 L558 516 L597 516 Z " />
<glyph glyph-name="periodcentered" unicode="&#xb7;" horiz-adv-x="203" d="M111 177 C108 165 116 156 128 156 C140 156 151 165 154 177 C157 189 148 199 136 199 C124 199 114 189 111 177 L111 177 Z " />
<glyph glyph-name="cedilla" unicode="&#xb8;" horiz-adv-x="236" d="M144 -65 C145 -59 142 -56 133 -56 C126 -56 121 -61 118 -65 L53 -150 C52 -157 59 -161 70 -161 C79 -161 90 -157 93 -150 L144 -65 Z " />
<glyph glyph-name="onesuperior" unicode="&#xb9;" horiz-adv-x="285" d="M222 502 L195 351 C194 344 194 340 187 340 L158 340 C157 339 156 339 155 338 C152 335 151 335 150 328 C149 321 150 316 155 316 L254 316 C257 316 260 317 263 329 C264 336 263 340 258 340 L223 340 L259 541 C259 544 260 550 251 550 L245 550 C244 550 240 547 239 546 L175 506 C172 503 168 503 167 496 C166 491 169 478 176 478 C177 478 179 479 182 480 L222 502 Z " />
<glyph glyph-name="ordmasculine" unicode="&#xba;" horiz-adv-x="345" d="M268 555 C212 555 170 507 159 451 C148 395 177 349 232 349 C291 349 333 395 344 451 C355 507 326 555 268 555 L268 555 Z M238 382 C199 382 185 413 192 452 C199 493 224 524 263 524 C306 524 320 493 313 452 C306 413 281 382 238 382 L238 382 Z " />
<glyph glyph-name="guillemotright" unicode="&#xbb;" horiz-adv-x="467" d="M250 14 C253 9 256 6 268 6 C276 6 284 8 287 13 L413 178 C418 183 420 189 421 195 C422 201 420 207 417 213 L351 375 C350 380 342 382 334 382 C322 382 318 379 313 374 L390 194 L250 14 Z M82 14 C85 9 88 6 100 6 C108 6 116 8 119 13 L245 178 C250 183 252 189 253 195 C254 201 252 207 249 213 L183 375 C182 380 174 382 166 382 C154 382 150 379 145 374 L222 194 L82 14 Z " />
<glyph glyph-name="onequarter" unicode="&#xbc;" horiz-adv-x="589" d="M182 480 C179 479 177 478 176 478 C169 478 166 491 167 496 C168 503 172 503 175 506 L239 546 C240 547 244 550 245 550 L251 550 C260 550 259 544 259 541 L223 340 L258 340 C263 340 264 336 263 329 C260 317 257 316 254 316 L155 316 C150 316 149 321 150 328 C151 335 152 335 155 338 C156 339 157 339 158 340 L187 340 C194 340 194 344 195 351 L222 502 L182 480 Z M516 540 C516 541 517 542 517 543 C518 550 509 550 501 550 C489 550 485 545 482 541 L124 10 C124 9 123 8 123 7 C122 0 131 0 139 0 C151 0 155 5 158 9 L516 540 Z M433 128 C429 128 423 123 422 116 C419 104 428 103 431 103 L444 103 C487 103 493 83 489 60 C482 28 452 17 411 17 C406 17 371 17 354 28 C353 35 349 38 342 38 C331 38 329 29 326 22 C326 15 330 12 333 9 C344 -2 393 -5 407 -5 C447 -5 508 -3 519 60 C522 71 524 98 500 113 C529 136 536 154 539 171 C547 218 512 240 452 240 C437 240 389 238 373 225 C370 222 364 218 361 211 C358 203 359 191 372 191 C380 191 386 197 389 204 C395 213 440 215 447 215 C463 215 517 213 509 173 C504 142 491 128 451 128 L433 128 Z " />
<glyph glyph-name="onehalf" unicode="&#xbd;" horiz-adv-x="586" d="M182 480 C179 479 177 478 176 478 C169 478 166 491 167 496 C168 503 172 503 175 506 L239 546 C240 547 244 550 245 550 L251 550 C260 550 259 544 259 541 L223 340 L258 340 C263 340 264 336 263 329 C260 317 257 316 254 316 L155 316 C150 316 149 321 150 328 C151 335 152 335 155 338 C156 339 157 339 158 340 L187 340 C194 340 194 344 195 351 L222 502 L182 480 Z M516 540 C516 541 517 542 517 543 C518 550 509 550 501 550 C489 550 485 545 482 541 L124 10 C124 9 123 8 123 7 C122 0 131 0 139 0 C151 0 155 5 158 9 L516 540 Z M449 214 C502 214 504 195 499 168 C491 132 330 49 326 25 L323 11 C323 6 328 0 333 0 L495 0 C506 3 507 6 508 13 C511 24 511 39 499 39 C494 39 487 37 486 32 L484 23 L357 23 C470 105 524 133 529 167 C539 230 496 240 453 240 C423 240 383 230 376 230 C364 225 363 218 360 207 C357 198 358 191 369 191 C376 191 379 192 380 195 L383 204 C388 206 427 214 449 214 L449 214 Z " />
<glyph glyph-name="threequarters" unicode="&#xbe;" horiz-adv-x="583" d="M474 194 L452 71 L349 71 L474 194 Z M246 443 C242 443 237 438 234 431 C231 419 240 418 243 418 L256 418 C299 418 306 398 302 375 C295 343 265 332 224 332 C219 332 184 332 167 343 C166 350 162 353 155 353 C144 353 140 344 139 337 C139 330 143 327 146 324 C157 313 205 310 219 310 C259 310 321 312 332 375 C333 386 336 413 313 428 C342 451 348 469 351 486 C359 533 324 555 264 555 C249 555 202 554 186 540 C182 537 176 533 173 526 C172 518 172 506 185 506 C193 506 199 512 202 519 C208 528 253 530 260 530 C276 530 330 528 322 488 C315 457 304 443 264 443 L246 443 Z M552 540 C552 541 553 542 553 543 C554 550 545 550 537 550 C525 550 521 545 518 541 L160 10 C160 9 159 8 159 7 C158 0 167 0 175 0 C187 0 191 5 194 9 L552 540 Z M441 9 C440 1 447 0 454 0 C467 0 470 4 471 9 L477 45 L502 45 C503 45 510 46 513 59 C514 66 510 71 507 71 L482 71 L509 223 C509 226 510 235 495 235 L485 235 C480 235 476 233 472 229 L316 73 C315 72 314 70 312 68 L311 59 C308 46 315 45 318 45 L447 45 L441 9 Z " />
<glyph glyph-name="questiondown" unicode="&#xbf;" horiz-adv-x="504" d="M369 416 C370 421 363 428 355 428 C346 428 338 422 337 415 L332 386 C306 274 124 252 102 129 C78 -6 196 -6 274 -6 C295 -6 377 -3 414 16 C423 20 428 27 430 36 C433 49 424 59 412 59 C401 59 391 51 387 42 C376 34 310 26 280 26 C151 26 121 48 134 128 C154 235 342 266 362 378 L369 416 Z M395 534 C398 546 389 555 377 555 C365 555 355 546 352 534 C349 522 358 512 370 512 C382 512 392 522 395 534 L395 534 Z " />
<glyph glyph-name="Agrave" unicode="&#xc0;" horiz-adv-x="656" d="M494 229 L242 229 L420 522 L494 229 Z M546 30 L488 30 C481 30 481 24 478 17 C475 1 480 0 483 0 L601 0 C610 0 612 8 613 15 C616 30 609 30 608 30 L587 30 C584 30 582 31 580 33 L453 528 C449 543 440 550 425 550 L388 550 C365 550 332 550 323 547 C314 546 309 543 309 539 C306 528 309 523 317 523 L383 520 L86 33 C84 31 82 30 79 30 L58 30 C57 30 50 30 47 15 C46 8 46 0 55 0 L173 0 C176 0 179 1 182 17 C185 26 183 30 178 30 L120 30 L221 197 L503 197 L546 30 Z M383 686 C384 690 391 695 404 695 C411 695 424 694 425 687 C444 615 445 610 445 607 C444 602 437 600 432 600 C425 600 418 600 417 607 L383 686 Z " />
<glyph glyph-name="Aacute" unicode="&#xc1;" horiz-adv-x="656" d="M494 229 L242 229 L420 522 L494 229 Z M546 30 L488 30 C481 30 481 24 478 17 C475 1 480 0 483 0 L601 0 C610 0 612 8 613 15 C616 30 609 30 608 30 L587 30 C584 30 582 31 580 33 L453 528 C449 543 440 550 425 550 L388 550 C365 550 332 550 323 547 C314 546 309 543 309 539 C306 528 309 523 317 523 L383 520 L86 33 C84 31 82 30 79 30 L58 30 C57 30 50 30 47 15 C46 8 46 0 55 0 L173 0 C176 0 179 1 182 17 C185 26 183 30 178 30 L120 30 L221 197 L503 197 L546 30 Z M460 607 C456 602 450 600 441 600 C434 600 431 602 432 607 C432 609 435 616 480 687 C483 694 496 695 503 695 C516 695 521 690 520 686 L460 607 Z " />
<glyph glyph-name="Acircumflex" unicode="&#xc2;" horiz-adv-x="656" d="M494 229 L242 229 L420 522 L494 229 Z M546 30 L488 30 C481 30 481 24 478 17 C475 1 480 0 483 0 L601 0 C610 0 612 8 613 15 C616 30 609 30 608 30 L587 30 C584 30 582 31 580 33 L453 528 C449 543 440 550 425 550 L388 550 C365 550 332 550 323 547 C314 546 309 543 309 539 C306 528 309 523 317 523 L383 520 L86 33 C84 31 82 30 79 30 L58 30 C57 30 50 30 47 15 C46 8 46 0 55 0 L173 0 C176 0 179 1 182 17 C185 26 183 30 178 30 L120 30 L221 197 L503 197 L546 30 Z M446 726 C440 726 435 723 431 717 L354 610 C354 603 358 600 367 600 C376 600 382 602 385 606 L452 704 L483 606 C486 603 488 600 499 600 C508 600 514 603 516 610 L477 717 C475 723 471 726 466 726 L446 726 Z " />
<glyph glyph-name="Atilde" unicode="&#xc3;" horiz-adv-x="656" d="M441 600 C464 600 487 607 510 620 C510 623 512 624 512 627 C513 634 510 640 503 643 C484 631 466 628 446 628 C414 628 396 645 366 645 C341 645 326 643 303 628 L302 623 C301 615 304 608 311 605 C330 614 343 617 358 617 C391 617 412 600 441 600 L441 600 Z M494 229 L242 229 L420 522 L494 229 Z M546 30 L488 30 C481 30 481 24 478 17 C475 1 480 0 483 0 L601 0 C610 0 612 8 613 15 C616 30 609 30 608 30 L587 30 C584 30 582 31 580 33 L453 528 C449 543 440 550 425 550 L388 550 C365 550 332 550 323 547 C314 546 309 543 309 539 C306 528 309 523 317 523 L383 520 L86 33 C84 31 82 30 79 30 L58 30 C57 30 50 30 47 15 C46 8 46 0 55 0 L173 0 C176 0 179 1 182 17 C185 26 183 30 178 30 L120 30 L221 197 L503 197 L546 30 Z " />
<glyph glyph-name="Adieresis" unicode="&#xc4;" horiz-adv-x="656" d="M494 229 L242 229 L420 522 L494 229 Z M546 30 L488 30 C481 30 481 24 478 17 C475 1 480 0 483 0 L601 0 C610 0 612 8 613 15 C616 30 609 30 608 30 L587 30 C584 30 582 31 580 33 L453 528 C449 543 440 550 425 550 L388 550 C365 550 332 550 323 547 C314 546 309 543 309 539 C306 528 309 523 317 523 L383 520 L86 33 C84 31 82 30 79 30 L58 30 C57 30 50 30 47 15 C46 8 46 0 55 0 L173 0 C176 0 179 1 182 17 C185 26 183 30 178 30 L120 30 L221 197 L503 197 L546 30 Z M361 621 C358 609 366 600 378 600 C390 600 401 609 404 621 C407 633 398 643 386 643 C374 643 364 633 361 621 L361 621 Z M469 621 C466 609 474 600 486 600 C498 600 509 609 512 621 C515 633 506 643 494 643 C482 643 472 633 469 621 L469 621 Z " />
<glyph glyph-name="Aring" unicode="&#xc5;" horiz-adv-x="656" d="M445 733 C410 733 374 703 369 666 C362 631 386 600 421 600 C458 600 493 631 500 666 C507 703 482 733 445 733 L445 733 Z M427 630 C406 630 396 647 399 666 C402 682 418 700 439 700 C462 700 471 682 468 666 C465 647 450 630 427 630 L427 630 Z M494 229 L242 229 L420 522 L494 229 Z M546 30 L488 30 C481 30 481 24 478 17 C475 1 480 0 483 0 L601 0 C610 0 612 8 613 15 C616 30 609 30 608 30 L587 30 C584 30 582 31 580 33 L453 528 C449 543 440 550 425 550 L388 550 C365 550 332 550 323 547 C314 546 309 543 309 539 C306 528 309 523 317 523 L383 520 L86 33 C84 31 82 30 79 30 L58 30 C57 30 50 30 47 15 C46 8 46 0 55 0 L173 0 C176 0 179 1 182 17 C185 26 183 30 178 30 L120 30 L221 197 L503 197 L546 30 Z " />
<glyph glyph-name="AE" unicode="&#xc6;" horiz-adv-x="972" d="M565 225 L327 225 L617 518 L565 225 Z M96 32 C95 31 93 30 90 30 L53 30 C52 30 45 30 42 15 C41 8 41 0 50 0 L203 0 C206 0 209 1 212 16 C214 25 213 30 208 30 L136 30 L297 195 L560 195 L531 30 L487 28 C484 28 481 23 479 14 C478 9 478 5 480 3 C489 1 505 0 528 0 L890 0 C901 3 904 18 907 29 C908 38 911 58 899 58 C894 58 882 58 881 54 L876 30 L563 30 L601 248 L871 248 C874 248 880 249 883 264 C884 273 882 278 877 278 L607 278 L649 518 L962 518 L959 496 C958 492 970 492 975 492 C987 492 992 512 993 521 C996 532 997 547 986 550 L627 550 C613 550 601 545 592 534 L96 32 Z " />
<glyph glyph-name="Ccedilla" unicode="&#xc7;" horiz-adv-x="561" d="M298 -5 C383 -5 492 7 495 28 C496 35 499 40 496 45 C495 48 492 49 489 49 C488 49 487 48 484 47 C442 34 401 24 301 24 C224 24 107 27 128 151 L170 390 C194 523 338 523 391 523 C467 523 528 514 536 505 C537 496 544 488 555 488 C567 488 578 498 581 511 C582 520 579 526 572 531 C543 550 416 555 396 555 C317 555 163 538 139 395 L96 149 C70 -5 218 -5 298 -5 L298 -5 Z M305 -65 C306 -59 303 -56 294 -56 C287 -56 282 -61 279 -65 L214 -150 C213 -157 220 -161 231 -161 C240 -161 251 -157 254 -150 L305 -65 Z " />
<glyph glyph-name="Egrave" unicode="&#xc8;" horiz-adv-x="565" d="M469 30 L156 30 L194 248 L464 248 C467 248 473 249 476 264 C477 273 475 278 470 278 L200 278 L242 518 L555 518 L552 496 C551 492 563 492 568 492 C580 492 585 512 586 521 C589 532 590 547 579 550 L217 550 C194 550 178 549 169 547 C166 544 165 541 164 536 C162 527 163 522 168 522 L210 520 L124 30 L80 28 C77 28 74 23 72 14 C71 9 71 5 73 3 C82 1 98 0 121 0 L483 0 C494 3 497 18 500 29 C501 38 504 58 492 58 C487 58 475 58 474 54 L469 30 Z M348 686 C349 690 356 695 369 695 C376 695 389 694 390 687 C409 615 410 610 410 607 C409 602 402 600 397 600 C390 600 383 600 382 607 L348 686 Z " />
<glyph glyph-name="Eacute" unicode="&#xc9;" horiz-adv-x="565" d="M469 30 L156 30 L194 248 L464 248 C467 248 473 249 476 264 C477 273 475 278 470 278 L200 278 L242 518 L555 518 L552 496 C551 492 563 492 568 492 C580 492 585 512 586 521 C589 532 590 547 579 550 L217 550 C194 550 178 549 169 547 C166 544 165 541 164 536 C162 527 163 522 168 522 L210 520 L124 30 L80 28 C77 28 74 23 72 14 C71 9 71 5 73 3 C82 1 98 0 121 0 L483 0 C494 3 497 18 500 29 C501 38 504 58 492 58 C487 58 475 58 474 54 L469 30 Z M416 607 C412 602 406 600 397 600 C390 600 387 602 388 607 C388 609 391 616 436 687 C439 694 452 695 459 695 C472 695 477 690 476 686 L416 607 Z " />
<glyph glyph-name="Ecircumflex" unicode="&#xca;" horiz-adv-x="565" d="M469 30 L156 30 L194 248 L464 248 C467 248 473 249 476 264 C477 273 475 278 470 278 L200 278 L242 518 L555 518 L552 496 C551 492 563 492 568 492 C580 492 585 512 586 521 C589 532 590 547 579 550 L217 550 C194 550 178 549 169 547 C166 544 165 541 164 536 C162 527 163 522 168 522 L210 520 L124 30 L80 28 C77 28 74 23 72 14 C71 9 71 5 73 3 C82 1 98 0 121 0 L483 0 C494 3 497 18 500 29 C501 38 504 58 492 58 C487 58 475 58 474 54 L469 30 Z M412 726 C406 726 401 723 397 717 L320 610 C320 603 324 600 333 600 C342 600 348 602 351 606 L418 704 L449 606 C452 603 454 600 465 600 C474 600 480 603 482 610 L443 717 C441 723 437 726 432 726 L412 726 Z " />
<glyph glyph-name="Edieresis" unicode="&#xcb;" horiz-adv-x="565" d="M469 30 L156 30 L194 248 L464 248 C467 248 473 249 476 264 C477 273 475 278 470 278 L200 278 L242 518 L555 518 L552 496 C551 492 563 492 568 492 C580 492 585 512 586 521 C589 532 590 547 579 550 L217 550 C194 550 178 549 169 547 C166 544 165 541 164 536 C162 527 163 522 168 522 L210 520 L124 30 L80 28 C77 28 74 23 72 14 C71 9 71 5 73 3 C82 1 98 0 121 0 L483 0 C494 3 497 18 500 29 C501 38 504 58 492 58 C487 58 475 58 474 54 L469 30 Z M303 621 C300 609 308 600 320 600 C332 600 343 609 346 621 C349 633 340 643 328 643 C316 643 306 633 303 621 L303 621 Z M450 621 C447 609 455 600 467 600 C479 600 490 609 493 621 C496 633 487 643 475 643 C463 643 453 633 450 621 L450 621 Z " />
<glyph glyph-name="Igrave" unicode="&#xcc;" horiz-adv-x="262" d="M122 45 C121 38 120 30 112 30 L83 30 C82 30 75 30 72 15 C71 8 70 0 81 0 L181 0 C192 0 193 8 194 15 C197 30 190 30 189 30 L160 30 C152 30 153 38 154 45 L236 505 C237 512 238 520 246 520 L275 520 C276 520 283 520 286 535 C287 542 288 550 277 550 L177 550 C166 550 165 542 164 535 C161 520 168 520 169 520 L198 520 C206 520 205 512 204 505 L122 45 Z M188 686 C189 690 196 695 209 695 C216 695 229 694 230 687 C249 615 250 610 250 607 C249 602 242 600 237 600 C230 600 223 600 222 607 L188 686 Z " />
<glyph glyph-name="Iacute" unicode="&#xcd;" horiz-adv-x="262" d="M122 45 C121 38 120 30 112 30 L83 30 C82 30 75 30 72 15 C71 8 70 0 81 0 L181 0 C192 0 193 8 194 15 C197 30 190 30 189 30 L160 30 C152 30 153 38 154 45 L236 505 C237 512 238 520 246 520 L275 520 C276 520 283 520 286 535 C287 542 288 550 277 550 L177 550 C166 550 165 542 164 535 C161 520 168 520 169 520 L198 520 C206 520 205 512 204 505 L122 45 Z M255 607 C251 602 245 600 236 600 C229 600 226 602 227 607 C227 609 230 616 275 687 C278 694 291 695 298 695 C311 695 316 690 315 686 L255 607 Z " />
<glyph glyph-name="Icircumflex" unicode="&#xce;" horiz-adv-x="262" d="M122 45 C121 38 120 30 112 30 L83 30 C82 30 75 30 72 15 C71 8 70 0 81 0 L181 0 C192 0 193 8 194 15 C197 30 190 30 189 30 L160 30 C152 30 153 38 154 45 L236 505 C237 512 238 520 246 520 L275 520 C276 520 283 520 286 535 C287 542 288 550 277 550 L177 550 C166 550 165 542 164 535 C161 520 168 520 169 520 L198 520 C206 520 205 512 204 505 L122 45 Z M249 726 C243 726 238 723 234 717 L157 610 C157 603 161 600 170 600 C179 600 185 602 188 606 L255 704 L286 606 C289 603 291 600 302 600 C311 600 317 603 319 610 L280 717 C278 723 274 726 269 726 L249 726 Z " />
<glyph glyph-name="Idieresis" unicode="&#xcf;" horiz-adv-x="262" d="M122 45 C121 38 120 30 112 30 L83 30 C82 30 75 30 72 15 C71 8 70 0 81 0 L181 0 C192 0 193 8 194 15 C197 30 190 30 189 30 L160 30 C152 30 153 38 154 45 L236 505 C237 512 238 520 246 520 L275 520 C276 520 283 520 286 535 C287 542 288 550 277 550 L177 550 C166 550 165 542 164 535 C161 520 168 520 169 520 L198 520 C206 520 205 512 204 505 L122 45 Z M174 620 C171 608 179 599 191 599 C203 599 214 608 217 620 C220 632 211 642 199 642 C187 642 177 632 174 620 L174 620 Z M262 620 C259 608 267 599 279 599 C291 599 302 608 305 620 C308 632 299 642 287 642 C275 642 265 632 262 620 L262 620 Z " />
<glyph glyph-name="Eth" unicode="&#xd0;" horiz-adv-x="614" d="M349 0 C423 0 549 33 575 181 L608 364 C634 515 519 550 445 550 L223 550 C200 550 180 550 171 547 C168 544 167 541 166 536 C164 527 165 522 170 522 L215 520 L175 291 L131 291 C128 291 121 289 118 274 C117 267 120 259 125 259 L169 259 L129 30 L82 28 C79 28 76 23 74 14 C73 9 73 5 75 3 C84 0 104 0 127 0 L349 0 Z M289 259 C294 259 301 267 302 274 C305 289 298 291 295 291 L207 291 L247 518 L418 518 C446 518 604 517 576 364 L544 187 C517 30 360 30 332 30 L161 30 L201 259 L289 259 Z " />
<glyph glyph-name="Ntilde" unicode="&#xd1;" horiz-adv-x="674" d="M517 11 C520 4 531 0 538 0 L547 0 C552 0 563 2 566 17 L653 506 C654 513 655 520 663 520 L692 520 C693 520 700 520 703 535 C704 542 704 550 695 550 L578 550 C575 550 570 549 567 533 C566 524 568 520 573 520 L623 520 L540 46 L267 539 C263 546 257 550 249 550 L214 550 C190 550 174 549 165 547 C162 545 160 541 159 535 C157 526 158 522 163 522 L205 520 L121 44 C120 37 119 30 111 30 L78 30 C77 30 70 30 67 15 C66 8 66 0 75 0 L196 0 C199 0 202 1 205 17 C208 26 206 30 201 30 L151 30 L237 520 L517 11 Z M472 600 C495 600 518 607 541 620 C541 623 543 624 543 627 C544 634 541 640 534 643 C515 631 497 628 477 628 C445 628 427 645 397 645 C372 645 357 643 334 628 L333 623 C332 615 335 608 342 605 C361 614 374 617 389 617 C422 617 443 600 472 600 L472 600 Z " />
<glyph glyph-name="Ograve" unicode="&#xd2;" horiz-adv-x="590" d="M299 24 C236 24 106 24 130 164 L172 398 C193 523 336 523 388 523 C439 523 579 523 558 398 L516 164 C492 24 360 24 299 24 L299 24 Z M294 -5 C375 -5 518 1 548 162 L591 407 C615 539 471 555 392 555 C312 555 165 539 141 407 L98 162 C68 1 216 -5 294 -5 L294 -5 Z M348 686 C349 690 356 695 369 695 C376 695 389 694 390 687 C409 615 410 610 410 607 C409 602 402 600 397 600 C390 600 383 600 382 607 L348 686 Z " />
<glyph glyph-name="Oacute" unicode="&#xd3;" horiz-adv-x="590" d="M299 24 C236 24 106 24 130 164 L172 398 C193 523 336 523 388 523 C439 523 579 523 558 398 L516 164 C492 24 360 24 299 24 L299 24 Z M294 -5 C375 -5 518 1 548 162 L591 407 C615 539 471 555 392 555 C312 555 165 539 141 407 L98 162 C68 1 216 -5 294 -5 L294 -5 Z M415 607 C411 602 405 600 396 600 C389 600 386 602 387 607 C387 609 390 616 435 687 C438 694 451 695 458 695 C471 695 476 690 475 686 L415 607 Z " />
<glyph glyph-name="Ocircumflex" unicode="&#xd4;" horiz-adv-x="590" d="M299 24 C236 24 106 24 130 164 L172 398 C193 523 336 523 388 523 C439 523 579 523 558 398 L516 164 C492 24 360 24 299 24 L299 24 Z M294 -5 C375 -5 518 1 548 162 L591 407 C615 539 471 555 392 555 C312 555 165 539 141 407 L98 162 C68 1 216 -5 294 -5 L294 -5 Z M413 726 C407 726 402 723 398 717 L321 610 C321 603 325 600 334 600 C343 600 349 602 352 606 L419 704 L450 606 C453 603 455 600 466 600 C475 600 481 603 483 610 L444 717 C442 723 438 726 433 726 L413 726 Z " />
<glyph glyph-name="Otilde" unicode="&#xd5;" horiz-adv-x="590" d="M299 24 C236 24 106 24 130 164 L172 398 C193 523 336 523 388 523 C439 523 579 523 558 398 L516 164 C492 24 360 24 299 24 L299 24 Z M294 -5 C375 -5 518 1 548 162 L591 407 C615 539 471 555 392 555 C312 555 165 539 141 407 L98 162 C68 1 216 -5 294 -5 L294 -5 Z M439 600 C462 600 485 607 508 620 C508 623 510 624 510 627 C511 634 508 640 501 643 C482 631 464 628 444 628 C412 628 394 645 364 645 C339 645 324 643 301 628 L300 623 C299 615 302 608 309 605 C328 614 341 617 356 617 C389 617 410 600 439 600 L439 600 Z " />
<glyph glyph-name="Odieresis" unicode="&#xd6;" horiz-adv-x="590" d="M299 24 C236 24 106 24 130 164 L172 398 C193 523 336 523 388 523 C439 523 579 523 558 398 L516 164 C492 24 360 24 299 24 L299 24 Z M294 -5 C375 -5 518 1 548 162 L591 407 C615 539 471 555 392 555 C312 555 165 539 141 407 L98 162 C68 1 216 -5 294 -5 L294 -5 Z M309 621 C306 609 314 600 326 600 C338 600 349 609 352 621 C355 633 346 643 334 643 C322 643 312 633 309 621 L309 621 Z M456 621 C453 609 461 600 473 600 C485 600 496 609 499 621 C502 633 493 643 481 643 C469 643 459 633 456 621 L456 621 Z " />
<glyph glyph-name="multiply" unicode="&#xd7;" horiz-adv-x="442" d="M258 214 L350 103 C353 100 356 99 359 99 C361 99 363 100 366 101 C373 104 380 110 381 117 C381 120 382 122 381 123 L286 238 L423 354 C424 355 424 356 425 359 C426 366 420 372 416 375 C413 376 411 377 409 377 C406 377 403 376 398 373 L267 261 L174 373 C171 376 168 377 165 377 C163 377 161 376 158 375 C151 372 144 366 143 359 C142 357 142 355 143 354 L238 238 L103 123 C102 122 101 120 101 117 C100 110 106 104 110 101 C113 100 115 99 117 99 C120 99 123 100 128 103 L258 214 Z " />
<glyph glyph-name="Oslash" unicode="&#xd8;" horiz-adv-x="590" d="M172 398 C193 523 336 523 388 523 C411 523 450 523 486 512 L171 47 C140 66 119 100 130 164 L172 398 Z M516 164 C492 24 360 24 299 24 C272 24 233 24 198 35 L514 501 C546 484 567 454 558 398 L516 164 Z M180 8 C219 -4 262 -5 294 -5 C375 -5 518 1 548 162 L591 407 C603 472 574 508 533 529 L598 627 C598 634 593 637 584 637 C573 637 567 632 564 628 L505 540 C466 552 424 555 392 555 C312 555 165 539 141 407 L98 162 C85 83 112 42 153 20 L86 -78 C86 -85 91 -88 100 -88 C111 -88 117 -83 120 -79 L180 8 Z " />
<glyph glyph-name="Ugrave" unicode="&#xd9;" horiz-adv-x="673" d="M558 163 C534 23 398 24 338 24 C281 24 147 23 171 163 L232 505 C233 512 234 520 242 520 L283 520 C284 520 291 520 294 535 C295 542 296 550 285 550 L172 550 C161 550 160 542 159 535 C156 520 163 520 164 520 L193 520 C201 520 200 512 199 505 L136 150 C109 3 254 -5 333 -5 C417 -5 562 3 589 150 L652 505 C653 512 654 520 662 520 L691 520 C692 520 699 520 702 535 C703 542 704 550 693 550 L580 550 C569 550 568 542 567 535 C564 520 571 520 572 520 L613 520 C621 520 620 512 619 505 L558 163 Z M389 686 C390 690 397 695 410 695 C417 695 430 694 431 687 C450 615 451 610 451 607 C450 602 443 600 438 600 C431 600 424 600 423 607 L389 686 Z " />
<glyph glyph-name="Uacute" unicode="&#xda;" horiz-adv-x="673" d="M558 163 C534 23 398 24 338 24 C281 24 147 23 171 163 L232 505 C233 512 234 520 242 520 L283 520 C284 520 291 520 294 535 C295 542 296 550 285 550 L172 550 C161 550 160 542 159 535 C156 520 163 520 164 520 L193 520 C201 520 200 512 199 505 L136 150 C109 3 254 -5 333 -5 C417 -5 562 3 589 150 L652 505 C653 512 654 520 662 520 L691 520 C692 520 699 520 702 535 C703 542 704 550 693 550 L580 550 C569 550 568 542 567 535 C564 520 571 520 572 520 L613 520 C621 520 620 512 619 505 L558 163 Z M452 607 C448 602 442 600 433 600 C426 600 423 602 424 607 C424 609 427 616 472 687 C475 694 488 695 495 695 C508 695 513 690 512 686 L452 607 Z " />
<glyph glyph-name="Ucircumflex" unicode="&#xdb;" horiz-adv-x="673" d="M558 163 C534 23 398 24 338 24 C281 24 147 23 171 163 L232 505 C233 512 234 520 242 520 L283 520 C284 520 291 520 294 535 C295 542 296 550 285 550 L172 550 C161 550 160 542 159 535 C156 520 163 520 164 520 L193 520 C201 520 200 512 199 505 L136 150 C109 3 254 -5 333 -5 C417 -5 562 3 589 150 L652 505 C653 512 654 520 662 520 L691 520 C692 520 699 520 702 535 C703 542 704 550 693 550 L580 550 C569 550 568 542 567 535 C564 520 571 520 572 520 L613 520 C621 520 620 512 619 505 L558 163 Z M453 726 C447 726 442 723 438 717 L361 610 C361 603 365 600 374 600 C383 600 389 602 392 606 L459 704 L490 606 C493 603 495 600 506 600 C515 600 521 603 523 610 L484 717 C482 723 478 726 473 726 L453 726 Z " />
<glyph glyph-name="Udieresis" unicode="&#xdc;" horiz-adv-x="673" d="M558 163 C534 23 398 24 338 24 C281 24 147 23 171 163 L232 505 C233 512 234 520 242 520 L283 520 C284 520 291 520 294 535 C295 542 296 550 285 550 L172 550 C161 550 160 542 159 535 C156 520 163 520 164 520 L193 520 C201 520 200 512 199 505 L136 150 C109 3 254 -5 333 -5 C417 -5 562 3 589 150 L652 505 C653 512 654 520 662 520 L691 520 C692 520 699 520 702 535 C703 542 704 550 693 550 L580 550 C569 550 568 542 567 535 C564 520 571 520 572 520 L613 520 C621 520 620 512 619 505 L558 163 Z M348 621 C345 609 353 600 365 600 C377 600 388 609 391 621 C394 633 385 643 373 643 C361 643 351 633 348 621 L348 621 Z M495 621 C492 609 500 600 512 600 C524 600 535 609 538 621 C541 633 532 643 520 643 C508 643 498 633 495 621 L495 621 Z " />
<glyph glyph-name="Yacute" unicode="&#xdd;" horiz-adv-x="644" d="M313 45 C312 38 311 30 303 30 L272 30 C271 30 264 30 261 15 C260 8 259 0 270 0 L373 0 C384 0 385 8 386 15 C389 30 382 30 381 30 L351 30 C343 30 344 38 345 45 L375 213 L644 520 L682 520 C683 520 690 520 693 535 C694 542 694 550 685 550 L533 550 C524 550 522 542 521 535 C518 520 525 520 526 520 L606 520 L365 247 L220 520 L300 520 C301 520 308 520 311 535 C312 542 312 550 303 550 L151 550 C142 550 140 542 139 535 C136 520 143 520 144 520 L182 520 L343 214 L313 45 Z M444 607 C440 602 434 600 425 600 C418 600 415 602 416 607 C416 609 419 616 464 687 C467 694 480 695 487 695 C500 695 505 690 504 686 L444 607 Z " />
<glyph glyph-name="Thorn" unicode="&#xde;" horiz-adv-x="549" d="M177 160 L217 389 L381 389 C439 389 533 383 514 282 C506 236 490 160 345 160 L177 160 Z M240 520 L279 520 C284 520 287 524 288 533 C291 549 287 550 284 550 L177 550 C168 550 165 542 164 535 C161 520 169 520 170 520 L198 520 C206 520 205 513 204 506 L122 44 C121 37 120 30 112 30 L84 30 C83 30 75 30 72 15 C71 8 72 0 81 0 L188 0 C191 0 194 1 197 17 C200 26 198 30 193 30 L154 30 L171 130 L340 130 C521 130 541 241 549 285 C564 374 514 419 398 419 L222 419 L240 520 Z " />
<glyph glyph-name="germandbls" unicode="&#xdf;" horiz-adv-x="596" d="M375 0 C446 0 529 21 548 126 C551 147 568 240 475 264 C578 291 591 376 599 415 C618 522 521 555 446 555 L381 555 C307 555 199 529 178 406 L114 43 C113 36 112 30 105 30 L69 30 C66 30 60 30 57 15 C56 8 56 0 65 0 L115 0 C138 0 141 13 141 17 L209 402 C228 513 342 523 372 523 L418 523 C451 523 585 524 566 412 C558 359 536 280 388 280 L359 280 C354 280 350 273 347 265 C344 249 350 248 353 248 L379 248 C478 248 531 214 516 127 C508 77 479 35 379 27 C374 27 370 23 369 14 C366 1 372 0 375 0 L375 0 Z " />
<glyph glyph-name="agrave" unicode="&#xe0;" horiz-adv-x="481" d="M374 102 C315 58 244 25 188 25 C162 25 95 25 108 93 L109 100 C121 182 333 192 390 192 L374 102 Z M361 23 C357 4 374 0 389 0 C402 0 426 1 429 19 C430 26 428 30 425 30 L394 30 L438 279 C457 396 365 407 287 407 C266 407 184 404 147 385 C140 381 133 373 132 365 C129 352 138 342 150 342 C161 342 170 350 175 359 C186 368 251 375 282 375 C328 375 422 375 406 282 L397 227 C245 214 93 196 77 100 L74 82 C63 18 104 -5 168 -5 C203 -5 271 -5 367 62 L361 23 Z M273 543 C274 547 281 552 294 552 C301 552 314 551 314 544 C333 472 334 467 334 464 C333 459 327 457 322 457 C315 457 309 457 306 464 L273 543 Z " />
<glyph glyph-name="aacute" unicode="&#xe1;" horiz-adv-x="481" d="M374 102 C315 58 244 25 188 25 C162 25 95 25 108 93 L109 100 C121 182 333 192 390 192 L374 102 Z M361 23 C357 4 374 0 389 0 C402 0 426 1 429 19 C430 26 428 30 425 30 L394 30 L438 279 C457 396 365 407 287 407 C266 407 184 404 147 385 C140 381 133 373 132 365 C129 352 138 342 150 342 C161 342 170 350 175 359 C186 368 251 375 282 375 C328 375 422 375 406 282 L397 227 C245 214 93 196 77 100 L74 82 C63 18 104 -5 168 -5 C203 -5 271 -5 367 62 L361 23 Z M328 464 C325 459 319 457 310 457 C305 457 299 459 300 464 C300 467 305 472 348 544 C352 551 365 552 372 552 C385 552 390 547 389 543 L328 464 Z " />
<glyph glyph-name="acircumflex" unicode="&#xe2;" horiz-adv-x="481" d="M374 102 C315 58 244 25 188 25 C162 25 95 25 108 93 L109 100 C121 182 333 192 390 192 L374 102 Z M361 23 C357 4 374 0 389 0 C402 0 426 1 429 19 C430 26 428 30 425 30 L394 30 L438 279 C457 396 365 407 287 407 C266 407 184 404 147 385 C140 381 133 373 132 365 C129 352 138 342 150 342 C161 342 170 350 175 359 C186 368 251 375 282 375 C328 375 422 375 406 282 L397 227 C245 214 93 196 77 100 L74 82 C63 18 104 -5 168 -5 C203 -5 271 -5 367 62 L361 23 Z M332 583 C327 583 322 580 318 574 L241 467 C240 460 245 457 254 457 C263 457 269 459 272 463 L338 561 L370 463 C373 460 375 457 386 457 C395 457 400 460 403 467 L364 574 C362 580 358 583 352 583 L332 583 Z " />
<glyph glyph-name="atilde" unicode="&#xe3;" horiz-adv-x="481" d="M374 102 C315 58 244 25 188 25 C162 25 95 25 108 93 L109 100 C121 182 333 192 390 192 L374 102 Z M361 23 C357 4 374 0 389 0 C402 0 426 1 429 19 C430 26 428 30 425 30 L394 30 L438 279 C457 396 365 407 287 407 C266 407 184 404 147 385 C140 381 133 373 132 365 C129 352 138 342 150 342 C161 342 170 350 175 359 C186 368 251 375 282 375 C328 375 422 375 406 282 L397 227 C245 214 93 196 77 100 L74 82 C63 18 104 -5 168 -5 C203 -5 271 -5 367 62 L361 23 Z M352 457 C375 457 398 464 421 477 C421 479 422 481 423 484 C424 491 421 497 414 500 C395 488 377 485 357 485 C325 485 307 502 277 502 C252 502 237 500 214 485 L213 480 C212 472 214 465 222 462 C241 471 254 474 269 474 C302 474 323 457 352 457 L352 457 Z " />
<glyph glyph-name="adieresis" unicode="&#xe4;" horiz-adv-x="481" d="M374 102 C315 58 244 25 188 25 C162 25 95 25 108 93 L109 100 C121 182 333 192 390 192 L374 102 Z M361 23 C357 4 374 0 389 0 C402 0 426 1 429 19 C430 26 428 30 425 30 L394 30 L438 279 C457 396 365 407 287 407 C266 407 184 404 147 385 C140 381 133 373 132 365 C129 352 138 342 150 342 C161 342 170 350 175 359 C186 368 251 375 282 375 C328 375 422 375 406 282 L397 227 C245 214 93 196 77 100 L74 82 C63 18 104 -5 168 -5 C203 -5 271 -5 367 62 L361 23 Z M232 477 C229 465 237 456 249 456 C261 456 272 465 275 477 C278 489 268 499 256 499 C244 499 235 489 232 477 L232 477 Z M378 477 C375 465 383 456 395 456 C407 456 418 465 421 477 C424 489 414 499 402 499 C390 499 381 489 378 477 L378 477 Z " />
<glyph glyph-name="aring" unicode="&#xe5;" horiz-adv-x="481" d="M346 590 C311 590 275 560 270 523 C263 488 287 457 322 457 C359 457 394 488 401 523 C408 560 383 590 346 590 L346 590 Z M327 487 C306 487 296 504 300 523 C303 539 319 557 340 557 C363 557 372 539 369 523 C365 504 350 487 327 487 L327 487 Z M374 102 C315 58 244 25 188 25 C162 25 95 25 108 93 L109 100 C121 182 333 192 390 192 L374 102 Z M361 23 C357 4 374 0 389 0 C402 0 426 1 429 19 C430 26 428 30 425 30 L394 30 L438 279 C457 396 365 407 287 407 C266 407 184 404 147 385 C140 381 133 373 132 365 C129 352 138 342 150 342 C161 342 170 350 175 359 C186 368 251 375 282 375 C328 375 422 375 406 282 L397 227 C245 214 93 196 77 100 L74 82 C63 18 104 -5 168 -5 C203 -5 271 -5 367 62 L361 23 Z " />
<glyph glyph-name="ae" unicode="&#xe6;" horiz-adv-x="750" d="M438 282 C454 372 548 375 589 375 C632 375 718 372 702 282 L691 218 L427 218 L438 282 Z M374 102 C315 58 244 25 188 25 C162 25 95 25 108 93 L109 100 C121 182 333 192 390 192 L374 102 Z M282 375 C328 375 422 375 406 282 L397 227 C245 214 93 196 77 100 L74 82 C63 18 104 -5 168 -5 C203 -5 284 0 379 69 C395 4 478 -5 543 -5 C594 -5 668 2 671 22 C672 29 673 34 672 39 C671 42 668 43 665 43 C664 43 663 42 660 41 C617 28 568 25 547 25 C506 25 394 31 410 122 L421 187 L699 187 C711 187 718 197 721 208 L735 286 C754 388 666 407 594 407 C537 407 471 396 434 349 C413 400 345 407 287 407 C266 407 184 404 147 385 C140 381 133 373 132 365 C129 352 138 342 150 342 C161 342 170 350 175 359 C186 368 251 375 282 375 L282 375 Z " />
<glyph glyph-name="ccedilla" unicode="&#xe7;" horiz-adv-x="448" d="M242 -5 C293 -5 383 9 388 30 C389 37 390 42 389 47 C386 50 384 51 381 51 C380 51 379 50 376 49 C331 25 268 25 248 25 C175 25 102 27 118 121 L146 283 C162 374 267 375 310 375 C337 375 399 366 406 364 C407 354 413 349 423 349 C435 349 445 358 448 370 C449 377 445 385 440 388 C414 399 337 407 317 407 C237 407 134 388 115 286 L84 110 C65 1 162 -5 242 -5 L242 -5 Z M234 -65 C235 -59 232 -56 223 -56 C216 -56 211 -61 208 -65 L143 -150 C142 -157 149 -161 160 -161 C169 -161 180 -157 183 -150 L234 -65 Z " />
<glyph glyph-name="egrave" unicode="&#xe8;" horiz-adv-x="458" d="M302 407 C225 407 134 388 115 286 L86 122 C65 8 173 -5 251 -5 C302 -5 376 2 379 22 C380 29 381 34 380 39 C379 42 376 43 373 43 C372 43 371 42 368 41 C325 28 276 25 255 25 C214 25 102 31 118 122 L129 187 L407 187 C419 187 426 197 429 208 L443 286 C462 388 374 407 302 407 L302 407 Z M399 218 L135 218 L146 282 C162 372 256 375 297 375 C340 375 426 372 410 282 L399 218 Z M262 543 C263 547 270 552 283 552 C290 552 303 551 303 544 C322 472 323 467 323 464 C322 459 316 457 311 457 C304 457 298 457 295 464 L262 543 Z " />
<glyph glyph-name="eacute" unicode="&#xe9;" horiz-adv-x="458" d="M302 407 C225 407 134 388 115 286 L86 122 C65 8 173 -5 251 -5 C302 -5 376 2 379 22 C380 29 381 34 380 39 C379 42 376 43 373 43 C372 43 371 42 368 41 C325 28 276 25 255 25 C214 25 102 31 118 122 L129 187 L407 187 C419 187 426 197 429 208 L443 286 C462 388 374 407 302 407 L302 407 Z M399 218 L135 218 L146 282 C162 372 256 375 297 375 C340 375 426 372 410 282 L399 218 Z M329 464 C326 459 320 457 311 457 C306 457 300 459 301 464 C301 467 306 472 349 544 C353 551 366 552 373 552 C386 552 391 547 390 543 L329 464 Z " />
<glyph glyph-name="ecircumflex" unicode="&#xea;" horiz-adv-x="458" d="M302 407 C225 407 134 388 115 286 L86 122 C65 8 173 -5 251 -5 C302 -5 376 2 379 22 C380 29 381 34 380 39 C379 42 376 43 373 43 C372 43 371 42 368 41 C325 28 276 25 255 25 C214 25 102 31 118 122 L129 187 L407 187 C419 187 426 197 429 208 L443 286 C462 388 374 407 302 407 L302 407 Z M399 218 L135 218 L146 282 C162 372 256 375 297 375 C340 375 426 372 410 282 L399 218 Z M323 583 C318 583 313 580 309 574 L232 467 C231 460 236 457 245 457 C254 457 260 459 263 463 L329 561 L361 463 C364 460 366 457 377 457 C386 457 391 460 394 467 L355 574 C353 580 349 583 343 583 L323 583 Z " />
<glyph glyph-name="edieresis" unicode="&#xeb;" horiz-adv-x="458" d="M302 407 C225 407 134 388 115 286 L86 122 C65 8 173 -5 251 -5 C302 -5 376 2 379 22 C380 29 381 34 380 39 C379 42 376 43 373 43 C372 43 371 42 368 41 C325 28 276 25 255 25 C214 25 102 31 118 122 L129 187 L407 187 C419 187 426 197 429 208 L443 286 C462 388 374 407 302 407 L302 407 Z M399 218 L135 218 L146 282 C162 372 256 375 297 375 C340 375 426 372 410 282 L399 218 Z M220 477 C217 465 225 456 237 456 C249 456 260 465 263 477 C266 489 256 499 244 499 C232 499 223 489 220 477 L220 477 Z M366 477 C363 465 371 456 383 456 C395 456 406 465 409 477 C412 489 402 499 390 499 C378 499 369 489 366 477 L366 477 Z " />
<glyph glyph-name="igrave" unicode="&#xec;" horiz-adv-x="249" d="M173 370 L115 45 C114 38 113 30 105 30 L78 30 C77 30 70 30 67 15 C66 8 65 0 76 0 L173 0 C184 0 185 8 186 15 C189 30 182 30 181 30 L153 30 C145 30 146 38 147 45 L208 387 C209 396 205 400 198 400 C174 400 148 397 137 394 C134 393 133 389 132 383 C131 374 132 370 136 370 L173 370 Z M157 543 C158 547 165 552 178 552 C185 552 198 551 198 544 C217 472 218 467 218 464 C217 459 211 457 206 457 C199 457 193 457 190 464 L157 543 Z " />
<glyph glyph-name="iacute" unicode="&#xed;" horiz-adv-x="249" d="M173 370 L115 45 C114 38 113 30 105 30 L78 30 C77 30 70 30 67 15 C66 8 65 0 76 0 L173 0 C184 0 185 8 186 15 C189 30 182 30 181 30 L153 30 C145 30 146 38 147 45 L208 387 C209 396 205 400 198 400 C174 400 148 397 137 394 C134 393 133 389 132 383 C131 374 132 370 136 370 L173 370 Z M221 464 C218 459 212 457 203 457 C198 457 192 459 193 464 C193 467 198 472 241 544 C245 551 258 552 265 552 C278 552 283 547 282 543 L221 464 Z " />
<glyph glyph-name="icircumflex" unicode="&#xee;" horiz-adv-x="249" d="M173 370 L115 45 C114 38 113 30 105 30 L78 30 C77 30 70 30 67 15 C66 8 65 0 76 0 L173 0 C184 0 185 8 186 15 C189 30 182 30 181 30 L153 30 C145 30 146 38 147 45 L208 387 C209 396 205 400 198 400 C174 400 148 397 137 394 C134 393 133 389 132 383 C131 374 132 370 136 370 L173 370 Z M204 583 C199 583 194 580 190 574 L113 467 C112 460 117 457 126 457 C135 457 141 459 144 463 L210 561 L242 463 C245 460 247 457 258 457 C267 457 272 460 275 467 L236 574 C234 580 230 583 224 583 L204 583 Z " />
<glyph glyph-name="idieresis" unicode="&#xef;" horiz-adv-x="249" d="M173 370 L115 45 C114 38 113 30 105 30 L78 30 C77 30 70 30 67 15 C66 8 65 0 76 0 L173 0 C184 0 185 8 186 15 C189 30 182 30 181 30 L153 30 C145 30 146 38 147 45 L208 387 C209 396 205 400 198 400 C174 400 148 397 137 394 C134 393 133 389 132 383 C131 374 132 370 136 370 L173 370 Z M131 477 C128 465 136 456 148 456 C160 456 171 465 174 477 C177 489 167 499 155 499 C143 499 134 489 131 477 L131 477 Z M219 477 C216 465 224 456 236 456 C248 456 259 465 262 477 C265 489 255 499 243 499 C231 499 222 489 219 477 L219 477 Z " />
<glyph glyph-name="eth" unicode="&#xf0;" horiz-adv-x="462" d="M235 25 C196 25 102 31 118 122 L146 279 C162 368 257 375 297 375 C335 375 430 368 414 279 L386 122 C370 31 274 25 235 25 L235 25 Z M354 556 C355 563 350 566 343 567 C336 567 332 565 329 561 L319 535 C280 532 254 528 239 521 C238 518 237 516 237 514 C236 507 239 501 244 496 C260 501 277 504 309 507 L296 481 C295 474 299 469 306 469 C311 469 315 471 318 476 L332 503 C368 492 431 454 420 375 C391 400 345 407 302 407 C226 407 133 384 114 282 L84 110 C68 17 154 -5 230 -5 C304 -5 400 17 416 110 L447 289 C479 468 411 507 342 531 L354 556 Z " />
<glyph glyph-name="ntilde" unicode="&#xf1;" horiz-adv-x="539" d="M211 387 C212 396 208 400 201 400 C177 400 148 397 137 394 C134 393 133 389 132 383 C131 374 132 370 136 370 L176 370 L118 44 C117 37 116 30 108 30 L78 30 C77 30 70 30 67 15 C66 8 66 0 75 0 L191 0 C194 0 197 1 200 17 C203 26 201 30 196 30 L148 30 L199 320 C235 354 303 375 354 375 C467 375 460 307 457 291 L411 30 L363 30 C356 30 356 24 353 17 C350 1 355 0 358 0 L474 0 C483 0 485 8 486 15 C489 30 482 30 481 30 L451 30 C443 30 444 37 445 44 L488 288 C503 368 455 407 362 407 C334 407 269 406 206 361 L211 387 Z M394 457 C417 457 440 464 463 477 C463 479 464 481 465 484 C466 491 463 497 456 500 C437 488 419 485 399 485 C367 485 349 502 319 502 C294 502 279 500 256 485 L255 480 C254 472 256 465 264 462 C283 471 296 474 311 474 C344 474 365 457 394 457 L394 457 Z " />
<glyph glyph-name="ograve" unicode="&#xf2;" horiz-adv-x="462" d="M235 25 C196 25 102 31 118 122 L146 279 C162 368 257 375 297 375 C335 375 430 368 414 279 L386 122 C370 31 274 25 235 25 L235 25 Z M230 -5 C304 -5 400 17 416 110 L446 282 C465 384 376 407 302 407 C226 407 133 384 114 282 L84 110 C68 17 154 -5 230 -5 L230 -5 Z M262 543 C263 547 270 552 283 552 C290 552 303 551 303 544 C322 472 323 467 323 464 C322 459 316 457 311 457 C304 457 298 457 295 464 L262 543 Z " />
<glyph glyph-name="oacute" unicode="&#xf3;" horiz-adv-x="462" d="M235 25 C196 25 102 31 118 122 L146 279 C162 368 257 375 297 375 C335 375 430 368 414 279 L386 122 C370 31 274 25 235 25 L235 25 Z M230 -5 C304 -5 400 17 416 110 L446 282 C465 384 376 407 302 407 C226 407 133 384 114 282 L84 110 C68 17 154 -5 230 -5 L230 -5 Z M328 464 C325 459 319 457 310 457 C305 457 299 459 300 464 C300 467 305 472 348 544 C352 551 365 552 372 552 C385 552 390 547 389 543 L328 464 Z " />
<glyph glyph-name="ocircumflex" unicode="&#xf4;" horiz-adv-x="462" d="M235 25 C196 25 102 31 118 122 L146 279 C162 368 257 375 297 375 C335 375 430 368 414 279 L386 122 C370 31 274 25 235 25 L235 25 Z M230 -5 C304 -5 400 17 416 110 L446 282 C465 384 376 407 302 407 C226 407 133 384 114 282 L84 110 C68 17 154 -5 230 -5 L230 -5 Z M323 583 C318 583 313 580 309 574 L232 467 C231 460 236 457 245 457 C254 457 260 459 263 463 L329 561 L361 463 C364 460 366 457 377 457 C386 457 391 460 394 467 L355 574 C353 580 349 583 343 583 L323 583 Z " />
<glyph glyph-name="otilde" unicode="&#xf5;" horiz-adv-x="462" d="M235 25 C196 25 102 31 118 122 L146 279 C162 368 257 375 297 375 C335 375 430 368 414 279 L386 122 C370 31 274 25 235 25 L235 25 Z M230 -5 C304 -5 400 17 416 110 L446 282 C465 384 376 407 302 407 C226 407 133 384 114 282 L84 110 C68 17 154 -5 230 -5 L230 -5 Z M352 457 C375 457 398 464 421 477 C421 479 422 481 423 484 C424 491 421 497 414 500 C395 488 377 485 357 485 C325 485 307 502 277 502 C252 502 237 500 214 485 L213 480 C212 472 214 465 222 462 C241 471 254 474 269 474 C302 474 323 457 352 457 L352 457 Z " />
<glyph glyph-name="odieresis" unicode="&#xf6;" horiz-adv-x="462" d="M235 25 C196 25 102 31 118 122 L146 279 C162 368 257 375 297 375 C335 375 430 368 414 279 L386 122 C370 31 274 25 235 25 L235 25 Z M230 -5 C304 -5 400 17 416 110 L446 282 C465 384 376 407 302 407 C226 407 133 384 114 282 L84 110 C68 17 154 -5 230 -5 L230 -5 Z M220 477 C217 465 225 456 237 456 C249 456 260 465 263 477 C266 489 256 499 244 499 C232 499 223 489 220 477 L220 477 Z M366 477 C363 465 371 456 383 456 C395 456 406 465 409 477 C412 489 402 499 390 499 C378 499 369 489 366 477 L366 477 Z " />
<glyph glyph-name="divide" unicode="&#xf7;" horiz-adv-x="497" d="M437 172 C442 172 448 180 449 187 C452 202 445 204 442 204 L125 204 C122 204 115 202 112 187 C111 180 115 172 120 172 L437 172 Z M235 44 C232 32 241 23 253 23 C265 23 275 32 278 44 C281 56 272 66 260 66 C248 66 238 56 235 44 L235 44 Z M286 330 C283 318 291 309 303 309 C315 309 326 318 329 330 C332 342 323 352 311 352 C299 352 289 342 286 330 L286 330 Z " />
<glyph glyph-name="oslash" unicode="&#xf8;" horiz-adv-x="462" d="M146 278 C162 367 256 374 296 374 C312 374 337 373 360 365 L144 46 C124 61 111 82 118 121 L146 278 Z M386 121 C370 30 274 24 235 24 C219 24 193 25 170 33 L387 353 C407 338 421 317 414 278 L386 121 Z M58 -78 C58 -85 63 -88 72 -88 C83 -88 89 -83 92 -79 L150 4 C174 -3 200 -6 229 -6 C304 -6 400 16 416 109 L446 281 C455 333 438 364 407 383 L471 481 C472 488 467 491 457 491 C446 491 440 486 437 482 L380 395 C356 403 329 406 302 406 C226 406 133 383 114 281 L84 109 C75 62 92 33 123 16 L58 -78 Z " />
<glyph glyph-name="ugrave" unicode="&#xf9;" horiz-adv-x="515" d="M387 23 C383 4 405 0 420 0 C433 0 460 1 463 19 C464 26 462 30 459 30 L420 30 L483 387 C484 396 480 400 473 400 C449 400 419 397 408 394 C405 393 404 389 403 383 C402 374 403 370 407 370 L448 370 L402 109 C349 58 256 25 220 25 C125 25 132 76 137 104 L187 387 C188 396 184 400 177 400 C153 400 123 397 112 394 C109 393 108 389 107 383 C106 374 107 370 111 370 L152 370 L106 110 C93 30 117 -5 211 -5 C268 -5 343 24 394 64 L387 23 Z M270 543 C271 547 278 552 291 552 C298 552 311 551 311 544 C330 472 331 467 331 464 C330 459 324 457 319 457 C312 457 306 457 303 464 L270 543 Z " />
<glyph glyph-name="uacute" unicode="&#xfa;" horiz-adv-x="515" d="M387 23 C383 4 405 0 420 0 C433 0 460 1 463 19 C464 26 462 30 459 30 L420 30 L483 387 C484 396 480 400 473 400 C449 400 419 397 408 394 C405 393 404 389 403 383 C402 374 403 370 407 370 L448 370 L402 109 C349 58 256 25 220 25 C125 25 132 76 137 104 L187 387 C188 396 184 400 177 400 C153 400 123 397 112 394 C109 393 108 389 107 383 C106 374 107 370 111 370 L152 370 L106 110 C93 30 117 -5 211 -5 C268 -5 343 24 394 64 L387 23 Z M335 464 C332 459 326 457 317 457 C312 457 306 459 307 464 C307 467 312 472 355 544 C359 551 372 552 379 552 C392 552 397 547 396 543 L335 464 Z " />
<glyph glyph-name="ucircumflex" unicode="&#xfb;" horiz-adv-x="515" d="M387 23 C383 4 405 0 420 0 C433 0 460 1 463 19 C464 26 462 30 459 30 L420 30 L483 387 C484 396 480 400 473 400 C449 400 419 397 408 394 C405 393 404 389 403 383 C402 374 403 370 407 370 L448 370 L402 109 C349 58 256 25 220 25 C125 25 132 76 137 104 L187 387 C188 396 184 400 177 400 C153 400 123 397 112 394 C109 393 108 389 107 383 C106 374 107 370 111 370 L152 370 L106 110 C93 30 117 -5 211 -5 C268 -5 343 24 394 64 L387 23 Z M332 583 C327 583 322 580 318 574 L241 467 C240 460 245 457 254 457 C263 457 269 459 272 463 L338 561 L370 463 C373 460 375 457 386 457 C395 457 400 460 403 467 L364 574 C362 580 358 583 352 583 L332 583 Z " />
<glyph glyph-name="udieresis" unicode="&#xfc;" horiz-adv-x="515" d="M387 23 C383 4 405 0 420 0 C433 0 460 1 463 19 C464 26 462 30 459 30 L420 30 L483 387 C484 396 480 400 473 400 C449 400 419 397 408 394 C405 393 404 389 403 383 C402 374 403 370 407 370 L448 370 L402 109 C349 58 256 25 220 25 C125 25 132 76 137 104 L187 387 C188 396 184 400 177 400 C153 400 123 397 112 394 C109 393 108 389 107 383 C106 374 107 370 111 370 L152 370 L106 110 C93 30 117 -5 211 -5 C268 -5 343 24 394 64 L387 23 Z M220 477 C217 465 225 456 237 456 C249 456 260 465 263 477 C266 489 256 499 244 499 C232 499 223 489 220 477 L220 477 Z M366 477 C363 465 371 456 383 456 C395 456 406 465 409 477 C412 489 402 499 390 499 C378 499 369 489 366 477 L366 477 Z " />
<glyph glyph-name="yacute" unicode="&#xfd;" horiz-adv-x="569" d="M290 18 L208 368 L264 368 C267 368 273 368 276 384 C279 392 279 400 268 400 L146 400 C135 400 135 392 132 384 C129 368 135 368 138 368 L174 368 L263 -29 L234 -80 C200 -140 169 -141 139 -141 L118 -141 C109 -141 102 -148 101 -156 C100 -160 101 -169 104 -170 C120 -173 130 -172 143 -172 C179 -172 226 -156 263 -92 L523 368 L559 368 C562 368 568 368 571 384 C574 392 574 400 563 400 L441 400 C430 400 430 392 427 384 C424 368 430 368 433 368 L489 368 L290 18 Z M446 543 C447 547 442 552 429 552 C422 552 409 551 405 544 C362 472 357 467 357 464 C356 459 362 457 367 457 C376 457 382 459 385 464 L446 543 Z " />
<glyph glyph-name="thorn" unicode="&#xfe;" horiz-adv-x="549" d="M154 30 L206 327 L350 327 C467 327 513 277 496 176 C488 131 443 30 299 30 L154 30 Z M90 -139 C89 -146 88 -153 80 -153 L52 -153 C51 -153 43 -153 40 -168 C39 -175 39 -183 48 -183 L155 -183 C158 -183 162 -182 165 -166 C166 -159 168 -153 161 -153 L122 -153 L149 0 L297 0 C479 0 522 135 530 179 C546 267 510 357 367 357 L211 357 L242 531 L281 531 C286 531 289 535 290 544 C293 560 289 561 286 561 L179 561 C170 561 167 553 166 546 C163 531 171 531 172 531 L200 531 C208 531 207 524 206 517 L90 -139 Z " />
<glyph glyph-name="ydieresis" unicode="&#xff;" horiz-adv-x="569" d="M290 18 L208 368 L264 368 C267 368 273 368 276 384 C279 392 279 400 268 400 L146 400 C135 400 135 392 132 384 C129 368 135 368 138 368 L174 368 L263 -29 L234 -80 C200 -140 169 -141 139 -141 L118 -141 C109 -141 102 -148 101 -156 C100 -160 101 -169 104 -170 C120 -173 130 -172 143 -172 C179 -172 226 -156 263 -92 L523 368 L559 368 C562 368 568 368 571 384 C574 392 574 400 563 400 L441 400 C430 400 430 392 427 384 C424 368 430 368 433 368 L489 368 L290 18 Z M277 477 C274 465 282 456 294 456 C306 456 317 465 320 477 C323 489 313 499 301 499 C289 499 280 489 277 477 L277 477 Z M423 477 C420 465 428 456 440 456 C452 456 463 465 466 477 C469 489 459 499 447 499 C435 499 426 489 423 477 L423 477 Z " />
<glyph glyph-name="dotlessi" unicode="&#x131;" horiz-adv-x="249" d="M173 370 L115 45 C114 38 113 30 105 30 L78 30 C77 30 70 30 67 15 C66 8 65 0 76 0 L173 0 C184 0 185 8 186 15 C189 30 182 30 181 30 L153 30 C145 30 146 38 147 45 L208 387 C209 396 205 400 198 400 C174 400 148 397 137 394 C134 393 133 389 132 383 C131 374 132 370 136 370 L173 370 Z " />
<glyph glyph-name="Lslash" unicode="&#x141;" horiz-adv-x="538" d="M490 58 C485 58 473 58 472 54 L467 30 L154 30 L193 254 L291 279 C297 282 300 287 301 294 C303 305 299 311 288 311 L199 289 L240 520 L278 520 C283 520 286 524 287 533 C290 549 286 550 283 550 L178 550 C169 550 167 542 166 535 C163 520 170 520 171 520 L200 520 C208 520 207 513 206 506 L166 280 L125 270 C120 267 116 262 114 255 C113 244 118 237 127 237 L160 245 L122 30 L82 28 C79 28 76 23 74 14 C73 9 73 5 75 3 C84 1 98 0 119 0 L481 0 C492 3 495 18 498 29 C499 38 502 58 490 58 L490 58 Z " />
<glyph glyph-name="lslash" unicode="&#x142;" horiz-adv-x="280" d="M126 273 C119 270 116 265 115 258 C112 247 119 240 128 240 L158 248 L122 45 C121 38 120 30 112 30 L83 30 C82 30 75 30 72 15 C71 8 70 0 81 0 L181 0 C192 0 193 8 194 15 C197 30 190 30 189 30 L160 30 C152 30 153 38 154 45 L192 257 L249 272 C256 275 259 280 260 287 C262 298 258 304 247 304 L198 291 L236 505 C237 512 238 520 246 520 L275 520 C276 520 283 520 286 535 C287 542 288 550 277 550 L177 550 C166 550 165 542 164 535 C161 520 168 520 169 520 L198 520 C206 520 205 512 204 505 L164 283 L126 273 Z " />
<glyph glyph-name="OE" unicode="&#x152;" horiz-adv-x="837" d="M301 24 C224 24 107 27 128 151 L170 390 C194 523 338 523 391 523 C414 523 446 523 482 519 L395 27 C364 24 334 24 301 24 L301 24 Z M755 0 C766 3 769 18 772 29 C773 38 776 58 764 58 C759 58 747 58 746 54 L741 30 L428 30 L466 248 L736 248 C739 248 745 249 748 264 C749 273 747 278 742 278 L472 278 L514 518 L827 518 L824 496 C823 492 835 492 840 492 C852 492 857 512 858 521 C861 532 862 547 851 550 L477 550 C448 553 419 555 396 555 C317 555 163 538 139 395 L96 149 C70 -5 218 -5 298 -5 C330 -5 368 -4 403 0 L755 0 Z " />
<glyph glyph-name="oe" unicode="&#x153;" horiz-adv-x="758" d="M597 375 C640 375 726 372 710 282 L699 218 L435 218 L446 282 C462 372 556 375 597 375 L597 375 Z M235 25 C196 25 102 31 118 122 L146 279 C162 368 257 375 297 375 C335 375 430 368 414 279 L386 122 C370 31 274 25 235 25 L235 25 Z M707 187 C719 187 726 197 729 208 L743 286 C762 388 674 407 602 407 C544 407 479 396 441 347 C418 394 358 407 302 407 C226 407 133 384 114 282 L84 110 C68 17 154 -5 230 -5 C287 -5 355 8 392 55 C416 1 491 -5 551 -5 C602 -5 676 2 679 22 C680 29 681 34 680 39 C679 42 676 43 673 43 C672 43 671 42 668 41 C625 28 576 25 555 25 C514 25 402 31 418 122 L429 187 L707 187 Z " />
<glyph glyph-name="Scaron" unicode="&#x160;" horiz-adv-x="529" d="M285 -5 C385 -5 498 -6 522 133 C546 268 156 274 180 412 C191 477 245 523 378 523 C454 523 525 514 534 505 C535 496 542 488 553 488 C565 488 576 498 579 511 C580 520 577 526 570 531 C540 550 403 555 382 555 C277 555 167 519 148 412 C116 241 509 236 489 129 C470 25 371 25 290 25 L281 25 C223 25 112 50 117 70 L118 74 C118 78 111 81 103 81 C90 81 83 71 80 58 C68 3 260 -5 285 -5 L285 -5 Z M401 600 C407 600 412 603 416 609 L493 716 C493 723 489 726 480 726 C469 726 464 723 461 720 L395 622 L363 720 C362 723 359 726 348 726 C338 726 332 723 331 716 L370 609 C372 603 376 600 381 600 L401 600 Z " />
<glyph glyph-name="scaron" unicode="&#x161;" horiz-adv-x="436" d="M230 -5 C302 -5 383 10 396 87 L398 102 C416 202 135 194 142 289 L144 298 C153 349 194 375 307 375 L311 375 C337 375 377 367 384 365 C385 354 391 349 401 349 C413 349 423 358 426 370 C427 377 425 386 418 389 C393 400 328 407 309 407 C232 407 129 401 113 304 L110 284 C90 165 378 166 366 97 L364 87 C353 26 273 25 234 25 C197 25 103 38 106 53 L107 57 C107 61 100 64 92 64 C77 64 71 55 68 40 C63 5 173 -5 230 -5 L230 -5 Z M300 457 C306 457 311 460 315 466 L392 573 C392 580 387 583 378 583 C367 583 363 580 360 577 L294 479 L262 577 C261 581 255 583 246 583 C237 583 231 580 230 573 L269 466 C271 460 275 457 280 457 L300 457 Z " />
<glyph glyph-name="Ydieresis" unicode="&#x178;" horiz-adv-x="644" d="M313 45 C312 38 311 30 303 30 L272 30 C271 30 264 30 261 15 C260 8 259 0 270 0 L373 0 C384 0 385 8 386 15 C389 30 382 30 381 30 L351 30 C343 30 344 38 345 45 L375 213 L644 520 L682 520 C683 520 690 520 693 535 C694 542 694 550 685 550 L533 550 C524 550 522 542 521 535 C518 520 525 520 526 520 L606 520 L365 247 L220 520 L300 520 C301 520 308 520 311 535 C312 542 312 550 303 550 L151 550 C142 550 140 542 139 535 C136 520 143 520 144 520 L182 520 L343 214 L313 45 Z M335 621 C332 609 340 600 352 600 C364 600 375 609 378 621 C381 633 372 643 360 643 C348 643 338 633 335 621 L335 621 Z M481 621 C478 609 486 600 498 600 C510 600 521 609 524 621 C527 633 518 643 506 643 C494 643 484 633 481 621 L481 621 Z " />
<glyph glyph-name="Zcaron" unicode="&#x17d;" horiz-adv-x="551" d="M467 0 C480 3 482 15 485 28 C488 39 489 56 474 56 C467 56 460 56 457 49 L452 30 L120 30 L565 512 C568 516 573 522 574 529 C577 542 567 550 552 550 L180 550 C167 547 165 535 162 522 C159 511 158 494 173 494 C180 494 187 494 190 501 L195 518 L531 518 L85 36 C76 29 75 23 72 16 C69 3 79 0 94 0 L467 0 Z M388 600 C394 600 399 603 403 609 L480 716 C480 723 476 726 467 726 C456 726 451 723 448 720 L382 622 L350 720 C349 723 346 726 335 726 C325 726 319 723 318 716 L357 609 C359 603 363 600 368 600 L388 600 Z " />
<glyph glyph-name="zcaron" unicode="&#x17e;" horiz-adv-x="453" d="M118 30 L444 361 C450 366 453 371 454 378 C457 393 448 400 433 400 L148 400 C136 397 133 385 130 372 C127 361 126 345 141 345 C148 345 160 345 163 352 L167 368 L410 368 L84 39 C79 34 76 29 74 22 C71 7 81 0 96 0 L374 0 C386 3 388 15 391 28 C394 39 395 55 380 55 C373 55 362 55 359 48 L354 30 L118 30 Z M314 457 C320 457 325 460 329 466 L406 573 C406 580 401 583 392 583 C381 583 377 580 374 577 L308 479 L276 577 C275 581 269 583 260 583 C251 583 245 580 244 573 L283 466 C285 460 289 457 294 457 L314 457 Z " />
<glyph glyph-name="florin" unicode="&#x192;" horiz-adv-x="329" d="M124 -48 C108 -133 83 -151 22 -151 C15 -151 -1 -152 -6 -149 C-13 -149 -18 -162 -19 -167 C-20 -174 -19 -179 -15 -180 C-8 -182 1 -183 14 -183 C86 -183 135 -168 156 -50 L229 368 L322 368 C323 368 330 368 333 385 C336 393 333 400 328 400 L235 400 L242 442 C258 526 287 540 344 540 C355 540 377 539 382 539 C386 539 392 556 392 559 C393 571 369 572 353 572 C281 572 230 551 211 444 L203 400 L136 400 C131 400 128 393 125 385 C122 368 129 368 130 368 L197 368 L124 -48 Z " />
<glyph glyph-name="circumflex" unicode="&#x2c6;" horiz-adv-x="322" d="M248 555 C243 555 238 552 234 546 L157 439 C156 432 161 429 170 429 C179 429 185 431 188 435 L254 533 L286 435 C289 432 291 429 302 429 C311 429 316 432 319 439 L280 546 C278 552 274 555 268 555 L248 555 Z " />
<glyph glyph-name="caron" unicode="&#x2c7;" horiz-adv-x="322" d="M246 429 C252 429 257 432 261 438 L338 545 C338 552 333 555 324 555 C313 555 309 552 306 549 L240 451 L208 549 C207 553 201 555 192 555 C183 555 177 552 176 545 L215 438 C217 432 221 429 226 429 L246 429 Z " />
<glyph glyph-name="breve" unicode="&#x2d8;" horiz-adv-x="438" d="M299 456 C396 456 432 481 453 539 C454 550 449 555 438 555 C427 555 421 550 420 539 C405 499 380 482 303 482 C224 482 208 499 208 539 C209 550 205 555 194 555 C183 555 176 550 175 539 C175 481 201 456 299 456 L299 456 Z " />
<glyph glyph-name="dotaccent" unicode="&#x2d9;" horiz-adv-x="203" d="M173 533 C170 521 179 512 191 512 C203 512 213 521 216 533 C219 545 210 555 198 555 C186 555 176 545 173 533 L173 533 Z " />
<glyph glyph-name="ring" unicode="&#x2da;" horiz-adv-x="291" d="M241 555 C206 555 173 525 166 488 C159 453 183 422 218 422 C255 422 289 453 297 488 C304 525 278 555 241 555 L241 555 Z M223 452 C202 452 192 469 196 488 C199 504 215 522 236 522 C259 522 268 504 265 488 C261 469 246 452 223 452 L223 452 Z " />
<glyph glyph-name="ogonek" unicode="&#x2db;" horiz-adv-x="236" d="M89 -150 C89 -157 99 -161 108 -161 C119 -161 128 -157 129 -150 L94 -65 C93 -61 90 -56 83 -56 C74 -56 69 -59 68 -65 L89 -150 Z " />
<glyph glyph-name="tilde" unicode="&#x2dc;" horiz-adv-x="369" d="M312 510 C335 510 358 517 381 530 C381 533 383 534 383 537 C384 544 381 550 374 553 C355 541 337 538 317 538 C285 538 267 555 237 555 C212 555 197 553 174 538 L173 533 C172 525 175 518 182 515 C201 524 214 527 229 527 C262 527 283 510 312 510 L312 510 Z " />
<glyph glyph-name="hungarumlaut" unicode="&#x2dd;" horiz-adv-x="330" d="M258 429 C257 425 265 421 272 421 C280 421 285 424 286 429 L344 541 C344 542 345 543 345 544 C348 552 339 555 331 555 C317 555 308 551 303 544 L258 429 Z M155 429 C154 425 162 421 169 421 C177 421 182 424 183 429 L241 541 C241 542 242 543 242 544 C245 552 236 555 228 555 C214 555 205 551 200 544 L155 429 Z " />
<glyph glyph-name="pi" unicode="&#x3c0;" horiz-adv-x="614" d="M524 376 L589 376 C600 376 600 384 603 392 C606 408 597 408 594 408 L162 408 C159 408 152 408 149 392 C146 384 146 376 157 376 L220 376 L156 13 C155 8 161 0 168 0 C185 0 187 10 188 13 L252 376 L492 376 L428 13 C427 8 433 0 440 0 C457 0 459 10 460 13 L524 376 Z " />
<glyph glyph-name="ZWSP" unicode="&#x200b;" d="" />
<glyph glyph-name="endash" unicode="&#x2013;" horiz-adv-x="539" d="M479 172 C484 172 490 180 491 187 C494 202 487 204 484 204 L125 204 C122 204 115 202 112 187 C111 180 115 172 120 172 L479 172 Z " />
<glyph glyph-name="emdash" unicode="&#x2014;" horiz-adv-x="611" d="M551 172 C556 172 562 180 563 187 C566 202 559 204 556 204 L125 204 C122 204 115 202 112 187 C111 180 115 172 120 172 L551 172 Z " />
<glyph glyph-name="quoteleft" unicode="&#x2018;" horiz-adv-x="227" d="M243 547 C244 551 236 555 229 555 C221 555 216 552 215 547 L157 435 C157 434 156 433 156 432 C153 424 162 421 170 421 C184 421 193 425 198 432 L243 547 Z " />
<glyph glyph-name="quoteright" unicode="&#x2019;" horiz-adv-x="227" d="M155 429 C154 425 162 421 169 421 C177 421 182 424 183 429 L241 541 C241 542 242 543 242 544 C245 552 236 555 228 555 C214 555 205 551 200 544 L155 429 Z " />
<glyph glyph-name="quotesinglbase" unicode="&#x201a;" horiz-adv-x="227" d="M63 -96 C62 -100 69 -104 76 -104 C85 -104 90 -101 91 -96 L148 16 C148 17 150 18 150 19 C151 27 144 30 136 30 C121 30 111 26 108 19 L63 -96 Z " />
<glyph glyph-name="quotedblleft" unicode="&#x201c;" horiz-adv-x="330" d="M243 547 C244 551 236 555 229 555 C221 555 216 552 215 547 L157 435 C157 434 156 433 156 432 C153 424 162 421 170 421 C184 421 193 425 198 432 L243 547 Z M346 547 C347 551 339 555 332 555 C324 555 319 552 318 547 L260 435 C260 434 259 433 259 432 C256 424 265 421 273 421 C287 421 296 425 301 432 L346 547 Z " />
<glyph glyph-name="quotedblright" unicode="&#x201d;" horiz-adv-x="330" d="M258 429 C257 425 265 421 272 421 C280 421 285 424 286 429 L344 541 C344 542 345 543 345 544 C348 552 339 555 331 555 C317 555 308 551 303 544 L258 429 Z M155 429 C154 425 162 421 169 421 C177 421 182 424 183 429 L241 541 C241 542 242 543 242 544 C245 552 236 555 228 555 C214 555 205 551 200 544 L155 429 Z " />
<glyph glyph-name="quotedblbase" unicode="&#x201e;" horiz-adv-x="330" d="M166 -96 C165 -100 172 -104 179 -104 C188 -104 193 -101 194 -96 L251 16 C251 17 253 18 253 19 C254 27 247 30 239 30 C224 30 214 26 211 19 L166 -96 Z M63 -96 C62 -100 69 -104 76 -104 C85 -104 90 -101 91 -96 L148 16 C148 17 150 18 150 19 C151 27 144 30 136 30 C121 30 111 26 108 19 L63 -96 Z " />
<glyph glyph-name="dagger" unicode="&#x2020;" horiz-adv-x="396" d="M281 375 L371 375 C382 375 383 383 384 391 C387 407 379 407 376 407 L286 407 L309 537 C310 540 310 550 293 550 C286 550 278 542 277 537 L254 407 L162 407 C159 407 151 407 148 391 C147 383 146 375 157 375 L249 375 L154 -162 C153 -167 159 -175 166 -175 C183 -175 185 -165 186 -162 L281 375 Z " />
<glyph glyph-name="daggerdbl" unicode="&#x2021;" horiz-adv-x="396" d="M94 21 C91 21 83 21 80 5 C79 -3 78 -11 89 -11 L181 -11 L154 -162 C153 -167 159 -175 166 -175 C183 -175 185 -165 186 -162 L213 -11 L303 -11 C314 -11 315 -3 316 5 C319 21 311 21 308 21 L218 21 L281 375 L371 375 C382 375 383 383 384 391 C387 407 379 407 376 407 L286 407 L309 537 C310 540 310 550 293 550 C286 550 278 542 277 537 L254 407 L162 407 C159 407 151 407 148 391 C147 383 146 375 157 375 L249 375 L186 21 L94 21 Z " />
<glyph glyph-name="bullet" unicode="&#x2022;" horiz-adv-x="240" d="M114 193 C110 170 123 153 146 153 C169 153 190 170 194 193 C197 216 184 233 161 233 C138 233 117 216 114 193 L114 193 Z " />
<glyph glyph-name="ellipsis" unicode="&#x2026;" horiz-adv-x="657" d="M82 15 C79 3 87 -6 99 -6 C111 -6 122 3 125 15 C128 27 119 37 107 37 C95 37 85 27 82 15 L82 15 Z M309 15 C306 3 314 -6 326 -6 C338 -6 349 3 352 15 C355 27 346 37 334 37 C322 37 312 27 309 15 L309 15 Z M536 15 C533 3 541 -6 553 -6 C565 -6 576 3 579 15 C582 27 573 37 561 37 C549 37 539 27 536 15 L536 15 Z " />
<glyph glyph-name="perthousand" unicode="&#x2030;" horiz-adv-x="871" d="M717 219 C656 219 596 168 585 107 C574 45 616 -5 678 -5 C739 -5 798 46 809 107 C820 168 779 219 717 219 L717 219 Z M684 30 C644 30 614 66 621 106 C629 148 671 184 711 184 C754 184 783 149 775 106 C767 65 727 30 684 30 L684 30 Z M467 219 C406 219 346 168 335 107 C324 45 366 -5 428 -5 C489 -5 548 46 559 107 C570 168 529 219 467 219 L467 219 Z M434 30 C394 30 364 66 371 106 C379 148 421 184 461 184 C504 184 533 149 525 106 C517 65 477 30 434 30 L434 30 Z M289 555 C228 555 169 504 158 443 C147 382 188 331 250 331 C311 331 371 382 382 443 C393 505 351 555 289 555 L289 555 Z M256 366 C216 366 186 402 193 442 C201 484 243 520 283 520 C326 520 355 485 347 442 C339 401 299 366 256 366 L256 366 Z M104 11 C103 10 103 9 103 8 C102 3 107 0 118 0 C133 0 136 2 141 9 L611 539 C612 540 612 541 612 542 C613 547 608 550 598 550 C583 550 580 547 575 540 L104 11 Z " />
<glyph glyph-name="guilsinglleft" unicode="&#x2039;" horiz-adv-x="359" d="M247 53 C250 48 253 44 265 44 C276 44 283 47 286 55 L158 252 L358 450 C358 457 352 461 341 461 C329 461 324 457 319 452 L139 274 C132 269 125 260 124 251 C122 242 123 236 128 231 C176 159 201 120 247 53 L247 53 Z " />
<glyph glyph-name="guilsinglright" unicode="&#x203a;" horiz-adv-x="359" d="M130 53 C197 120 240 160 311 231 C317 235 321 242 323 251 C324 260 322 268 316 274 L198 452 C195 457 192 461 180 461 C169 461 162 458 159 450 L289 252 L91 55 C91 48 97 44 108 44 C120 44 125 48 130 53 L130 53 Z " />
<glyph glyph-name="fraction" unicode="&#x2044;" horiz-adv-x="407" d="M424 551 C424 557 419 560 409 560 C398 560 394 555 391 551 L72 -45 C71 -51 76 -54 86 -54 C97 -54 102 -49 105 -45 L424 551 Z " />
<glyph glyph-name="Euro" unicode="&#x20ac;" horiz-adv-x="632" d="M284 174 C289 174 296 182 297 189 C300 204 293 206 290 206 L199 206 L218 315 L309 315 C314 315 319 323 322 330 C325 345 318 347 315 347 L224 347 L231 390 C255 523 399 523 452 523 C528 523 589 514 597 505 C598 496 605 488 616 488 C628 488 639 498 642 511 C643 520 640 526 633 531 C604 550 477 555 457 555 C378 555 224 538 200 395 L192 347 L151 347 C148 347 141 345 138 330 C135 323 140 315 145 315 L186 315 L167 206 L126 206 C123 206 116 204 113 189 C112 182 115 174 120 174 L161 174 L157 149 C131 -5 279 -5 359 -5 C444 -5 553 7 556 28 C557 35 560 40 557 45 C556 48 553 49 550 49 C549 49 548 48 545 47 C503 34 462 24 362 24 C285 24 168 27 189 151 L193 174 L284 174 Z " />
<glyph glyph-name="trademark" unicode="&#x2122;" horiz-adv-x="658" d="M347 522 L344 509 C344 506 352 505 356 505 C367 505 369 517 370 524 C371 532 373 545 366 546 L184 546 C177 545 173 532 172 524 C171 517 169 505 180 505 C184 505 192 506 192 509 L195 522 L259 522 L230 360 C229 355 229 349 222 349 L211 349 C208 349 205 349 202 336 C201 331 201 325 208 325 L268 325 C275 325 277 331 278 336 C279 343 277 344 276 347 C275 348 274 349 273 349 L260 349 C253 349 255 355 256 360 L285 522 L347 522 Z M504 360 C511 360 519 363 523 374 L609 522 L593 358 C592 352 589 349 586 349 L574 349 C573 349 572 348 571 347 C568 344 567 341 566 336 C565 331 565 325 572 325 L627 325 C634 325 636 331 637 336 C640 349 636 349 633 349 L624 349 C619 349 618 353 619 360 L635 522 L661 524 C664 524 666 531 667 536 C668 540 668 543 665 544 C658 545 648 546 634 546 L606 546 C599 546 591 544 586 533 L504 388 L472 533 C471 544 465 546 458 546 L430 546 C415 546 404 545 397 544 C396 543 394 541 393 536 C392 531 392 524 395 524 L421 522 L379 360 C378 353 375 349 370 349 L361 349 C358 349 356 349 353 336 C352 331 352 325 359 325 L414 325 C421 325 423 331 424 336 C425 341 424 344 423 347 C422 348 421 349 420 349 L408 349 C405 349 404 352 405 358 L447 522 L479 374 C482 363 487 360 494 360 L504 360 Z " />
<glyph glyph-name="Omega" unicode="&#x2126;" horiz-adv-x="648" d="M416 523 C561 523 615 454 586 286 C554 100 478 30 439 30 L401 30 C397 30 393 23 390 16 C387 1 393 0 396 0 L560 0 C563 0 567 0 570 15 C573 23 569 30 565 30 L502 30 C569 97 602 197 618 286 C649 465 584 555 421 555 C258 555 161 465 130 286 C114 198 111 95 156 30 L93 30 C89 30 85 23 82 15 C79 0 85 0 88 0 L252 0 C255 0 259 1 262 16 C265 23 261 30 257 30 L219 30 C178 30 130 100 162 286 C191 454 271 523 416 523 L416 523 Z " />
<glyph glyph-name="partialdiff" unicode="&#x2202;" horiz-adv-x="526" d="M152 228 C168 317 254 324 296 324 C328 324 417 304 420 244 L400 135 C387 57 294 25 246 25 C171 25 116 25 132 118 L152 228 Z M430 305 C390 356 306 356 295 356 C223 356 138 333 122 241 L100 115 C79 -5 173 -5 245 -5 C274 -5 340 1 386 52 L381 23 C377 4 394 0 409 0 C422 0 446 1 449 19 C450 26 448 30 445 30 L414 30 L484 427 C503 544 411 555 333 555 C312 555 230 552 193 533 C186 529 179 521 178 513 C175 500 184 490 196 490 C207 490 216 498 221 507 C232 516 297 523 328 523 C374 523 468 523 452 430 L430 305 Z " />
<glyph glyph-name="Delta" unicode="&#x2206;" horiz-adv-x="588" d="M126 30 L385 521 L474 30 L126 30 Z M492 0 C503 0 509 5 510 15 L420 519 C417 536 410 550 390 550 C371 550 358 536 350 519 L82 15 C81 5 85 0 96 0 L492 0 Z " />
<glyph glyph-name="product" unicode="&#x220f;" horiz-adv-x="614" d="M550 523 L615 523 C626 523 626 531 629 539 C632 555 623 555 620 555 L188 555 C185 555 178 555 175 539 C172 531 172 523 183 523 L246 523 L122 -176 C122 -181 127 -189 134 -189 C151 -189 154 -179 154 -176 L278 523 L518 523 L394 -176 C394 -181 399 -189 406 -189 C423 -189 426 -179 426 -176 L550 523 Z " />
<glyph glyph-name="summation" unicode="&#x2211;" horiz-adv-x="520" d="M253 197 C255 192 255 187 254 181 C254 177 253 173 250 169 L52 -159 C52 -160 51 -162 50 -166 C47 -177 54 -184 65 -184 L396 -184 C407 -181 409 -166 412 -155 C415 -144 415 -134 403 -134 C396 -134 385 -134 384 -138 L381 -154 L90 -154 L284 169 C287 173 288 177 288 181 C289 187 289 192 287 197 L209 523 L501 523 L498 509 C498 505 509 505 516 505 C528 505 529 515 532 526 C535 537 537 552 526 555 L195 555 C184 555 177 548 174 537 L174 530 L253 197 Z " />
<glyph glyph-name="minus" unicode="&#x2212;" horiz-adv-x="496" d="M436 172 C441 172 447 180 448 187 C451 202 444 204 441 204 L125 204 C122 204 115 202 112 187 C111 180 115 172 120 172 L436 172 Z " />
<glyph glyph-name="radical" unicode="&#x221a;" horiz-adv-x="685" d="M623 555 C615 555 609 551 604 543 L302 25 L223 368 L285 368 C288 368 294 368 297 384 C300 392 300 400 289 400 L161 400 C150 400 150 392 147 384 C144 368 150 368 153 368 L189 368 L267 21 C268 14 270 0 298 0 C326 0 332 14 335 21 L627 523 L688 523 C691 523 697 523 700 539 C701 547 702 555 691 555 L623 555 Z " />
<glyph glyph-name="infinity" unicode="&#x221e;" horiz-adv-x="916" d="M494 207 C549 142 616 89 692 89 C797 89 855 119 877 235 L879 249 C898 361 856 394 749 394 C653 394 564 326 505 267 C464 326 401 394 305 394 C199 394 142 361 123 249 L121 235 C99 119 151 89 254 89 C330 89 417 143 494 207 L494 207 Z M302 362 C370 362 444 298 481 235 C426 180 311 118 259 118 C175 118 139 143 155 235 L157 249 C173 338 218 362 302 362 L302 362 Z M740 362 C823 362 861 338 845 249 L843 235 C827 143 780 118 697 118 C644 118 554 180 517 235 C575 298 672 362 740 362 L740 362 Z " />
<glyph glyph-name="integral" unicode="&#x222b;" horiz-adv-x="438" d="M309 420 C325 505 350 523 412 523 C419 523 435 524 439 521 C446 521 452 534 453 539 C454 546 453 550 449 552 C441 554 431 555 419 555 C346 555 299 540 277 422 L194 -48 C178 -133 153 -151 91 -151 C84 -151 68 -152 63 -149 C56 -149 51 -162 50 -167 C49 -174 50 -179 54 -180 C61 -182 70 -183 83 -183 C156 -183 205 -168 226 -50 L309 420 Z " />
<glyph glyph-name="approxequal" unicode="&#x2248;" horiz-adv-x="479" d="M188 141 C240 141 277 105 327 105 C358 105 386 115 423 140 C425 152 420 160 409 165 C380 146 354 137 333 137 C280 137 244 173 194 173 C163 173 136 162 105 142 C102 127 109 122 118 117 C146 132 173 141 188 141 L188 141 Z M214 289 C266 289 303 253 353 253 C384 253 412 263 449 288 C452 301 446 309 435 313 C406 294 380 285 359 285 C306 285 270 321 220 321 C189 321 162 310 131 290 C128 275 135 270 144 265 C172 280 199 289 214 289 L214 289 Z " />
<glyph glyph-name="notequal" unicode="&#x2260;" horiz-adv-x="460" d="M395 384 C394 388 392 392 381 392 C373 392 364 389 360 384 L305 296 L142 296 C139 296 132 294 129 279 C126 272 131 264 136 264 L285 264 L200 129 L112 129 C109 129 102 127 99 112 C98 105 102 97 107 97 L181 97 L136 24 C137 20 139 16 150 16 C158 16 167 19 171 24 L216 97 L387 97 C392 97 398 105 399 112 C402 127 395 129 392 129 L236 129 L320 264 L416 264 C421 264 426 272 429 279 C432 294 425 296 422 296 L341 296 L395 384 Z " />
<glyph glyph-name="lessequal" unicode="&#x2264;" horiz-adv-x="502" d="M394 -97 C399 -97 406 -89 407 -82 C410 -67 403 -65 400 -65 L84 -65 C81 -65 74 -67 71 -82 C70 -89 73 -97 78 -97 L394 -97 Z M122 242 C119 230 126 219 135 212 L398 47 C401 46 403 45 405 45 C416 45 422 50 424 60 C425 65 423 70 419 74 L152 242 L478 410 C482 413 487 417 488 424 C490 434 486 439 475 439 C472 439 470 438 467 437 L145 272 C134 265 125 254 122 242 L122 242 Z " />
<glyph glyph-name="greaterequal" unicode="&#x2265;" horiz-adv-x="502" d="M388 -97 C393 -97 400 -89 401 -82 C404 -67 397 -65 394 -65 L78 -65 C75 -65 68 -67 65 -82 C64 -89 67 -97 72 -97 L388 -97 Z M464 242 C467 254 460 265 451 272 L189 437 C186 438 184 439 181 439 C170 439 164 434 162 424 C161 419 163 414 168 410 L434 242 L109 74 C104 71 99 67 98 60 C96 50 100 45 111 45 C114 45 117 46 120 47 L441 212 C452 219 461 230 464 242 L464 242 Z " />
<glyph glyph-name="lozenge" unicode="&#x25ca;" horiz-adv-x="506" d="M257 23 L162 280 L347 536 L442 280 L257 23 Z M351 555 C334 555 320 549 311 537 C242 444 201 383 134 292 C132 290 130 287 129 282 C129 279 127 276 130 273 L222 18 C227 6 237 0 254 0 C268 0 280 6 290 18 L472 273 C474 276 475 279 475 282 C476 285 475 288 474 292 C439 383 418 443 383 537 C376 550 366 555 351 555 L351 555 Z " />
<glyph glyph-name="uni25CC" unicode="&#x25cc;" horiz-adv-x="512" d="" />
<glyph glyph-name="fi" unicode="&#xfb01;" horiz-adv-x="570" d="M314 368 C315 368 322 368 325 385 C328 393 325 400 320 400 L227 400 L234 442 C250 526 279 540 336 540 C347 540 369 539 374 539 C378 539 384 556 384 559 C385 571 361 572 345 572 C273 572 222 551 203 444 L195 400 L128 400 C123 400 120 393 117 385 C114 368 121 368 122 368 L189 368 L132 44 C131 37 130 30 122 30 L95 30 C94 30 87 30 84 15 C83 8 83 0 92 0 L224 0 C227 0 230 1 233 17 C236 26 234 30 229 30 L162 30 L221 368 L314 368 Z M489 465 C492 480 505 492 520 492 C535 492 545 480 542 465 C539 450 526 439 511 439 C496 439 486 450 489 465 L489 465 Z M457 370 C453 370 452 374 453 383 C454 389 455 393 458 394 C469 397 495 400 519 400 C526 400 530 396 529 387 L468 45 C467 38 466 30 474 30 L502 30 C503 30 510 30 507 15 C506 8 505 0 494 0 L397 0 C386 0 387 8 388 15 C391 30 398 30 399 30 L426 30 C434 30 435 38 436 45 L494 370 L457 370 Z " />
<glyph glyph-name="fl" unicode="&#xfb02;" horiz-adv-x="569" d="M314 368 C315 368 322 368 325 385 C328 393 325 400 320 400 L227 400 L234 442 C250 526 279 540 336 540 C347 540 369 539 374 539 C378 539 384 556 384 559 C385 571 361 572 345 572 C273 572 222 551 203 444 L195 400 L128 400 C123 400 120 393 117 385 C114 368 121 368 122 368 L189 368 L132 44 C131 37 130 30 122 30 L95 30 C94 30 87 30 84 15 C83 8 83 0 92 0 L224 0 C227 0 230 1 233 17 C236 26 234 30 229 30 L162 30 L221 368 L314 368 Z M468 45 C467 38 466 30 474 30 L502 30 C503 30 510 30 507 15 C506 8 505 0 494 0 L397 0 C386 0 387 8 388 15 C391 30 398 30 399 30 L426 30 C434 30 435 38 436 45 L520 520 L483 520 C479 520 478 524 479 533 C481 540 483 543 485 544 C494 547 521 550 545 550 C554 550 557 546 555 537 L468 45 Z " />
</font>
</svg>
