<?xml version="1.0" encoding="UTF-8"?>
<svg width="1000px" height="1000px" viewBox="0 0 1000 1000" version="1.1" xmlns="http://www.w3.org/2000/svg" xmlns:xlink="http://www.w3.org/1999/xlink">
    <title>Square</title>
    <g id="Square" stroke="none" stroke-width="1" fill="none" fill-rule="evenodd">
        <g id="BlueGem" transform="translate(365.263158, 244.000000)" fill-rule="nonzero">
            <polygon id="Path" fill="#000000" points="238.309053 181.948632 238.309053 211.577263 238.309053 241.205895 238.309053 270.807579 238.309053 300.436211 238.309053 330.064842 238.309053 359.666526 238.309053 389.295158 267.937684 389.295158 267.937684 359.666526 267.937684 330.064842 267.937684 300.436211 267.937684 270.807579 267.937684 241.205895 267.937684 211.577263 267.937684 181.948632 267.937684 152.346947 267.937684 122.718316 238.309053 122.718316 238.309053 152.346947"></polygon>
            <rect id="Rectangle" fill="#000000" x="208.660211" y="389.295158" width="29.6488421" height="29.6016842"></rect>
            <polygon id="Path" fill="#2553A5" points="238.309053 330.064842 238.309053 300.436211 238.309053 270.807579 238.309053 241.205895 238.309053 211.577263 238.309053 181.948632 238.309053 152.346947 208.660211 152.346947 179.011368 152.346947 179.011368 181.948632 179.011368 211.577263 179.011368 241.205895 179.011368 270.807579 179.011368 300.436211 179.011368 330.064842 179.011368 359.666526 149.382737 359.666526 149.382737 389.295158 119.733895 389.295158 119.733895 418.903579 149.382737 418.903579 149.382737 448.525474 179.011368 448.525474 179.011368 418.903579 208.660211 418.903579 208.660211 389.295158 238.309053 389.295158 238.309053 359.666526"></polygon>
            <rect id="Rectangle" fill="#000000" x="208.660211" y="93.0896842" width="29.6488421" height="29.6286316"></rect>
            <rect id="Rectangle" fill="#000000" x="179.011368" y="418.903579" width="29.6488421" height="29.6286316"></rect>
            <rect id="Rectangle" fill="#000000" x="179.011368" y="63.488" width="29.6488421" height="29.6016842"></rect>
            <rect id="Rectangle" fill="#000000" x="149.382737" y="448.525474" width="29.6286316" height="29.6286316"></rect>
            <polygon id="Path" fill="#FFFFFF" points="149.382737 93.0896842 149.382737 122.718316 149.382737 152.346947 179.011368 152.346947 208.660211 152.346947 238.309053 152.346947 238.309053 122.718316 208.660211 122.718316 208.660211 93.0896842 179.011368 93.0896842 179.011368 63.488 149.382737 63.488"></polygon>
            <rect id="Rectangle" fill="#000000" x="149.382737" y="33.8593684" width="29.6286316" height="29.6286316"></rect>
            <rect id="Rectangle" fill="#000000" x="119.733895" y="478.154105" width="29.6488421" height="29.6016842"></rect>
            <polygon id="Path" fill="#69A3D8" points="149.382737 418.903579 119.733895 418.903579 119.733895 389.295158 90.0850526 389.295158 90.0850526 359.666526 60.4564211 359.666526 30.8075789 359.666526 30.8075789 389.295158 60.4564211 389.295158 60.4564211 418.903579 90.0850526 418.903579 90.0850526 448.525474 119.733895 448.525474 119.733895 478.154105 149.382737 478.154105 149.382737 448.525474"></polygon>
            <rect id="Rectangle" fill="#2553A5" x="119.733895" y="93.0896842" width="29.6488421" height="29.6286316"></rect>
            <rect id="Rectangle" fill="#000000" x="119.733895" y="4.25768421" width="29.6488421" height="29.6016842"></rect>
            <rect id="Rectangle" fill="#000000" x="90.0850526" y="448.525474" width="29.6488421" height="29.6286316"></rect>
            <rect id="Rectangle" fill="#2553A5" x="90.0850526" y="359.666526" width="29.6488421" height="29.6286316"></rect>
            <polygon id="Path" fill="#69A3D8" points="90.0850526 211.577263 90.0850526 241.205895 90.0850526 270.807579 90.0850526 300.436211 90.0850526 330.064842 90.0850526 359.666526 119.733895 359.666526 119.733895 389.295158 149.382737 389.295158 149.382737 359.666526 179.011368 359.666526 179.011368 330.064842 179.011368 300.436211 179.011368 270.807579 179.011368 241.205895 179.011368 211.577263 179.011368 181.948632 179.011368 152.346947 149.382737 152.346947 149.382737 122.718316 119.733895 122.718316 119.733895 152.346947 90.0850526 152.346947 90.0850526 181.948632"></polygon>
            <rect id="Rectangle" fill="#2553A5" x="90.0850526" y="122.718316" width="29.6488421" height="29.6286316"></rect>
            <rect id="Rectangle" fill="#000000" x="90.0850526" y="33.8593684" width="29.6488421" height="29.6286316"></rect>
            <rect id="Rectangle" fill="#000000" x="60.4564211" y="418.903579" width="29.6286316" height="29.6286316"></rect>
            <polygon id="Path" fill="#2553A5" points="90.0850526 359.666526 90.0850526 330.064842 90.0850526 300.436211 90.0850526 270.807579 90.0850526 241.205895 90.0850526 211.577263 90.0850526 181.948632 90.0850526 152.346947 60.4564211 152.346947 30.8075789 152.346947 30.8075789 181.948632 30.8075789 211.577263 30.8075789 241.205895 30.8075789 270.807579 30.8075789 300.436211 30.8075789 330.064842 30.8075789 359.666526 60.4564211 359.666526"></polygon>
            <rect id="Rectangle" fill="#000000" x="60.4564211" y="63.488" width="29.6286316" height="29.6016842"></rect>
            <rect id="Rectangle" fill="#000000" x="30.8075789" y="389.295158" width="29.6488421" height="29.6016842"></rect>
            <polygon id="Path" fill="#69A3D8" points="60.4564211 152.346947 90.0850526 152.346947 90.0850526 122.718316 119.733895 122.718316 119.733895 93.0896842 149.382737 93.0896842 149.382737 63.488 149.382737 33.8593684 119.733895 33.8593684 119.733895 63.488 90.0850526 63.488 90.0850526 93.0896842 60.4564211 93.0896842 60.4564211 122.718316 30.8075789 122.718316 30.8075789 152.346947"></polygon>
            <rect id="Rectangle" fill="#000000" x="30.8075789" y="93.0896842" width="29.6488421" height="29.6286316"></rect>
            <polygon id="Path" fill="#000000" points="1.152 152.346947 1.152 181.948632 1.152 211.577263 1.152 241.205895 1.152 270.807579 1.152 300.436211 1.152 330.064842 1.152 359.666526 1.152 389.295158 30.8075789 389.295158 30.8075789 359.666526 30.8075789 330.064842 30.8075789 300.436211 30.8075789 270.807579 30.8075789 241.205895 30.8075789 211.577263 30.8075789 181.948632 30.8075789 152.346947 30.8075789 122.718316 1.152 122.718316"></polygon>
            <g id="Group">
                <rect id="Rectangle" fill="#000000" x="238.309053" y="359.666526" width="29.6286316" height="29.6286316"></rect>
                <rect id="Rectangle" fill="#000000" x="238.309053" y="330.064842" width="29.6286316" height="29.6016842"></rect>
                <rect id="Rectangle" fill="#000000" x="238.309053" y="300.436211" width="29.6286316" height="29.6286316"></rect>
                <rect id="Rectangle" fill="#000000" x="238.309053" y="270.807579" width="29.6286316" height="29.6286316"></rect>
                <rect id="Rectangle" fill="#000000" x="238.309053" y="241.205895" width="29.6286316" height="29.6016842"></rect>
                <rect id="Rectangle" fill="#000000" x="238.309053" y="211.577263" width="29.6286316" height="29.6286316"></rect>
                <rect id="Rectangle" fill="#000000" x="238.309053" y="181.948632" width="29.6286316" height="29.6286316"></rect>
                <rect id="Rectangle" fill="#000000" x="238.309053" y="152.346947" width="29.6286316" height="29.6016842"></rect>
                <rect id="Rectangle" fill="#000000" x="238.309053" y="122.718316" width="29.6286316" height="29.6286316"></rect>
                <rect id="Rectangle" fill="#000000" x="208.660211" y="389.295158" width="29.6488421" height="29.6016842"></rect>
                <rect id="Rectangle" fill="#2553A5" x="208.660211" y="359.666526" width="29.6488421" height="29.6286316"></rect>
                <rect id="Rectangle" fill="#2553A5" x="208.660211" y="330.064842" width="29.6488421" height="29.6016842"></rect>
                <rect id="Rectangle" fill="#2553A5" x="208.660211" y="300.436211" width="29.6488421" height="29.6286316"></rect>
                <rect id="Rectangle" fill="#2553A5" x="208.660211" y="270.807579" width="29.6488421" height="29.6286316"></rect>
                <rect id="Rectangle" fill="#2553A5" x="208.660211" y="241.205895" width="29.6488421" height="29.6016842"></rect>
                <rect id="Rectangle" fill="#2553A5" x="208.660211" y="211.577263" width="29.6488421" height="29.6286316"></rect>
                <rect id="Rectangle" fill="#2553A5" x="208.660211" y="181.948632" width="29.6488421" height="29.6286316"></rect>
                <rect id="Rectangle" fill="#2553A5" x="208.660211" y="152.346947" width="29.6488421" height="29.6016842"></rect>
                <rect id="Rectangle" fill="#FFFFFF" x="208.660211" y="122.718316" width="29.6488421" height="29.6286316"></rect>
                <rect id="Rectangle" fill="#000000" x="208.660211" y="93.0896842" width="29.6488421" height="29.6286316"></rect>
                <rect id="Rectangle" fill="#000000" x="179.011368" y="418.903579" width="29.6488421" height="29.6286316"></rect>
                <rect id="Rectangle" fill="#2553A5" x="179.011368" y="389.295158" width="29.6488421" height="29.6016842"></rect>
                <rect id="Rectangle" fill="#2553A5" x="179.011368" y="359.666526" width="29.6488421" height="29.6286316"></rect>
                <rect id="Rectangle" fill="#2553A5" x="179.011368" y="330.064842" width="29.6488421" height="29.6016842"></rect>
                <rect id="Rectangle" fill="#2553A5" x="179.011368" y="300.436211" width="29.6488421" height="29.6286316"></rect>
                <rect id="Rectangle" fill="#2553A5" x="179.011368" y="270.807579" width="29.6488421" height="29.6286316"></rect>
                <rect id="Rectangle" fill="#2553A5" x="179.011368" y="241.205895" width="29.6488421" height="29.6016842"></rect>
                <rect id="Rectangle" fill="#2553A5" x="179.011368" y="211.577263" width="29.6488421" height="29.6286316"></rect>
                <rect id="Rectangle" fill="#2553A5" x="179.011368" y="181.948632" width="29.6488421" height="29.6286316"></rect>
                <rect id="Rectangle" fill="#2553A5" x="179.011368" y="152.346947" width="29.6488421" height="29.6016842"></rect>
                <rect id="Rectangle" fill="#FFFFFF" x="179.011368" y="122.718316" width="29.6488421" height="29.6286316"></rect>
                <rect id="Rectangle" fill="#FFFFFF" x="179.011368" y="93.0896842" width="29.6488421" height="29.6286316"></rect>
                <rect id="Rectangle" fill="#000000" x="179.011368" y="63.488" width="29.6488421" height="29.6016842"></rect>
                <rect id="Rectangle" fill="#000000" x="149.382737" y="448.532211" width="29.6286316" height="29.6286316"></rect>
                <rect id="Rectangle" fill="#2553A5" x="149.382737" y="418.903579" width="29.6286316" height="29.6286316"></rect>
                <rect id="Rectangle" fill="#2553A5" x="149.382737" y="389.295158" width="29.6286316" height="29.6016842"></rect>
                <rect id="Rectangle" fill="#2553A5" x="149.382737" y="359.666526" width="29.6286316" height="29.6286316"></rect>
                <rect id="Rectangle" fill="#69A3D8" x="149.382737" y="330.064842" width="29.6286316" height="29.6016842"></rect>
                <rect id="Rectangle" fill="#69A3D8" x="149.382737" y="300.436211" width="29.6286316" height="29.6286316"></rect>
                <rect id="Rectangle" fill="#69A3D8" x="149.382737" y="270.807579" width="29.6286316" height="29.6286316"></rect>
                <rect id="Rectangle" fill="#69A3D8" x="149.382737" y="241.205895" width="29.6286316" height="29.6016842"></rect>
                <rect id="Rectangle" fill="#69A3D8" x="149.382737" y="211.577263" width="29.6286316" height="29.6286316"></rect>
                <rect id="Rectangle" fill="#69A3D8" x="149.382737" y="181.948632" width="29.6286316" height="29.6286316"></rect>
                <rect id="Rectangle" fill="#69A3D8" x="149.382737" y="152.346947" width="29.6286316" height="29.6016842"></rect>
                <rect id="Rectangle" fill="#FFFFFF" x="149.382737" y="122.718316" width="29.6286316" height="29.6286316"></rect>
                <rect id="Rectangle" fill="#FFFFFF" x="149.382737" y="93.0896842" width="29.6286316" height="29.6286316"></rect>
                <rect id="Rectangle" fill="#FFFFFF" x="149.382737" y="63.488" width="29.6286316" height="29.6016842"></rect>
                <rect id="Rectangle" fill="#000000" x="149.382737" y="33.8593684" width="29.6286316" height="29.6286316"></rect>
                <rect id="Rectangle" fill="#000000" x="119.733895" y="478.154105" width="29.6488421" height="29.6016842"></rect>
                <rect id="Rectangle" fill="#69A3D8" x="119.733895" y="448.532211" width="29.6488421" height="29.6286316"></rect>
                <rect id="Rectangle" fill="#69A3D8" x="119.733895" y="418.903579" width="29.6488421" height="29.6286316"></rect>
                <rect id="Rectangle" fill="#2553A5" x="119.733895" y="389.295158" width="29.6488421" height="29.6016842"></rect>
                <rect id="Rectangle" fill="#69A3D8" x="119.733895" y="359.666526" width="29.6488421" height="29.6286316"></rect>
                <rect id="Rectangle" fill="#69A3D8" x="119.733895" y="330.064842" width="29.6488421" height="29.6016842"></rect>
                <rect id="Rectangle" fill="#69A3D8" x="119.733895" y="300.436211" width="29.6488421" height="29.6286316"></rect>
                <rect id="Rectangle" fill="#69A3D8" x="119.733895" y="270.807579" width="29.6488421" height="29.6286316"></rect>
                <rect id="Rectangle" fill="#69A3D8" x="119.733895" y="241.205895" width="29.6488421" height="29.6016842"></rect>
                <rect id="Rectangle" fill="#69A3D8" x="119.733895" y="211.577263" width="29.6488421" height="29.6286316"></rect>
                <rect id="Rectangle" fill="#69A3D8" x="119.733895" y="181.948632" width="29.6488421" height="29.6286316"></rect>
                <rect id="Rectangle" fill="#69A3D8" x="119.733895" y="152.346947" width="29.6488421" height="29.6016842"></rect>
                <rect id="Rectangle" fill="#69A3D8" x="119.733895" y="122.718316" width="29.6488421" height="29.6286316"></rect>
                <rect id="Rectangle" fill="#2553A5" x="119.733895" y="93.0896842" width="29.6488421" height="29.6286316"></rect>
                <rect id="Rectangle" fill="#69A3D8" x="119.733895" y="63.488" width="29.6488421" height="29.6016842"></rect>
                <rect id="Rectangle" fill="#69A3D8" x="119.733895" y="33.8593684" width="29.6488421" height="29.6286316"></rect>
                <rect id="Rectangle" fill="#000000" x="119.733895" y="4.25768421" width="29.6488421" height="29.6016842"></rect>
                <rect id="Rectangle" fill="#000000" x="90.0850526" y="448.532211" width="29.6488421" height="29.6286316"></rect>
                <rect id="Rectangle" fill="#69A3D8" x="90.0850526" y="418.903579" width="29.6488421" height="29.6286316"></rect>
                <rect id="Rectangle" fill="#69A3D8" x="90.0850526" y="389.295158" width="29.6488421" height="29.6016842"></rect>
                <rect id="Rectangle" fill="#2553A5" x="90.0850526" y="359.666526" width="29.6488421" height="29.6286316"></rect>
                <rect id="Rectangle" fill="#69A3D8" x="90.0850526" y="330.064842" width="29.6488421" height="29.6016842"></rect>
                <rect id="Rectangle" fill="#69A3D8" x="90.0850526" y="300.436211" width="29.6488421" height="29.6286316"></rect>
                <rect id="Rectangle" fill="#69A3D8" x="90.0850526" y="270.807579" width="29.6488421" height="29.6286316"></rect>
                <rect id="Rectangle" fill="#69A3D8" x="90.0850526" y="241.205895" width="29.6488421" height="29.6016842"></rect>
                <rect id="Rectangle" fill="#69A3D8" x="90.0850526" y="211.577263" width="29.6488421" height="29.6286316"></rect>
                <rect id="Rectangle" fill="#69A3D8" x="90.0850526" y="181.948632" width="29.6488421" height="29.6286316"></rect>
                <rect id="Rectangle" fill="#69A3D8" x="90.0850526" y="152.346947" width="29.6488421" height="29.6016842"></rect>
                <rect id="Rectangle" fill="#2553A5" x="90.0850526" y="122.718316" width="29.6488421" height="29.6286316"></rect>
                <rect id="Rectangle" fill="#69A3D8" x="90.0850526" y="93.0896842" width="29.6488421" height="29.6286316"></rect>
                <rect id="Rectangle" fill="#69A3D8" x="90.0850526" y="63.488" width="29.6488421" height="29.6016842"></rect>
                <rect id="Rectangle" fill="#000000" x="90.0850526" y="33.8593684" width="29.6488421" height="29.6286316"></rect>
                <rect id="Rectangle" fill="#000000" x="60.4564211" y="418.903579" width="29.6286316" height="29.6286316"></rect>
                <rect id="Rectangle" fill="#69A3D8" x="60.4564211" y="389.295158" width="29.6286316" height="29.6016842"></rect>
                <rect id="Rectangle" fill="#69A3D8" x="60.4564211" y="359.666526" width="29.6286316" height="29.6286316"></rect>
                <rect id="Rectangle" fill="#2553A5" x="60.4564211" y="330.064842" width="29.6286316" height="29.6016842"></rect>
                <rect id="Rectangle" fill="#2553A5" x="60.4564211" y="300.436211" width="29.6286316" height="29.6286316"></rect>
                <rect id="Rectangle" fill="#2553A5" x="60.4564211" y="270.807579" width="29.6286316" height="29.6286316"></rect>
                <rect id="Rectangle" fill="#2553A5" x="60.4564211" y="241.205895" width="29.6286316" height="29.6016842"></rect>
                <rect id="Rectangle" fill="#2553A5" x="60.4564211" y="211.577263" width="29.6286316" height="29.6286316"></rect>
                <rect id="Rectangle" fill="#2553A5" x="60.4564211" y="181.948632" width="29.6286316" height="29.6286316"></rect>
                <rect id="Rectangle" fill="#2553A5" x="60.4564211" y="152.346947" width="29.6286316" height="29.6016842"></rect>
                <rect id="Rectangle" fill="#69A3D8" x="60.4564211" y="122.718316" width="29.6286316" height="29.6286316"></rect>
                <rect id="Rectangle" fill="#69A3D8" x="60.4564211" y="93.0896842" width="29.6286316" height="29.6286316"></rect>
                <rect id="Rectangle" fill="#000000" x="60.4564211" y="63.488" width="29.6286316" height="29.6016842"></rect>
                <rect id="Rectangle" fill="#000000" x="30.8075789" y="389.295158" width="29.6488421" height="29.6016842"></rect>
                <rect id="Rectangle" fill="#69A3D8" x="30.8075789" y="359.666526" width="29.6488421" height="29.6286316"></rect>
                <rect id="Rectangle" fill="#2553A5" x="30.8075789" y="330.064842" width="29.6488421" height="29.6016842"></rect>
                <rect id="Rectangle" fill="#2553A5" x="30.8075789" y="300.436211" width="29.6488421" height="29.6286316"></rect>
                <rect id="Rectangle" fill="#2553A5" x="30.8075789" y="270.807579" width="29.6488421" height="29.6286316"></rect>
                <rect id="Rectangle" fill="#2553A5" x="30.8075789" y="241.205895" width="29.6488421" height="29.6016842"></rect>
                <rect id="Rectangle" fill="#2553A5" x="30.8075789" y="211.577263" width="29.6488421" height="29.6286316"></rect>
                <rect id="Rectangle" fill="#2553A5" x="30.8075789" y="181.948632" width="29.6488421" height="29.6286316"></rect>
                <rect id="Rectangle" fill="#2553A5" x="30.8075789" y="152.346947" width="29.6488421" height="29.6016842"></rect>
                <rect id="Rectangle" fill="#69A3D8" x="30.8075789" y="122.718316" width="29.6488421" height="29.6286316"></rect>
                <rect id="Rectangle" fill="#000000" x="30.8075789" y="93.0896842" width="29.6488421" height="29.6286316"></rect>
                <rect id="Rectangle" fill="#000000" x="1.152" y="359.666526" width="29.6488421" height="29.6286316"></rect>
                <rect id="Rectangle" fill="#000000" x="1.152" y="330.064842" width="29.6488421" height="29.6016842"></rect>
                <rect id="Rectangle" fill="#000000" x="1.152" y="300.436211" width="29.6488421" height="29.6286316"></rect>
                <rect id="Rectangle" fill="#000000" x="1.152" y="270.807579" width="29.6488421" height="29.6286316"></rect>
                <rect id="Rectangle" fill="#000000" x="1.152" y="241.205895" width="29.6488421" height="29.6016842"></rect>
                <rect id="Rectangle" fill="#000000" x="1.152" y="211.577263" width="29.6488421" height="29.6286316"></rect>
                <rect id="Rectangle" fill="#000000" x="1.152" y="181.948632" width="29.6488421" height="29.6286316"></rect>
                <rect id="Rectangle" fill="#000000" x="1.152" y="152.346947" width="29.6488421" height="29.6016842"></rect>
                <rect id="Rectangle" fill="#000000" x="1.152" y="122.718316" width="29.6488421" height="29.6286316"></rect>
            </g>
        </g>
    </g>
</svg>