<svg xmlns="http://www.w3.org/2000/svg" width="512" height="512" viewBox="0 0 512 512">
  <g fill="none" fill-rule="evenodd" transform="translate(69)">
    <rect width="33.609" height="33.609" x="104.769" y="34.403"/>
    <rect width="33.609" height="33.609" x="306.52" y="269.602" fill="#000" fill-rule="nonzero"/>
    <polygon fill="#F6EB14" fill-rule="nonzero" points="306.52 235.994 272.881 235.994 239.249 235.994 205.641 235.994 172.009 235.994 172.009 202.408 205.641 202.408 205.641 168.8 239.249 168.8 239.249 135.199 272.881 135.199 272.881 101.613 306.52 101.613 306.52 68.004 340.121 68.004 340.121 34.403 306.52 34.403 272.881 34.403 239.249 34.403 205.641 34.403 172.009 34.403 172.009 68.004 138.378 68.004 138.378 101.613 138.378 135.199 104.769 135.199 104.769 168.8 104.769 202.408 104.769 235.994 71.137 235.994 71.137 269.602 71.137 303.203 104.769 303.203 138.378 303.203 172.009 303.203 205.641 303.203 205.641 336.789 172.009 336.789 172.009 370.398 138.378 370.398 138.378 403.976 138.378 437.584 172.009 437.584 172.009 403.976 205.641 403.976 205.641 370.398 239.249 370.398 239.249 336.789 272.881 336.789 272.881 303.203 306.52 303.203 306.52 269.602 340.121 269.602 340.121 235.994"/>
    <rect width="33.609" height="33.609" x="306.52" y="68.004" fill="#000" fill-rule="nonzero"/>
    <rect width="33.632" height="33.578" x="272.881" y="303.203" fill="#000" fill-rule="nonzero"/>
    <rect width="33.632" height="33.578" x="272.881" y="101.613" fill="#000" fill-rule="nonzero"/>
    <rect width="33.632" height="33.609" x="239.249" y="336.789" fill="#000" fill-rule="nonzero"/>
    <rect width="33.632" height="33.609" x="239.249" y="135.199" fill="#000" fill-rule="nonzero"/>
    <rect width="33.609" height="33.578" x="205.641" y="370.398" fill="#000" fill-rule="nonzero"/>
    <polygon fill="#000" fill-rule="nonzero" points="205.641 168.8 205.641 202.408 172.009 202.408 172.009 235.994 205.641 235.994 239.249 235.994 272.881 235.994 306.52 235.994 340.121 235.994 340.121 269.602 373.752 269.602 373.752 235.994 373.752 202.408 340.121 202.408 306.52 202.408 272.881 202.408 239.249 202.408 239.249 168.8"/>
    <rect width="33.632" height="33.609" x="172.009" y="403.976" fill="#000" fill-rule="nonzero"/>
    <rect width="33.632" height="33.609" x="138.378" y="437.584" fill="#000" fill-rule="nonzero"/>
    <polygon fill="#000" fill-rule="nonzero" points="172.009 336.789 205.641 336.789 205.641 303.203 172.009 303.203 138.378 303.203 104.769 303.203 71.137 303.203 37.506 303.203 37.506 269.602 37.506 235.994 3.897 235.994 3.897 269.602 3.897 303.203 3.897 336.789 37.506 336.789 71.137 336.789 104.769 336.789 138.378 336.789 138.378 370.398 172.009 370.398"/>
    <rect width="33.632" height="33.609" x="138.378" y="34.403" fill="#FFF" fill-rule="nonzero"/>
    <polygon fill="#000" fill-rule="nonzero" points="172.009 34.403 205.641 34.403 239.249 34.403 272.881 34.403 306.52 34.403 340.121 34.403 340.121 68.004 373.752 68.004 373.752 34.403 373.752 .818 340.121 .818 306.52 .818 272.881 .818 239.249 .818 205.641 .818 172.009 .818 138.378 .818 104.769 .818 104.769 34.403 138.378 34.403"/>
    <rect width="33.609" height="33.609" x="104.769" y="437.584" fill="#F6EB14" fill-rule="nonzero"/>
    <polygon fill="#000" fill-rule="nonzero" points="138.378 403.976 138.378 370.398 104.769 370.398 104.769 403.976 104.769 437.584 138.378 437.584"/>
    <polygon fill="#FFF" fill-rule="nonzero" points="104.769 101.613 104.769 135.199 138.378 135.199 138.378 101.613 138.378 68.004 104.769 68.004"/>
    <polygon fill="#000" fill-rule="nonzero" points="104.769 437.584 71.137 437.584 71.137 471.193 71.137 504.771 104.769 504.771 138.378 504.771 138.378 471.193 104.769 471.193"/>
    <polygon fill="#FFF" fill-rule="nonzero" points="71.137 202.408 71.137 235.994 104.769 235.994 104.769 202.408 104.769 168.8 104.769 135.199 71.137 135.199 71.137 168.8"/>
    <polygon fill="#000" fill-rule="nonzero" points="104.769 101.613 104.769 68.004 104.769 34.403 71.137 34.403 71.137 68.004 71.137 101.613 71.137 135.199 104.769 135.199"/>
    <polygon fill="#FFF" fill-rule="nonzero" points="37.506 303.203 71.137 303.203 71.137 269.602 71.137 235.994 37.506 235.994 37.506 269.602"/>
    <polygon fill="#000" fill-rule="nonzero" points="71.137 202.408 71.137 168.8 71.137 135.199 37.506 135.199 37.506 168.8 37.506 202.408 37.506 235.994 71.137 235.994"/>
    <g fill-rule="nonzero">
      <rect width="33.632" height="33.609" x="340.121" y="235.994" fill="#000"/>
      <rect width="33.632" height="33.578" x="340.121" y="202.408" fill="#000"/>
      <rect width="33.632" height="33.609" x="340.121" y="34.403" fill="#000"/>
      <rect width="33.632" height="33.578" x="340.121" y=".818" fill="#000"/>
      <rect width="33.609" height="33.609" x="306.52" y="269.602" fill="#000"/>
      <rect width="33.609" height="33.609" x="306.52" y="235.994" fill="#F6EB14"/>
      <rect width="33.609" height="33.578" x="306.52" y="202.408" fill="#000"/>
      <rect width="33.609" height="33.609" x="306.52" y="68.004" fill="#000"/>
      <rect width="33.609" height="33.609" x="306.52" y="34.403" fill="#F6EB14"/>
      <rect width="33.609" height="33.578" x="306.52" y=".818" fill="#000"/>
      <rect width="33.632" height="33.578" x="272.881" y="303.203" fill="#000"/>
      <rect width="33.632" height="33.609" x="272.881" y="269.602" fill="#F6EB14"/>
      <rect width="33.632" height="33.609" x="272.881" y="235.994" fill="#F6EB14"/>
      <rect width="33.632" height="33.578" x="272.881" y="202.408" fill="#000"/>
      <rect width="33.632" height="33.578" x="272.881" y="101.613" fill="#000"/>
      <rect width="33.632" height="33.609" x="272.881" y="68.004" fill="#F6EB14"/>
      <rect width="33.632" height="33.609" x="272.881" y="34.403" fill="#F6EB14"/>
      <rect width="33.632" height="33.578" x="272.881" y=".818" fill="#000"/>
      <rect width="33.632" height="33.609" x="239.249" y="336.789" fill="#000"/>
      <rect width="33.632" height="33.578" x="239.249" y="303.203" fill="#F6EB14"/>
      <rect width="33.632" height="33.609" x="239.249" y="269.602" fill="#F6EB14"/>
      <rect width="33.632" height="33.609" x="239.249" y="235.994" fill="#F6EB14"/>
      <rect width="33.632" height="33.578" x="239.249" y="202.408" fill="#000"/>
      <rect width="33.632" height="33.609" x="239.249" y="135.199" fill="#000"/>
      <rect width="33.632" height="33.578" x="239.249" y="101.613" fill="#F6EB14"/>
      <rect width="33.632" height="33.609" x="239.249" y="68.004" fill="#F6EB14"/>
      <rect width="33.632" height="33.609" x="239.249" y="34.403" fill="#F6EB14"/>
      <rect width="33.632" height="33.578" x="239.249" y=".818" fill="#000"/>
      <rect width="33.609" height="33.578" x="205.641" y="370.398" fill="#000"/>
      <rect width="33.609" height="33.609" x="205.641" y="336.789" fill="#F6EB14"/>
      <rect width="33.609" height="33.578" x="205.641" y="303.203" fill="#F6EB14"/>
      <rect width="33.609" height="33.609" x="205.641" y="269.602" fill="#F6EB14"/>
      <rect width="33.609" height="33.609" x="205.641" y="235.994" fill="#F6EB14"/>
      <rect width="33.609" height="33.578" x="205.641" y="202.408" fill="#000"/>
      <rect width="33.609" height="33.609" x="205.641" y="168.8" fill="#000"/>
      <rect width="33.609" height="33.609" x="205.641" y="135.199" fill="#F6EB14"/>
      <rect width="33.609" height="33.578" x="205.641" y="101.613" fill="#F6EB14"/>
      <rect width="33.609" height="33.609" x="205.641" y="68.004" fill="#F6EB14"/>
      <rect width="33.609" height="33.609" x="205.641" y="34.403" fill="#F6EB14"/>
      <rect width="33.609" height="33.578" x="205.641" y=".818" fill="#000"/>
      <rect width="33.632" height="33.609" x="172.009" y="403.976" fill="#000"/>
      <rect width="33.632" height="33.578" x="172.009" y="370.398" fill="#F6EB14"/>
      <rect width="33.632" height="33.609" x="172.009" y="336.789" fill="#F6EB14"/>
      <rect width="33.632" height="33.578" x="172.009" y="303.203" fill="#000"/>
      <rect width="33.632" height="33.609" x="172.009" y="269.602" fill="#F6EB14"/>
      <rect width="33.632" height="33.609" x="172.009" y="235.994" fill="#F6EB14"/>
      <rect width="33.632" height="33.578" x="172.009" y="202.408" fill="#000"/>
      <rect width="33.632" height="33.609" x="172.009" y="168.8" fill="#F6EB14"/>
      <rect width="33.632" height="33.609" x="172.009" y="135.199" fill="#F6EB14"/>
      <rect width="33.632" height="33.578" x="172.009" y="101.613" fill="#F6EB14"/>
      <rect width="33.632" height="33.609" x="172.009" y="68.004" fill="#F6EB14"/>
      <rect width="33.632" height="33.609" x="172.009" y="34.403" fill="#F6EB14"/>
      <rect width="33.632" height="33.578" x="172.009" y=".818" fill="#000"/>
      <rect width="33.632" height="33.609" x="138.378" y="437.584" fill="#000"/>
      <rect width="33.632" height="33.609" x="138.378" y="403.976" fill="#F6EB14"/>
      <rect width="33.632" height="33.578" x="138.378" y="370.398" fill="#F6EB14"/>
      <rect width="33.632" height="33.609" x="138.378" y="336.789" fill="#000"/>
      <rect width="33.632" height="33.578" x="138.378" y="303.203" fill="#000"/>
      <rect width="33.632" height="33.609" x="138.378" y="269.602" fill="#F6EB14"/>
      <rect width="33.632" height="33.609" x="138.378" y="235.994" fill="#F6EB14"/>
      <rect width="33.632" height="33.578" x="138.378" y="202.408" fill="#F6EB14"/>
      <rect width="33.632" height="33.609" x="138.378" y="168.8" fill="#F6EB14"/>
      <rect width="33.632" height="33.609" x="138.378" y="135.199" fill="#F6EB14"/>
      <rect width="33.632" height="33.578" x="138.378" y="101.613" fill="#F6EB14"/>
      <rect width="33.632" height="33.609" x="138.378" y="68.004" fill="#F6EB14"/>
      <rect width="33.632" height="33.609" x="138.378" y="34.403" fill="#FFF"/>
      <rect width="33.632" height="33.578" x="138.378" y=".818" fill="#000"/>
      <rect width="33.609" height="33.578" x="104.769" y="471.193" fill="#000"/>
      <rect width="33.609" height="33.609" x="104.769" y="437.584" fill="#F6EB14"/>
      <rect width="33.609" height="33.609" x="104.769" y="403.976" fill="#000"/>
      <rect width="33.609" height="33.578" x="104.769" y="370.398" fill="#000"/>
      <rect width="33.609" height="33.578" x="104.769" y="303.203" fill="#000"/>
      <rect width="33.609" height="33.609" x="104.769" y="269.602" fill="#F6EB14"/>
      <rect width="33.609" height="33.609" x="104.769" y="235.994" fill="#F6EB14"/>
      <rect width="33.609" height="33.578" x="104.769" y="202.408" fill="#F6EB14"/>
      <rect width="33.609" height="33.609" x="104.769" y="168.8" fill="#F6EB14"/>
      <rect width="33.609" height="33.609" x="104.769" y="135.199" fill="#F6EB14"/>
      <rect width="33.609" height="33.578" x="104.769" y="101.613" fill="#FFF"/>
      <rect width="33.609" height="33.609" x="104.769" y="68.004" fill="#FFF"/>
      <rect width="33.609" height="33.578" x="104.769" y=".818" fill="#000"/>
      <rect width="33.632" height="33.578" x="71.137" y="471.193" fill="#000"/>
      <rect width="33.632" height="33.609" x="71.137" y="437.584" fill="#000"/>
      <rect width="33.632" height="33.578" x="71.137" y="303.203" fill="#000"/>
      <rect width="33.632" height="33.609" x="71.137" y="269.602" fill="#F6EB14"/>
      <rect width="33.632" height="33.609" x="71.137" y="235.994" fill="#F6EB14"/>
      <rect width="33.632" height="33.578" x="71.137" y="202.408" fill="#FFF"/>
      <rect width="33.632" height="33.609" x="71.137" y="168.8" fill="#FFF"/>
      <rect width="33.632" height="33.609" x="71.137" y="135.199" fill="#FFF"/>
      <rect width="33.632" height="33.578" x="71.137" y="101.613" fill="#000"/>
      <rect width="33.632" height="33.609" x="71.137" y="68.004" fill="#000"/>
      <rect width="33.632" height="33.609" x="71.137" y="34.403" fill="#000"/>
      <rect width="33.632" height="33.578" x="37.506" y="303.203" fill="#000"/>
      <rect width="33.632" height="33.609" x="37.506" y="269.602" fill="#FFF"/>
      <rect width="33.632" height="33.609" x="37.506" y="235.994" fill="#FFF"/>
      <rect width="33.632" height="33.578" x="37.506" y="202.408" fill="#000"/>
      <rect width="33.632" height="33.609" x="37.506" y="168.8" fill="#000"/>
      <rect width="33.632" height="33.609" x="37.506" y="135.199" fill="#000"/>
      <rect width="33.609" height="33.578" x="3.897" y="303.203" fill="#000"/>
      <rect width="33.609" height="33.609" x="3.897" y="269.602" fill="#000"/>
      <rect width="33.609" height="33.609" x="3.897" y="235.994" fill="#000"/>
    </g>
  </g>
</svg>
