<svg xmlns="http://www.w3.org/2000/svg" width="512" height="512" viewBox="0 0 512 512">
  <g fill="none" transform="translate(0 54)">
    <g fill="#4A8ECC">
      <polygon points="487.235 127.229 487.235 148.264 466.146 148.264 445.057 148.264 445.057 169.3 423.968 169.3 423.968 148.264 402.879 148.264 381.79 148.264 381.79 127.229 360.717 127.229 360.717 148.264 360.717 169.3 381.79 169.3 381.79 190.345 402.879 190.345 402.879 211.386 402.879 232.432 381.79 232.432 381.79 253.467 360.717 253.467 339.628 253.467 339.628 232.432 318.539 232.432 318.539 211.386 318.539 190.345 297.45 190.345 297.45 169.3 276.367 169.3 276.367 148.264 255.278 148.264 255.278 127.229 234.189 127.229 213.111 127.229 213.111 106.178 192.022 106.178 170.938 106.178 170.938 85.143 170.938 64.092 192.022 64.092 213.111 64.092 213.111 43.057 213.111 22.021 234.189 22.021 234.189 .975 213.111 .975 192.022 .975 192.022 22.021 192.022 43.057 170.938 43.057 149.849 43.057 149.849 22.021 128.76 22.021 128.76 43.057 128.76 64.092 149.849 64.092 149.849 85.143 149.849 106.178 128.76 106.178 128.76 127.229 107.671 127.229 86.582 127.229 86.582 148.264 65.493 148.264 65.493 169.3 44.42 169.3 44.42 190.345 23.331 190.345 23.331 211.386 23.331 232.432 2.242 232.432 2.242 253.467 2.242 274.518 2.242 295.553 2.242 316.588 2.242 337.64 23.331 337.64 23.331 358.675 44.42 358.675 44.42 379.726 65.493 379.726 65.493 400.761 86.582 400.761 107.671 400.761 128.76 400.761 149.849 400.761 170.938 400.761 192.022 400.761 213.111 400.761 234.189 400.761 255.278 400.761 276.367 400.761 297.45 400.761 318.539 400.761 339.628 400.761 360.717 400.761 381.79 400.761 402.879 400.761 402.879 379.726 423.968 379.726 423.968 358.675 445.057 358.675 445.057 337.64 445.057 316.588 466.146 316.588 466.146 295.553 487.235 295.553 487.235 274.518 487.235 253.467 487.235 232.432 466.146 232.432 466.146 211.386 466.146 190.345 487.235 190.345 487.235 169.3 508.324 169.3 508.324 148.264 508.324 127.229"/>
      <rect width="21.089" height="21.046" x="107.671" y=".975"/>
    </g>
    <rect width="21.089" height="21.035" x="487.235" y="148.264" fill="#100906"/>
    <rect width="21.089" height="21.035" x="487.235" y="127.229" fill="#100906"/>
    <rect width="21.089" height="21.035" x="466.146" y="274.518" fill="#100906"/>
    <rect width="21.089" height="21.051" x="466.146" y="253.467" fill="#100906"/>
    <rect width="21.089" height="21.035" x="466.146" y="232.432" fill="#100906"/>
    <rect width="21.089" height="21.051" x="466.146" y="169.3" fill="#100906"/>
    <rect width="21.089" height="21.035" x="466.146" y="148.264" fill="#100906"/>
    <rect width="21.089" height="21.035" x="445.057" y="295.553" fill="#100906"/>
    <rect width="21.089" height="21.035" x="445.057" y="274.518" fill="#3E78AB"/>
    <rect width="21.089" height="21.051" x="445.057" y="253.467" fill="#3E78AB"/>
    <rect width="21.089" height="21.035" x="445.057" y="232.432" fill="#3E78AB"/>
    <rect width="21.089" height="21.046" x="445.057" y="211.386" fill="#100906"/>
    <rect width="21.089" height="21.035" x="445.057" y="190.345" fill="#100906"/>
    <rect width="21.089" height="21.051" x="445.057" y="169.3" fill="#3E78AB"/>
    <rect width="21.089" height="21.035" x="445.057" y="148.264" fill="#100906"/>
    <rect width="21.089" height="21.035" x="423.968" y="337.64" fill="#100906"/>
    <rect width="21.089" height="21.046" x="423.968" y="316.588" fill="#100906"/>
    <rect width="21.089" height="21.035" x="423.968" y="295.553" fill="#3E78AB"/>
    <rect width="21.089" height="21.035" x="423.968" y="274.518" fill="#4A8ECC"/>
    <rect width="21.089" height="21.051" x="423.968" y="253.467" fill="#4A8ECC"/>
    <rect width="21.089" height="21.035" x="423.968" y="232.432" fill="#4A8ECC"/>
    <rect width="21.089" height="21.046" x="423.968" y="211.386" fill="#4A8ECC"/>
    <rect width="21.089" height="21.035" x="423.968" y="190.345" fill="#4A8ECC"/>
    <rect width="21.089" height="21.051" x="423.968" y="169.3" fill="#100906"/>
    <rect width="21.089" height="21.051" x="402.879" y="358.675" fill="#100906"/>
    <rect width="21.089" height="21.035" x="402.879" y="337.64" fill="#3E78AB"/>
    <rect width="21.089" height="21.046" x="402.879" y="316.588" fill="#3E78AB"/>
    <rect width="21.089" height="21.035" x="402.879" y="295.553" fill="#4A8ECC"/>
    <rect width="21.089" height="21.035" x="402.879" y="274.518" fill="#4A8ECC"/>
    <rect width="21.089" height="21.051" x="402.879" y="253.467" fill="#4A8ECC"/>
    <rect width="21.089" height="21.035" x="402.879" y="232.432" fill="#7BB9E5"/>
    <rect width="21.089" height="21.046" x="402.879" y="211.386" fill="#100906"/>
    <rect width="21.089" height="21.035" x="402.879" y="190.345" fill="#100906"/>
    <rect width="21.089" height="21.051" x="402.879" y="169.3" fill="#7BB9E5"/>
    <rect width="21.089" height="21.035" x="402.879" y="148.264" fill="#100906"/>
    <rect width="21.089" height="21.035" x="381.79" y="379.726" fill="#100906"/>
    <rect width="21.089" height="21.051" x="381.79" y="358.675" fill="#3E78AB"/>
    <rect width="21.089" height="21.035" x="381.79" y="337.64" fill="#4A8ECC"/>
    <rect width="21.089" height="21.046" x="381.79" y="316.588" fill="#4A8ECC"/>
    <rect width="21.089" height="21.035" x="381.79" y="295.553" fill="#4A8ECC"/>
    <rect width="21.089" height="21.035" x="381.79" y="274.518" fill="#4A8ECC"/>
    <rect width="21.089" height="21.051" x="381.79" y="253.467" fill="#7BB9E5"/>
    <rect width="21.089" height="21.035" x="381.79" y="232.432" fill="#100906"/>
    <rect width="21.089" height="21.051" x="381.79" y="169.3" fill="#100906"/>
    <rect width="21.089" height="21.035" x="381.79" y="148.264" fill="#100906"/>
    <rect width="21.073" height="21.035" x="360.717" y="379.726" fill="#100906"/>
    <rect width="21.073" height="21.051" x="360.717" y="358.675" fill="#3E78AB"/>
    <rect width="21.073" height="21.035" x="360.717" y="337.64" fill="#4A8ECC"/>
    <rect width="21.073" height="21.046" x="360.717" y="316.588" fill="#4A8ECC"/>
    <rect width="21.073" height="21.035" x="360.717" y="295.553" fill="#4A8ECC"/>
    <rect width="21.073" height="21.035" x="360.717" y="274.518" fill="#7BB9E5"/>
    <rect width="21.073" height="21.051" x="360.717" y="253.467" fill="#100906"/>
    <rect width="21.073" height="21.035" x="360.717" y="148.264" fill="#100906"/>
    <rect width="21.073" height="21.035" x="360.717" y="127.229" fill="#100906"/>
    <rect width="21.089" height="21.035" x="339.628" y="379.726" fill="#100906"/>
    <rect width="21.089" height="21.051" x="339.628" y="358.675" fill="#3E78AB"/>
    <rect width="21.089" height="21.035" x="339.628" y="337.64" fill="#4A8ECC"/>
    <rect width="21.089" height="21.046" x="339.628" y="316.588" fill="#4A8ECC"/>
    <rect width="21.089" height="21.035" x="339.628" y="295.553" fill="#4A8ECC"/>
    <rect width="21.089" height="21.035" x="339.628" y="274.518" fill="#7BB9E5"/>
    <rect width="21.089" height="21.051" x="339.628" y="253.467" fill="#100906"/>
    <rect width="21.089" height="21.035" x="318.539" y="379.726" fill="#100906"/>
    <rect width="21.089" height="21.051" x="318.539" y="358.675" fill="#3E78AB"/>
    <rect width="21.089" height="21.035" x="318.539" y="337.64" fill="#4A8ECC"/>
    <rect width="21.089" height="21.046" x="318.539" y="316.588" fill="#4A8ECC"/>
    <rect width="21.089" height="21.035" x="318.539" y="295.553" fill="#4A8ECC"/>
    <rect width="21.089" height="21.035" x="318.539" y="274.518" fill="#4A8ECC"/>
    <rect width="21.089" height="21.051" x="318.539" y="253.467" fill="#4A8ECC"/>
    <rect width="21.089" height="21.035" x="318.539" y="232.432" fill="#100906"/>
    <rect width="21.089" height="21.035" x="297.45" y="379.726" fill="#100906"/>
    <rect width="21.089" height="21.051" x="297.45" y="358.675" fill="#3E78AB"/>
    <rect width="21.089" height="21.035" x="297.45" y="337.64" fill="#4A8ECC"/>
    <rect width="21.089" height="21.046" x="297.45" y="316.588" fill="#4A8ECC"/>
    <rect width="21.089" height="21.035" x="297.45" y="295.553" fill="#4A8ECC"/>
    <rect width="21.089" height="21.035" x="297.45" y="274.518" fill="#4A8ECC"/>
    <rect width="21.089" height="21.051" x="297.45" y="253.467" fill="#4A8ECC"/>
    <rect width="21.089" height="21.035" x="297.45" y="232.432" fill="#3E78AB"/>
    <rect width="21.089" height="21.046" x="297.45" y="211.386" fill="#100906"/>
    <rect width="21.089" height="21.035" x="297.45" y="190.345" fill="#100906"/>
    <rect width="21.089" height="21.035" x="276.367" y="379.726" fill="#100906"/>
    <rect width="21.089" height="21.051" x="276.367" y="358.675" fill="#3E78AB"/>
    <rect width="21.089" height="21.035" x="276.367" y="337.64" fill="#4A8ECC"/>
    <rect width="21.089" height="21.046" x="276.367" y="316.588" fill="#4A8ECC"/>
    <rect width="21.089" height="21.035" x="276.367" y="295.553" fill="#4A8ECC"/>
    <rect width="21.089" height="21.035" x="276.367" y="274.518" fill="#4A8ECC"/>
    <rect width="21.089" height="21.051" x="276.367" y="253.467" fill="#4A8ECC"/>
    <rect width="21.089" height="21.035" x="276.367" y="232.432" fill="#4A8ECC"/>
    <rect width="21.089" height="21.046" x="276.367" y="211.386" fill="#3E78AB"/>
    <rect width="21.089" height="21.035" x="276.367" y="190.345" fill="#3E78AB"/>
    <rect width="21.089" height="21.051" x="276.367" y="169.3" fill="#100906"/>
    <rect width="21.089" height="21.035" x="255.278" y="379.726" fill="#100906"/>
    <rect width="21.089" height="21.051" x="255.278" y="358.675" fill="#3E78AB"/>
    <rect width="21.089" height="21.035" x="255.278" y="337.64" fill="#4A8ECC"/>
    <rect width="21.089" height="21.046" x="255.278" y="316.588" fill="#4A8ECC"/>
    <rect width="21.089" height="21.035" x="255.278" y="295.553" fill="#4A8ECC"/>
    <rect width="21.089" height="21.035" x="255.278" y="274.518" fill="#4A8ECC"/>
    <rect width="21.089" height="21.051" x="255.278" y="253.467" fill="#4A8ECC"/>
    <rect width="21.089" height="21.035" x="255.278" y="232.432" fill="#4A8ECC"/>
    <rect width="21.089" height="21.046" x="255.278" y="211.386" fill="#4A8ECC"/>
    <rect width="21.089" height="21.035" x="255.278" y="190.345" fill="#4A8ECC"/>
    <rect width="21.089" height="21.051" x="255.278" y="169.3" fill="#4A8ECC"/>
    <rect width="21.089" height="21.035" x="255.278" y="148.264" fill="#100906"/>
    <rect width="21.089" height="21.035" x="234.189" y="379.726" fill="#100906"/>
    <rect width="21.089" height="21.051" x="234.189" y="358.675" fill="#3E78AB"/>
    <rect width="21.089" height="21.035" x="234.189" y="337.64" fill="#4A8ECC"/>
    <rect width="21.089" height="21.046" x="234.189" y="316.588" fill="#4A8ECC"/>
    <rect width="21.089" height="21.035" x="234.189" y="295.553" fill="#4A8ECC"/>
    <rect width="21.089" height="21.035" x="234.189" y="274.518" fill="#4A8ECC"/>
    <rect width="21.089" height="21.051" x="234.189" y="253.467" fill="#4A8ECC"/>
    <rect width="21.089" height="21.035" x="234.189" y="232.432" fill="#4A8ECC"/>
    <rect width="21.089" height="21.046" x="234.189" y="211.386" fill="#4A8ECC"/>
    <rect width="21.089" height="21.035" x="234.189" y="190.345" fill="#4A8ECC"/>
    <rect width="21.089" height="21.051" x="234.189" y="169.3" fill="#4A8ECC"/>
    <rect width="21.089" height="21.035" x="234.189" y="148.264" fill="#4A8ECC"/>
    <rect width="21.089" height="21.035" x="234.189" y="127.229" fill="#100906"/>
    <rect width="21.073" height="21.035" x="213.111" y="379.726" fill="#100906"/>
    <rect width="21.073" height="21.051" x="213.111" y="358.675" fill="#3E78AB"/>
    <rect width="21.073" height="21.035" x="213.111" y="337.64" fill="#4A8ECC"/>
    <rect width="21.073" height="21.046" x="213.111" y="316.588" fill="#4A8ECC"/>
    <rect width="21.073" height="21.035" x="213.111" y="295.553" fill="#4A8ECC"/>
    <rect width="21.073" height="21.035" x="213.111" y="274.518" fill="#4A8ECC"/>
    <rect width="21.073" height="21.051" x="213.111" y="253.467" fill="#4A8ECC"/>
    <rect width="21.073" height="21.035" x="213.111" y="232.432" fill="#4A8ECC"/>
    <rect width="21.073" height="21.046" x="213.111" y="211.386" fill="#4A8ECC"/>
    <rect width="21.073" height="21.035" x="213.111" y="190.345" fill="#4A8ECC"/>
    <rect width="21.073" height="21.051" x="213.111" y="169.3" fill="#4A8ECC"/>
    <rect width="21.073" height="21.035" x="213.111" y="148.264" fill="#7BB9E5"/>
    <rect width="21.073" height="21.035" x="213.111" y="127.229" fill="#100906"/>
    <rect width="21.073" height="21.046" x="213.111" y=".975" fill="#7BB9E5"/>
    <rect width="21.089" height="21.035" x="192.022" y="379.726" fill="#100906"/>
    <rect width="21.089" height="21.051" x="192.022" y="358.675" fill="#3E78AB"/>
    <rect width="21.089" height="21.035" x="192.022" y="337.64" fill="#4A8ECC"/>
    <rect width="21.089" height="21.046" x="192.022" y="316.588" fill="#4A8ECC"/>
    <rect width="21.089" height="21.035" x="192.022" y="295.553" fill="#4A8ECC"/>
    <rect width="21.089" height="21.035" x="192.022" y="274.518" fill="#4A8ECC"/>
    <rect width="21.089" height="21.051" x="192.022" y="253.467" fill="#4A8ECC"/>
    <rect width="21.089" height="21.035" x="192.022" y="232.432" fill="#4A8ECC"/>
    <rect width="21.089" height="21.046" x="192.022" y="211.386" fill="#4A8ECC"/>
    <rect width="21.089" height="21.035" x="192.022" y="190.345" fill="#4A8ECC"/>
    <rect width="21.089" height="21.051" x="192.022" y="169.3" fill="#4A8ECC"/>
    <rect width="21.089" height="21.035" x="192.022" y="148.264" fill="#4A8ECC"/>
    <rect width="21.089" height="21.035" x="192.022" y="127.229" fill="#7BB9E5"/>
    <rect width="21.089" height="21.046" x="192.022" y="106.178" fill="#100906"/>
    <rect width="21.089" height="21.035" x="192.022" y="43.057" fill="#7BB9E5"/>
    <rect width="21.089" height="21.035" x="192.022" y="22.021" fill="#7BB9E5"/>
    <rect width="21.089" height="21.046" x="192.022" y=".975" fill="#7BB9E5"/>
    <rect width="21.089" height="21.035" x="170.938" y="379.726" fill="#100906"/>
    <rect width="21.089" height="21.051" x="170.938" y="358.675" fill="#3E78AB"/>
    <rect width="21.089" height="21.035" x="170.938" y="337.64" fill="#4A8ECC"/>
    <rect width="21.089" height="21.046" x="170.938" y="316.588" fill="#4A8ECC"/>
    <rect width="21.089" height="21.035" x="170.938" y="295.553" fill="#4A8ECC"/>
    <rect width="21.089" height="21.035" x="170.938" y="274.518" fill="#4A8ECC"/>
    <rect width="21.089" height="21.051" x="170.938" y="253.467" fill="#4A8ECC"/>
    <rect width="21.089" height="21.035" x="170.938" y="232.432" fill="#4A8ECC"/>
    <rect width="21.089" height="21.046" x="170.938" y="211.386" fill="#4A8ECC"/>
    <rect width="21.089" height="21.035" x="170.938" y="190.345" fill="#4A8ECC"/>
    <rect width="21.089" height="21.051" x="170.938" y="169.3" fill="#4A8ECC"/>
    <rect width="21.089" height="21.035" x="170.938" y="148.264" fill="#4A8ECC"/>
    <rect width="21.089" height="21.035" x="170.938" y="127.229" fill="#7BB9E5"/>
    <rect width="21.089" height="21.046" x="170.938" y="106.178" fill="#100906"/>
    <rect width="21.089" height="21.035" x="170.938" y="43.057" fill="#7BB9E5"/>
    <rect width="21.089" height="21.035" x="149.849" y="379.726" fill="#100906"/>
    <rect width="21.089" height="21.051" x="149.849" y="358.675" fill="#3E78AB"/>
    <rect width="21.089" height="21.035" x="149.849" y="337.64" fill="#4A8ECC"/>
    <rect width="21.089" height="21.046" x="149.849" y="316.588" fill="#4A8ECC"/>
    <rect width="21.089" height="21.035" x="149.849" y="295.553" fill="#4A8ECC"/>
    <rect width="21.089" height="21.035" x="149.849" y="274.518" fill="#4A8ECC"/>
    <rect width="21.089" height="21.051" x="149.849" y="253.467" fill="#4A8ECC"/>
    <rect width="21.089" height="21.035" x="149.849" y="232.432" fill="#4A8ECC"/>
    <rect width="21.089" height="21.046" x="149.849" y="211.386" fill="#4A8ECC"/>
    <rect width="21.089" height="21.035" x="149.849" y="190.345" fill="#4A8ECC"/>
    <rect width="21.089" height="21.051" x="149.849" y="169.3" fill="#4A8ECC"/>
    <rect width="21.089" height="21.035" x="149.849" y="148.264" fill="#4A8ECC"/>
    <rect width="21.089" height="21.035" x="149.849" y="127.229" fill="#7BB9E5"/>
    <rect width="21.089" height="21.046" x="149.849" y="106.178" fill="#100906"/>
    <rect width="21.089" height="21.035" x="149.849" y="85.143" fill="#7BB9E5"/>
    <rect width="21.089" height="21.051" x="149.849" y="64.092" fill="#7BB9E5"/>
    <rect width="21.089" height="21.035" x="149.849" y="43.057" fill="#7BB9E5"/>
    <rect width="21.089" height="21.035" x="128.76" y="379.726" fill="#100906"/>
    <rect width="21.089" height="21.051" x="128.76" y="358.675" fill="#3E78AB"/>
    <rect width="21.089" height="21.035" x="128.76" y="337.64" fill="#4A8ECC"/>
    <rect width="21.089" height="21.046" x="128.76" y="316.588" fill="#4A8ECC"/>
    <rect width="21.089" height="21.035" x="128.76" y="295.553" fill="#4A8ECC"/>
    <rect width="21.089" height="21.035" x="128.76" y="274.518" fill="#4A8ECC"/>
    <rect width="21.089" height="21.051" x="128.76" y="253.467" fill="#4A8ECC"/>
    <rect width="21.089" height="21.035" x="128.76" y="232.432" fill="#4A8ECC"/>
    <rect width="21.089" height="21.046" x="128.76" y="211.386" fill="#4A8ECC"/>
    <rect width="21.089" height="21.035" x="128.76" y="190.345" fill="#4A8ECC"/>
    <rect width="21.089" height="21.051" x="128.76" y="169.3" fill="#4A8ECC"/>
    <rect width="21.089" height="21.035" x="128.76" y="148.264" fill="#4A8ECC"/>
    <rect width="21.089" height="21.035" x="128.76" y="127.229" fill="#7BB9E5"/>
    <rect width="21.089" height="21.046" x="128.76" y="106.178" fill="#100906"/>
    <rect width="21.089" height="21.035" x="128.76" y="43.057" fill="#7BB9E5"/>
    <rect width="21.089" height="21.035" x="128.76" y="22.021" fill="#7BB9E5"/>
    <rect width="21.089" height="21.035" x="107.671" y="379.726" fill="#100906"/>
    <rect width="21.089" height="21.051" x="107.671" y="358.675" fill="#4A8ECC"/>
    <rect width="21.089" height="21.035" x="107.671" y="337.64" fill="#4A8ECC"/>
    <rect width="21.089" height="21.046" x="107.671" y="316.588" fill="#4A8ECC"/>
    <rect width="21.089" height="21.035" x="107.671" y="295.553" fill="#4A8ECC"/>
    <rect width="21.089" height="21.035" x="107.671" y="274.518" fill="#4A8ECC"/>
    <rect width="21.089" height="21.051" x="107.671" y="253.467" fill="#100906"/>
    <rect width="21.089" height="21.035" x="107.671" y="232.432" fill="#4A8ECC"/>
    <rect width="21.089" height="21.046" x="107.671" y="211.386" fill="#4A8ECC"/>
    <rect width="21.089" height="21.035" x="107.671" y="190.345" fill="#4A8ECC"/>
    <rect width="21.089" height="21.051" x="107.671" y="169.3" fill="#4A8ECC"/>
    <rect width="21.089" height="21.035" x="107.671" y="148.264" fill="#7BB9E5"/>
    <rect width="21.089" height="21.035" x="107.671" y="127.229" fill="#100906"/>
    <rect width="21.089" height="21.046" x="107.671" y=".975" fill="#7BB9E5"/>
    <rect width="21.089" height="21.035" x="86.582" y="379.726" fill="#100906"/>
    <rect width="21.089" height="21.051" x="86.582" y="358.675" fill="#4A8ECC"/>
    <rect width="21.089" height="21.035" x="86.582" y="337.64" fill="#4A8ECC"/>
    <rect width="21.089" height="21.046" x="86.582" y="316.588" fill="#4A8ECC"/>
    <rect width="21.089" height="21.035" x="86.582" y="295.553" fill="#4A8ECC"/>
    <rect width="21.089" height="21.035" x="86.582" y="274.518" fill="#4A8ECC"/>
    <rect width="21.089" height="21.051" x="86.582" y="253.467" fill="#4A8ECC"/>
    <rect width="21.089" height="21.035" x="86.582" y="232.432" fill="#4A8ECC"/>
    <rect width="21.089" height="21.046" x="86.582" y="211.386" fill="#4A8ECC"/>
    <rect width="21.089" height="21.035" x="86.582" y="190.345" fill="#4A8ECC"/>
    <rect width="21.089" height="21.051" x="86.582" y="169.3" fill="#4A8ECC"/>
    <rect width="21.089" height="21.035" x="86.582" y="148.264" fill="#7BB9E5"/>
    <rect width="21.089" height="21.035" x="86.582" y="127.229" fill="#100906"/>
    <rect width="21.089" height="21.035" x="65.493" y="379.726" fill="#100906"/>
    <rect width="21.089" height="21.051" x="65.493" y="358.675" fill="#4A8ECC"/>
    <rect width="21.089" height="21.035" x="65.493" y="337.64" fill="#4A8ECC"/>
    <rect width="21.089" height="21.046" x="65.493" y="316.588" fill="#4A8ECC"/>
    <rect width="21.089" height="21.035" x="65.493" y="295.553" fill="#4A8ECC"/>
    <rect width="21.089" height="21.035" x="65.493" y="274.518" fill="#4A8ECC"/>
    <rect width="21.089" height="21.051" x="65.493" y="253.467" fill="#4A8ECC"/>
    <rect width="21.089" height="21.035" x="65.493" y="232.432" fill="#4A8ECC"/>
    <rect width="21.089" height="21.046" x="65.493" y="211.386" fill="#4A8ECC"/>
    <rect width="21.089" height="21.035" x="65.493" y="190.345" fill="#4A8ECC"/>
    <rect width="21.089" height="21.051" x="65.493" y="169.3" fill="#7BB9E5"/>
    <rect width="21.089" height="21.035" x="65.493" y="148.264" fill="#100906"/>
    <rect width="21.073" height="21.051" x="44.42" y="358.675" fill="#100906"/>
    <rect width="21.073" height="21.035" x="44.42" y="337.64" fill="#4A8ECC"/>
    <rect width="21.073" height="21.046" x="44.42" y="316.588" fill="#4A8ECC"/>
    <rect width="21.073" height="21.035" x="44.42" y="295.553" fill="#4A8ECC"/>
    <rect width="21.073" height="21.035" x="44.42" y="274.518" fill="#4A8ECC"/>
    <rect width="21.073" height="21.051" x="44.42" y="253.467" fill="#4A8ECC"/>
    <rect width="21.073" height="21.035" x="44.42" y="232.432" fill="#4A8ECC"/>
    <rect width="21.073" height="21.046" x="44.42" y="211.386" fill="#7BB9E5"/>
    <rect width="21.073" height="21.035" x="44.42" y="190.345" fill="#7BB9E5"/>
    <rect width="21.073" height="21.051" x="44.42" y="169.3" fill="#100906"/>
    <rect width="21.089" height="21.035" x="23.331" y="337.64" fill="#100906"/>
    <rect width="21.089" height="21.046" x="23.331" y="316.588" fill="#4A8ECC"/>
    <rect width="21.089" height="21.035" x="23.331" y="295.553" fill="#4A8ECC"/>
    <rect width="21.089" height="21.035" x="23.331" y="274.518" fill="#4A8ECC"/>
    <rect width="21.089" height="21.051" x="23.331" y="253.467" fill="#4A8ECC"/>
    <rect width="21.089" height="21.035" x="23.331" y="232.432" fill="#7BB9E5"/>
    <rect width="21.089" height="21.046" x="23.331" y="211.386" fill="#100906"/>
    <rect width="21.089" height="21.035" x="23.331" y="190.345" fill="#100906"/>
    <rect width="21.089" height="21.046" x="2.242" y="316.588" fill="#100906"/>
    <rect width="21.089" height="21.035" x="2.242" y="295.553" fill="#100906"/>
    <rect width="21.089" height="21.035" x="2.242" y="274.518" fill="#100906"/>
    <rect width="21.089" height="21.051" x="2.242" y="253.467" fill="#100906"/>
    <rect width="21.089" height="21.035" x="2.242" y="232.432" fill="#100906"/>
  </g>
</svg>
