<?xml version="1.0" encoding="UTF-8"?>
<svg width="1000px" height="1000px" viewBox="0 0 1000 1000" version="1.1" xmlns="http://www.w3.org/2000/svg" xmlns:xlink="http://www.w3.org/1999/xlink">
    <title>Square</title>
    <g id="Square" stroke="none" stroke-width="1" fill="none" fill-rule="evenodd">
        <g id="Greenpotion" transform="translate(351.000000, 248.000000)">
            <path d="M208.138526,207.429895 L208.138526,177.801263 L178.509895,177.801263 L178.509895,148.199579 L178.509895,118.570947 L208.138526,118.570947 L208.138526,88.9423158 L208.138526,59.3406316 L178.509895,59.3406316 L178.509895,88.9423158 L148.861053,88.9423158 L119.212211,88.9423158 L119.212211,59.3406316 L89.5835789,59.3406316 L89.5835789,88.9423158 L89.5835789,118.570947 L119.212211,118.570947 L119.212211,148.199579 L119.212211,177.801263 L89.5835789,177.801263 L89.5835789,207.429895 L59.9347368,207.429895 L30.2858947,207.429895 L30.2858947,237.058526 L30.2858947,266.666947 L30.2858947,296.295579 L30.2858947,325.924211 L30.2858947,355.525895 L30.2858947,385.154526 L30.2858947,414.762947 L30.2858947,444.391579 L30.2858947,474.020211 L59.9347368,474.020211 L89.5835789,474.020211 L119.212211,474.020211 L148.861053,474.020211 L178.509895,474.020211 L208.138526,474.020211 L237.787368,474.020211 L267.436211,474.020211 L267.436211,444.391579 L267.436211,414.762947 L267.436211,385.154526 L267.436211,355.525895 L267.436211,325.924211 L267.436211,296.295579 L267.436211,266.666947 L267.436211,237.058526 L267.436211,207.429895 L237.787368,207.429895 L208.138526,207.429895 Z M237.794105,266.666947 L237.794105,296.295579 L237.794105,325.924211 L237.794105,355.525895 L237.794105,385.154526 L237.794105,414.762947 L237.794105,444.391579 L208.145263,444.391579 L178.516632,444.391579 L148.867789,444.391579 L119.218947,444.391579 L89.5903158,444.391579 L59.9414737,444.391579 L59.9414737,414.762947 L59.9414737,385.154526 L59.9414737,355.525895 L59.9414737,325.924211 L59.9414737,296.295579 L59.9414737,266.666947 L59.9414737,237.058526 L89.5903158,237.058526 L119.218947,237.058526 L148.867789,237.058526 L178.516632,237.058526 L208.145263,237.058526 L237.794105,237.058526 L237.794105,266.666947 Z" id="Shape" fill="#4FA092"></path>
            <polygon id="Path" fill="#000000" fill-rule="nonzero" points="267.442947 266.666947 267.442947 296.288842 267.442947 325.917474 267.442947 355.525895 267.442947 385.147789 267.442947 414.756211 267.442947 444.384842 267.442947 474.013474 297.071579 474.013474 297.071579 444.384842 297.071579 414.756211 297.071579 385.147789 297.071579 355.525895 297.071579 325.917474 297.071579 296.288842 297.071579 266.666947 297.071579 237.058526 297.071579 207.429895 267.442947 207.429895 267.442947 237.058526"></polygon>
            <polygon id="Path" fill="#000000" fill-rule="nonzero" points="237.794105 177.808 208.138526 177.808 208.138526 207.429895 237.794105 207.429895 267.442947 207.429895 267.442947 177.808"></polygon>
            <polygon id="Path" fill="#000000" fill-rule="nonzero" points="208.138526 474.013474 178.516632 474.013474 148.861053 474.013474 119.212211 474.013474 89.5903158 474.013474 59.9347368 474.013474 30.2858947 474.013474 30.2858947 503.615158 59.9347368 503.615158 89.5903158 503.615158 119.212211 503.615158 148.861053 503.615158 178.516632 503.615158 208.138526 503.615158 237.794105 503.615158 267.442947 503.615158 267.442947 474.013474 237.794105 474.013474"></polygon>
            <polygon id="Path" fill="#A8CF38" fill-rule="nonzero" points="208.138526 296.288842 208.138526 325.917474 208.138526 355.525895 208.138526 385.147789 237.794105 385.147789 237.794105 355.525895 237.794105 325.917474 237.794105 296.288842 237.794105 266.666947 208.138526 266.666947"></polygon>
            <rect id="Rectangle" fill="#0DA087" fill-rule="nonzero" x="208.138526" y="237.058526" width="29.6488421" height="29.6016842"></rect>
            <polygon id="Path" fill="#000000" fill-rule="nonzero" points="208.138526 88.9490526 208.138526 118.570947 237.794105 118.570947 237.794105 88.9490526 237.794105 59.3406316 237.794105 29.712 208.138526 29.712 208.138526 59.3406316"></polygon>
            <rect id="Rectangle" fill="#FFFFFF" fill-rule="nonzero" x="178.516632" y="414.756211" width="29.6286316" height="29.6286316"></rect>
            <polygon id="Path" fill="#0DA087" fill-rule="nonzero" points="178.516632 385.147789 148.861053 385.147789 119.212211 385.147789 89.5903158 385.147789 89.5903158 355.525895 89.5903158 325.917474 89.5903158 296.288842 89.5903158 266.666947 119.212211 266.666947 148.861053 266.666947 178.516632 266.666947 178.516632 237.058526 148.861053 237.058526 119.212211 237.058526 89.5903158 237.058526 59.9347368 237.058526 59.9347368 266.666947 59.9347368 296.288842 59.9347368 325.917474 59.9347368 355.525895 59.9347368 385.147789 59.9347368 414.756211 59.9347368 444.384842 89.5903158 444.384842 119.212211 444.384842 148.861053 444.384842 178.516632 444.384842 178.516632 414.756211 208.138526 414.756211 208.138526 444.384842 237.794105 444.384842 237.794105 414.756211 237.794105 385.147789 208.138526 385.147789"></polygon>
            <polygon id="Path" fill="#FFFFFF" fill-rule="nonzero" points="178.516632 296.288842 178.516632 325.917474 178.516632 355.525895 178.516632 385.147789 208.138526 385.147789 208.138526 355.525895 208.138526 325.917474 208.138526 296.288842 208.138526 266.666947 208.138526 237.058526 178.516632 237.058526 178.516632 266.666947"></polygon>
            <polygon id="Path" fill="#000000" fill-rule="nonzero" points="178.516632 148.199579 178.516632 177.808 208.138526 177.808 208.138526 148.199579 208.138526 118.570947 178.516632 118.570947"></polygon>
            <rect id="Rectangle" fill="#7C3D1D" fill-rule="nonzero" x="178.516632" y="29.712" width="29.6286316" height="29.6286316"></rect>
            <polygon id="Path" fill="#A8CF38" fill-rule="nonzero" points="178.516632 325.917474 178.516632 296.288842 178.516632 266.666947 148.861053 266.666947 119.212211 266.666947 89.5903158 266.666947 89.5903158 296.288842 89.5903158 325.917474 89.5903158 355.525895 89.5903158 385.147789 119.212211 385.147789 148.861053 385.147789 178.516632 385.147789 178.516632 355.525895"></polygon>
            <polygon id="Path" fill="#A55325" fill-rule="nonzero" points="148.861053 29.712 119.212211 29.712 119.212211 59.3406316 148.861053 59.3406316 178.516632 59.3406316 178.516632 29.712"></polygon>
            <polygon id="Path" fill="#7C3D1D" fill-rule="nonzero" points="119.212211 59.3406316 119.212211 88.9490526 148.861053 88.9490526 178.516632 88.9490526 178.516632 59.3406316 148.861053 59.3406316"></polygon>
            <polygon id="Path" fill="#000000" fill-rule="nonzero" points="148.861053 29.712 178.516632 29.712 208.138526 29.712 208.138526 0.110315789 178.516632 0.110315789 148.861053 0.110315789 119.212211 0.110315789 89.5903158 0.110315789 89.5903158 29.712 119.212211 29.712"></polygon>
            <polygon id="Path" fill="#000000" fill-rule="nonzero" points="119.212211 148.199579 119.212211 118.570947 89.5903158 118.570947 89.5903158 148.199579 89.5903158 177.808 119.212211 177.808"></polygon>
            <rect id="Rectangle" fill="#7C3D1D" fill-rule="nonzero" x="89.5903158" y="29.712" width="29.6286316" height="29.6286316"></rect>
            <polygon id="Path" fill="#000000" fill-rule="nonzero" points="89.5903158 207.429895 89.5903158 177.808 59.9347368 177.808 30.2858947 177.808 30.2858947 207.429895 59.9347368 207.429895"></polygon>
            <polygon id="Path" fill="#000000" fill-rule="nonzero" points="89.5903158 59.3406316 89.5903158 29.712 59.9347368 29.712 59.9347368 59.3406316 59.9347368 88.9490526 59.9347368 118.570947 89.5903158 118.570947 89.5903158 88.9490526"></polygon>
            <polygon id="Path" fill="#000000" fill-rule="nonzero" points="30.2858947 414.756211 30.2858947 385.147789 30.2858947 355.525895 30.2858947 325.917474 30.2858947 296.288842 30.2858947 266.666947 30.2858947 237.058526 30.2858947 207.429895 0.657263158 207.429895 0.657263158 237.058526 0.657263158 266.666947 0.657263158 296.288842 0.657263158 325.917474 0.657263158 355.525895 0.657263158 385.147789 0.657263158 414.756211 0.657263158 444.384842 0.657263158 474.013474 30.2858947 474.013474 30.2858947 444.384842"></polygon>
        </g>
    </g>
</svg>