<svg xmlns="http://www.w3.org/2000/svg" width="512" height="512" viewBox="0 0 512 512">
  <g fill="none" fill-rule="evenodd" transform="translate(0 88)">
    <path fill="#C5C6C6" d="M497.808102,301.304904 L497.808102,320.955224 L14.1918977,320.955224 L14.1918977,301.304904 L497.808102,301.304904 Z M58.9509595,243.445629 L451.957356,243.445629 L451.957356,254.362473 L463.965885,254.362473 L463.965885,265.279318 L473.791045,265.279318 L473.791045,276.196162 L486.891258,276.196162 L486.891258,287.113006 L26.2004264,287.113006 L26.2004264,276.196162 L37.1172708,276.196162 L37.1172708,265.279318 L48.0341151,265.279318 L48.0341151,254.362473 L58.9509595,254.362473 L58.9509595,243.445629 Z"/>
    <rect width="323.139" height="10.917" x="93.885" y="254.362" fill="#25556A"/>
    <path fill="#303C49" d="M497.808102,320.955224 L497.808102,335.147122 L14.1918977,335.147122 L14.1918977,320.955224 L497.808102,320.955224 Z M14.1918977,301.304904 L14.1918977,320.955224 L0,320.955224 L0,301.304904 L14.1918977,301.304904 Z M512,301.304904 L512,320.955224 L497.808102,320.955224 L497.808102,301.304904 L512,301.304904 Z M15.2835821,276.196162 L26.2004264,276.196162 L26.2004264,287.113006 L486.891258,287.113006 L486.891258,276.196162 L497.808102,276.196162 L497.808102,301.304904 L15.2835821,301.304904 L15.2835821,276.196162 Z M37.1172708,265.279318 L37.1172708,276.196162 L26.2004264,276.196162 L26.2004264,265.279318 L37.1172708,265.279318 Z M484.707889,265.279318 L484.707889,276.196162 L473.791045,276.196162 L473.791045,265.279318 L484.707889,265.279318 Z M93.8848614,254.362473 L93.8848614,265.279318 L417.023454,265.279318 L417.023454,254.362473 L427.940299,254.362473 L427.940299,265.279318 L439.948827,265.279318 L439.948827,276.196162 L72.0511727,276.196162 L72.0511727,265.279318 L82.9680171,265.279318 L82.9680171,254.362473 L93.8848614,254.362473 Z M473.791045,254.362473 L473.791045,265.279318 L462.8742,265.279318 L462.8742,254.362473 L473.791045,254.362473 Z M48.0341151,254.362473 L48.0341151,265.279318 L37.1172708,265.279318 L37.1172708,254.362473 L48.0341151,254.362473 Z M462.8742,243.445629 L462.8742,254.362473 L451.957356,254.362473 L451.957356,243.445629 L462.8742,243.445629 Z M58.9509595,243.445629 L58.9509595,254.362473 L48.0341151,254.362473 L48.0341151,243.445629 L58.9509595,243.445629 Z M93.8848614,219.428571 L93.8848614,242.353945 L60.0426439,242.353945 L60.0426439,219.428571 L93.8848614,219.428571 Z"/>
    <path fill="#303C49" d="M82.9680171,219.428571 L60.0426439,219.428571 L60.0426439,22.9253731 L72.0506439,22.925 L72.0511727,12.0085288 L82.9680171,12.0085288 L82.9680171,0 L427.940299,0 L427.940299,12.0085288 L439.948827,12.0085288 L439.948644,22.925 L450.865672,22.9253731 L450.865672,241.26226 L417.023454,241.26226 L417.023454,254.362473 L93.8848614,254.362473 L93.8848614,219.428571 L429.031983,219.428571 L429.031644,34.933 L82.9676439,34.933 L82.9680171,219.428571 Z"/>
    <rect width="12.009" height="12.009" x="249.996" y="6.55" fill="#25556A"/>
    <rect width="346" height="185" x="83" y="35" fill="#EFEFEF"/>
    <g fill="#9B9B9B" stroke="#979797" transform="translate(112 63)">
      <rect width="123" height="9"/>
      <rect width="219" height="9" y="14"/>
      <rect width="138" height="9" y="84"/>
      <rect width="138" height="9" x="150" y="84"/>
      <rect width="219" height="9" y="28"/>
      <rect width="138" height="9" y="98"/>
      <rect width="138" height="9" x="150" y="98"/>
      <rect width="219" height="9" y="42"/>
      <rect width="138" height="9" y="112"/>
      <rect width="138" height="9" x="150" y="112"/>
      <rect width="86" height="9" y="56"/>
    </g>
  </g>
</svg>
