<?xml version="1.0" encoding="UTF-8"?>
<svg width="512px" height="512px" viewBox="0 0 512 512" version="1.1" xmlns="http://www.w3.org/2000/svg" xmlns:xlink="http://www.w3.org/1999/xlink">
    <title>Artboard</title>
    <g id="Artboard" stroke="none" stroke-width="1" fill="none" fill-rule="evenodd">
        <g id="Laptop" transform="translate(0.000000, 88.000000)">
            <path d="M497.808102,301.304904 L497.808102,320.955224 L14.1918977,320.955224 L14.1918977,301.304904 L497.808102,301.304904 Z M58.9509595,243.445629 L451.957356,243.445629 L451.957356,254.362473 L463.965885,254.362473 L463.965885,265.279318 L473.791045,265.279318 L473.791045,276.196162 L486.891258,276.196162 L486.891258,287.113006 L26.2004264,287.113006 L26.2004264,276.196162 L37.1172708,276.196162 L37.1172708,265.279318 L48.0341151,265.279318 L48.0341151,254.362473 L58.9509595,254.362473 L58.9509595,243.445629 Z" id="Housing" fill="#C5C6C6"></path>
            <rect id="Keyboard" fill="#25556A" x="93.8848614" y="254.362473" width="323.138593" height="10.9168443"></rect>
            <path d="M497.808102,320.955224 L497.808102,335.147122 L14.1918977,335.147122 L14.1918977,320.955224 L497.808102,320.955224 Z M14.1918977,301.304904 L14.1918977,320.955224 L0,320.955224 L0,301.304904 L14.1918977,301.304904 Z M512,301.304904 L512,320.955224 L497.808102,320.955224 L497.808102,301.304904 L512,301.304904 Z M15.2835821,276.196162 L26.2004264,276.196162 L26.2004264,287.113006 L486.891258,287.113006 L486.891258,276.196162 L497.808102,276.196162 L497.808102,301.304904 L15.2835821,301.304904 L15.2835821,276.196162 Z M37.1172708,265.279318 L37.1172708,276.196162 L26.2004264,276.196162 L26.2004264,265.279318 L37.1172708,265.279318 Z M484.707889,265.279318 L484.707889,276.196162 L473.791045,276.196162 L473.791045,265.279318 L484.707889,265.279318 Z M93.8848614,254.362473 L93.8848614,265.279318 L417.023454,265.279318 L417.023454,254.362473 L427.940299,254.362473 L427.940299,265.279318 L439.948827,265.279318 L439.948827,276.196162 L72.0511727,276.196162 L72.0511727,265.279318 L82.9680171,265.279318 L82.9680171,254.362473 L93.8848614,254.362473 Z M473.791045,254.362473 L473.791045,265.279318 L462.8742,265.279318 L462.8742,254.362473 L473.791045,254.362473 Z M48.0341151,254.362473 L48.0341151,265.279318 L37.1172708,265.279318 L37.1172708,254.362473 L48.0341151,254.362473 Z M462.8742,243.445629 L462.8742,254.362473 L451.957356,254.362473 L451.957356,243.445629 L462.8742,243.445629 Z M58.9509595,243.445629 L58.9509595,254.362473 L48.0341151,254.362473 L48.0341151,243.445629 L58.9509595,243.445629 Z M93.8848614,219.428571 L93.8848614,242.353945 L60.0426439,242.353945 L60.0426439,219.428571 L93.8848614,219.428571 Z" id="Border" fill="#303C49"></path>
            <path d="M82.9680171,219.428571 L60.0426439,219.428571 L60.0426439,22.9253731 L72.0506439,22.925 L72.0511727,12.0085288 L82.9680171,12.0085288 L82.9680171,0 L427.940299,0 L427.940299,12.0085288 L439.948827,12.0085288 L439.948644,22.925 L450.865672,22.9253731 L450.865672,241.26226 L417.023454,241.26226 L417.023454,254.362473 L93.8848614,254.362473 L93.8848614,219.428571 L429.031983,219.428571 L429.031644,34.933 L82.9676439,34.933 L82.9680171,219.428571 Z" id="Monitor" fill="#303C49"></path>
            <rect id="Cam" fill="#25556A" x="249.995736" y="6.55010661" width="12.0085288" height="12.0085288"></rect>
            <rect id="Monitor" fill="#EFEFEF" x="83" y="35" width="346" height="185"></rect>
            <path d="M206.5,91.712 L187.996,91.712 L187.996,136.712 L179.5,136.712 L179.5,91.712 L160.996,91.712 L160.996,136.712 L152.5,136.712 L152.5,91.712 L133.996,91.712 L133.996,146.216 L133.996,155.288 L142.996,155.288 L197.5,155.288 L197.5,155 L206.5,155 L206.5,146.216 L206.5,91.712 Z M287.5,91.712 L268.996,91.712 L268.996,136.712 L260.5,136.712 L260.5,91.712 L241.996,91.712 L241.996,136.712 L233.5,136.712 L233.5,91.712 L214.996,91.712 L214.996,146.216 L214.996,155.288 L223.996,155.288 L278.5,155.288 L278.5,155 L287.5,155 L287.5,146.216 L287.5,91.712 Z M368.5,91.712 L349.996,91.712 L349.996,136.712 L341.5,136.712 L341.5,91.712 L322.996,91.712 L322.996,136.712 L314.5,136.712 L314.5,91.712 L295.996,91.712 L295.996,146.216 L295.996,155.288 L304.996,155.288 L359.5,155.288 L359.5,155 L368.5,155 L368.5,146.216 L368.5,91.712 Z" id="www" fill="#1BF9D8" fill-rule="nonzero"></path>
        </g>
    </g>
</svg>