<?xml version="1.0" encoding="UTF-8"?>
<svg width="1000px" height="1000px" viewBox="0 0 1000 1000" version="1.1" xmlns="http://www.w3.org/2000/svg" xmlns:xlink="http://www.w3.org/1999/xlink">
    <title>Square</title>
    <g id="Square" stroke="none" stroke-width="1" fill="none" fill-rule="evenodd">
        <g id="LilacGem" transform="translate(244.000000, 327.200000)" fill-rule="nonzero">
            <rect id="Rectangle" fill="#000000" x="481.3952" y="86.3232" width="28.1792" height="28.16"></rect>
            <rect id="Rectangle" fill="#000000" x="453.2352" y="114.4768" width="28.16" height="28.16"></rect>
            <rect id="Rectangle" fill="#000000" x="453.2352" y="58.1824" width="28.16" height="28.1344"></rect>
            <rect id="Rectangle" fill="#000000" x="425.056" y="142.6368" width="28.1792" height="28.1344"></rect>
            <polygon id="Path" fill="#AD509E" points="425.056 114.4768 396.8768 114.4768 368.7232 114.4768 340.544 114.4768 312.3648 114.4768 284.2048 114.4768 256.0256 114.4768 256.0256 142.6368 256.0256 170.7712 256.0256 198.9312 256.0256 227.0912 256.0256 255.2256 256.0256 283.3856 256.0256 311.52 284.2048 311.52 284.2048 283.3856 312.3648 283.3856 312.3648 255.2256 340.544 255.2256 340.544 227.0912 368.7232 227.0912 368.7232 198.9312 396.8768 198.9312 396.8768 170.7712 425.056 170.7712 425.056 142.6368 453.2352 142.6368 453.2352 114.4768"></polygon>
            <rect id="Rectangle" fill="#000000" x="425.056" y="30.0288" width="28.1792" height="28.16"></rect>
            <rect id="Rectangle" fill="#000000" x="396.8768" y="170.7712" width="28.1792" height="28.16"></rect>
            <rect id="Rectangle" fill="#000000" x="368.7232" y="198.9312" width="28.16" height="28.16"></rect>
            <polygon id="Path" fill="#FFFFFF" points="368.7232 30.0288 340.544 30.0288 312.3648 30.0288 284.2048 30.0288 284.2048 58.1824 312.3648 58.1824 312.3648 86.3232 340.544 86.3232 340.544 114.4768 368.7232 114.4768 396.8768 114.4768 425.056 114.4768 453.2352 114.4768 481.3952 114.4768 481.3952 86.3232 453.2352 86.3232 453.2352 58.1824 425.056 58.1824 425.056 30.0288 396.8768 30.0288"></polygon>
            <rect id="Rectangle" fill="#000000" x="340.544" y="227.0912" width="28.1792" height="28.1344"></rect>
            <rect id="Rectangle" fill="#000000" x="312.3648" y="255.2256" width="28.1792" height="28.16"></rect>
            <rect id="Rectangle" fill="#000000" x="284.2048" y="283.3856" width="28.16" height="28.1344"></rect>
            <polygon id="Path" fill="#000000" points="227.8464 311.52 227.8464 339.68 256.0256 339.68 284.2048 339.68 284.2048 311.52 256.0256 311.52"></polygon>
            <polygon id="Path" fill="#61256D" points="256.0256 283.3856 256.0256 255.2256 256.0256 227.0912 256.0256 198.9312 256.0256 170.7712 256.0256 142.6368 256.0256 114.4768 284.2048 114.4768 312.3648 114.4768 340.544 114.4768 340.544 86.3232 312.3648 86.3232 312.3648 58.1824 284.2048 58.1824 284.2048 30.0288 256.0256 30.0288 227.8464 30.0288 227.8464 58.1824 199.6864 58.1824 199.6864 86.3232 171.5072 86.3232 171.5072 114.4768 143.328 114.4768 115.168 114.4768 86.9888 114.4768 58.8096 114.4768 58.8096 142.6368 86.9888 142.6368 86.9888 170.7712 115.168 170.7712 115.168 198.9312 143.328 198.9312 143.328 227.0912 171.5072 227.0912 171.5072 255.2256 199.6864 255.2256 199.6864 283.3856 227.8464 283.3856 227.8464 311.52 256.0256 311.52"></polygon>
            <rect id="Rectangle" fill="#000000" x="199.6864" y="283.3856" width="28.16" height="28.1344"></rect>
            <rect id="Rectangle" fill="#000000" x="171.5072" y="255.2256" width="28.1792" height="28.16"></rect>
            <rect id="Rectangle" fill="#000000" x="143.328" y="227.0912" width="28.1792" height="28.1344"></rect>
            <rect id="Rectangle" fill="#000000" x="115.168" y="198.9312" width="28.16" height="28.16"></rect>
            <polygon id="Path" fill="#000000" points="143.328 30.0288 171.5072 30.0288 199.6864 30.0288 227.8464 30.0288 256.0256 30.0288 284.2048 30.0288 312.3648 30.0288 340.544 30.0288 368.7232 30.0288 396.8768 30.0288 425.056 30.0288 425.056 1.8688 396.8768 1.8688 368.7232 1.8688 340.544 1.8688 312.3648 1.8688 284.2048 1.8688 256.0256 1.8688 227.8464 1.8688 199.6864 1.8688 171.5072 1.8688 143.328 1.8688 115.168 1.8688 86.9888 1.8688 86.9888 30.0288 115.168 30.0288"></polygon>
            <rect id="Rectangle" fill="#000000" x="86.9888" y="170.7712" width="28.1792" height="28.16"></rect>
            <rect id="Rectangle" fill="#000000" x="58.8096" y="142.6368" width="28.1792" height="28.1344"></rect>
            <rect id="Rectangle" fill="#000000" x="58.8096" y="30.0288" width="28.1792" height="28.16"></rect>
            <rect id="Rectangle" fill="#000000" x="30.656" y="114.4768" width="28.16" height="28.16"></rect>
            <polygon id="Path" fill="#AD509E" points="30.656 86.3232 30.656 114.4768 58.8096 114.4768 86.9888 114.4768 115.168 114.4768 143.328 114.4768 171.5072 114.4768 171.5072 86.3232 199.6864 86.3232 199.6864 58.1824 227.8464 58.1824 227.8464 30.0288 199.6864 30.0288 171.5072 30.0288 143.328 30.0288 115.168 30.0288 86.9888 30.0288 86.9888 58.1824 58.8096 58.1824 58.8096 86.3232"></polygon>
            <rect id="Rectangle" fill="#000000" x="30.656" y="58.1824" width="28.16" height="28.1344"></rect>
            <rect id="Rectangle" fill="#000000" x="2.4704" y="86.3232" width="28.1792" height="28.16"></rect>
            <g id="Group">
                <rect id="Rectangle" fill="#000000" x="481.3952" y="86.3232" width="28.1792" height="28.16"></rect>
                <rect id="Rectangle" fill="#000000" x="453.2352" y="114.4768" width="28.16" height="28.16"></rect>
                <rect id="Rectangle" fill="#FFFFFF" x="453.2352" y="86.3232" width="28.16" height="28.16"></rect>
                <rect id="Rectangle" fill="#000000" x="453.2352" y="58.1824" width="28.16" height="28.1344"></rect>
                <rect id="Rectangle" fill="#000000" x="425.056" y="142.6368" width="28.1792" height="28.1344"></rect>
                <rect id="Rectangle" fill="#AD509E" x="425.056" y="114.4768" width="28.1792" height="28.16"></rect>
                <rect id="Rectangle" fill="#FFFFFF" x="425.056" y="86.3232" width="28.1792" height="28.16"></rect>
                <rect id="Rectangle" fill="#FFFFFF" x="425.056" y="58.1824" width="28.1792" height="28.1344"></rect>
                <rect id="Rectangle" fill="#000000" x="425.056" y="30.0288" width="28.1792" height="28.16"></rect>
                <rect id="Rectangle" fill="#000000" x="396.8768" y="170.7712" width="28.1792" height="28.16"></rect>
                <rect id="Rectangle" fill="#AD509E" x="396.8768" y="142.6368" width="28.1792" height="28.1344"></rect>
                <rect id="Rectangle" fill="#AD509E" x="396.8768" y="114.4768" width="28.1792" height="28.16"></rect>
                <rect id="Rectangle" fill="#FFFFFF" x="396.8768" y="86.3232" width="28.1792" height="28.16"></rect>
                <rect id="Rectangle" fill="#FFFFFF" x="396.8768" y="58.1824" width="28.1792" height="28.1344"></rect>
                <rect id="Rectangle" fill="#FFFFFF" x="396.8768" y="30.0288" width="28.1792" height="28.16"></rect>
                <rect id="Rectangle" fill="#000000" x="396.8768" y="1.8688" width="28.1792" height="28.16"></rect>
                <rect id="Rectangle" fill="#000000" x="368.7232" y="198.9312" width="28.16" height="28.16"></rect>
                <rect id="Rectangle" fill="#AD509E" x="368.7232" y="170.7712" width="28.16" height="28.16"></rect>
                <rect id="Rectangle" fill="#AD509E" x="368.7232" y="142.6368" width="28.16" height="28.1344"></rect>
                <rect id="Rectangle" fill="#AD509E" x="368.7232" y="114.4768" width="28.16" height="28.16"></rect>
                <rect id="Rectangle" fill="#FFFFFF" x="368.7232" y="86.3232" width="28.16" height="28.16"></rect>
                <rect id="Rectangle" fill="#FFFFFF" x="368.7232" y="58.1824" width="28.16" height="28.1344"></rect>
                <rect id="Rectangle" fill="#FFFFFF" x="368.7232" y="30.0288" width="28.16" height="28.16"></rect>
                <rect id="Rectangle" fill="#000000" x="368.7232" y="1.8688" width="28.16" height="28.16"></rect>
                <rect id="Rectangle" fill="#000000" x="340.544" y="227.0912" width="28.1792" height="28.1344"></rect>
                <rect id="Rectangle" fill="#AD509E" x="340.544" y="198.9312" width="28.1792" height="28.16"></rect>
                <rect id="Rectangle" fill="#AD509E" x="340.544" y="170.7712" width="28.1792" height="28.16"></rect>
                <rect id="Rectangle" fill="#AD509E" x="340.544" y="142.6368" width="28.1792" height="28.1344"></rect>
                <rect id="Rectangle" fill="#AD509E" x="340.544" y="114.4768" width="28.1792" height="28.16"></rect>
                <rect id="Rectangle" fill="#FFFFFF" x="340.544" y="86.3232" width="28.1792" height="28.16"></rect>
                <rect id="Rectangle" fill="#FFFFFF" x="340.544" y="58.1824" width="28.1792" height="28.1344"></rect>
                <rect id="Rectangle" fill="#FFFFFF" x="340.544" y="30.0288" width="28.1792" height="28.16"></rect>
                <rect id="Rectangle" fill="#000000" x="340.544" y="1.8688" width="28.1792" height="28.16"></rect>
                <rect id="Rectangle" fill="#000000" x="312.3648" y="255.2256" width="28.1792" height="28.16"></rect>
                <rect id="Rectangle" fill="#AD509E" x="312.3648" y="227.0912" width="28.1792" height="28.1344"></rect>
                <rect id="Rectangle" fill="#AD509E" x="312.3648" y="198.9312" width="28.1792" height="28.16"></rect>
                <rect id="Rectangle" fill="#AD509E" x="312.3648" y="170.7712" width="28.1792" height="28.16"></rect>
                <rect id="Rectangle" fill="#AD509E" x="312.3648" y="142.6368" width="28.1792" height="28.1344"></rect>
                <rect id="Rectangle" fill="#AD509E" x="312.3648" y="114.4768" width="28.1792" height="28.16"></rect>
                <rect id="Rectangle" fill="#61256D" x="312.3648" y="86.3232" width="28.1792" height="28.16"></rect>
                <rect id="Rectangle" fill="#FFFFFF" x="312.3648" y="58.1824" width="28.1792" height="28.1344"></rect>
                <rect id="Rectangle" fill="#FFFFFF" x="312.3648" y="30.0288" width="28.1792" height="28.16"></rect>
                <rect id="Rectangle" fill="#000000" x="312.3648" y="1.8688" width="28.1792" height="28.16"></rect>
                <rect id="Rectangle" fill="#000000" x="284.2048" y="283.3856" width="28.16" height="28.1344"></rect>
                <rect id="Rectangle" fill="#AD509E" x="284.2048" y="255.2256" width="28.16" height="28.16"></rect>
                <rect id="Rectangle" fill="#AD509E" x="284.2048" y="227.0912" width="28.16" height="28.1344"></rect>
                <rect id="Rectangle" fill="#AD509E" x="284.2048" y="198.9312" width="28.16" height="28.16"></rect>
                <rect id="Rectangle" fill="#AD509E" x="284.2048" y="170.7712" width="28.16" height="28.16"></rect>
                <rect id="Rectangle" fill="#AD509E" x="284.2048" y="142.6368" width="28.16" height="28.1344"></rect>
                <rect id="Rectangle" fill="#AD509E" x="284.2048" y="114.4768" width="28.16" height="28.16"></rect>
                <rect id="Rectangle" fill="#61256D" x="284.2048" y="86.3232" width="28.16" height="28.16"></rect>
                <rect id="Rectangle" fill="#61256D" x="284.2048" y="58.1824" width="28.16" height="28.1344"></rect>
                <rect id="Rectangle" fill="#FFFFFF" x="284.2048" y="30.0288" width="28.16" height="28.16"></rect>
                <rect id="Rectangle" fill="#000000" x="284.2048" y="1.8688" width="28.16" height="28.16"></rect>
                <rect id="Rectangle" fill="#000000" x="256.0256" y="311.52" width="28.1792" height="28.16"></rect>
                <rect id="Rectangle" fill="#AD509E" x="256.0256" y="283.3856" width="28.1792" height="28.1344"></rect>
                <rect id="Rectangle" fill="#AD509E" x="256.0256" y="255.2256" width="28.1792" height="28.16"></rect>
                <rect id="Rectangle" fill="#AD509E" x="256.0256" y="227.0912" width="28.1792" height="28.1344"></rect>
                <rect id="Rectangle" fill="#AD509E" x="256.0256" y="198.9312" width="28.1792" height="28.16"></rect>
                <rect id="Rectangle" fill="#AD509E" x="256.0256" y="170.7712" width="28.1792" height="28.16"></rect>
                <rect id="Rectangle" fill="#AD509E" x="256.0256" y="142.6368" width="28.1792" height="28.1344"></rect>
                <rect id="Rectangle" fill="#AD509E" x="256.0256" y="114.4768" width="28.1792" height="28.16"></rect>
                <rect id="Rectangle" fill="#61256D" x="256.0256" y="86.3232" width="28.1792" height="28.16"></rect>
                <rect id="Rectangle" fill="#61256D" x="256.0256" y="58.1824" width="28.1792" height="28.1344"></rect>
                <rect id="Rectangle" fill="#61256D" x="256.0256" y="30.0288" width="28.1792" height="28.16"></rect>
                <rect id="Rectangle" fill="#000000" x="256.0256" y="1.8688" width="28.1792" height="28.16"></rect>
                <rect id="Rectangle" fill="#000000" x="227.8464" y="311.52" width="28.1792" height="28.16"></rect>
                <rect id="Rectangle" fill="#61256D" x="227.8464" y="283.3856" width="28.1792" height="28.1344"></rect>
                <rect id="Rectangle" fill="#61256D" x="227.8464" y="255.2256" width="28.1792" height="28.16"></rect>
                <rect id="Rectangle" fill="#61256D" x="227.8464" y="227.0912" width="28.1792" height="28.1344"></rect>
                <rect id="Rectangle" fill="#61256D" x="227.8464" y="198.9312" width="28.1792" height="28.16"></rect>
                <rect id="Rectangle" fill="#61256D" x="227.8464" y="170.7712" width="28.1792" height="28.16"></rect>
                <rect id="Rectangle" fill="#61256D" x="227.8464" y="142.6368" width="28.1792" height="28.1344"></rect>
                <rect id="Rectangle" fill="#61256D" x="227.8464" y="114.4768" width="28.1792" height="28.16"></rect>
                <rect id="Rectangle" fill="#61256D" x="227.8464" y="86.3232" width="28.1792" height="28.16"></rect>
                <rect id="Rectangle" fill="#61256D" x="227.8464" y="58.1824" width="28.1792" height="28.1344"></rect>
                <rect id="Rectangle" fill="#61256D" x="227.8464" y="30.0288" width="28.1792" height="28.16"></rect>
                <rect id="Rectangle" fill="#000000" x="227.8464" y="1.8688" width="28.1792" height="28.16"></rect>
                <rect id="Rectangle" fill="#000000" x="199.6864" y="283.3856" width="28.16" height="28.1344"></rect>
                <rect id="Rectangle" fill="#61256D" x="199.6864" y="255.2256" width="28.16" height="28.16"></rect>
                <rect id="Rectangle" fill="#61256D" x="199.6864" y="227.0912" width="28.16" height="28.1344"></rect>
                <rect id="Rectangle" fill="#61256D" x="199.6864" y="198.9312" width="28.16" height="28.16"></rect>
                <rect id="Rectangle" fill="#61256D" x="199.6864" y="170.7712" width="28.16" height="28.16"></rect>
                <rect id="Rectangle" fill="#61256D" x="199.6864" y="142.6368" width="28.16" height="28.1344"></rect>
                <rect id="Rectangle" fill="#61256D" x="199.6864" y="114.4768" width="28.16" height="28.16"></rect>
                <rect id="Rectangle" fill="#61256D" x="199.6864" y="86.3232" width="28.16" height="28.16"></rect>
                <rect id="Rectangle" fill="#61256D" x="199.6864" y="58.1824" width="28.16" height="28.1344"></rect>
                <rect id="Rectangle" fill="#AD509E" x="199.6864" y="30.0288" width="28.16" height="28.16"></rect>
                <rect id="Rectangle" fill="#000000" x="199.6864" y="1.8688" width="28.16" height="28.16"></rect>
                <rect id="Rectangle" fill="#000000" x="171.5072" y="255.2256" width="28.1792" height="28.16"></rect>
                <rect id="Rectangle" fill="#61256D" x="171.5072" y="227.0912" width="28.1792" height="28.1344"></rect>
                <rect id="Rectangle" fill="#61256D" x="171.5072" y="198.9312" width="28.1792" height="28.16"></rect>
                <rect id="Rectangle" fill="#61256D" x="171.5072" y="170.7712" width="28.1792" height="28.16"></rect>
                <rect id="Rectangle" fill="#61256D" x="171.5072" y="142.6368" width="28.1792" height="28.1344"></rect>
                <rect id="Rectangle" fill="#61256D" x="171.5072" y="114.4768" width="28.1792" height="28.16"></rect>
                <rect id="Rectangle" fill="#61256D" x="171.5072" y="86.3232" width="28.1792" height="28.16"></rect>
                <rect id="Rectangle" fill="#AD509E" x="171.5072" y="58.1824" width="28.1792" height="28.1344"></rect>
                <rect id="Rectangle" fill="#AD509E" x="171.5072" y="30.0288" width="28.1792" height="28.16"></rect>
                <rect id="Rectangle" fill="#000000" x="171.5072" y="1.8688" width="28.1792" height="28.16"></rect>
                <rect id="Rectangle" fill="#000000" x="143.328" y="227.0912" width="28.1792" height="28.1344"></rect>
                <rect id="Rectangle" fill="#61256D" x="143.328" y="198.9312" width="28.1792" height="28.16"></rect>
                <rect id="Rectangle" fill="#61256D" x="143.328" y="170.7712" width="28.1792" height="28.16"></rect>
                <rect id="Rectangle" fill="#61256D" x="143.328" y="142.6368" width="28.1792" height="28.1344"></rect>
                <rect id="Rectangle" fill="#61256D" x="143.328" y="114.4768" width="28.1792" height="28.16"></rect>
                <rect id="Rectangle" fill="#AD509E" x="143.328" y="86.3232" width="28.1792" height="28.16"></rect>
                <rect id="Rectangle" fill="#AD509E" x="143.328" y="58.1824" width="28.1792" height="28.1344"></rect>
                <rect id="Rectangle" fill="#AD509E" x="143.328" y="30.0288" width="28.1792" height="28.16"></rect>
                <rect id="Rectangle" fill="#000000" x="143.328" y="1.8688" width="28.1792" height="28.16"></rect>
                <rect id="Rectangle" fill="#000000" x="115.168" y="198.9312" width="28.16" height="28.16"></rect>
                <rect id="Rectangle" fill="#61256D" x="115.168" y="170.7712" width="28.16" height="28.16"></rect>
                <rect id="Rectangle" fill="#61256D" x="115.168" y="142.6368" width="28.16" height="28.1344"></rect>
                <rect id="Rectangle" fill="#61256D" x="115.168" y="114.4768" width="28.16" height="28.16"></rect>
                <rect id="Rectangle" fill="#AD509E" x="115.168" y="86.3232" width="28.16" height="28.16"></rect>
                <rect id="Rectangle" fill="#AD509E" x="115.168" y="58.1824" width="28.16" height="28.1344"></rect>
                <rect id="Rectangle" fill="#AD509E" x="115.168" y="30.0288" width="28.16" height="28.16"></rect>
                <rect id="Rectangle" fill="#000000" x="115.168" y="1.8688" width="28.16" height="28.16"></rect>
                <rect id="Rectangle" fill="#000000" x="86.9888" y="170.7712" width="28.1792" height="28.16"></rect>
                <rect id="Rectangle" fill="#61256D" x="86.9888" y="142.6368" width="28.1792" height="28.1344"></rect>
                <rect id="Rectangle" fill="#61256D" x="86.9888" y="114.4768" width="28.1792" height="28.16"></rect>
                <rect id="Rectangle" fill="#AD509E" x="86.9888" y="86.3232" width="28.1792" height="28.16"></rect>
                <rect id="Rectangle" fill="#AD509E" x="86.9888" y="58.1824" width="28.1792" height="28.1344"></rect>
                <rect id="Rectangle" fill="#AD509E" x="86.9888" y="30.0288" width="28.1792" height="28.16"></rect>
                <rect id="Rectangle" fill="#000000" x="86.9888" y="1.8688" width="28.1792" height="28.16"></rect>
                <rect id="Rectangle" fill="#000000" x="58.8096" y="142.6368" width="28.1792" height="28.1344"></rect>
                <rect id="Rectangle" fill="#61256D" x="58.8096" y="114.4768" width="28.1792" height="28.16"></rect>
                <rect id="Rectangle" fill="#AD509E" x="58.8096" y="86.3232" width="28.1792" height="28.16"></rect>
                <rect id="Rectangle" fill="#AD509E" x="58.8096" y="58.1824" width="28.1792" height="28.1344"></rect>
                <rect id="Rectangle" fill="#000000" x="58.8096" y="30.0288" width="28.1792" height="28.16"></rect>
                <rect id="Rectangle" fill="#000000" x="30.656" y="114.4768" width="28.16" height="28.16"></rect>
                <rect id="Rectangle" fill="#AD509E" x="30.656" y="86.3232" width="28.16" height="28.16"></rect>
                <rect id="Rectangle" fill="#000000" x="30.656" y="58.1824" width="28.16" height="28.1344"></rect>
                <rect id="Rectangle" fill="#000000" x="2.4704" y="86.3232" width="28.1792" height="28.16"></rect>
            </g>
        </g>
    </g>
</svg>