<?xml version="1.0" encoding="UTF-8"?>
<svg width="512px" height="512px" viewBox="0 0 512 512" version="1.1" xmlns="http://www.w3.org/2000/svg" xmlns:xlink="http://www.w3.org/1999/xlink">
    <title>Artboard</title>
    <g id="Artboard" stroke="none" stroke-width="1" fill="none" fill-rule="evenodd">
        <g id="Magic-Wand">
            <polyline id="Fill-1" fill="#9A502C" points="174.917288 282.539396 40.4188262 417.037858 53.867943 430.486974 188.366405 295.988513 174.917288 282.539396"></polyline>
            <polyline id="Fill-2" fill="#A95F3D" points="295.965174 161.490051 174.917288 282.539396 188.366405 295.988513 309.415749 174.940627 295.965174 161.490051"></polyline>
            <polyline id="Fill-3" fill="#F8D1A4" points="417.059738 174.985846 349.764558 107.690667 322.864866 134.590359 336.315442 148.040934 349.764558 134.590359 417.059738 201.885538 430.510313 188.436422 417.059738 174.985846"></polyline>
            <polyline id="Fill-4" fill="#F8D1A4" points="336.338781 174.962507 349.787897 188.413083 363.238473 174.962507 336.315442 148.040934 322.864866 161.490051 336.338781 174.962507"></polyline>
            <polyline id="Fill-5" fill="#F2AE65" points="336.338781 228.761892 322.888205 242.212467 336.360661 255.684923 349.811236 242.235806 336.338781 228.761892"></polyline>
            <polyline id="Fill-6" fill="#F2AE65" points="363.238473 201.862199 336.338781 174.962507 322.888205 188.413083 336.338781 201.862199 322.888205 215.312775 336.338781 228.761892 363.238473 201.862199"></polyline>
            <polyline id="Fill-7" fill="#F2AE65" points="363.238473 174.962507 376.68759 161.51339 349.764558 134.590359 336.315442 148.040934 363.238473 174.962507"></polyline>
            <polyline id="Fill-8" fill="#F2AE65" points="309.415749 148.040934 295.965174 134.590359 282.516057 148.040934 269.043601 134.56702 255.593026 148.017595 228.693333 121.117903 215.244217 134.56702 255.616365 174.940627 269.065481 161.490051 282.516057 174.940627 295.965174 161.490051 309.415749 174.940627 336.315442 148.040934 322.864866 134.590359 309.415749 148.040934"></polyline>
            <polyline id="Fill-9" fill="#F2AE65" points="376.664251 107.690667 403.563943 80.7909744 390.114826 67.3418575 349.764558 107.690667 363.215134 121.141242 376.664251 107.690667"></polyline>
            <polyline id="Fill-10" fill="#F2AE65" points="349.764558 107.690667 282.469379 40.3954872 269.020262 53.8460627 309.39241 94.2182108 295.943293 107.667328 322.864866 134.590359 349.764558 107.690667"></polyline>
            <polyline id="Fill-11" fill="#343534" points="430.510313 188.436422 417.059738 201.885538 430.533652 215.357994 443.982769 201.908877 430.510313 188.436422"></polyline>
            <polyline id="Fill-12" fill="#343534" points="349.811236 269.135499 363.260353 255.684923 349.811236 242.235806 336.360661 255.684923 349.811236 269.135499"></polyline>
            <polyline id="Fill-13" fill="#343534" points="390.160046 201.885538 403.610621 215.336114 417.059738 201.885538 403.610621 188.436422 390.160046 201.885538"></polyline>
            <polyline id="Fill-14" fill="#343534" points="309.439088 228.761892 295.988513 215.312775 309.439088 201.862199 295.965174 188.389744 53.867943 430.486974 40.4188262 417.037858 282.516057 174.940627 269.065481 161.490051 255.616365 174.940627 215.244217 134.56702 201.793641 148.017595 242.165789 188.389744 13.5191339 417.037858 53.8912821 457.410006 282.539396 228.761892 322.911544 269.135499 336.360661 255.684923 309.439088 228.761892"></polyline>
            <polyline id="Fill-15" fill="#343534" points="363.238473 174.962507 349.787897 188.413083 363.238473 201.862199 336.338781 228.761892 349.811236 242.235806 390.160046 201.885538 363.238473 174.962507"></polyline>
            <polyline id="Fill-16" fill="#343534" points="376.68759 134.613698 430.510313 188.436422 443.95943 174.985846 403.587282 134.613698 417.037858 121.163123 403.587282 107.714006 376.68759 134.613698"></polyline>
            <polyline id="Fill-17" fill="#343534" points="403.587282 107.714006 417.036399 94.2634302 403.563943 80.7909744 390.114826 94.2415499 403.587282 107.714006"></polyline>
            <polyline id="Fill-18" fill="#343534" points="417.014519 67.3418575 403.563943 53.8912821 390.114826 67.3418575 403.563943 80.7909744 417.014519 67.3418575"></polyline>
            <polyline id="Fill-19" fill="#343534" points="390.114826 67.3418575 376.664251 53.8912821 363.215134 67.3418575 376.664251 80.7909744 390.114826 67.3418575"></polyline>
            <polyline id="Fill-20" fill="#343534" points="255.593026 121.117903 269.043601 107.667328 282.492718 121.117903 295.943293 107.667328 269.043601 80.7676353 228.693333 121.117903 242.143909 134.56702 255.593026 121.117903"></polyline>
            <polyline id="Fill-21" fill="#343534" points="309.39241 67.3185185 336.315442 94.2415499 363.215134 67.3418575 349.742678 53.867943 336.292103 67.3185185 295.919954 26.9463704 282.469379 40.3954872 309.39241 67.3185185"></polyline>
            <polyline id="Fill-22" fill="#343534" points="215.220877 107.645447 201.770302 121.094564 215.244217 134.56702 228.693333 121.117903 215.220877 107.645447"></polyline>
            <polyline id="Fill-23" fill="#343534" points="269.020262 53.8460627 255.569687 67.2951795 269.043601 80.7676353 282.492718 67.3185185 269.020262 53.8460627"></polyline>
            <polyline id="Fill-24" fill="#343534" points="269.020262 26.9463704 255.569687 40.3954872 269.020262 53.8460627 282.469379 40.3954872 269.020262 26.9463704"></polyline>
            <polyline id="Fill-25" fill="#EB8B2D" points="497.805493 255.731601 511.25461 242.281026 497.805493 228.831909 484.354917 242.281026 470.882462 228.80857 457.433345 242.257687 470.905801 255.731601 457.455225 269.180718 470.905801 282.631293 484.354917 269.180718 497.805493 282.631293 511.25461 269.180718 497.805493 255.731601"></polyline>
            <polyline id="Fill-26" fill="#EB8B2D" points="201.885538 470.905801 188.436422 457.455225 174.985846 470.905801 161.51339 457.433345 148.062815 470.882462 161.536729 484.354917 148.086154 497.805493 161.536729 511.25461 174.985846 497.805493 188.436422 511.25461 201.885538 497.805493 188.436422 484.354917 201.885538 470.905801"></polyline>
            <polyline id="Fill-27" fill="#EB8B2D" points="309.484308 363.307031 296.035191 349.856456 282.584615 363.307031 296.035191 376.756148 309.484308 363.307031"></polyline>
            <polyline id="Fill-28" fill="#EB8B2D" points="376.68759 161.51339 363.238473 174.962507 390.160046 201.885538 403.610621 188.436422 376.68759 161.51339"></polyline>
            <polyline id="Fill-29" fill="#EB8B2D" points="336.338781 201.862199 322.888205 188.413083 336.338781 174.962507 322.864866 161.490051 295.965174 188.389744 309.439088 201.862199 295.988513 215.312775 322.888205 242.212467 336.338781 228.761892 322.888205 215.312775 336.338781 201.862199"></polyline>
            <polyline id="Fill-30" fill="#EB8B2D" points="390.138165 121.163123 403.587282 107.714006 390.114826 94.2415499 363.215134 121.141242 376.68759 134.613698 390.138165 121.163123"></polyline>
            <polyline id="Fill-31" fill="#EB8B2D" points="349.764558 80.7909744 336.315442 94.2415499 349.764558 107.690667 376.664251 80.7909744 363.215134 67.3418575 349.764558 80.7909744"></polyline>
            <polyline id="Fill-32" fill="#EB8B2D" points="295.943293 107.667328 282.492718 121.117903 269.043601 107.667328 242.143909 134.56702 255.593026 148.017595 269.043601 134.56702 282.516057 148.040934 295.965174 134.590359 309.415749 148.040934 322.864866 134.590359 295.943293 107.667328"></polyline>
            <polyline id="Fill-33" fill="#EB8B2D" points="295.943293 80.7676353 282.492718 67.3185185 269.043601 80.7676353 295.943293 107.667328 309.39241 94.2182108 295.943293 80.7676353"></polyline>
            <polyline id="Fill-34" fill="#EB8B2D" points="26.9230313 269.043601 40.3721481 282.492718 53.8227236 269.043601 40.3721481 255.593026 26.9230313 269.043601"></polyline>
            <polyline id="Fill-35" fill="#EB8B2D" points="94.1715328 201.793641 107.622108 215.244217 121.071225 201.793641 107.622108 188.344524 94.1715328 201.793641"></polyline>
            <polyline id="Fill-36" fill="#EB8B2D" points="0 269.020262 13.4739145 282.492718 26.9230313 269.043601 13.4505755 255.569687 0 269.020262"></polyline>
            <polyline id="Fill-37" fill="#EB8B2D" points="53.8227236 242.143909 40.3502678 228.669994 26.8996923 242.12057 40.3721481 255.593026 53.8227236 242.143909"></polyline>
            <polyline id="Fill-38" fill="#EB8B2D" points="13.4505755 228.669994 -2.0729224e-14 242.12057 13.4505755 255.569687 26.8996923 242.12057 13.4505755 228.669994"></polyline>
            <polyline id="Fill-39" fill="#EB8B2D" points="174.82539 13.4505755 161.374815 0 147.925698 13.4505755 134.476581 0 121.026006 13.4505755 134.476581 26.8996923 121.026006 40.3502678 134.476581 53.7993846 147.925698 40.3502678 161.398154 53.8227236 174.848729 40.3721481 161.374815 26.8996923 174.82539 13.4505755"></polyline>
        </g>
    </g>
</svg>