<?xml version="1.0" encoding="UTF-8"?>
<svg width="1000px" height="1000px" viewBox="0 0 1000 1000" version="1.1" xmlns="http://www.w3.org/2000/svg" xmlns:xlink="http://www.w3.org/1999/xlink">
    <title>Square</title>
    <g id="Square" stroke="none" stroke-width="1" fill="none" fill-rule="evenodd">
        <g id="RedGem" transform="translate(244.000000, 244.000000)" fill-rule="nonzero">
            <rect id="Rectangle" fill="#000000" x="471.085851" y="242.076657" width="33.6315224" height="33.608597"></rect>
            <rect id="Rectangle" fill="#000000" x="437.454328" y="275.685254" width="33.6315224" height="33.608597"></rect>
            <polygon id="Path" fill="#A91E22" points="437.454328 242.076657 403.845731 242.076657 370.214209 242.076657 336.575045 242.076657 336.575045 275.685254 336.575045 309.286209 302.97409 309.286209 302.97409 342.871881 302.97409 376.480478 302.97409 410.058507 336.575045 410.058507 336.575045 376.480478 370.214209 376.480478 370.214209 342.871881 403.845731 342.871881 403.845731 309.286209 437.454328 309.286209 437.454328 275.685254 471.085851 275.685254 471.085851 242.076657"></polygon>
            <rect id="Rectangle" fill="#000000" x="437.454328" y="208.490985" width="33.6315224" height="33.5780299"></rect>
            <rect id="Rectangle" fill="#000000" x="403.845731" y="309.286209" width="33.608597" height="33.5780299"></rect>
            <rect id="Rectangle" fill="#000000" x="403.845731" y="174.882388" width="33.608597" height="33.608597"></rect>
            <rect id="Rectangle" fill="#000000" x="370.214209" y="342.871881" width="33.6315224" height="33.608597"></rect>
            <rect id="Rectangle" fill="#000000" x="370.214209" y="141.281433" width="33.6315224" height="33.608597"></rect>
            <rect id="Rectangle" fill="#000000" x="336.575045" y="376.480478" width="33.6315224" height="33.5780299"></rect>
            <rect id="Rectangle" fill="#000000" x="336.575045" y="107.695761" width="33.6315224" height="33.5780299"></rect>
            <rect id="Rectangle" fill="#000000" x="302.97409" y="410.058507" width="33.608597" height="33.608597"></rect>
            <polygon id="Path" fill="#FFFFFF" points="302.97409 141.281433 302.97409 174.882388 336.575045 174.882388 336.575045 208.490985 336.575045 242.076657 370.214209 242.076657 403.845731 242.076657 437.454328 242.076657 437.454328 208.490985 403.845731 208.490985 403.845731 174.882388 370.214209 174.882388 370.214209 141.281433 336.575045 141.281433 336.575045 107.695761 302.97409 107.695761"></polygon>
            <rect id="Rectangle" fill="#000000" x="302.97409" y="74.0871642" width="33.608597" height="33.608597"></rect>
            <rect id="Rectangle" fill="#000000" x="269.334925" y="443.667104" width="33.6315224" height="33.608597"></rect>
            <rect id="Rectangle" fill="#A91E22" x="269.334925" y="410.058507" width="33.6315224" height="33.608597"></rect>
            <rect id="Rectangle" fill="#FFFFFF" x="269.334925" y="74.0871642" width="33.6315224" height="33.608597"></rect>
            <rect id="Rectangle" fill="#000000" x="269.334925" y="40.486209" width="33.6315224" height="33.608597"></rect>
            <rect id="Rectangle" fill="#000000" x="235.703403" y="477.275701" width="33.6315224" height="33.5780299"></rect>
            <polygon id="Path" fill="#ED2024" points="269.334925 410.058507 302.97409 410.058507 302.97409 376.480478 302.97409 342.871881 302.97409 309.286209 336.575045 309.286209 336.575045 275.685254 336.575045 242.076657 302.97409 242.076657 269.334925 242.076657 235.703403 242.076657 202.102448 242.076657 168.463284 242.076657 168.463284 275.685254 168.463284 309.286209 202.102448 309.286209 202.102448 342.871881 202.102448 376.480478 202.102448 410.058507 235.703403 410.058507 235.703403 443.667104 235.703403 477.275701 269.334925 477.275701 269.334925 443.667104"></polygon>
            <polygon id="Path" fill="#A91E22" points="235.703403 107.695761 202.102448 107.695761 202.102448 141.281433 202.102448 174.882388 168.463284 174.882388 168.463284 208.490985 168.463284 242.076657 202.102448 242.076657 235.703403 242.076657 269.334925 242.076657 302.97409 242.076657 336.575045 242.076657 336.575045 208.490985 336.575045 174.882388 302.97409 174.882388 302.97409 141.281433 302.97409 107.695761 269.334925 107.695761 269.334925 74.0871642 269.334925 40.486209 235.703403 40.486209 235.703403 74.0871642"></polygon>
            <rect id="Rectangle" fill="#000000" x="235.703403" y="6.90053731" width="33.6315224" height="33.5780299"></rect>
            <rect id="Rectangle" fill="#000000" x="202.102448" y="443.667104" width="33.608597" height="33.608597"></rect>
            <rect id="Rectangle" fill="#A91E22" x="202.102448" y="410.058507" width="33.608597" height="33.608597"></rect>
            <rect id="Rectangle" fill="#ED2024" x="202.102448" y="74.0871642" width="33.608597" height="33.608597"></rect>
            <rect id="Rectangle" fill="#000000" x="202.102448" y="40.486209" width="33.608597" height="33.608597"></rect>
            <rect id="Rectangle" fill="#000000" x="168.463284" y="410.058507" width="33.6315224" height="33.608597"></rect>
            <polygon id="Path" fill="#A91E22" points="202.102448 376.480478 202.102448 342.871881 202.102448 309.286209 168.463284 309.286209 168.463284 275.685254 168.463284 242.076657 134.831761 242.076657 101.223164 242.076657 67.5916418 242.076657 33.9601194 242.076657 33.9601194 275.685254 67.5916418 275.685254 67.5916418 309.286209 101.223164 309.286209 101.223164 342.871881 134.831761 342.871881 134.831761 376.480478 168.463284 376.480478 168.463284 410.058507 202.102448 410.058507"></polygon>
            <rect id="Rectangle" fill="#000000" x="168.463284" y="74.0871642" width="33.6315224" height="33.608597"></rect>
            <rect id="Rectangle" fill="#000000" x="134.831761" y="376.480478" width="33.6315224" height="33.5780299"></rect>
            <rect id="Rectangle" fill="#000000" x="134.831761" y="107.695761" width="33.6315224" height="33.5780299"></rect>
            <rect id="Rectangle" fill="#000000" x="101.223164" y="342.871881" width="33.608597" height="33.608597"></rect>
            <rect id="Rectangle" fill="#000000" x="101.223164" y="141.281433" width="33.608597" height="33.608597"></rect>
            <rect id="Rectangle" fill="#000000" x="67.5916418" y="309.286209" width="33.6315224" height="33.5780299"></rect>
            <polygon id="Path" fill="#ED2024" points="101.223164 242.076657 134.831761 242.076657 168.463284 242.076657 168.463284 208.490985 168.463284 174.882388 202.102448 174.882388 202.102448 141.281433 202.102448 107.695761 168.463284 107.695761 168.463284 141.281433 134.831761 141.281433 134.831761 174.882388 101.223164 174.882388 101.223164 208.490985 67.5916418 208.490985 67.5916418 242.076657"></polygon>
            <rect id="Rectangle" fill="#000000" x="67.5916418" y="174.882388" width="33.6315224" height="33.608597"></rect>
            <rect id="Rectangle" fill="#000000" x="33.9601194" y="275.685254" width="33.6315224" height="33.608597"></rect>
            <rect id="Rectangle" fill="#000000" x="33.9601194" y="208.490985" width="33.6315224" height="33.5780299"></rect>
            <rect id="Rectangle" fill="#000000" x="0.351522388" y="242.076657" width="33.608597" height="33.608597"></rect>
            <g id="Group">
                <rect id="Rectangle" fill="#000000" x="471.085851" y="242.076657" width="33.6315224" height="33.608597"></rect>
                <rect id="Rectangle" fill="#000000" x="437.454328" y="275.685254" width="33.6315224" height="33.608597"></rect>
                <rect id="Rectangle" fill="#A91E22" x="437.454328" y="242.076657" width="33.6315224" height="33.608597"></rect>
                <rect id="Rectangle" fill="#000000" x="437.454328" y="208.490985" width="33.6315224" height="33.5780299"></rect>
                <rect id="Rectangle" fill="#000000" x="403.845731" y="309.286209" width="33.608597" height="33.5780299"></rect>
                <rect id="Rectangle" fill="#A91E22" x="403.845731" y="275.685254" width="33.608597" height="33.608597"></rect>
                <rect id="Rectangle" fill="#A91E22" x="403.845731" y="242.076657" width="33.608597" height="33.608597"></rect>
                <rect id="Rectangle" fill="#FFFFFF" x="403.845731" y="208.490985" width="33.608597" height="33.5780299"></rect>
                <rect id="Rectangle" fill="#000000" x="403.845731" y="174.882388" width="33.608597" height="33.608597"></rect>
                <rect id="Rectangle" fill="#000000" x="370.214209" y="342.871881" width="33.6315224" height="33.608597"></rect>
                <rect id="Rectangle" fill="#A91E22" x="370.214209" y="309.286209" width="33.6315224" height="33.5780299"></rect>
                <rect id="Rectangle" fill="#A91E22" x="370.214209" y="275.685254" width="33.6315224" height="33.608597"></rect>
                <rect id="Rectangle" fill="#A91E22" x="370.214209" y="242.076657" width="33.6315224" height="33.608597"></rect>
                <rect id="Rectangle" fill="#FFFFFF" x="370.214209" y="208.490985" width="33.6315224" height="33.5780299"></rect>
                <rect id="Rectangle" fill="#FFFFFF" x="370.214209" y="174.882388" width="33.6315224" height="33.608597"></rect>
                <rect id="Rectangle" fill="#000000" x="370.214209" y="141.281433" width="33.6315224" height="33.608597"></rect>
                <rect id="Rectangle" fill="#000000" x="336.575045" y="376.480478" width="33.6315224" height="33.5780299"></rect>
                <rect id="Rectangle" fill="#A91E22" x="336.575045" y="342.871881" width="33.6315224" height="33.608597"></rect>
                <rect id="Rectangle" fill="#A91E22" x="336.575045" y="309.286209" width="33.6315224" height="33.5780299"></rect>
                <rect id="Rectangle" fill="#A91E22" x="336.575045" y="275.685254" width="33.6315224" height="33.608597"></rect>
                <rect id="Rectangle" fill="#A91E22" x="336.575045" y="242.076657" width="33.6315224" height="33.608597"></rect>
                <rect id="Rectangle" fill="#FFFFFF" x="336.575045" y="208.490985" width="33.6315224" height="33.5780299"></rect>
                <rect id="Rectangle" fill="#FFFFFF" x="336.575045" y="174.882388" width="33.6315224" height="33.608597"></rect>
                <rect id="Rectangle" fill="#FFFFFF" x="336.575045" y="141.281433" width="33.6315224" height="33.608597"></rect>
                <rect id="Rectangle" fill="#000000" x="336.575045" y="107.695761" width="33.6315224" height="33.5780299"></rect>
                <rect id="Rectangle" fill="#000000" x="302.97409" y="410.058507" width="33.608597" height="33.608597"></rect>
                <rect id="Rectangle" fill="#A91E22" x="302.97409" y="376.480478" width="33.608597" height="33.5780299"></rect>
                <rect id="Rectangle" fill="#A91E22" x="302.97409" y="342.871881" width="33.608597" height="33.608597"></rect>
                <rect id="Rectangle" fill="#A91E22" x="302.97409" y="309.286209" width="33.608597" height="33.5780299"></rect>
                <rect id="Rectangle" fill="#ED2024" x="302.97409" y="275.685254" width="33.608597" height="33.608597"></rect>
                <rect id="Rectangle" fill="#ED2024" x="302.97409" y="242.076657" width="33.608597" height="33.608597"></rect>
                <rect id="Rectangle" fill="#A91E22" x="302.97409" y="208.490985" width="33.608597" height="33.5780299"></rect>
                <rect id="Rectangle" fill="#A91E22" x="302.97409" y="174.882388" width="33.608597" height="33.608597"></rect>
                <rect id="Rectangle" fill="#FFFFFF" x="302.97409" y="141.281433" width="33.608597" height="33.608597"></rect>
                <rect id="Rectangle" fill="#FFFFFF" x="302.97409" y="107.695761" width="33.608597" height="33.5780299"></rect>
                <rect id="Rectangle" fill="#000000" x="302.97409" y="74.0871642" width="33.608597" height="33.608597"></rect>
                <rect id="Rectangle" fill="#000000" x="269.334925" y="443.667104" width="33.6315224" height="33.608597"></rect>
                <rect id="Rectangle" fill="#A91E22" x="269.334925" y="410.058507" width="33.6315224" height="33.608597"></rect>
                <rect id="Rectangle" fill="#ED2024" x="269.334925" y="376.480478" width="33.6315224" height="33.5780299"></rect>
                <rect id="Rectangle" fill="#ED2024" x="269.334925" y="342.871881" width="33.6315224" height="33.608597"></rect>
                <rect id="Rectangle" fill="#ED2024" x="269.334925" y="309.286209" width="33.6315224" height="33.5780299"></rect>
                <rect id="Rectangle" fill="#ED2024" x="269.334925" y="275.685254" width="33.6315224" height="33.608597"></rect>
                <rect id="Rectangle" fill="#ED2024" x="269.334925" y="242.076657" width="33.6315224" height="33.608597"></rect>
                <rect id="Rectangle" fill="#A91E22" x="269.334925" y="208.490985" width="33.6315224" height="33.5780299"></rect>
                <rect id="Rectangle" fill="#A91E22" x="269.334925" y="174.882388" width="33.6315224" height="33.608597"></rect>
                <rect id="Rectangle" fill="#A91E22" x="269.334925" y="141.281433" width="33.6315224" height="33.608597"></rect>
                <rect id="Rectangle" fill="#A91E22" x="269.334925" y="107.695761" width="33.6315224" height="33.5780299"></rect>
                <rect id="Rectangle" fill="#FFFFFF" x="269.334925" y="74.0871642" width="33.6315224" height="33.608597"></rect>
                <rect id="Rectangle" fill="#000000" x="269.334925" y="40.486209" width="33.6315224" height="33.608597"></rect>
                <rect id="Rectangle" fill="#000000" x="235.703403" y="477.275701" width="33.6315224" height="33.5780299"></rect>
                <rect id="Rectangle" fill="#ED2024" x="235.703403" y="443.667104" width="33.6315224" height="33.608597"></rect>
                <rect id="Rectangle" fill="#ED2024" x="235.703403" y="410.058507" width="33.6315224" height="33.608597"></rect>
                <rect id="Rectangle" fill="#ED2024" x="235.703403" y="376.480478" width="33.6315224" height="33.5780299"></rect>
                <rect id="Rectangle" fill="#ED2024" x="235.703403" y="342.871881" width="33.6315224" height="33.608597"></rect>
                <rect id="Rectangle" fill="#ED2024" x="235.703403" y="309.286209" width="33.6315224" height="33.5780299"></rect>
                <rect id="Rectangle" fill="#ED2024" x="235.703403" y="275.685254" width="33.6315224" height="33.608597"></rect>
                <rect id="Rectangle" fill="#ED2024" x="235.703403" y="242.076657" width="33.6315224" height="33.608597"></rect>
                <rect id="Rectangle" fill="#A91E22" x="235.703403" y="208.490985" width="33.6315224" height="33.5780299"></rect>
                <rect id="Rectangle" fill="#A91E22" x="235.703403" y="174.882388" width="33.6315224" height="33.608597"></rect>
                <rect id="Rectangle" fill="#A91E22" x="235.703403" y="141.281433" width="33.6315224" height="33.608597"></rect>
                <rect id="Rectangle" fill="#A91E22" x="235.703403" y="107.695761" width="33.6315224" height="33.5780299"></rect>
                <rect id="Rectangle" fill="#A91E22" x="235.703403" y="74.0871642" width="33.6315224" height="33.608597"></rect>
                <rect id="Rectangle" fill="#A91E22" x="235.703403" y="40.486209" width="33.6315224" height="33.608597"></rect>
                <rect id="Rectangle" fill="#000000" x="235.703403" y="6.90053731" width="33.6315224" height="33.5780299"></rect>
                <rect id="Rectangle" fill="#000000" x="202.094806" y="443.667104" width="33.608597" height="33.608597"></rect>
                <rect id="Rectangle" fill="#A91E22" x="202.094806" y="410.058507" width="33.608597" height="33.608597"></rect>
                <rect id="Rectangle" fill="#ED2024" x="202.094806" y="376.480478" width="33.608597" height="33.5780299"></rect>
                <rect id="Rectangle" fill="#ED2024" x="202.094806" y="342.871881" width="33.608597" height="33.608597"></rect>
                <rect id="Rectangle" fill="#ED2024" x="202.094806" y="309.286209" width="33.608597" height="33.5780299"></rect>
                <rect id="Rectangle" fill="#ED2024" x="202.094806" y="275.685254" width="33.608597" height="33.608597"></rect>
                <rect id="Rectangle" fill="#ED2024" x="202.094806" y="242.076657" width="33.608597" height="33.608597"></rect>
                <rect id="Rectangle" fill="#A91E22" x="202.094806" y="208.490985" width="33.608597" height="33.5780299"></rect>
                <rect id="Rectangle" fill="#A91E22" x="202.094806" y="174.882388" width="33.608597" height="33.608597"></rect>
                <rect id="Rectangle" fill="#A91E22" x="202.094806" y="141.281433" width="33.608597" height="33.608597"></rect>
                <rect id="Rectangle" fill="#A91E22" x="202.094806" y="107.695761" width="33.608597" height="33.5780299"></rect>
                <rect id="Rectangle" fill="#ED2024" x="202.094806" y="74.0871642" width="33.608597" height="33.608597"></rect>
                <rect id="Rectangle" fill="#000000" x="202.094806" y="40.486209" width="33.608597" height="33.608597"></rect>
                <rect id="Rectangle" fill="#000000" x="168.463284" y="410.058507" width="33.6315224" height="33.608597"></rect>
                <rect id="Rectangle" fill="#A91E22" x="168.463284" y="376.480478" width="33.6315224" height="33.5780299"></rect>
                <rect id="Rectangle" fill="#A91E22" x="168.463284" y="342.871881" width="33.6315224" height="33.608597"></rect>
                <rect id="Rectangle" fill="#A91E22" x="168.463284" y="309.286209" width="33.6315224" height="33.5780299"></rect>
                <rect id="Rectangle" fill="#ED2024" x="168.463284" y="275.685254" width="33.6315224" height="33.608597"></rect>
                <rect id="Rectangle" fill="#ED2024" x="168.463284" y="242.076657" width="33.6315224" height="33.608597"></rect>
                <rect id="Rectangle" fill="#A91E22" x="168.463284" y="208.490985" width="33.6315224" height="33.5780299"></rect>
                <rect id="Rectangle" fill="#A91E22" x="168.463284" y="174.882388" width="33.6315224" height="33.608597"></rect>
                <rect id="Rectangle" fill="#ED2024" x="168.463284" y="141.281433" width="33.6315224" height="33.608597"></rect>
                <rect id="Rectangle" fill="#ED2024" x="168.463284" y="107.695761" width="33.6315224" height="33.5780299"></rect>
                <rect id="Rectangle" fill="#000000" x="168.463284" y="74.0871642" width="33.6315224" height="33.608597"></rect>
                <rect id="Rectangle" fill="#000000" x="134.831761" y="376.480478" width="33.6315224" height="33.5780299"></rect>
                <rect id="Rectangle" fill="#A91E22" x="134.831761" y="342.871881" width="33.6315224" height="33.608597"></rect>
                <rect id="Rectangle" fill="#A91E22" x="134.831761" y="309.286209" width="33.6315224" height="33.5780299"></rect>
                <rect id="Rectangle" fill="#A91E22" x="134.831761" y="275.685254" width="33.6315224" height="33.608597"></rect>
                <rect id="Rectangle" fill="#A91E22" x="134.831761" y="242.076657" width="33.6315224" height="33.608597"></rect>
                <rect id="Rectangle" fill="#ED2024" x="134.831761" y="208.490985" width="33.6315224" height="33.5780299"></rect>
                <rect id="Rectangle" fill="#ED2024" x="134.831761" y="174.882388" width="33.6315224" height="33.608597"></rect>
                <rect id="Rectangle" fill="#ED2024" x="134.831761" y="141.281433" width="33.6315224" height="33.608597"></rect>
                <rect id="Rectangle" fill="#000000" x="134.831761" y="107.695761" width="33.6315224" height="33.5780299"></rect>
                <rect id="Rectangle" fill="#000000" x="101.223164" y="342.871881" width="33.608597" height="33.608597"></rect>
                <rect id="Rectangle" fill="#A91E22" x="101.223164" y="309.286209" width="33.608597" height="33.5780299"></rect>
                <rect id="Rectangle" fill="#A91E22" x="101.223164" y="275.685254" width="33.608597" height="33.608597"></rect>
                <rect id="Rectangle" fill="#A91E22" x="101.223164" y="242.076657" width="33.608597" height="33.608597"></rect>
                <rect id="Rectangle" fill="#ED2024" x="101.223164" y="208.490985" width="33.608597" height="33.5780299"></rect>
                <rect id="Rectangle" fill="#ED2024" x="101.223164" y="174.882388" width="33.608597" height="33.608597"></rect>
                <rect id="Rectangle" fill="#000000" x="101.223164" y="141.281433" width="33.608597" height="33.608597"></rect>
                <rect id="Rectangle" fill="#000000" x="67.5916418" y="309.286209" width="33.6315224" height="33.5780299"></rect>
                <rect id="Rectangle" fill="#A91E22" x="67.5916418" y="275.685254" width="33.6315224" height="33.608597"></rect>
                <rect id="Rectangle" fill="#A91E22" x="67.5916418" y="242.076657" width="33.6315224" height="33.608597"></rect>
                <rect id="Rectangle" fill="#ED2024" x="67.5916418" y="208.490985" width="33.6315224" height="33.5780299"></rect>
                <rect id="Rectangle" fill="#000000" x="67.5916418" y="174.882388" width="33.6315224" height="33.608597"></rect>
                <rect id="Rectangle" fill="#000000" x="33.9601194" y="275.685254" width="33.6315224" height="33.608597"></rect>
                <rect id="Rectangle" fill="#A91E22" x="33.9601194" y="242.076657" width="33.6315224" height="33.608597"></rect>
                <rect id="Rectangle" fill="#000000" x="33.9601194" y="208.490985" width="33.6315224" height="33.5780299"></rect>
                <rect id="Rectangle" fill="#000000" x="0.351522388" y="242.076657" width="33.608597" height="33.608597"></rect>
            </g>
        </g>
    </g>
</svg>