<svg xmlns="http://www.w3.org/2000/svg" width="512" height="512" viewBox="0 0 512 512">
  <g fill="none" transform="translate(0 43)">
    <polygon fill="#000" points="482.395 86.398 482.395 114.807 482.395 143.197 482.395 171.6 482.395 200.009 482.395 228.399 482.395 256.808 482.395 285.211 482.395 313.601 482.395 342.01 482.395 370.393 482.395 398.803 510.259 398.803 510.259 370.393 510.259 342.01 510.259 313.601 510.259 285.211 510.259 256.808 510.259 228.399 510.259 200.009 510.259 171.6 510.259 143.197 510.259 114.807 510.259 86.398 510.259 57.995 510.259 29.605 482.395 29.605 482.395 57.995"/>
    <polygon fill="#F47721" points="454.109 368.753 425.803 368.753 397.498 368.753 369.212 368.753 340.907 368.753 312.602 368.753 284.316 368.753 256.011 368.753 227.699 368.753 199.42 368.753 171.108 368.753 171.108 340.471 171.108 312.163 171.108 283.875 171.108 255.573 171.108 227.265 171.108 198.977 171.108 170.669 171.108 142.367 171.108 114.079 171.108 85.771 171.108 57.469 142.803 57.469 142.803 85.771 142.803 114.079 142.803 142.367 142.803 170.669 142.803 198.977 142.803 227.265 142.803 255.573 142.803 283.875 142.803 312.163 142.803 340.471 142.803 368.753 142.803 397.061 171.108 397.061 199.42 397.061 227.699 397.061 256.011 397.061 284.316 397.061 312.602 397.061 340.907 397.061 369.212 397.061 397.498 397.061 425.803 397.061 454.109 397.061 482.395 397.061 482.395 368.753"/>
    <polygon fill="#000" points="425.802 398.259 397.495 398.259 369.209 398.259 340.902 398.259 312.596 398.259 284.309 398.259 256.003 398.259 227.691 398.259 199.41 398.259 171.098 398.259 142.791 398.259 142.791 369.851 142.791 341.469 142.791 313.062 142.791 284.673 142.791 256.272 142.791 227.864 142.791 199.476 142.791 171.068 142.791 142.667 142.791 114.278 142.791 85.871 142.791 57.469 114.511 57.469 114.511 85.871 114.511 114.278 114.511 142.667 114.511 171.068 114.511 199.476 114.511 227.864 114.511 256.272 114.511 284.673 114.511 313.062 114.511 341.469 114.511 369.851 114.511 398.259 86.198 398.259 57.892 398.259 29.605 398.259 29.605 426.667 57.892 426.667 86.198 426.667 114.511 426.667 142.791 426.667 171.098 426.667 199.41 426.667 227.691 426.667 256.003 426.667 284.309 426.667 312.596 426.667 340.902 426.667 369.209 426.667 397.495 426.667 425.802 426.667 454.108 426.667 482.395 426.667 482.395 398.259 454.108 398.259"/>
    <rect width="27.864" height="27.864" x="426.667" y="341.333" fill="#555"/>
    <rect width="27.864" height="27.864" x="426.667" y="57.469" fill="#555"/>
    <polygon fill="#FFF" points="425.803 29.605 397.498 29.605 369.212 29.605 340.907 29.605 312.602 29.605 284.316 29.605 256.011 29.605 227.699 29.605 199.42 29.605 171.108 29.605 142.803 29.605 142.803 57.469 171.108 57.469 199.42 57.469 227.699 57.469 256.011 57.469 284.316 57.469 312.602 57.469 340.907 57.469 369.212 57.469 397.498 57.469 425.803 57.469 454.109 57.469 482.395 57.469 482.395 29.605 454.109 29.605"/>
    <rect width="27.864" height="27.864" x="369.197" y="170.667" fill="#000"/>
    <rect width="27.864" height="27.864" x="341.333" y="200.272" fill="#000"/>
    <polygon fill="#000" points="312.589 313.469 283.864 313.469 283.864 341.333 312.589 341.333 341.333 341.333 341.333 313.469"/>
    <polygon fill="#555" points="312.589 198.531 312.589 227.256 283.864 227.256 283.864 256 312.589 256 341.333 256 341.333 227.256 341.333 198.531"/>
    <polygon fill="#000" points="312.589 114.939 283.864 114.939 283.864 142.803 312.589 142.803 341.333 142.803 341.333 114.939"/>
    <polygon fill="#000" points="283.864 256 283.864 283.864 312.589 283.864 341.333 283.864 341.333 256 312.589 256"/>
    <polygon fill="#000" points="226.395 142.803 226.395 170.667 255.133 170.667 283.864 170.667 283.864 142.803 255.133 142.803"/>
    <polygon fill="#555" points="228.136 113.639 228.136 141.926 256.592 141.926 285.042 141.926 285.042 113.639 313.473 113.639 341.922 113.639 341.922 141.926 341.922 170.225 341.922 198.531 370.372 198.531 370.372 170.225 398.803 170.225 398.803 141.926 398.803 113.639 370.372 113.639 370.372 85.333 341.922 85.333 313.473 85.333 285.042 85.333 256.592 85.333 256.592 113.639"/>
    <rect width="27.864" height="27.864" x="170.667" y="341.333" fill="#555"/>
    <path fill="#F6EB14" d="M170.666667,85.8176625 L170.666667,114.165937 L170.666667,142.488429 L170.666667,170.836704 L170.666667,199.184979 L170.666667,227.507471 L170.666667,255.855746 L170.666667,284.20402 L170.666667,312.526512 L170.666667,340.874787 L199.012592,340.874787 L199.012592,369.197279 L227.339195,369.197279 L255.685121,369.197279 L284.031046,369.197279 L312.357649,369.197279 L340.703575,369.197279 L369.049501,369.197279 L397.376104,369.197279 L425.722029,369.197279 L425.722029,340.874787 L454.067955,340.874787 L454.067955,369.197279 L482.394558,369.197279 L482.394558,340.874787 L482.394558,312.526512 L482.394558,284.20402 L482.394558,255.855746 L482.394558,227.507471 L482.394558,199.184979 L482.394558,170.836704 L482.394558,142.488429 L482.394558,114.165937 L482.394558,85.8176625 L482.394558,57.4693878 L454.067955,57.4693878 L454.067955,85.8176625 L425.722029,85.8176625 L425.722029,57.4693878 L397.376104,57.4693878 L369.049501,57.4693878 L340.703575,57.4693878 L312.357649,57.4693878 L284.031046,57.4693878 L255.685121,57.4693878 L227.339195,57.4693878 L199.012592,57.4693878 L199.012592,85.8176625 L170.666667,85.8176625 Z M312.36409,340.881233 L284.037487,340.881233 L284.037487,312.532958 L312.36409,312.532958 L340.710016,312.532958 L340.710016,340.881233 L312.36409,340.881233 Z M284.037487,85.8176625 L312.36409,85.8176625 L340.710016,85.8176625 L369.055941,85.8176625 L369.055941,114.165937 L397.382544,114.165937 L397.382544,142.488429 L397.382544,170.836704 L397.382544,199.184979 L369.055941,199.184979 L369.055941,227.507471 L340.710016,227.507471 L340.710016,255.855746 L340.710016,284.20402 L312.36409,284.20402 L284.037487,284.20402 L284.037487,255.855746 L284.037487,227.507471 L312.36409,227.507471 L312.36409,199.184979 L340.710016,199.184979 L340.710016,170.836704 L340.710016,142.488429 L312.36409,142.488429 L284.037487,142.488429 L284.037487,170.836704 L255.691562,170.836704 L227.345636,170.836704 L227.345636,142.488429 L227.345636,114.165937 L255.691562,114.165937 L255.691562,85.8176625 L284.037487,85.8176625 Z"/>
    <rect width="27.864" height="27.864" x="170.667" y="57.469" fill="#555"/>
    <rect width="27.864" height="27.864" x="114.939" y="29.605" fill="#F47721"/>
    <polygon fill="#F47721" points="86.484 397.061 114.939 397.061 114.939 368.753 114.939 340.471 114.939 312.163 114.939 283.875 114.939 255.573 114.939 227.265 114.939 198.977 114.939 170.669 114.939 142.367 114.939 114.079 114.939 85.771 114.939 57.469 86.484 57.469 58.035 57.469 29.605 57.469 29.605 85.771 29.605 114.079 29.605 142.367 29.605 170.669 29.605 198.977 29.605 227.265 29.605 255.573 29.605 283.875 29.605 312.163 29.605 340.471 29.605 368.753 29.605 397.061 58.035 397.061"/>
    <polygon fill="#000" points="86.198 29.605 114.511 29.605 142.791 29.605 171.098 29.605 199.41 29.605 227.691 29.605 256.003 29.605 284.309 29.605 312.596 29.605 340.902 29.605 369.209 29.605 397.495 29.605 425.802 29.605 454.108 29.605 482.395 29.605 482.395 1.741 454.108 1.741 425.802 1.741 397.495 1.741 369.209 1.741 340.902 1.741 312.596 1.741 284.309 1.741 256.003 1.741 227.691 1.741 199.41 1.741 171.098 1.741 142.791 1.741 114.511 1.741 86.198 1.741 57.892 1.741 29.605 1.741 29.605 29.605 57.892 29.605"/>
    <polygon fill="#F6EB14" points="58.035 57.469 86.484 57.469 114.939 57.469 114.939 29.605 86.484 29.605 58.035 29.605 29.605 29.605 29.605 57.469"/>
    <polygon fill="#000" points="1.741 57.995 1.741 86.398 1.741 114.807 1.741 143.197 1.741 171.6 1.741 200.009 1.741 228.399 1.741 256.808 1.741 285.211 1.741 313.601 1.741 342.01 1.741 370.393 1.741 398.803 29.605 398.803 29.605 370.393 29.605 342.01 29.605 313.601 29.605 285.211 29.605 256.808 29.605 228.399 29.605 200.009 29.605 171.6 29.605 143.197 29.605 114.807 29.605 86.398 29.605 57.995 29.605 29.605 1.741 29.605"/>
    <rect width="28.358" height="28.35" x="482.767" y="369.516" fill="#000"/>
    <rect width="28.358" height="28.324" x="482.767" y="341.192" fill="#000"/>
    <rect width="28.358" height="28.35" x="482.767" y="312.842" fill="#000"/>
    <rect width="28.358" height="28.324" x="482.767" y="284.511" fill="#000"/>
    <rect width="28.358" height="28.35" x="482.767" y="256.167" fill="#000"/>
    <rect width="28.358" height="28.35" x="482.767" y="227.817" fill="#000"/>
    <rect width="28.358" height="28.324" x="482.767" y="199.487" fill="#000"/>
    <rect width="28.358" height="28.35" x="482.767" y="171.136" fill="#000"/>
    <rect width="28.358" height="28.35" x="482.767" y="142.793" fill="#000"/>
    <rect width="28.358" height="28.324" x="482.767" y="114.462" fill="#000"/>
    <rect width="28.358" height="28.35" x="482.767" y="86.112" fill="#000"/>
    <rect width="28.358" height="28.35" x="482.767" y="57.768" fill="#000"/>
    <rect width="28.358" height="28.324" x="482.767" y="29.437" fill="#000"/>
    <rect width="28.339" height="28.35" x="454.429" y="397.866" fill="#000"/>
    <rect width="28.339" height="28.35" x="454.429" y="369.516" fill="#F47721"/>
    <rect width="28.339" height="28.324" x="454.429" y="341.192" fill="#F6EB14"/>
    <rect width="28.339" height="28.35" x="454.429" y="312.842" fill="#F6EB14"/>
    <rect width="28.339" height="28.324" x="454.429" y="284.511" fill="#F6EB14"/>
    <rect width="28.339" height="28.35" x="454.429" y="256.167" fill="#F6EB14"/>
    <rect width="28.339" height="28.35" x="454.429" y="227.817" fill="#F6EB14"/>
    <rect width="28.339" height="28.324" x="454.429" y="199.487" fill="#F6EB14"/>
    <rect width="28.339" height="28.35" x="454.429" y="171.136" fill="#F6EB14"/>
    <rect width="28.339" height="28.35" x="454.429" y="142.793" fill="#F6EB14"/>
    <rect width="28.339" height="28.324" x="454.429" y="114.462" fill="#F6EB14"/>
    <rect width="28.339" height="28.35" x="454.429" y="86.112" fill="#F6EB14"/>
    <rect width="28.339" height="28.35" x="454.429" y="57.768" fill="#F6EB14"/>
    <rect width="28.339" height="28.324" x="454.429" y="29.437" fill="#FFF"/>
    <rect width="28.339" height="28.35" x="454.429" y="1.087" fill="#000"/>
    <rect width="28.358" height="28.35" x="426.071" y="397.866" fill="#000"/>
    <rect width="28.358" height="28.35" x="426.071" y="369.516" fill="#F47721"/>
    <rect width="28.358" height="28.324" x="426.071" y="341.192" fill="#555"/>
    <rect width="28.358" height="28.35" x="426.071" y="312.842" fill="#F6EB14"/>
    <rect width="28.358" height="28.324" x="426.071" y="284.511" fill="#F6EB14"/>
    <rect width="28.358" height="28.35" x="426.071" y="256.167" fill="#F6EB14"/>
    <rect width="28.358" height="28.35" x="426.071" y="227.817" fill="#F6EB14"/>
    <rect width="28.358" height="28.324" x="426.071" y="199.487" fill="#F6EB14"/>
    <rect width="28.358" height="28.35" x="426.071" y="171.136" fill="#F6EB14"/>
    <rect width="28.358" height="28.35" x="426.071" y="142.793" fill="#F6EB14"/>
    <rect width="28.358" height="28.324" x="426.071" y="114.462" fill="#F6EB14"/>
    <rect width="28.358" height="28.35" x="426.071" y="86.112" fill="#F6EB14"/>
    <rect width="28.358" height="28.35" x="426.071" y="57.768" fill="#555"/>
    <rect width="28.358" height="28.324" x="426.071" y="29.437" fill="#FFF"/>
    <rect width="28.358" height="28.35" x="426.071" y="1.087" fill="#000"/>
    <rect width="28.358" height="28.35" x="397.713" y="397.866" fill="#000"/>
    <rect width="28.358" height="28.35" x="397.713" y="369.516" fill="#F47721"/>
    <rect width="28.358" height="28.324" x="397.713" y="341.192" fill="#F6EB14"/>
    <rect width="28.358" height="28.35" x="397.713" y="312.842" fill="#F6EB14"/>
    <rect width="28.358" height="28.324" x="397.713" y="284.511" fill="#F6EB14"/>
    <rect width="28.358" height="28.35" x="397.713" y="256.167" fill="#F6EB14"/>
    <rect width="28.358" height="28.35" x="397.713" y="227.817" fill="#F6EB14"/>
    <rect width="28.358" height="28.324" x="397.713" y="199.487" fill="#F6EB14"/>
    <rect width="28.358" height="28.35" x="397.713" y="171.136" fill="#F6EB14"/>
    <rect width="28.358" height="28.35" x="397.713" y="142.793" fill="#F6EB14"/>
    <rect width="28.358" height="28.324" x="397.713" y="114.462" fill="#F6EB14"/>
    <rect width="28.358" height="28.35" x="397.713" y="86.112" fill="#F6EB14"/>
    <rect width="28.358" height="28.35" x="397.713" y="57.768" fill="#F6EB14"/>
    <rect width="28.358" height="28.324" x="397.713" y="29.437" fill="#FFF"/>
    <rect width="28.358" height="28.35" x="397.713" y="1.087" fill="#000"/>
    <rect width="28.339" height="28.35" x="369.374" y="397.866" fill="#000"/>
    <rect width="28.339" height="28.35" x="369.374" y="369.516" fill="#F47721"/>
    <rect width="28.339" height="28.324" x="369.374" y="341.192" fill="#F6EB14"/>
    <rect width="28.339" height="28.35" x="369.374" y="312.842" fill="#F6EB14"/>
    <rect width="28.339" height="28.324" x="369.374" y="284.511" fill="#F6EB14"/>
    <rect width="28.339" height="28.35" x="369.374" y="256.167" fill="#F6EB14"/>
    <rect width="28.339" height="28.35" x="369.374" y="227.817" fill="#F6EB14"/>
    <rect width="28.339" height="28.324" x="369.374" y="199.487" fill="#F6EB14"/>
    <rect width="28.339" height="28.35" x="369.374" y="171.136" fill="#000"/>
    <rect width="28.339" height="28.35" x="369.374" y="142.793" fill="#555"/>
    <rect width="28.339" height="28.324" x="369.374" y="114.462" fill="#555"/>
    <rect width="28.339" height="28.35" x="369.374" y="86.112" fill="#F6EB14"/>
    <rect width="28.339" height="28.35" x="369.374" y="57.768" fill="#F6EB14"/>
    <rect width="28.339" height="28.324" x="369.374" y="29.437" fill="#FFF"/>
    <rect width="28.339" height="28.35" x="369.374" y="1.087" fill="#000"/>
    <rect width="28.358" height="28.35" x="341.016" y="397.866" fill="#000"/>
    <rect width="28.358" height="28.35" x="341.016" y="369.516" fill="#F47721"/>
    <rect width="28.358" height="28.324" x="341.016" y="341.192" fill="#F6EB14"/>
    <rect width="28.358" height="28.35" x="341.016" y="312.842" fill="#F6EB14"/>
    <rect width="28.358" height="28.324" x="341.016" y="284.511" fill="#F6EB14"/>
    <rect width="28.358" height="28.35" x="341.016" y="256.167" fill="#F6EB14"/>
    <rect width="28.358" height="28.35" x="341.016" y="227.817" fill="#F6EB14"/>
    <rect width="28.358" height="28.324" x="341.016" y="199.487" fill="#000"/>
    <rect width="28.358" height="28.35" x="341.016" y="171.136" fill="#555"/>
    <rect width="28.358" height="28.35" x="341.016" y="142.793" fill="#555"/>
    <rect width="28.358" height="28.324" x="341.016" y="114.462" fill="#555"/>
    <rect width="28.358" height="28.35" x="341.016" y="86.112" fill="#555"/>
    <rect width="28.358" height="28.35" x="341.016" y="57.768" fill="#F6EB14"/>
    <rect width="28.358" height="28.324" x="341.016" y="29.437" fill="#FFF"/>
    <rect width="28.358" height="28.35" x="341.016" y="1.087" fill="#000"/>
    <rect width="28.358" height="28.35" x="312.658" y="397.866" fill="#000"/>
    <rect width="28.358" height="28.35" x="312.658" y="369.516" fill="#F47721"/>
    <rect width="28.358" height="28.324" x="312.658" y="341.192" fill="#F6EB14"/>
    <rect width="28.358" height="28.35" x="312.658" y="312.842" fill="#000"/>
    <rect width="28.358" height="28.324" x="312.658" y="284.511" fill="#F6EB14"/>
    <rect width="28.358" height="28.35" x="312.658" y="256.167" fill="#000"/>
    <rect width="28.358" height="28.35" x="312.658" y="227.817" fill="#555"/>
    <rect width="28.358" height="28.324" x="312.658" y="199.487" fill="#555"/>
    <rect width="28.358" height="28.35" x="312.658" y="171.136" fill="#F6EB14"/>
    <rect width="28.358" height="28.35" x="312.658" y="142.793" fill="#F6EB14"/>
    <rect width="28.358" height="28.324" x="312.658" y="114.462" fill="#000"/>
    <rect width="28.358" height="28.35" x="312.658" y="86.112" fill="#555"/>
    <rect width="28.358" height="28.35" x="312.658" y="57.768" fill="#F6EB14"/>
    <rect width="28.358" height="28.324" x="312.658" y="29.437" fill="#FFF"/>
    <rect width="28.358" height="28.35" x="312.658" y="1.087" fill="#000"/>
    <rect width="28.339" height="28.35" x="284.319" y="397.866" fill="#000"/>
    <rect width="28.339" height="28.35" x="284.319" y="369.516" fill="#F47721"/>
    <rect width="28.339" height="28.324" x="284.319" y="341.192" fill="#F6EB14"/>
    <rect width="28.339" height="28.35" x="284.319" y="312.842" fill="#000"/>
    <rect width="28.339" height="28.324" x="284.319" y="284.511" fill="#F6EB14"/>
    <rect width="28.339" height="28.35" x="284.319" y="256.167" fill="#000"/>
    <rect width="28.339" height="28.35" x="284.319" y="227.817" fill="#555"/>
    <rect width="28.339" height="28.324" x="284.319" y="199.487" fill="#F6EB14"/>
    <rect width="28.339" height="28.35" x="284.319" y="171.136" fill="#F6EB14"/>
    <rect width="28.339" height="28.35" x="284.319" y="142.793" fill="#F6EB14"/>
    <rect width="28.339" height="28.324" x="284.319" y="114.462" fill="#000"/>
    <rect width="28.339" height="28.35" x="284.319" y="86.112" fill="#555"/>
    <rect width="28.339" height="28.35" x="284.319" y="57.768" fill="#F6EB14"/>
    <rect width="28.339" height="28.324" x="284.319" y="29.437" fill="#FFF"/>
    <rect width="28.339" height="28.35" x="284.319" y="1.087" fill="#000"/>
    <rect width="28.358" height="28.35" x="255.961" y="397.866" fill="#000"/>
    <rect width="28.358" height="28.35" x="255.961" y="369.516" fill="#F47721"/>
    <rect width="28.358" height="28.324" x="255.961" y="341.192" fill="#F6EB14"/>
    <rect width="28.358" height="28.35" x="255.961" y="312.842" fill="#F6EB14"/>
    <rect width="28.358" height="28.324" x="255.961" y="284.511" fill="#F6EB14"/>
    <rect width="28.358" height="28.35" x="255.961" y="256.167" fill="#F6EB14"/>
    <rect width="28.358" height="28.35" x="255.961" y="227.817" fill="#F6EB14"/>
    <rect width="28.358" height="28.324" x="255.961" y="199.487" fill="#F6EB14"/>
    <rect width="28.358" height="28.35" x="255.961" y="171.136" fill="#F6EB14"/>
    <rect width="28.358" height="28.35" x="255.961" y="142.793" fill="#000"/>
    <rect width="28.358" height="28.324" x="255.961" y="114.462" fill="#555"/>
    <rect width="28.358" height="28.35" x="255.961" y="86.112" fill="#555"/>
    <rect width="28.358" height="28.35" x="255.961" y="57.768" fill="#F6EB14"/>
    <rect width="28.358" height="28.324" x="255.961" y="29.437" fill="#FFF"/>
    <rect width="28.358" height="28.35" x="255.961" y="1.087" fill="#000"/>
    <rect width="28.358" height="28.35" x="227.597" y="397.866" fill="#000"/>
    <rect width="28.358" height="28.35" x="227.597" y="369.516" fill="#F47721"/>
    <rect width="28.358" height="28.324" x="227.597" y="341.192" fill="#F6EB14"/>
    <rect width="28.358" height="28.35" x="227.597" y="312.842" fill="#F6EB14"/>
    <rect width="28.358" height="28.324" x="227.597" y="284.511" fill="#F6EB14"/>
    <rect width="28.358" height="28.35" x="227.597" y="256.167" fill="#F6EB14"/>
    <rect width="28.358" height="28.35" x="227.597" y="227.817" fill="#F6EB14"/>
    <rect width="28.358" height="28.324" x="227.597" y="199.487" fill="#F6EB14"/>
    <rect width="28.358" height="28.35" x="227.597" y="171.136" fill="#F6EB14"/>
    <rect width="28.358" height="28.35" x="227.597" y="142.793" fill="#000"/>
    <rect width="28.358" height="28.324" x="227.597" y="114.462" fill="#555"/>
    <rect width="28.358" height="28.35" x="227.597" y="86.112" fill="#F6EB14"/>
    <rect width="28.358" height="28.35" x="227.597" y="57.768" fill="#F6EB14"/>
    <rect width="28.358" height="28.324" x="227.597" y="29.437" fill="#FFF"/>
    <rect width="28.358" height="28.35" x="227.597" y="1.087" fill="#000"/>
    <rect width="28.339" height="28.35" x="199.265" y="397.866" fill="#000"/>
    <rect width="28.339" height="28.35" x="199.265" y="369.516" fill="#F47721"/>
    <rect width="28.339" height="28.324" x="199.265" y="341.192" fill="#F6EB14"/>
    <rect width="28.339" height="28.35" x="199.265" y="312.842" fill="#F6EB14"/>
    <rect width="28.339" height="28.324" x="199.265" y="284.511" fill="#F6EB14"/>
    <rect width="28.339" height="28.35" x="199.265" y="256.167" fill="#F6EB14"/>
    <rect width="28.339" height="28.35" x="199.265" y="227.817" fill="#F6EB14"/>
    <rect width="28.339" height="28.324" x="199.265" y="199.487" fill="#F6EB14"/>
    <rect width="28.339" height="28.35" x="199.265" y="171.136" fill="#F6EB14"/>
    <rect width="28.339" height="28.35" x="199.265" y="142.793" fill="#F6EB14"/>
    <rect width="28.339" height="28.324" x="199.265" y="114.462" fill="#F6EB14"/>
    <rect width="28.339" height="28.35" x="199.265" y="86.112" fill="#F6EB14"/>
    <rect width="28.339" height="28.35" x="199.265" y="57.768" fill="#F6EB14"/>
    <rect width="28.339" height="28.324" x="199.265" y="29.437" fill="#FFF"/>
    <rect width="28.339" height="28.35" x="199.265" y="1.087" fill="#000"/>
    <rect width="28.358" height="28.35" x="170.9" y="397.866" fill="#000"/>
    <rect width="28.358" height="28.35" x="170.9" y="369.516" fill="#F47721"/>
    <rect width="28.358" height="28.324" x="170.9" y="341.192" fill="#555"/>
    <rect width="28.358" height="28.35" x="170.9" y="312.842" fill="#F6EB14"/>
    <rect width="28.358" height="28.324" x="170.9" y="284.511" fill="#F6EB14"/>
    <rect width="28.358" height="28.35" x="170.9" y="256.167" fill="#F6EB14"/>
    <rect width="28.358" height="28.35" x="170.9" y="227.817" fill="#F6EB14"/>
    <rect width="28.358" height="28.324" x="170.9" y="199.487" fill="#F6EB14"/>
    <rect width="28.358" height="28.35" x="170.9" y="171.136" fill="#F6EB14"/>
    <rect width="28.358" height="28.35" x="170.9" y="142.793" fill="#F6EB14"/>
    <rect width="28.358" height="28.324" x="170.9" y="114.462" fill="#F6EB14"/>
    <rect width="28.358" height="28.35" x="170.9" y="86.112" fill="#F6EB14"/>
    <rect width="28.358" height="28.35" x="170.9" y="57.768" fill="#555"/>
    <rect width="28.358" height="28.324" x="170.9" y="29.437" fill="#FFF"/>
    <rect width="28.358" height="28.35" x="170.9" y="1.087" fill="#000"/>
    <rect width="28.358" height="28.35" x="142.542" y="397.866" fill="#000"/>
    <rect width="28.358" height="28.35" x="142.542" y="369.516" fill="#F47721"/>
    <rect width="28.358" height="28.324" x="142.542" y="341.192" fill="#F47721"/>
    <rect width="28.358" height="28.35" x="142.542" y="312.842" fill="#F47721"/>
    <rect width="28.358" height="28.324" x="142.542" y="284.511" fill="#F47721"/>
    <rect width="28.358" height="28.35" x="142.542" y="256.167" fill="#F47721"/>
    <rect width="28.358" height="28.35" x="142.542" y="227.817" fill="#F47721"/>
    <rect width="28.358" height="28.324" x="142.542" y="199.487" fill="#F47721"/>
    <rect width="28.358" height="28.35" x="142.542" y="171.136" fill="#F47721"/>
    <rect width="28.358" height="28.35" x="142.542" y="142.793" fill="#F47721"/>
    <rect width="28.358" height="28.324" x="142.542" y="114.462" fill="#F47721"/>
    <rect width="28.358" height="28.35" x="142.542" y="86.112" fill="#F47721"/>
    <rect width="28.358" height="28.35" x="142.542" y="57.768" fill="#F47721"/>
    <rect width="28.358" height="28.324" x="142.542" y="29.437" fill="#FFF"/>
    <rect width="28.358" height="28.35" x="142.542" y="1.087" fill="#000"/>
    <rect width="28.339" height="28.35" x="114.21" y="397.866" fill="#000"/>
    <rect width="28.339" height="28.35" x="114.21" y="369.516" fill="#000"/>
    <rect width="28.339" height="28.324" x="114.21" y="341.192" fill="#000"/>
    <rect width="28.339" height="28.35" x="114.21" y="312.842" fill="#000"/>
    <rect width="28.339" height="28.324" x="114.21" y="284.511" fill="#000"/>
    <rect width="28.339" height="28.35" x="114.21" y="256.167" fill="#000"/>
    <rect width="28.339" height="28.35" x="114.21" y="227.817" fill="#000"/>
    <rect width="28.339" height="28.324" x="114.21" y="199.487" fill="#000"/>
    <rect width="28.339" height="28.35" x="114.21" y="171.136" fill="#000"/>
    <rect width="28.339" height="28.35" x="114.21" y="142.793" fill="#000"/>
    <rect width="28.339" height="28.324" x="114.21" y="114.462" fill="#000"/>
    <rect width="28.339" height="28.35" x="114.21" y="86.112" fill="#000"/>
    <rect width="28.339" height="28.35" x="114.21" y="57.768" fill="#000"/>
    <rect width="28.339" height="28.324" x="114.21" y="29.437" fill="#F47721"/>
    <rect width="28.339" height="28.35" x="114.21" y="1.087" fill="#000"/>
    <rect width="28.358" height="28.35" x="85.846" y="397.866" fill="#000"/>
    <rect width="28.358" height="28.35" x="85.846" y="369.516" fill="#F47721"/>
    <rect width="28.358" height="28.324" x="85.846" y="341.192" fill="#F47721"/>
    <rect width="28.358" height="28.35" x="85.846" y="312.842" fill="#F47721"/>
    <rect width="28.358" height="28.324" x="85.846" y="284.511" fill="#F47721"/>
    <rect width="28.358" height="28.35" x="85.846" y="256.167" fill="#F47721"/>
    <rect width="28.358" height="28.35" x="85.846" y="227.817" fill="#F47721"/>
    <rect width="28.358" height="28.324" x="85.846" y="199.487" fill="#F47721"/>
    <rect width="28.358" height="28.35" x="85.846" y="171.136" fill="#F47721"/>
    <rect width="28.358" height="28.35" x="85.846" y="142.793" fill="#F47721"/>
    <rect width="28.358" height="28.324" x="85.846" y="114.462" fill="#F47721"/>
    <rect width="28.358" height="28.35" x="85.846" y="86.112" fill="#F47721"/>
    <rect width="28.358" height="28.35" x="85.846" y="57.768" fill="#F47721"/>
    <rect width="28.358" height="28.324" x="85.846" y="29.437" fill="#F6EB14"/>
    <rect width="28.358" height="28.35" x="85.846" y="1.087" fill="#000"/>
    <rect width="28.358" height="28.35" x="57.487" y="397.866" fill="#000"/>
    <rect width="28.358" height="28.35" x="57.487" y="369.516" fill="#F47721"/>
    <rect width="28.358" height="28.324" x="57.487" y="341.192" fill="#F47721"/>
    <rect width="28.358" height="28.35" x="57.487" y="312.842" fill="#F47721"/>
    <rect width="28.358" height="28.324" x="57.487" y="284.511" fill="#F47721"/>
    <rect width="28.358" height="28.35" x="57.487" y="256.167" fill="#F47721"/>
    <rect width="28.358" height="28.35" x="57.487" y="227.817" fill="#F47721"/>
    <rect width="28.358" height="28.324" x="57.487" y="199.487" fill="#F47721"/>
    <rect width="28.358" height="28.35" x="57.487" y="171.136" fill="#F47721"/>
    <rect width="28.358" height="28.35" x="57.487" y="142.793" fill="#F47721"/>
    <rect width="28.358" height="28.324" x="57.487" y="114.462" fill="#F47721"/>
    <rect width="28.358" height="28.35" x="57.487" y="86.112" fill="#F47721"/>
    <rect width="28.358" height="28.35" x="57.487" y="57.768" fill="#F47721"/>
    <rect width="28.358" height="28.324" x="57.487" y="29.437" fill="#F6EB14"/>
    <rect width="28.358" height="28.35" x="57.487" y="1.087" fill="#000"/>
    <rect width="28.339" height="28.35" x="29.149" y="397.866" fill="#000"/>
    <rect width="28.339" height="28.35" x="29.149" y="369.516" fill="#F47721"/>
    <rect width="28.339" height="28.324" x="29.149" y="341.192" fill="#F47721"/>
    <rect width="28.339" height="28.35" x="29.149" y="312.842" fill="#F47721"/>
    <rect width="28.339" height="28.324" x="29.149" y="284.511" fill="#F47721"/>
    <rect width="28.339" height="28.35" x="29.149" y="256.167" fill="#F47721"/>
    <rect width="28.339" height="28.35" x="29.149" y="227.817" fill="#F47721"/>
    <rect width="28.339" height="28.324" x="29.149" y="199.487" fill="#F47721"/>
    <rect width="28.339" height="28.35" x="29.149" y="171.136" fill="#F47721"/>
    <rect width="28.339" height="28.35" x="29.149" y="142.793" fill="#F47721"/>
    <rect width="28.339" height="28.324" x="29.149" y="114.462" fill="#F47721"/>
    <rect width="28.339" height="28.35" x="29.149" y="86.112" fill="#F47721"/>
    <rect width="28.339" height="28.35" x="29.149" y="57.768" fill="#F47721"/>
    <rect width="28.339" height="28.324" x="29.149" y="29.437" fill="#F6EB14"/>
    <rect width="28.339" height="28.35" x="29.149" y="1.087" fill="#000"/>
    <rect width="28.358" height="28.35" x=".791" y="369.516" fill="#000"/>
    <rect width="28.358" height="28.324" x=".791" y="341.192" fill="#000"/>
    <rect width="28.358" height="28.35" x=".791" y="312.842" fill="#000"/>
    <rect width="28.358" height="28.324" x=".791" y="284.511" fill="#000"/>
    <rect width="28.358" height="28.35" x=".791" y="256.167" fill="#000"/>
    <rect width="28.358" height="28.35" x=".791" y="227.817" fill="#000"/>
    <rect width="28.358" height="28.324" x=".791" y="199.487" fill="#000"/>
    <rect width="28.358" height="28.35" x=".791" y="171.136" fill="#000"/>
    <rect width="28.358" height="28.35" x=".791" y="142.793" fill="#000"/>
    <rect width="28.358" height="28.324" x=".791" y="114.462" fill="#000"/>
    <rect width="28.358" height="28.35" x=".791" y="86.112" fill="#000"/>
    <rect width="28.358" height="28.35" x=".791" y="57.768" fill="#000"/>
    <rect width="28.358" height="28.324" x=".791" y="29.437" fill="#000"/>
  </g>
</svg>
