<svg xmlns="http://www.w3.org/2000/svg" width="512" height="512" viewBox="0 0 512 512">
  <g fill="none" fill-rule="evenodd" transform="translate(80)">
    <polyline fill="#FCFCFC" points="147.911 22.756 147.911 34.133 153.6 34.133 159.289 34.133 159.289 45.511 159.289 56.889 153.6 56.889 147.911 56.889 147.911 62.578 147.911 68.267 159.289 68.267 170.667 68.267 170.667 73.956 170.667 79.644 182.044 79.644 193.422 79.644 193.422 85.333 193.422 91.022 199.111 91.022 204.8 91.022 204.8 113.778 204.8 136.533 210.489 136.533 216.178 136.533 216.178 113.778 216.178 91.022 221.867 91.022 227.556 91.022 227.556 85.333 227.556 79.644 233.244 79.644 238.933 79.644 238.933 68.267 238.933 56.889 244.622 56.889 250.311 56.889 250.311 51.2 250.311 45.511 256 45.511 261.689 45.511 261.689 51.2 261.689 56.889 267.378 56.889 273.067 56.889 273.067 91.022 273.067 125.156 267.378 125.156 261.689 125.156 261.689 130.844 261.689 136.533 250.311 136.533 238.933 136.533 238.933 142.222 238.933 147.911 244.622 147.911 250.311 147.911 250.311 159.289 250.311 170.667 256 170.667 261.689 170.667 261.689 182.044 261.689 193.422 267.378 193.422 273.067 193.422 273.067 210.489 273.067 227.556 278.756 227.556 284.444 227.556 284.444 256 284.444 284.444 278.756 284.444 273.067 284.444 273.067 295.822 273.067 307.2 267.378 307.2 261.689 307.2 261.689 312.889 261.689 318.578 267.378 318.578 273.067 318.578 273.067 335.644 273.067 352.711 278.756 352.711 284.444 352.711 284.444 369.778 284.444 386.844 290.133 386.844 295.822 386.844 295.822 403.911 295.822 420.978 290.133 420.978 284.444 420.978 284.444 426.667 284.444 432.356 307.2 432.356 329.956 432.356 329.956 438.044 329.956 443.733 335.644 443.733 341.333 443.733 341.333 466.489 341.333 489.244 335.644 489.244 329.956 489.244 329.956 494.933 329.956 500.622 307.2 500.622 284.444 500.622 284.444 494.933 284.444 489.244 278.756 489.244 273.067 489.244 273.067 466.489 273.067 443.733 267.378 443.733 261.689 443.733 261.689 455.111 261.689 466.489 256 466.489 250.311 466.489 250.311 455.111 250.311 443.733 244.622 443.733 238.933 443.733 238.933 460.8 238.933 477.867 210.489 477.867 182.044 477.867 182.044 432.356 182.044 386.844 176.356 386.844 170.667 386.844 170.667 432.356 170.667 477.867 142.222 477.867 113.778 477.867 113.778 466.489 113.778 455.111 108.089 455.111 102.4 455.111 102.4 466.489 102.4 477.867 96.711 477.867 91.022 477.867 91.022 466.489 91.022 455.111 96.711 455.111 102.4 455.111 102.4 432.356 102.4 409.6 96.711 409.6 91.022 409.6 91.022 426.667 91.022 443.733 85.333 443.733 79.644 443.733 79.644 466.489 79.644 489.244 73.956 489.244 68.267 489.244 68.267 494.933 68.267 500.622 45.511 500.622 22.756 500.622 22.756 494.933 22.756 489.244 17.067 489.244 11.378 489.244 11.378 466.489 11.378 443.733 17.067 443.733 22.756 443.733 22.756 438.044 22.756 432.356 45.511 432.356 68.267 432.356 68.267 426.667 68.267 420.978 62.578 420.978 56.889 420.978 56.889 403.911 56.889 386.844 62.578 386.844 68.267 386.844 68.267 369.778 68.267 352.711 73.956 352.711 79.644 352.711 79.644 335.644 79.644 318.578 85.333 318.578 91.022 318.578 91.022 312.889 91.022 307.2 85.333 307.2 79.644 307.2 79.644 295.822 79.644 284.444 73.956 284.444 68.267 284.444 68.267 233.244 68.267 182.044 56.889 182.044 45.511 182.044 45.511 176.356 45.511 170.667 51.2 170.667 56.889 170.667 56.889 159.289 56.889 147.911 45.511 147.911 34.133 147.911 34.133 119.467 34.133 91.022 39.822 91.022 45.511 91.022 45.511 85.333 45.511 79.644 51.2 79.644 56.889 79.644 56.889 85.333 56.889 91.022 62.578 91.022 68.267 91.022 68.267 96.711 68.267 102.4 73.956 102.4 79.644 102.4 79.644 113.778 79.644 125.156 85.333 125.156 91.022 125.156 91.022 119.467 91.022 113.778 102.4 113.778 113.778 113.778 113.778 108.089 113.778 102.4 136.533 102.4 159.289 102.4 159.289 96.711 159.289 91.022 142.222 91.022 125.156 91.022 125.156 85.333 125.156 79.644 136.533 79.644 147.911 79.644 147.911 73.956 147.911 68.267 136.533 68.267 125.156 68.267 125.156 62.578 125.156 56.889 130.844 56.889 136.533 56.889 136.533 51.2 136.533 45.511 142.222 45.511 147.911 45.511 147.911 39.822 147.911 34.133 142.222 34.133 136.533 34.133 136.533 22.756 136.533 11.378 142.222 11.378 147.911 11.378 147.911 22.756"/>
    <path fill="#040404" d="M136.533333,5.68888889 L136.533333,11.3777778 L130.844444,11.3777778 L125.155556,11.3777778 L125.155556,34.1333333 L125.155556,56.8888889 L119.466667,56.8888889 L113.777778,56.8888889 L113.777778,79.6444444 L113.777778,102.4 L96.7111111,102.4 L79.6444444,102.4 L79.6444444,96.7111111 L79.6444444,91.0222222 L73.9555556,91.0222222 L68.2666667,91.0222222 L68.2666667,85.3333333 L68.2666667,79.6444444 L62.5777778,79.6444444 L56.8888889,79.6444444 L56.8888889,73.9555556 L56.8888889,68.2666667 L51.2,68.2666667 L45.5111111,68.2666667 L45.5111111,73.9555556 L45.5111111,79.6444444 L39.8222222,79.6444444 L34.1333333,79.6444444 L34.1333333,85.3333333 L34.1333333,91.0222222 L28.4444444,91.0222222 L22.7555556,91.0222222 L22.7555556,119.466667 L22.7555556,147.911111 L28.4444444,147.911111 L34.1333333,147.911111 L34.1333333,153.6 L34.1333333,159.288889 L39.8222222,159.288889 L45.5111111,159.288889 L45.5111111,164.977778 L45.5111111,170.666667 L39.8222222,170.666667 L34.1333333,170.666667 L34.1333333,176.355556 L34.1333333,182.044444 L39.8222222,182.044444 L45.5111111,182.044444 L45.5111111,187.733333 L45.5111111,193.422222 L51.2,193.422222 L56.8888889,193.422222 L56.8888889,238.933333 L56.8888889,284.444444 L62.5777778,284.444444 L68.2666667,284.444444 L68.2666667,295.822222 L68.2666667,307.2 L73.9555556,307.2 L79.6444444,307.2 L79.6444444,312.888889 L79.6444444,318.577778 L73.9555556,318.577778 L68.2666667,318.577778 L68.2666667,335.644444 L68.2666667,352.711111 L62.5777778,352.711111 L56.8888889,352.711111 L56.8888889,369.777778 L56.8888889,386.844444 L51.2,386.844444 L45.5111111,386.844444 L45.5111111,398.222222 L45.5111111,409.6 L39.8222222,409.6 L34.1333333,409.6 L34.1333333,415.288889 L34.1333333,420.977778 L28.4444444,420.977778 L22.7555556,420.977778 L22.7555556,426.666667 L22.7555556,432.355556 L17.0666667,432.355556 L11.3777778,432.355556 L11.3777778,438.044444 L11.3777778,443.733333 L5.68888889,443.733333 L0,443.733333 L0,466.488889 L0,489.244444 L5.68888889,489.244444 L11.3777778,489.244444 L11.3777778,494.933333 L11.3777778,500.622222 L17.0666667,500.622222 L22.7555556,500.622222 L22.7555556,506.311111 L22.7555556,512 L45.5111111,512 L68.2666667,512 L68.2666667,506.311111 L68.2666667,500.622222 L73.9555556,500.622222 L79.6444444,500.622222 L79.6444444,494.933333 L79.6444444,489.244444 L96.7111111,489.244444 L113.777778,489.244444 L113.777778,494.933333 L113.777778,500.622222 L119.466667,500.622222 L125.155556,500.622222 L125.155556,506.311111 L125.155556,512 L176.355556,512 L227.555556,512 L227.555556,506.311111 L227.555556,500.622222 L233.244444,500.622222 L238.933333,500.622222 L238.933333,489.244444 L238.933333,477.866667 L250.311111,477.866667 L261.688889,477.866667 L261.688889,483.555556 L261.688889,489.244444 L267.377778,489.244444 L273.066667,489.244444 L273.066667,494.933333 L273.066667,500.622222 L278.755556,500.622222 L284.444444,500.622222 L284.444444,506.311111 L284.444444,512 L307.2,512 L329.955556,512 L329.955556,506.311111 L329.955556,500.622222 L335.644444,500.622222 L341.333333,500.622222 L341.333333,494.933333 L341.333333,489.244444 L347.022222,489.244444 L352.711111,489.244444 L352.711111,466.488889 L352.711111,443.733333 L347.022222,443.733333 L341.333333,443.733333 L341.333333,438.044444 L341.333333,432.355556 L335.644444,432.355556 L329.955556,432.355556 L329.955556,426.666667 L329.955556,420.977778 L324.266667,420.977778 L318.577778,420.977778 L318.577778,415.288889 L318.577778,409.6 L312.888889,409.6 L307.2,409.6 L307.2,398.222222 L307.2,386.844444 L301.511111,386.844444 L295.822222,386.844444 L295.822222,369.777778 L295.822222,352.711111 L290.133333,352.711111 L284.444444,352.711111 L284.444444,335.644444 L284.444444,318.577778 L278.755556,318.577778 L273.066667,318.577778 L273.066667,312.888889 L273.066667,307.2 L278.755556,307.2 L284.444444,307.2 L284.444444,295.822222 L284.444444,284.444444 L290.133333,284.444444 L295.822222,284.444444 L295.822222,256 L295.822222,227.555556 L290.133333,227.555556 L284.444444,227.555556 L284.444444,210.488889 L284.444444,193.422222 L278.755556,193.422222 L273.066667,193.422222 L273.066667,182.044444 L273.066667,170.666667 L267.377778,170.666667 L261.688889,170.666667 L261.688889,153.6 L261.688889,136.533333 L267.377778,136.533333 L273.066667,136.533333 L273.066667,130.844444 L273.066667,125.155556 L278.755556,125.155556 L284.444444,125.155556 L284.444444,91.0222222 L284.444444,56.8888889 L278.755556,56.8888889 L273.066667,56.8888889 L273.066667,51.2 L273.066667,45.5111111 L267.377778,45.5111111 L261.688889,45.5111111 L261.688889,39.8222222 L261.688889,34.1333333 L256,34.1333333 L250.311111,34.1333333 L250.311111,39.8222222 L250.311111,45.5111111 L244.622222,45.5111111 L238.933333,45.5111111 L238.933333,51.2 L238.933333,56.8888889 L233.244444,56.8888889 L227.555556,56.8888889 L227.555556,68.2666667 L227.555556,79.6444444 L221.866667,79.6444444 L216.177778,79.6444444 L216.177778,85.3333333 L216.177778,91.0222222 L210.488889,91.0222222 L204.8,91.0222222 L204.8,85.3333333 L204.8,79.6444444 L199.111111,79.6444444 L193.422222,79.6444444 L193.422222,73.9555556 L193.422222,68.2666667 L187.733333,68.2666667 L182.044444,68.2666667 L182.044444,62.5777778 L182.044444,56.8888889 L176.355556,56.8888889 L170.666667,56.8888889 L170.666667,45.5111111 L170.666667,34.1333333 L164.977778,34.1333333 L159.288889,34.1333333 L159.288889,22.7555556 L159.288889,11.3777778 L153.6,11.3777778 L147.911111,11.3777778 L147.911111,5.68888889 L147.911111,0 L142.222222,0 L136.533333,0 L136.533333,5.68888889 M147.911111,22.7555556 L147.911111,34.1333333 L153.6,34.1333333 L159.288889,34.1333333 L159.288889,45.5111111 L159.288889,56.8888889 L153.6,56.8888889 L147.911111,56.8888889 L147.911111,62.5777778 L147.911111,68.2666667 L159.288889,68.2666667 L170.666667,68.2666667 L170.666667,73.9555556 L170.666667,79.6444444 L182.044444,79.6444444 L193.422222,79.6444444 L193.422222,85.3333333 L193.422222,91.0222222 L199.111111,91.0222222 L204.8,91.0222222 L204.8,113.777778 L204.8,136.533333 L210.488889,136.533333 L216.177778,136.533333 L216.177778,113.777778 L216.177778,91.0222222 L221.866667,91.0222222 L227.555556,91.0222222 L227.555556,85.3333333 L227.555556,79.6444444 L233.244444,79.6444444 L238.933333,79.6444444 L238.933333,68.2666667 L238.933333,56.8888889 L244.622222,56.8888889 L250.311111,56.8888889 L250.311111,51.2 L250.311111,45.5111111 L256,45.5111111 L261.688889,45.5111111 L261.688889,51.2 L261.688889,56.8888889 L267.377778,56.8888889 L273.066667,56.8888889 L273.066667,91.0222222 L273.066667,125.155556 L267.377778,125.155556 L261.688889,125.155556 L261.688889,130.844444 L261.688889,136.533333 L250.311111,136.533333 L238.933333,136.533333 L238.933333,142.222222 L238.933333,147.911111 L244.622222,147.911111 L250.311111,147.911111 L250.311111,159.288889 L250.311111,170.666667 L256,170.666667 L261.688889,170.666667 L261.688889,182.044444 L261.688889,193.422222 L267.377778,193.422222 L273.066667,193.422222 L273.066667,210.488889 L273.066667,227.555556 L278.755556,227.555556 L284.444444,227.555556 L284.444444,256 L284.444444,284.444444 L278.755556,284.444444 L273.066667,284.444444 L273.066667,295.822222 L273.066667,307.2 L267.377778,307.2 L261.688889,307.2 L261.688889,312.888889 L261.688889,318.577778 L267.377778,318.577778 L273.066667,318.577778 L273.066667,335.644444 L273.066667,352.711111 L278.755556,352.711111 L284.444444,352.711111 L284.444444,369.777778 L284.444444,386.844444 L290.133333,386.844444 L295.822222,386.844444 L295.822222,403.911111 L295.822222,420.977778 L290.133333,420.977778 L284.444444,420.977778 L284.444444,426.666667 L284.444444,432.355556 L307.2,432.355556 L329.955556,432.355556 L329.955556,438.044444 L329.955556,443.733333 L335.644444,443.733333 L341.333333,443.733333 L341.333333,466.488889 L341.333333,489.244444 L335.644444,489.244444 L329.955556,489.244444 L329.955556,494.933333 L329.955556,500.622222 L307.2,500.622222 L284.444444,500.622222 L284.444444,494.933333 L284.444444,489.244444 L278.755556,489.244444 L273.066667,489.244444 L273.066667,466.488889 L273.066667,443.733333 L267.377778,443.733333 L261.688889,443.733333 L261.688889,455.111111 L261.688889,466.488889 L256,466.488889 L250.311111,466.488889 L250.311111,455.111111 L250.311111,443.733333 L244.622222,443.733333 L238.933333,443.733333 L238.933333,460.8 L238.933333,477.866667 L210.488889,477.866667 L182.044444,477.866667 L182.044444,432.355556 L182.044444,386.844444 L176.355556,386.844444 L170.666667,386.844444 L170.666667,432.355556 L170.666667,477.866667 L142.222222,477.866667 L113.777778,477.866667 L113.777778,466.488889 L113.777778,455.111111 L108.088889,455.111111 L102.4,455.111111 L102.4,466.488889 L102.4,477.866667 L96.7111111,477.866667 L91.0222222,477.866667 L91.0222222,466.488889 L91.0222222,455.111111 L96.7111111,455.111111 L102.4,455.111111 L102.4,432.355556 L102.4,409.6 L96.7111111,409.6 L91.0222222,409.6 L91.0222222,426.666667 L91.0222222,443.733333 L85.3333333,443.733333 L79.6444444,443.733333 L79.6444444,466.488889 L79.6444444,489.244444 L73.9555556,489.244444 L68.2666667,489.244444 L68.2666667,494.933333 L68.2666667,500.622222 L45.5111111,500.622222 L22.7555556,500.622222 L22.7555556,494.933333 L22.7555556,489.244444 L17.0666667,489.244444 L11.3777778,489.244444 L11.3777778,466.488889 L11.3777778,443.733333 L17.0666667,443.733333 L22.7555556,443.733333 L22.7555556,438.044444 L22.7555556,432.355556 L45.5111111,432.355556 L68.2666667,432.355556 L68.2666667,426.666667 L68.2666667,420.977778 L62.5777778,420.977778 L56.8888889,420.977778 L56.8888889,403.911111 L56.8888889,386.844444 L62.5777778,386.844444 L68.2666667,386.844444 L68.2666667,369.777778 L68.2666667,352.711111 L73.9555556,352.711111 L79.6444444,352.711111 L79.6444444,335.644444 L79.6444444,318.577778 L85.3333333,318.577778 L91.0222222,318.577778 L91.0222222,312.888889 L91.0222222,307.2 L85.3333333,307.2 L79.6444444,307.2 L79.6444444,295.822222 L79.6444444,284.444444 L73.9555556,284.444444 L68.2666667,284.444444 L68.2666667,233.244444 L68.2666667,182.044444 L56.8888889,182.044444 L45.5111111,182.044444 L45.5111111,176.355556 L45.5111111,170.666667 L51.2,170.666667 L56.8888889,170.666667 L56.8888889,159.288889 L56.8888889,147.911111 L45.5111111,147.911111 L34.1333333,147.911111 L34.1333333,119.466667 L34.1333333,91.0222222 L39.8222222,91.0222222 L45.5111111,91.0222222 L45.5111111,85.3333333 L45.5111111,79.6444444 L51.2,79.6444444 L56.8888889,79.6444444 L56.8888889,85.3333333 L56.8888889,91.0222222 L62.5777778,91.0222222 L68.2666667,91.0222222 L68.2666667,96.7111111 L68.2666667,102.4 L73.9555556,102.4 L79.6444444,102.4 L79.6444444,113.777778 L79.6444444,125.155556 L85.3333333,125.155556 L91.0222222,125.155556 L91.0222222,119.466667 L91.0222222,113.777778 L102.4,113.777778 L113.777778,113.777778 L113.777778,108.088889 L113.777778,102.4 L136.533333,102.4 L159.288889,102.4 L159.288889,96.7111111 L159.288889,91.0222222 L142.222222,91.0222222 L125.155556,91.0222222 L125.155556,85.3333333 L125.155556,79.6444444 L136.533333,79.6444444 L147.911111,79.6444444 L147.911111,73.9555556 L147.911111,68.2666667 L136.533333,68.2666667 L125.155556,68.2666667 L125.155556,62.5777778 L125.155556,56.8888889 L130.844444,56.8888889 L136.533333,56.8888889 L136.533333,51.2 L136.533333,45.5111111 L142.222222,45.5111111 L147.911111,45.5111111 L147.911111,39.8222222 L147.911111,34.1333333 L142.222222,34.1333333 L136.533333,34.1333333 L136.533333,22.7555556 L136.533333,11.3777778 L142.222222,11.3777778 L147.911111,11.3777778 L147.911111,22.7555556 M159.288889,85.3333333 L159.288889,91.0222222 L164.977778,91.0222222 L170.666667,91.0222222 L170.666667,85.3333333 L170.666667,79.6444444 L164.977778,79.6444444 L159.288889,79.6444444 L159.288889,85.3333333 M250.311111,85.3333333 L250.311111,91.0222222 L244.622222,91.0222222 L238.933333,91.0222222 L238.933333,108.088889 L238.933333,125.155556 L244.622222,125.155556 L250.311111,125.155556 L250.311111,108.088889 L250.311111,91.0222222 L256,91.0222222 L261.688889,91.0222222 L261.688889,85.3333333 L261.688889,79.6444444 L256,79.6444444 L250.311111,79.6444444 L250.311111,85.3333333 M45.5111111,119.466667 L45.5111111,136.533333 L51.2,136.533333 L56.8888889,136.533333 L56.8888889,142.222222 L56.8888889,147.911111 L62.5777778,147.911111 L68.2666667,147.911111 L68.2666667,142.222222 L68.2666667,136.533333 L73.9555556,136.533333 L79.6444444,136.533333 L79.6444444,130.844444 L79.6444444,125.155556 L73.9555556,125.155556 L68.2666667,125.155556 L68.2666667,130.844444 L68.2666667,136.533333 L62.5777778,136.533333 L56.8888889,136.533333 L56.8888889,119.466667 L56.8888889,102.4 L51.2,102.4 L45.5111111,102.4 L45.5111111,119.466667 M193.422222,142.222222 L193.422222,147.911111 L187.733333,147.911111 L182.044444,147.911111 L182.044444,153.6 L182.044444,159.288889 L176.355556,159.288889 L170.666667,159.288889 L170.666667,164.977778 L170.666667,170.666667 L159.288889,170.666667 L147.911111,170.666667 L147.911111,164.977778 L147.911111,159.288889 L119.466667,159.288889 L91.0222222,159.288889 L91.0222222,164.977778 L91.0222222,170.666667 L79.6444444,170.666667 L68.2666667,170.666667 L68.2666667,176.355556 L68.2666667,182.044444 L79.6444444,182.044444 L91.0222222,182.044444 L91.0222222,176.355556 L91.0222222,170.666667 L119.466667,170.666667 L147.911111,170.666667 L147.911111,176.355556 L147.911111,182.044444 L159.288889,182.044444 L170.666667,182.044444 L170.666667,176.355556 L170.666667,170.666667 L176.355556,170.666667 L182.044444,170.666667 L182.044444,164.977778 L182.044444,159.288889 L187.733333,159.288889 L193.422222,159.288889 L193.422222,153.6 L193.422222,147.911111 L199.111111,147.911111 L204.8,147.911111 L204.8,142.222222 L204.8,136.533333 L199.111111,136.533333 L193.422222,136.533333 L193.422222,142.222222 M204.8,176.355556 L204.8,182.044444 L210.488889,182.044444 L216.177778,182.044444 L216.177778,187.733333 L216.177778,193.422222 L210.488889,193.422222 L204.8,193.422222 L204.8,204.8 L204.8,216.177778 L216.177778,216.177778 L227.555556,216.177778 L227.555556,193.422222 L227.555556,170.666667 L216.177778,170.666667 L204.8,170.666667 L204.8,176.355556 M102.4,187.733333 L102.4,193.422222 L108.088889,193.422222 L113.777778,193.422222 L113.777778,199.111111 L113.777778,204.8 L108.088889,204.8 L102.4,204.8 L102.4,216.177778 L102.4,227.555556 L113.777778,227.555556 L125.155556,227.555556 L125.155556,204.8 L125.155556,182.044444 L113.777778,182.044444 L102.4,182.044444 L102.4,187.733333 M136.533333,256 L136.533333,261.688889 L142.222222,261.688889 L147.911111,261.688889 L147.911111,256 L147.911111,250.311111 L142.222222,250.311111 L136.533333,250.311111 L136.533333,256 M204.8,256 L204.8,261.688889 L210.488889,261.688889 L216.177778,261.688889 L216.177778,256 L216.177778,250.311111 L210.488889,250.311111 L204.8,250.311111 L204.8,256 M91.0222222,324.266667 L91.0222222,329.955556 L96.7111111,329.955556 L102.4,329.955556 L102.4,335.644444 L102.4,341.333333 L113.777778,341.333333 L125.155556,341.333333 L125.155556,347.022222 L125.155556,352.711111 L170.666667,352.711111 L216.177778,352.711111 L216.177778,347.022222 L216.177778,341.333333 L227.555556,341.333333 L238.933333,341.333333 L238.933333,335.644444 L238.933333,329.955556 L250.311111,329.955556 L261.688889,329.955556 L261.688889,324.266667 L261.688889,318.577778 L250.311111,318.577778 L238.933333,318.577778 L238.933333,324.266667 L238.933333,329.955556 L227.555556,329.955556 L216.177778,329.955556 L216.177778,335.644444 L216.177778,341.333333 L170.666667,341.333333 L125.155556,341.333333 L125.155556,335.644444 L125.155556,329.955556 L113.777778,329.955556 L102.4,329.955556 L102.4,324.266667 L102.4,318.577778 L96.7111111,318.577778 L91.0222222,318.577778 L91.0222222,324.266667 M261.688889,386.844444 L261.688889,398.222222 L256,398.222222 L250.311111,398.222222 L250.311111,420.977778 L250.311111,443.733333 L256,443.733333 L261.688889,443.733333 L261.688889,420.977778 L261.688889,398.222222 L267.377778,398.222222 L273.066667,398.222222 L273.066667,386.844444 L273.066667,375.466667 L267.377778,375.466667 L261.688889,375.466667 L261.688889,386.844444 M79.6444444,398.222222 L79.6444444,409.6 L85.3333333,409.6 L91.0222222,409.6 L91.0222222,398.222222 L91.0222222,386.844444 L85.3333333,386.844444 L79.6444444,386.844444 L79.6444444,398.222222 M68.2666667,438.044444 L68.2666667,443.733333 L73.9555556,443.733333 L79.6444444,443.733333 L79.6444444,438.044444 L79.6444444,432.355556 L73.9555556,432.355556 L68.2666667,432.355556 L68.2666667,438.044444 M273.066667,438.044444 L273.066667,443.733333 L278.755556,443.733333 L284.444444,443.733333 L284.444444,438.044444 L284.444444,432.355556 L278.755556,432.355556 L273.066667,432.355556 L273.066667,438.044444 M170.666667,494.933333 L170.666667,500.622222 L147.911111,500.622222 L125.155556,500.622222 L125.155556,494.933333 L125.155556,489.244444 L147.911111,489.244444 L170.666667,489.244444 L170.666667,494.933333 M227.555556,494.933333 L227.555556,500.622222 L204.8,500.622222 L182.044444,500.622222 L182.044444,494.933333 L182.044444,489.244444 L204.8,489.244444 L227.555556,489.244444 L227.555556,494.933333"/>
    <path fill="#FFA9D7" d="M136.533333,22.7555556 L136.533333,34.1333333 L142.222222,34.1333333 L147.911111,34.1333333 L147.911111,39.8222222 L147.911111,45.5111111 L142.222222,45.5111111 L136.533333,45.5111111 L136.533333,51.2 L136.533333,56.8888889 L130.844444,56.8888889 L125.155556,56.8888889 L125.155556,62.5777778 L125.155556,68.2666667 L136.533333,68.2666667 L147.911111,68.2666667 L147.911111,73.9555556 L147.911111,79.6444444 L136.533333,79.6444444 L125.155556,79.6444444 L125.155556,85.3333333 L125.155556,91.0222222 L142.222222,91.0222222 L159.288889,91.0222222 L159.288889,85.3333333 L159.288889,79.6444444 L164.977778,79.6444444 L170.666667,79.6444444 L170.666667,73.9555556 L170.666667,68.2666667 L159.288889,68.2666667 L147.911111,68.2666667 L147.911111,62.5777778 L147.911111,56.8888889 L153.6,56.8888889 L159.288889,56.8888889 L159.288889,45.5111111 L159.288889,34.1333333 L153.6,34.1333333 L147.911111,34.1333333 L147.911111,22.7555556 L147.911111,11.3777778 L142.222222,11.3777778 L136.533333,11.3777778 L136.533333,22.7555556 M22.7555556,438.044444 L22.7555556,443.733333 L17.0666667,443.733333 L11.3777778,443.733333 L11.3777778,466.488889 L11.3777778,489.244444 L17.0666667,489.244444 L22.7555556,489.244444 L22.7555556,494.933333 L22.7555556,500.622222 L45.5111111,500.622222 L68.2666667,500.622222 L68.2666667,494.933333 L68.2666667,489.244444 L73.9555556,489.244444 L79.6444444,489.244444 L79.6444444,466.488889 L79.6444444,443.733333 L73.9555556,443.733333 L68.2666667,443.733333 L68.2666667,438.044444 L68.2666667,432.355556 L45.5111111,432.355556 L22.7555556,432.355556 L22.7555556,438.044444 M284.444444,438.044444 L284.444444,443.733333 L278.755556,443.733333 L273.066667,443.733333 L273.066667,466.488889 L273.066667,489.244444 L278.755556,489.244444 L284.444444,489.244444 L284.444444,494.933333 L284.444444,500.622222 L307.2,500.622222 L329.955556,500.622222 L329.955556,494.933333 L329.955556,489.244444 L335.644444,489.244444 L341.333333,489.244444 L341.333333,466.488889 L341.333333,443.733333 L335.644444,443.733333 L329.955556,443.733333 L329.955556,438.044444 L329.955556,432.355556 L307.2,432.355556 L284.444444,432.355556 L284.444444,438.044444 M125.155556,494.933333 L125.155556,500.622222 L147.911111,500.622222 L170.666667,500.622222 L170.666667,494.933333 L170.666667,489.244444 L147.911111,489.244444 L125.155556,489.244444 L125.155556,494.933333 M182.044444,494.933333 L182.044444,500.622222 L204.8,500.622222 L227.555556,500.622222 L227.555556,494.933333 L227.555556,489.244444 L204.8,489.244444 L182.044444,489.244444 L182.044444,494.933333"/>
    <g transform="translate(45.511 79.644)">
      <polyline fill="#E40045" points="68.267 28.444 68.267 34.133 56.889 34.133 45.511 34.133 45.511 39.822 45.511 45.511 39.822 45.511 34.133 45.511 34.133 51.2 34.133 56.889 28.444 56.889 22.756 56.889 22.756 62.578 22.756 68.267 17.067 68.267 11.378 68.267 11.378 79.644 11.378 91.022 5.689 91.022 0 91.022 0 96.711 0 102.4 11.378 102.4 22.756 102.4 22.756 96.711 22.756 91.022 28.444 91.022 34.133 91.022 34.133 79.644 34.133 68.267 39.822 68.267 45.511 68.267 45.511 62.578 45.511 56.889 51.2 56.889 56.889 56.889 56.889 51.2 56.889 45.511 62.578 45.511 68.267 45.511 68.267 39.822 68.267 34.133 73.956 34.133 79.644 34.133 79.644 28.444 79.644 22.756 73.956 22.756 68.267 22.756 68.267 28.444"/>
      <polyline fill="#F5A623" points="79.644 28.444 79.644 34.133 73.956 34.133 68.267 34.133 68.267 39.822 68.267 45.511 62.578 45.511 56.889 45.511 56.889 51.2 56.889 56.889 51.2 56.889 45.511 56.889 45.511 62.578 45.511 68.267 39.822 68.267 34.133 68.267 34.133 79.644 34.133 91.022 39.822 91.022 45.511 91.022 45.511 85.333 45.511 79.644 56.889 79.644 68.267 79.644 68.267 73.956 68.267 68.267 73.956 68.267 79.644 68.267 79.644 62.578 79.644 56.889 85.333 56.889 91.022 56.889 91.022 51.2 91.022 45.511 96.711 45.511 102.4 45.511 102.4 39.822 102.4 34.133 108.089 34.133 113.778 34.133 113.778 28.444 113.778 22.756 96.711 22.756 79.644 22.756 79.644 28.444"/>
      <polygon fill="#0F0" points="133.689 11.378 129.422 11.378 125.156 11.378 125.156 22.756 125.156 34.133 120.889 34.133 116.622 34.133 116.622 39.822 116.622 45.511 112.356 45.511 108.089 45.511 108.089 51.2 108.089 56.889 103.822 56.889 99.556 56.889 99.556 62.578 99.556 68.267 95.289 68.267 91.022 68.267 91.022 73.956 91.022 79.644 103.822 79.644 102.4 79.644 102.4 85.333 102.4 91.022 120.889 91.022 125.156 91.022 125.156 79.644 125.156 68.267 129.422 68.267 133.689 68.267 133.689 62.578 133.689 56.889 137.956 56.889 142.222 56.889 142.222 51.2 142.222 45.511 146.489 45.511 150.756 45.511 150.756 39.822 150.756 34.133 155.022 34.133 159.289 34.133 159.289 22.756 159.289 11.378 155.022 11.378 150.756 11.378 150.756 5.689 150.756 0 142.222 0 133.689 0 133.689 5.689"/>
      <polygon fill="#F8E71C" points="113.778 11.378 113.778 22.756 106.667 22.756 106.667 34.133 101.867 34.133 97.067 34.133 97.067 39.822 97.067 45.511 92.267 45.511 87.467 45.511 87.467 51.2 87.467 56.889 82.667 56.889 77.867 56.889 77.867 62.578 77.867 68.267 73.067 68.267 68.267 68.267 68.267 73.956 68.267 79.644 101.867 80.514 101.867 68.267 107.838 68.267 107.838 62.578 108.089 56.889 116.267 56.889 116.267 51.2 121.067 51.2 121.067 45.511 125.867 45.511 125.867 34.133 133.689 34.133 133.689 11.378 133.689 0 125.156 0 125.156 11.378"/>
      <polyline fill="#2835DA" points="147.911 39.822 147.911 45.511 142.222 45.511 136.533 45.511 136.533 51.2 136.533 56.889 130.844 56.889 125.156 56.889 125.156 62.578 125.156 68.267 119.467 68.267 113.778 68.267 113.778 79.644 113.778 91.022 119.467 91.022 125.156 91.022 125.156 85.333 125.156 79.644 130.844 79.644 136.533 79.644 136.533 73.956 136.533 68.267 142.222 68.267 147.911 68.267 147.911 62.578 147.911 56.889 153.6 56.889 159.289 56.889 159.289 45.511 159.289 34.133 153.6 34.133 147.911 34.133 147.911 39.822"/>
    </g>
  </g>
</svg>
