<?xml version="1.0" encoding="UTF-8"?>
<svg width="1000px" height="1000px" viewBox="0 0 1000 1000" version="1.1" xmlns="http://www.w3.org/2000/svg" xmlns:xlink="http://www.w3.org/1999/xlink">
    <title>Square</title>
    <g id="Square" stroke="none" stroke-width="1" fill="none" fill-rule="evenodd">
        <g id="YellowPotion" transform="translate(279.310345, 244.000000)">
            <polyline id="Fill-749" fill="#1A1919" points="412.795586 437.08469 412.795586 461.364966 437.075862 461.364966 437.075862 388.51531 412.795586 388.51531 412.795586 437.08469"></polyline>
            <polygon id="Fill-750" fill="#1A1919" points="388.51531 485.645241 412.795586 485.645241 412.795586 461.364966 388.51531 461.364966"></polygon>
            <polyline id="Fill-751" fill="#879698" points="388.51531 412.804414 388.51531 461.364966 412.795586 461.364966 412.795586 388.51531 388.51531 388.51531 388.51531 412.804414"></polyline>
            <polygon id="Fill-752" fill="#1A1919" points="388.51531 388.51531 412.795586 388.51531 412.795586 364.235034 388.51531 364.235034"></polygon>
            <polyline id="Fill-753" fill="#879698" points="364.235034 461.364966 242.816 461.364966 242.816 485.645241 388.51531 485.645241 388.51531 461.364966 364.235034 461.364966"></polyline>
            <polygon id="Fill-754" fill="#879698" points="364.235034 388.51531 388.51531 388.51531 388.51531 364.235034 364.235034 364.235034"></polygon>
            <polygon id="Fill-755" fill="#1A1919" points="364.235034 364.235034 388.51531 364.235034 388.51531 339.959172 364.235034 339.959172"></polygon>
            <polyline id="Fill-756" fill="#1A1919" points="339.945931 485.645241 48.5605517 485.645241 48.5605517 509.934345 388.51531 509.934345 388.51531 485.645241 339.945931 485.645241"></polyline>
            <polyline id="Fill-757" fill="#B78132" points="339.945931 412.804414 339.945931 437.08469 291.385379 437.08469 291.385379 461.364966 388.51531 461.364966 388.51531 388.51531 364.235034 388.51531 364.235034 412.804414 339.945931 412.804414"></polyline>
            <polygon id="Fill-758" fill="#B78132" points="339.945931 388.51531 364.235034 388.51531 364.235034 364.235034 339.945931 364.235034"></polygon>
            <polygon id="Fill-759" fill="#879698" points="339.945931 364.235034 364.235034 364.235034 364.235034 339.959172 339.945931 339.959172"></polygon>
            <polygon id="Fill-760" fill="#1A1919" points="339.945931 339.959172 364.235034 339.959172 364.235034 315.678897 339.945931 315.678897"></polygon>
            <polygon id="Fill-761" fill="#B78132" points="315.665655 364.235034 339.945931 364.235034 339.945931 339.959172 315.665655 339.959172"></polygon>
            <polygon id="Fill-762" fill="#879698" points="315.665655 339.959172 339.945931 339.959172 339.945931 315.678897 315.665655 315.678897"></polygon>
            <polygon id="Fill-763" fill="#1A1919" points="315.665655 315.678897 339.945931 315.678897 339.945931 291.385379 315.665655 291.385379"></polygon>
            <polygon id="Fill-764" fill="#879698" points="291.385379 315.678897 315.665655 315.678897 315.665655 291.385379 291.385379 291.385379"></polygon>
            <polygon id="Fill-765" fill="#1A1919" points="291.385379 291.385379 315.665655 291.385379 315.665655 267.109517 291.385379 267.109517"></polygon>
            <polygon id="Fill-766" fill="#1A1919" points="291.385379 97.129931 315.665655 97.129931 315.665655 48.5693793 291.385379 48.5693793"></polygon>
            <polyline id="Fill-767" fill="#DDB02D" points="267.109517 339.959172 194.259862 339.959172 194.259862 364.235034 169.966345 364.235034 169.966345 388.51531 145.686069 388.51531 145.686069 461.364966 242.816 461.364966 242.816 437.08469 267.109517 437.08469 267.109517 461.364966 291.385379 461.364966 291.385379 437.08469 339.945931 437.08469 339.945931 412.804414 364.235034 412.804414 364.235034 388.51531 339.945931 388.51531 339.945931 364.235034 315.665655 364.235034 315.665655 339.959172 267.109517 339.959172"></polyline>
            <polygon id="Fill-768" fill="#879698" points="267.109517 291.385379 291.385379 291.385379 291.385379 267.109517 267.109517 267.109517"></polygon>
            <polyline id="Fill-769" fill="#1A1919" points="267.109517 121.410207 267.109517 267.109517 291.385379 267.109517 291.385379 97.129931 267.109517 97.129931 267.109517 121.410207"></polyline>
            <polygon id="Fill-770" fill="#B78132" points="242.816 461.364966 267.109517 461.364966 267.109517 437.08469 242.816 437.08469"></polygon>
            <polyline id="Fill-771" fill="#879698" points="242.816 48.5693793 218.535724 48.5693793 218.535724 72.8496552 242.816 72.8496552 242.816 267.109517 267.109517 267.109517 267.109517 97.129931 291.385379 97.129931 291.385379 48.5693793 242.816 48.5693793"></polyline>
            <polyline id="Fill-772" fill="#1A1919" points="267.109517 48.5693793 291.385379 48.5693793 291.385379 24.2802759 242.816 24.2802759 242.816 48.5693793 267.109517 48.5693793"></polyline>
            <polygon id="Fill-773" fill="#5B321E" points="218.535724 121.410207 242.816 121.410207 242.816 72.8496552 218.535724 72.8496552"></polygon>
            <polygon id="Fill-774" fill="#5B321E" points="218.535724 48.5693793 242.816 48.5693793 242.816 24.2802759 218.535724 24.2802759"></polygon>
            <polyline id="Fill-775" fill="#1A1919" points="218.535724 0 194.259862 0 194.259862 24.2802759 242.816 24.2802759 242.816 0 218.535724 0"></polyline>
            <polyline id="Fill-776" fill="#E0ECED" points="194.259862 121.410207 194.259862 267.109517 169.966345 267.109517 169.966345 291.385379 145.686069 291.385379 145.686069 315.678897 169.966345 315.678897 169.966345 339.959172 315.665655 339.959172 315.665655 315.678897 291.385379 315.678897 291.385379 291.385379 267.109517 291.385379 267.109517 267.109517 242.816 267.109517 242.816 121.410207 194.259862 121.410207"></polyline>
            <polyline id="Fill-777" fill="#C17E4D" points="194.259862 97.129931 194.259862 121.410207 218.535724 121.410207 218.535724 72.8496552 194.259862 72.8496552 194.259862 97.129931"></polyline>
            <polygon id="Fill-778" fill="#C17E4D" points="194.259862 48.5693793 218.535724 48.5693793 218.535724 24.2802759 194.259862 24.2802759"></polygon>
            <polygon id="Fill-779" fill="#DA952F" points="169.966345 364.235034 194.259862 364.235034 194.259862 339.959172 169.966345 339.959172"></polygon>
            <polyline id="Fill-780" fill="#B7C5C8" points="169.966345 121.410207 169.966345 267.109517 194.259862 267.109517 194.259862 72.8496552 218.535724 72.8496552 218.535724 48.5693793 145.686069 48.5693793 145.686069 97.129931 169.966345 97.129931 169.966345 121.410207"></polyline>
            <polygon id="Fill-781" fill="#1A1919" points="145.686069 48.5693793 194.259862 48.5693793 194.259862 24.2802759 145.686069 24.2802759"></polygon>
            <polygon id="Fill-782" fill="#DA952F" points="145.686069 388.51531 169.966345 388.51531 169.966345 364.235034 145.686069 364.235034"></polygon>
            <polygon id="Fill-783" fill="#FFFFFE" points="145.686069 364.235034 169.966345 364.235034 169.966345 339.959172 145.686069 339.959172"></polygon>
            <polygon id="Fill-784" fill="#E1C82B" points="145.686069 339.959172 169.966345 339.959172 169.966345 315.678897 145.686069 315.678897"></polygon>
            <polygon id="Fill-785" fill="#B7C5C8" points="145.686069 291.385379 169.966345 291.385379 169.966345 267.109517 145.686069 267.109517"></polygon>
            <polyline id="Fill-786" fill="#1A1919" points="169.966345 242.829241 169.966345 97.129931 145.686069 97.129931 145.686069 267.109517 169.966345 267.109517 169.966345 242.829241"></polyline>
            <polygon id="Fill-787" fill="#DA952F" points="121.410207 461.364966 145.686069 461.364966 145.686069 437.08469 121.410207 437.08469"></polygon>
            <polygon id="Fill-788" fill="#FFFFFE" points="121.410207 437.08469 145.686069 437.08469 145.686069 412.804414 121.410207 412.804414"></polygon>
            <polygon id="Fill-789" fill="#DA952F" points="121.410207 412.804414 145.686069 412.804414 145.686069 388.51531 121.410207 388.51531"></polygon>
            <polygon id="Fill-790" fill="#FFFFFE" points="121.410207 388.51531 145.686069 388.51531 145.686069 364.235034 121.410207 364.235034"></polygon>
            <polygon id="Fill-791" fill="#E1C82B" points="121.410207 364.235034 145.686069 364.235034 145.686069 339.959172 121.410207 339.959172"></polygon>
            <polygon id="Fill-792" fill="#E0ECED" points="121.410207 339.959172 145.686069 339.959172 145.686069 315.678897 121.410207 315.678897"></polygon>
            <polygon id="Fill-793" fill="#B7C5C8" points="121.410207 315.678897 145.686069 315.678897 145.686069 291.385379 121.410207 291.385379"></polygon>
            <polygon id="Fill-794" fill="#1A1919" points="121.410207 291.385379 145.686069 291.385379 145.686069 267.109517 121.410207 267.109517"></polygon>
            <polygon id="Fill-795" fill="#1A1919" points="121.410207 97.129931 145.686069 97.129931 145.686069 48.5693793 121.410207 48.5693793"></polygon>
            <polyline id="Fill-796" fill="#DDB02D" points="97.129931 437.08469 72.8364138 437.08469 72.8364138 461.364966 121.410207 461.364966 121.410207 437.08469 97.129931 437.08469"></polyline>
            <polygon id="Fill-797" fill="#FFFFFE" points="97.129931 412.804414 121.410207 412.804414 121.410207 388.51531 97.129931 388.51531"></polygon>
            <polygon id="Fill-798" fill="#E1C82B" points="97.129931 388.51531 121.410207 388.51531 121.410207 364.235034 97.129931 364.235034"></polygon>
            <polygon id="Fill-799" fill="#DDB02D" points="97.129931 364.235034 121.410207 364.235034 121.410207 339.959172 97.129931 339.959172"></polygon>
            <polygon id="Fill-800" fill="#B7C5C8" points="97.129931 339.959172 121.410207 339.959172 121.410207 315.678897 97.129931 315.678897"></polygon>
            <polygon id="Fill-801" fill="#1A1919" points="97.129931 315.678897 121.410207 315.678897 121.410207 291.385379 97.129931 291.385379"></polygon>
            <polyline id="Fill-802" fill="#B7C5C8" points="97.129931 485.645241 242.816 485.645241 242.816 461.364966 48.5605517 461.364966 48.5605517 485.645241 97.129931 485.645241"></polyline>
            <polyline id="Fill-803" fill="#E1C82B" points="72.8364138 437.08469 121.410207 437.08469 121.410207 412.804414 97.129931 412.804414 97.129931 388.51531 72.8364138 388.51531 72.8364138 437.08469"></polyline>
            <polygon id="Fill-804" fill="#DDB02D" points="72.8364138 388.51531 97.129931 388.51531 97.129931 364.235034 72.8364138 364.235034"></polygon>
            <polygon id="Fill-805" fill="#B7C5C8" points="72.8364138 364.235034 97.129931 364.235034 97.129931 339.959172 72.8364138 339.959172"></polygon>
            <polygon id="Fill-806" fill="#1A1919" points="72.8364138 339.959172 97.129931 339.959172 97.129931 315.678897 72.8364138 315.678897"></polygon>
            <polygon id="Fill-807" fill="#FFFFFE" points="48.5605517 461.364966 72.8364138 461.364966 72.8364138 437.08469 48.5605517 437.08469"></polygon>
            <polyline id="Fill-808" fill="#DDB02D" points="72.8364138 412.804414 72.8364138 388.51531 48.5605517 388.51531 48.5605517 437.08469 72.8364138 437.08469 72.8364138 412.804414"></polyline>
            <polygon id="Fill-809" fill="#B7C5C8" points="48.5605517 388.51531 72.8364138 388.51531 72.8364138 364.235034 48.5605517 364.235034"></polygon>
            <polygon id="Fill-810" fill="#1A1919" points="48.5605517 364.235034 72.8364138 364.235034 72.8364138 339.959172 48.5605517 339.959172"></polygon>
            <polygon id="Fill-811" fill="#1A1919" points="24.2802759 485.645241 48.5605517 485.645241 48.5605517 461.364966 24.2802759 461.364966"></polygon>
            <polyline id="Fill-812" fill="#B7C5C8" points="48.5605517 437.08469 48.5605517 388.51531 24.2802759 388.51531 24.2802759 461.364966 48.5605517 461.364966 48.5605517 437.08469"></polyline>
            <polygon id="Fill-813" fill="#1A1919" points="24.2802759 388.51531 48.5605517 388.51531 48.5605517 364.235034 24.2802759 364.235034"></polygon>
            <polyline id="Fill-814" fill="#1A1919" points="24.2802759 412.804414 24.2802759 388.51531 -6.27237725e-14 388.51531 -6.27237725e-14 461.364966 24.2802759 461.364966 24.2802759 412.804414"></polyline>
        </g>
    </g>
</svg>