<?xml version="1.0" encoding="UTF-8"?>
<svg width="557px" height="557px" viewBox="0 0 557 557" version="1.1" xmlns="http://www.w3.org/2000/svg" xmlns:xlink="http://www.w3.org/1999/xlink">
    <title>Group-3</title>
    <g id="V4" stroke="none" stroke-width="1" fill="none" fill-rule="evenodd" fill-opacity="0.5">
        <g id="Artboard" transform="translate(-443.000000, -108.000000)" fill="#FFFFFF" fill-rule="nonzero">
            <g id="contact2" transform="translate(0.000000, 108.000000)">
                <g id="Group-3" transform="translate(443.397884, 0.818146)">
                    <path d="M397.676444,0 L157.871371,0 C70.682133,0 -9.99999997e-07,83.7732148 -9.99999997e-07,187.110825 L-9.99999997e-07,243.953413 C-9.99999997e-07,347.291023 70.682133,431.064238 157.871371,431.064238 L211.705276,431.064238 C239.549922,518.117907 347.960995,555.550591 347.960995,555.550591 C298.697605,517.233697 282.955952,466.830398 278.42149,431.064238 L397.676444,431.064238 C484.865682,431.064238 555.55059,347.291023 555.55059,243.953413 L555.55059,187.110825 C555.55059,83.7732148 484.865682,0 397.676444,0 Z" id="Right" transform="translate(277.775295, 277.775295) scale(-1, 1) translate(-277.775295, -277.775295) "></path>
                </g>
            </g>
        </g>
    </g>
</svg>