<?xml version="1.0" encoding="UTF-8"?>
<svg width="999px" height="784px" viewBox="0 0 999 784" version="1.1" xmlns="http://www.w3.org/2000/svg" xmlns:xlink="http://www.w3.org/1999/xlink">
    <!-- Generator: Sketch 62 (91390) - https://sketch.com -->
    <title>Group 2</title>
    <desc>Created with Sketch.</desc>
    <g id="Page-1" stroke="none" stroke-width="1" fill="none" fill-rule="evenodd">
        <g id="Square-Copy" transform="translate(0.000000, -108.000000)" fill-rule="nonzero">
            <g id="Group-2" transform="translate(0.000000, 108.000000)">
                <g id="Group-3" transform="translate(443.397884, 0.818146)">
                    <path d="M397.676445,0 L157.871372,0 C70.682134,0 0,83.7732148 0,187.110825 L0,243.953413 C0,347.291023 70.682134,431.064238 157.871372,431.064238 L211.705277,431.064238 C239.549923,518.117907 347.960996,555.550591 347.960996,555.550591 C298.697606,517.233697 282.955953,466.830398 278.421491,431.064238 L397.676445,431.064238 C484.865683,431.064238 555.550591,347.291023 555.550591,243.953413 L555.550591,187.110825 C555.550591,83.7732148 484.865683,0 397.676445,0 Z" id="Right" fill-opacity="0.5" fill="#FFFFFF" transform="translate(277.775295, 277.775295) scale(-1, 1) translate(-277.775295, -277.775295) "></path>
                    <path d="M284.862052,286.777648 C291.862052,286.777648 301.262052,286.377648 307.662052,285.377648 L308.062052,254.177648 C301.662052,254.177648 296.862052,253.577648 294.062052,252.377648 L294.062052,143.177648 L257.262052,143.177648 L257.262052,199.977648 L202.462052,199.977648 L202.462052,143.177648 L165.662052,143.177648 L165.662052,285.177648 L202.462052,285.177648 L202.462052,233.577648 L257.262052,233.577648 L257.262052,257.177648 C257.262052,281.777648 266.062052,286.777648 284.862052,286.777648 Z M339.262052,180.377648 C352.262052,180.377648 360.862052,172.377648 360.862052,159.577648 C360.862052,146.777648 352.262052,138.777648 339.262052,138.777648 C326.662052,138.777648 317.662052,146.777648 317.662052,159.577648 C317.662052,172.377648 326.662052,180.377648 339.262052,180.377648 Z M346.062052,287.177648 C356.462052,287.177648 362.862052,286.577648 368.062052,285.377648 L368.062052,285.377648 L368.462052,258.177648 C364.062052,258.177648 360.462052,257.777648 357.262052,256.977648 L357.262052,256.977648 L357.262052,189.177648 L321.262052,189.177648 L321.262052,265.977648 C321.262052,282.377648 328.062052,287.177648 346.062052,287.177648 Z M399.662052,287.577648 C410.862052,287.577648 418.862052,279.577648 418.862052,268.377648 C418.862052,257.177648 410.862052,249.177648 399.662052,249.177648 C388.462052,249.177648 380.462052,257.177648 380.462052,268.377648 C380.462052,279.577648 388.462052,287.577648 399.662052,287.577648 Z" id="Hi." fill="#1BF9D8"></path>
                </g>
                <g id="Group" transform="translate(0.000000, 254.985836)">
                    <path d="M397.676445,0 L157.871372,0 C70.682134,0 0,79.6683273 0,177.942394 L0,231.999696 C0,330.273763 70.682134,409.94209 157.871372,409.94209 L211.705277,409.94209 C239.549923,492.73013 347.960996,528.328612 347.960996,528.328612 C298.697606,491.889246 282.955953,443.955708 278.421491,409.94209 L397.676445,409.94209 C484.865683,409.94209 555.550591,330.273763 555.550591,231.999696 L555.550591,177.942394 C555.550591,79.6683273 484.865683,0 397.676445,0 Z" id="Left" fill-opacity="0.5" fill="#FFFFFF"></path>
                    <path d="M141.508038,251.166164 C146.548038,251.166164 153.316038,250.878164 157.924038,250.158164 L158.212038,227.694164 C153.604038,227.694164 150.148038,227.262164 148.132038,226.398164 L148.132038,147.774164 L121.636038,147.774164 L121.636038,188.670164 L82.1800379,188.670164 L82.1800379,147.774164 L55.6840379,147.774164 L55.6840379,250.014164 L82.1800379,250.014164 L82.1800379,212.862164 L121.636038,212.862164 L121.636038,229.854164 C121.636038,247.566164 127.972038,251.166164 141.508038,251.166164 Z M205.732038,251.742164 C221.572038,251.742164 233.092038,246.270164 235.684038,243.678164 L229.060038,224.958164 C225.316038,227.550164 216.820038,230.718164 207.172038,230.718164 C198.532038,230.718164 194.500038,227.406164 193.060038,221.214164 L236.836038,221.214164 L236.836038,214.446164 C236.836038,193.998164 224.884038,179.454164 202.420038,179.454164 C180.820038,179.454164 166.852038,193.854164 166.852038,214.302164 C166.852038,236.766164 179.236038,251.742164 205.732038,251.742164 Z M210.916038,208.398164 L192.916038,208.398164 C193.924038,201.486164 196.948038,198.894164 202.132038,198.894164 C207.460038,198.894164 210.340038,201.774164 210.916038,208.398164 Z M267.940038,251.454164 C274.564038,251.454164 278.884038,250.878164 282.628038,250.158164 L282.628038,250.158164 L282.916038,230.574164 C278.884038,230.574164 275.428038,230.286164 273.124038,229.710164 L273.124038,229.710164 L273.124038,147.774164 L247.204038,147.774164 L247.204038,231.870164 C247.204038,248.574164 254.404038,251.454164 267.940038,251.454164 Z M312.580038,251.454164 C319.204038,251.454164 323.524038,250.878164 327.268038,250.158164 L327.268038,250.158164 L327.556038,230.574164 C323.524038,230.574164 320.068038,230.286164 317.764038,229.710164 L317.764038,229.710164 L317.764038,147.774164 L291.844038,147.774164 L291.844038,231.870164 C291.844038,248.574164 299.044038,251.454164 312.580038,251.454164 Z M370.324038,251.742164 C393.364038,251.742164 408.052038,238.782164 408.052038,215.742164 C408.052038,192.702164 393.364038,179.454164 370.324038,179.454164 C347.284038,179.454164 332.596038,192.414164 332.596038,215.742164 C332.596038,238.782164 347.284038,251.742164 370.324038,251.742164 Z M370.324038,230.430164 C361.972038,230.430164 358.804038,224.382164 358.804038,215.742164 C358.804038,207.102164 361.972038,200.766164 370.324038,200.766164 C378.676038,200.766164 381.844038,207.102164 381.844038,215.742164 C381.844038,224.382164 378.676038,230.430164 370.324038,230.430164 Z M445.060038,213.150164 L446.500038,147.774164 L420.580038,147.774164 L422.020038,213.150164 L445.060038,213.150164 Z M433.396038,251.742164 C441.460038,251.742164 447.220038,245.982164 447.220038,237.918164 C447.220038,229.854164 441.460038,224.094164 433.396038,224.094164 C425.332038,224.094164 419.572038,229.854164 419.572038,237.918164 C419.572038,245.982164 425.332038,251.742164 433.396038,251.742164 Z" id="Hello!" fill="#1BF9D8"></path>
                </g>
            </g>
        </g>
    </g>
</svg>