<?xml version="1.0" encoding="UTF-8"?>
<svg width="400px" height="600px" viewBox="0 0 400 600" version="1.1" xmlns="http://www.w3.org/2000/svg" xmlns:xlink="http://www.w3.org/1999/xlink">
    <!-- Generator: Sketch 42 (36781) - http://www.bohemiancoding.com/sketch -->
    <title>couchdb</title>
    <desc>Created with Sketch.</desc>
    <defs></defs>
    <g id="Page-1" stroke="none" stroke-width="1" fill="none" fill-rule="evenodd">
        <g id="couchdb" fill-rule="nonzero">
            <g id="Group" transform="translate(0.000000, 70.000000)">
                <polygon id="Shape" fill="#FF0000" points="366.962805 89.7925609 366.962805 20.1403875 33.1930577 20.1403875 33.1930577 89.7925609 7.07879524 89.7925609 7.07879524 232.50897 392.573559 232.50897 392.573559 89.7925609"></polygon>
                <path d="M0.110811363,235.541095 L0.110811363,82.8227328 L26.2269183,82.8227328 L26.2269183,13.1724036 L373.928946,13.1724036 L373.928946,82.8227328 L399.537854,82.8227328 L399.537854,235.541095 L0.110811363,235.541095 L0.110811363,235.541095 Z M11.0017444,230.057818 L387.239676,230.387958 L385.609263,96.7587005 L359.991133,96.7587005 L359.991133,27.1046827 L40.1555086,27.1046827 L40.1555086,96.7587005 L14.0394017,96.7587005 L11.4923435,225.636893 L11.0017444,230.057818 L11.0017444,230.057818 Z" id="Shape" fill="#EB1019"></path>
                <polygon id="Shape" fill="#FFFFFF" points="50.5853521 12.5951196 50.5853521 43.9842455 62.4814601 60.078112 97.4504847 48.2041363 97.308469 0.80782873"></polygon>
                <polygon id="Shape" stroke="#BD101D" fill="#BD101D" points="57.8281453 172.707511 136.742684 190.538763 342.003111 171.414616 342.051064 233.661694 57.6695305 233.661694"></polygon>
                <polygon id="Shape" stroke="#BD101D" fill="#BD101D" points="292.688672 128.529608 271.23879 119.630582 226.632995 89.1783899 173.340276 105.395828 57.7765033 96.6461948 57.7765033 137.644425 131.054684 158.66826 340.44094 140.069756 340.44094 97.3046304"></polygon>
                <polygon id="Shape" fill="#FFFFFF" points="26.1974085 69.4437611 12.9881177 83.416616 12.9881177 120.882901 31.6382641 128.821017 31.6382641 107.181167 39.5745359 113.400341 39.5745359 98.6159689 57.7765033 98.6122802 91.4655435 149.339498 103.889138 152.727583 120.759479 222.637967 129.512801 226.267662 135.70431 251.845217 184.522617 251.845217 161.045787 154.817241 227.365206 111.755174 263.433467 142.231343 272.196012 138.798993 275.521388 147.860323 340.44094 142.033997 334.806427 127.651694 298.280765 118.719469 232.143937 64.8328664 160.081188 92.1680939 137.937828 63.0272402 171.296727 29.1131884 203.091613 29.1131884 215.63509 39.6813587 215.63509 29.1131884 240.624295 29.1131884 234.587712 15.0886914 161.392526 3.4987468 93.8207884 46.774759"></polygon>
                <g transform="translate(4.528049, 245.299591)" id="Shape" fill="#000000">
                    <path d="M53.501132,70.9837998 C50.5520038,72.5090838 44.0469537,74.1358074 35.8137404,74.1358074 C14.0613841,74.1358074 0.846560244,60.4137852 0.846560244,39.574386 C0.846560244,17.0086679 16.4996252,3.38624098 37.440464,3.38624098 C45.6736774,3.38624098 51.5700893,5.11624862 54.1116144,6.43496447 L51.36721,16.3963411 C48.1137627,14.9743412 43.6430393,13.7533764 37.9495067,13.7533764 C24.0227607,13.7533764 13.9599444,22.4956325 13.9599444,38.9620591 C13.9599444,54.006486 22.8036403,63.665388 37.848067,63.665388 C42.9311172,63.665388 48.2170468,62.6473024 51.4686496,61.1238629 L53.501132,70.9837998 L53.501132,70.9837998 Z"></path>
                    <path d="M107.472575,47.8094438 C107.472575,66.0040337 94.6653545,74.1358074 82.0591686,74.1358074 C68.0309829,74.1358074 57.2562444,64.4787498 57.2562444,48.6209611 C57.2562444,32.3574137 67.9295433,22.3941928 82.8725304,22.3941928 C97.6107938,22.3960371 107.472575,32.7650169 107.472575,47.8094438 L107.472575,47.8094438 Z M70.1649049,48.316642 C70.1649049,57.87226 74.8403521,65.0892322 82.4649274,65.0892322 C89.5804599,65.0892322 94.5620704,58.0751393 94.5620704,48.1137627 C94.5620704,40.3895922 91.1057437,31.5458964 82.5682113,31.5458964 C73.7226712,31.5458964 70.1649049,40.0815844 70.1649049,48.316642 L70.1649049,48.316642 Z"></path>
                    <path d="M160.352159,58.1765791 C160.352159,64.072991 160.555038,68.9513176 160.759761,73.0181266 L149.7803,73.0181266 L149.169817,65.4968352 L148.966938,65.4968352 C146.833016,69.0546015 141.952845,74.1376517 133.109149,74.1376517 C124.062574,74.1376517 115.827516,68.7502825 115.827516,52.5863306 L115.827516,23.5137181 L128.330418,23.5137181 L128.330418,50.450564 C128.330418,58.6837775 130.973383,63.9697071 137.579872,63.9697071 C142.561483,63.9697071 145.813086,60.4119408 147.13549,57.2599333 C147.543093,56.1422523 147.847413,54.8216922 147.847413,53.3978479 L147.847413,23.5118736 L160.350314,23.5118736 L160.350314,58.1765791 L160.352159,58.1765791 Z"></path>
                    <path d="M208.416123,71.4928426 C205.771314,72.7138075 200.58867,74.1376517 194.387938,74.1376517 C178.937753,74.1376517 168.874936,64.1762751 168.874936,48.8256848 C168.874936,33.9841375 179.039192,22.3960371 196.422265,22.3960371 C200.996271,22.3960371 205.673563,23.4122783 208.519408,24.7346828 L206.284046,34.0855771 C204.24972,33.1707756 201.304281,32.1545344 196.829868,32.1545344 C187.27425,32.1545344 181.582561,39.1686273 181.684001,48.2152024 C181.684001,58.3813027 188.292335,64.1744308 196.829868,64.1744308 C201.200996,64.1744308 204.24972,63.2596293 206.689804,62.2433881 L208.416123,71.4928426 L208.416123,71.4928426 Z"></path>
                    <path d="M215.612807,0.844715886 L228.217149,0.844715886 L228.217149,30.3230871 L228.421873,30.3230871 C229.945312,27.9844414 232.079234,25.951959 234.620759,24.6313989 C237.059001,23.209399 240.009974,22.3941928 243.160136,22.3941928 C251.596229,22.3941928 260.441769,27.9844414 260.441769,43.84223 L260.441769,73.0162822 L247.938868,73.0162822 L247.938868,45.2660742 C247.938868,38.049102 245.294058,32.6598885 238.381405,32.6598885 C233.503079,32.6598885 230.044907,35.9133356 228.726192,39.6739814 C228.318588,40.6920668 228.217149,42.0144714 228.217149,43.4364713 L228.217149,73.0162822 L215.612807,73.0162822 L215.612807,0.844715886 L215.612807,0.844715886 Z"></path>
                    <path d="M272.489115,5.41872331 C277.979768,4.50392182 284.992016,3.99672341 292.413712,3.99672341 C305.220932,3.99672341 314.064629,6.6396882 320.3668,11.9256177 C326.975134,17.312987 331.040098,25.4447606 331.040098,37.1361449 C331.040098,49.3328832 326.871849,58.4808982 320.3668,64.3791544 C313.55743,70.5798855 302.679409,73.7300487 289.363144,73.7300487 C282.042888,73.7300487 276.555923,73.3224455 272.489115,72.8152472 L272.489115,5.41872331 L272.489115,5.41872331 Z M284.992016,63.4625086 C286.720179,63.7668277 289.363144,63.7668277 291.904669,63.7668277 C308.168217,63.8701117 317.825274,54.9231319 317.825274,37.5400594 C317.928559,22.3941928 309.184458,13.7552207 293.531392,13.7552207 C289.567868,13.7552207 286.720179,14.0595398 284.992016,14.4671428 L284.992016,63.4625086 L284.992016,63.4625086 Z"></path>
                    <path d="M340.477677,5.41872331 C344.441203,4.60720586 351.658174,3.99672341 358.672267,3.99672341 C367.923566,3.99672341 373.617099,5.11440426 378.292547,8.36785148 C382.560389,10.9093766 385.406235,15.3819443 385.406235,21.1750722 C385.406235,27.477243 381.442709,33.2722153 374.021013,36.0166197 L374.021013,36.2194991 C381.23983,38.049102 387.846319,43.7407904 387.846319,53.1949686 C387.846319,59.2942599 385.203354,64.0711467 381.23983,67.324594 C376.359659,71.592438 368.329326,73.7282044 355.826423,73.7282044 C348.91377,73.7282044 343.629684,73.2210059 340.477677,72.8134029 L340.477677,5.41872331 L340.477677,5.41872331 Z M352.87914,32.4588535 L359.284594,32.4588535 C367.92541,32.4588535 372.803737,28.3938888 372.803737,22.5989164 C372.803737,16.1934617 367.923566,13.2480223 359.996516,13.2480223 C356.33731,13.2480223 354.201544,13.4509017 352.880984,13.7552207 L352.880984,32.4588535 L352.87914,32.4588535 Z M352.87914,63.9715514 C354.505864,64.2758703 356.64163,64.2758703 359.487473,64.2758703 C367.517807,64.2758703 374.63334,61.2271469 374.63334,52.7892099 C374.63334,44.8603155 367.720687,41.6087127 359.07987,41.6087127 L352.87914,41.6087127 L352.87914,63.9715514 L352.87914,63.9715514 Z"></path>
                </g>
            </g>
        </g>
    </g>
</svg>