<?xml version="1.0" encoding="UTF-8"?>
<svg width="370px" height="520px" viewBox="0 0 370 520" version="1.1" xmlns="http://www.w3.org/2000/svg" xmlns:xlink="http://www.w3.org/1999/xlink">
    <!-- Generator: Sketch 53 (72520) - https://sketchapp.com -->
    <title>css</title>
    <desc>Created with Sketch.</desc>
    <g id="Page-1" stroke="none" stroke-width="1" fill="none" fill-rule="evenodd">
        <g id="Artboard" transform="translate(0.000000, -1.000000)" fill-rule="nonzero">
            <g id="css" transform="translate(0.000000, 0.850877)">
                <g id="#000000ff" transform="translate(73.567251, 0.000000)" fill="#000000">
                    <path d="M0.400292398,1.03859649 C23.1195906,0.757309942 45.8388889,0.952046784 68.5581871,0.94122807 C68.6122807,8.04912281 68.7204678,15.1570175 68.4608187,22.2649123 C52.7195906,22.1567251 36.9891813,22.2649123 21.2587719,22.3622807 C21.1505848,32.6833333 20.9450292,43.004386 21.0423977,53.3254386 C36.8377193,53.422807 52.6438596,53.574269 68.4391813,53.5093567 C68.6230994,59.351462 68.5581871,65.2152047 68.3850877,71.0681287 C45.7307018,70.9166667 23.0763158,70.9815789 0.421929825,71.0032164 C0.476023392,47.6780702 0.519298246,24.3637427 0.400292398,1.03859649 Z" id="Path"></path>
                    <path d="M76.6614035,0.962865497 C99.6619883,0.919590643 122.662573,0.778947368 145.673977,1.03859649 C145.587427,7.75701754 145.652339,14.4646199 145.652339,21.1830409 C128.915789,21.1289474 112.168421,21.2046784 95.4318713,21.3994152 C95.4535088,24.0391813 95.4535088,26.6789474 95.4318713,29.3187135 C112.146784,29.5891813 128.850877,29.6216374 145.554971,29.7190058 C145.619883,43.4912281 145.587427,57.2526316 145.673977,71.0140351 C122.662573,70.9707602 99.6511696,70.9923977 76.6397661,71.1005848 C76.5207602,65.5397661 76.5099415,59.9897661 76.6722222,54.4289474 C92.6190058,54.4722222 108.576608,54.4938596 124.523392,54.3640351 C124.62076,50.7830409 124.664035,47.1912281 124.653216,43.6102339 C108.630702,43.6102339 92.5973684,43.6643275 76.5748538,43.5561404 C76.5748538,29.3619883 76.5748538,15.1570175 76.6614035,0.962865497 Z" id="Path"></path>
                    <path d="M153.376901,1.08187135 C176.334211,1.08187135 199.302339,1.08187135 222.259649,1.08187135 C222.357018,7.83274854 222.454386,14.5836257 222.238012,21.3236842 C205.425731,21.3128655 188.61345,21.4102339 171.80117,21.4426901 C171.844444,24.201462 171.909357,26.9602339 172.05,29.7190058 C188.764912,29.6432749 205.479825,29.8488304 222.183918,30.0219298 C222.33538,43.7292398 222.443567,57.4365497 222.24883,71.1438596 C199.237427,71.0789474 176.226023,71.0789474 153.21462,71.1871345 C153.073977,65.6479532 153.030702,60.0871345 153.268713,54.5479532 C169.183041,54.6669591 185.108187,54.6453216 201.033333,54.4938596 C201.076608,50.9020468 201.152339,47.3102339 201.119883,43.7292398 C185.140643,43.8807018 169.150585,43.794152 153.160526,43.7400585 C153.160526,29.524269 153.268713,15.2976608 153.376901,1.08187135 Z" id="Path"></path>
                </g>
                <g id="#0170baff" transform="translate(0.000000, 99.532164)" fill="#0170BA">
                    <path d="M0,0.497660819 C123.246784,0.486842105 246.482749,0.476023392 369.729532,0.497660819 C362.946199,77.1482456 356.271053,153.79883 349.206433,230.427778 C345.008772,279.404094 340.681287,328.380409 336.115789,377.324269 C309.815497,384.29152 283.774854,392.232456 257.48538,399.232164 C233.338012,406.318421 208.995906,412.733918 184.837719,419.766082 L184.123684,419.766082 C161.133918,412.928655 137.916959,406.91345 114.927193,400.076023 C87.7938596,392.762573 60.898538,384.605263 33.754386,377.324269 C30.2166667,340.638012 27.0251462,303.930117 23.8769006,267.222222 C17.9374269,199.399708 11.478655,131.620468 5.76637427,63.7871345 C3.78654971,43.3722222 2.36929825,22.8923977 0,2.52076023 L0,0.497660819 L0,0.497660819 Z M185.443567,30.7359649 C185.183918,45.4602339 185.638304,60.1953216 185.183918,74.9087719 C142.904386,74.7573099 100.614035,74.8763158 58.3345029,74.9195906 C59.0593567,89.2111111 60.974269,103.405263 62.9432749,117.577778 C102.280117,119.038304 141.671053,117.523684 181.007895,118.702924 C146.593567,134.141228 111.75731,148.681579 77.1915205,163.795322 C74.227193,165.115205 71.0573099,166.110526 68.4067251,168.036257 C68.6988304,183.734211 71.2304094,199.345614 72.3447368,215.011111 C93.3114035,214.93538 114.267251,214.6 135.233918,214.567544 C152.03538,214.480994 168.847661,214.816374 185.649123,214.448538 C184.848538,240.261988 185.897953,266.107895 185.108187,291.921345 C173.802632,290.244444 162.637719,287.723684 151.375439,285.722222 C142.493275,283.785673 133.394737,282.779532 124.642398,280.237135 C123.398246,267.849708 122.532749,255.419006 121.42924,243.02076 C118.897661,242.241813 116.21462,242.317544 113.596491,242.274269 C100.895322,242.35 88.1833333,242.230994 75.471345,242.425731 C76.7154971,266.259357 78.8576023,290.060526 82.5035088,313.666959 C95.0315789,316.934211 107.581287,320.13655 120.087719,323.544444 C139.247661,328.759064 158.645614,333.097368 177.838012,338.225439 C180.12076,338.712281 182.425146,339.55614 184.794444,339.361404 C186.071053,355.037719 185.08655,370.811404 185.324561,386.530994 C189.749415,385.816959 194.098538,384.724269 198.37193,383.404386 C234.70117,373.537719 270.987135,363.487135 307.294737,353.523099 C309.101462,339.242398 309.945322,324.864327 311.373392,310.55117 C315.149123,267.038304 318.95731,223.525439 322.916959,180.023392 C327.558187,130.25731 331.57193,80.4371345 336.245614,30.6710526 C285.971053,30.7143275 235.70731,30.5736842 185.443567,30.7359649 Z" id="Shape"></path>
                </g>
                <g id="#29a9dfff" transform="translate(183.918129, 129.824561)" fill="#29A9DF">
                    <path d="M1.5254386,0.443567251 C51.7891813,0.28128655 102.052924,0.421929825 152.327485,0.378654971 C147.653801,50.1447368 143.640058,99.9649123 138.99883,149.730994 C135.039181,193.233041 131.230994,236.745906 127.455263,280.258772 C126.027193,294.57193 125.183333,308.95 123.376608,323.230702 C87.0690058,333.194737 50.7830409,343.245322 14.4538012,353.111988 C10.1804094,354.431871 5.83128655,355.524561 1.40643275,356.238596 C1.16842105,340.519006 2.15292398,324.745322 0.876315789,309.069006 C1.20087719,309.004094 1.86081871,308.874269 2.18538012,308.809357 C35.9722222,300.327485 69.5318713,290.990936 103.242982,282.20614 C107.505556,234.387427 112.233333,186.590351 115.230117,138.674269 C86.5605263,138.825731 57.880117,138.739181 29.2105263,138.858187 C25.0345029,138.879825 20.8584795,138.858187 16.7040936,138.555263 C32.1315789,130.614327 48.3596491,124.317836 64.1982456,117.231579 C79.398538,110.340058 94.7827485,103.881287 110.037135,97.1195906 C112.979825,95.7672515 116.117251,94.6421053 118.702924,92.6298246 C119.719883,88.8973684 119.665789,84.9918129 120.066082,81.172807 C120.942398,69.055848 122.500292,57.0038012 123.084503,44.8760234 C82.4818713,44.551462 41.8792398,44.8327485 1.26578947,44.6163743 C1.72017544,29.902924 1.26578947,15.1678363 1.5254386,0.443567251 Z" id="Path"></path>
                    <path d="M1.73099415,184.15614 C21.3345029,183.82076 40.9488304,184.350877 60.5631579,184.221053 C59.4704678,204.268129 57.804386,224.282749 56.7657895,244.329825 C44.7461988,248.257018 32.5426901,251.578363 20.425731,255.21345 C13.9669591,257.182456 7.33508772,258.740351 1.19005848,261.628947 C1.97982456,235.815497 0.930409357,209.969591 1.73099415,184.15614 Z" id="Path"></path>
                </g>
                <g id="#cfcfcfff" transform="translate(57.339181, 174.181287)" fill="#CFCFCF">
                    <path d="M0.995321637,0.270467836 C43.2748538,0.227192982 85.5652047,0.108187135 127.844737,0.259649123 C128.396491,46.780117 127.704094,93.3005848 128.309942,139.799415 C111.50848,140.167251 94.6961988,139.831871 77.8947368,139.918421 C56.9280702,139.950877 35.9722222,140.286257 15.0055556,140.361988 C13.8912281,124.696491 11.3596491,109.085088 11.0675439,93.3871345 C13.7181287,91.4614035 16.8880117,90.4660819 19.8523392,89.1461988 C54.4181287,74.0324561 89.254386,59.4921053 123.668713,44.0538012 C84.3318713,42.8745614 44.9409357,44.3891813 5.60409357,42.928655 C3.63508772,28.7561404 1.72017544,14.5619883 0.995321637,0.270467836 Z" id="Path"></path>
                    <path d="M18.1321637,167.776608 C30.844152,167.581871 43.5561404,167.700877 56.2573099,167.625146 C58.8754386,167.668421 61.5584795,167.59269 64.0900585,168.371637 C65.1935673,180.769883 66.0590643,193.200585 67.3032164,205.588012 C76.0555556,208.130409 85.1540936,209.13655 94.0362573,211.073099 C105.298538,213.074561 116.46345,215.595322 127.769006,217.272222 C128.850877,232.980994 126.957602,248.797953 128.764327,264.452632 C128.439766,264.517544 127.779825,264.647368 127.455263,264.712281 C125.085965,264.907018 122.781579,264.063158 120.49883,263.576316 C101.306433,258.448246 81.9084795,254.109942 62.748538,248.895322 C50.2421053,245.487427 37.6923977,242.285088 25.1643275,239.017836 C21.5184211,215.411404 19.3763158,191.610234 18.1321637,167.776608 Z" id="Path"></path>
                </g>
                <g id="#ffffffff" transform="translate(185.000000, 174.181287)" fill="#FFFFFF">
                    <path d="M0.183918129,0.259649123 C40.7973684,0.476023392 81.4,0.194736842 122.002632,0.519298246 C121.418421,12.647076 119.860526,24.6991228 118.984211,36.8160819 C118.583918,40.6350877 118.638012,44.5406433 117.621053,48.2730994 C115.03538,50.2853801 111.897953,51.4105263 108.955263,52.7628655 C93.7008772,59.5245614 78.3166667,65.9833333 63.1163743,72.8748538 C47.2777778,79.9611111 31.0497076,86.2576023 15.6222222,94.198538 C19.7766082,94.501462 23.9526316,94.5230994 28.128655,94.501462 C56.7982456,94.3824561 85.478655,94.4690058 114.148246,94.3175439 C111.151462,142.233626 106.423684,190.030702 102.161111,237.849415 C68.45,246.634211 34.8903509,255.97076 1.10350877,264.452632 C-0.703216374,248.797953 1.19005848,232.980994 0.108187135,217.272222 C6.25321637,214.383626 12.8850877,212.825731 19.3438596,210.856725 C31.4608187,207.221637 43.6643275,203.900292 55.6839181,199.973099 C56.7225146,179.926023 58.3885965,159.911404 59.4812865,139.864327 C39.8669591,139.994152 20.2526316,139.464035 0.649122807,139.799415 C0.0432748538,93.3005848 0.735672515,46.780117 0.183918129,0.259649123 Z" id="Path"></path>
                </g>
            </g>
        </g>
    </g>
</svg>