<?xml version="1.0" encoding="UTF-8"?>
<svg width="1000px" height="1000px" viewBox="0 0 1000 1000" version="1.1" xmlns="http://www.w3.org/2000/svg" xmlns:xlink="http://www.w3.org/1999/xlink">
	<!-- Generator: Sketch 62 (91390) - https://sketch.com -->
	<title>
		Square
	</title>
	<desc>
		Created with Sketch.
	</desc>
	<g id="Square" stroke="none" stroke-width="1" fill="none" fill-rule="evenodd">
		<g id="SAE-Institute" transform="translate(100.000000, 40.000000)" fill="#222222" fill-rule="nonzero">
			<path d="M299.791549,131.6 L509.301408,131.6 L509.301408,108.552113 L376.101408,108.552113 C347.909859,108.552113 321.690141,117.070423 299.791549,131.6" id="Path">
			</path>
			<path d="M509.298592,146.115493 L281.597183,146.115493 C274.160563,153.084507 267.419718,160.774648 261.664789,169.211268 L509.298592,169.211268 L509.298592,146.115493 Z" id="Path">
			</path>
			<path d="M168.490141,183.726761 L33.8507042,183.726761 C43.1971831,192.805634 54.056338,200.484507 65.6478873,206.819718 L198.659155,206.819718 C189.83662,197.907042 179.580282,190.183099 168.490141,183.726761" id="Path">
			</path>
			<path d="M21.171831,169.208451 L137.002817,169.208451 C131.983099,167.411268 126.957746,165.76338 121.957746,164.388732 C118.456338,163.430986 98.8929577,157.670423 83.3126761,146.112676 L8.63661972,146.112676 C11.7690141,154.453521 16.0225352,162.149296 21.171831,169.208451" id="Path">
			</path>
			<polygon id="Path" points="784.095775 221.338028 712.552113 221.338028 662.529577 301.549296 733.757746 301.425352">
			</polygon>
			<path d="M67.0450704,93.9887324 C74.5211268,75.4 92.7070423,62.2366197 113.940845,62.2366197 L799.949296,62.2366197 L799.949296,1.4084507 L113.943662,1.4084507 C58.9774648,1.4084507 13.284507,41.5098592 4.30985915,93.9915493 L67.0450704,93.9915493 L67.0450704,93.9887324 Z" id="Path">
			</path>
			<path d="M586.04507,131.6 L799.95493,131.6 L799.95493,108.560563 L799.95493,108.552113 L662.338028,108.552113 C634.152113,108.552113 607.932394,117.070423 586.04507,131.6" id="Path">
			</path>
			<polygon id="Path" points="735.994366 183.726761 721.602817 206.819718 793.228169 206.819718 799.949296 196.104225 799.949296 183.726761">
			</polygon>
			<rect id="Rectangle" x="448.501408" y="183.723944" width="60.8" height="23.0957746">
			</rect>
			<path d="M298.498592,246.949296 C298.498592,237.966197 300.112676,229.371831 302.932394,221.338028 L240.149296,221.338028 C238.583099,229.650704 237.676056,238.194366 237.676056,246.949296 C237.676056,323.264789 299.771831,385.357746 376.101408,385.357746 L422.619718,385.357746 L422.619718,324.549296 L376.101408,324.549296 C333.301408,324.546479 298.498592,289.746479 298.498592,246.949296" id="Path">
			</path>
			<path d="M100.28169,221.338028 C102.160563,221.912676 104.039437,222.523944 105.915493,223.03662 C128.647887,229.261972 167.078873,247.135211 167.078873,274.670423 C167.078873,302.51831 144.408451,325.216901 116.523944,325.216901 L1.46478873,325.216901 L1.46478873,386.025352 L116.521127,386.025352 C177.915493,386.025352 227.88169,336.061972 227.88169,274.667606 C227.88169,254.112676 221.332394,236.4 210.797183,221.335211 L100.28169,221.335211 L100.28169,221.338028 Z" id="Path">
			</path>
			<rect id="Rectangle" x="448.498592" y="221.332394" width="60.8" height="164.030986">
			</rect>
			<path d="M584.740845,246.949296 C584.740845,237.966197 586.352113,229.371831 589.183099,221.338028 L526.411268,221.338028 C524.84507,229.650704 523.943662,238.194366 523.943662,246.949296 C523.943662,323.264789 586.025352,385.366197 662.338028,385.366197 L799.95493,385.366197 L799.95493,324.574648 L662.338028,324.574648 C619.574648,324.574648 584.740845,289.746479 584.740845,246.949296" id="Path">
			</path>
			<path d="M567.847887,146.115493 C560.416901,153.084507 553.684507,160.774648 547.91831,169.211268 L799.957746,169.211268 L799.957746,146.115493 L567.847887,146.115493 Z" id="Path">
			</path>
			<path d="M617.552113,183.726761 L539.369014,183.726761 C535.574648,191.073239 532.371831,198.774648 529.91831,206.819718 L596.070423,206.819718 C601.585915,197.735211 608.892958,189.867606 617.552113,183.726761" id="Path">
			</path>
			<path d="M331.292958,183.726761 L253.109859,183.726761 C249.312676,191.073239 246.101408,198.774648 243.656338,206.819718 L309.811268,206.819718 C315.335211,197.735211 322.650704,189.867606 331.292958,183.726761" id="Path">
			</path>
			<path d="M2.81126761,108.504225 C2.75492958,109.932394 2.5971831,111.340845 2.5971831,112.783099 C2.5971831,119.36338 3.32957746,125.597183 4.52394366,131.602817 L69.2084507,131.602817 C65.6591549,126.087324 63.3830986,119.856338 63.3830986,112.783099 C63.3830986,111.340845 63.4816901,109.915493 63.6028169,108.504225 L2.81126761,108.504225 Z" id="Path">
			</path>
			<rect id="Rectangle" x="1.74084507" y="446.876056" width="10.5661972" height="66.1746479">
			</rect>
			<polygon id="Path" points="77.8169014 446.88169 90.6929577 446.88169 109.884507 496.183099 110.067606 496.183099 110.067606 446.88169 120.076056 446.88169 120.076056 513.056338 107.197183 513.056338 88.0056338 462.44507 87.8253521 462.44507 87.8253521 513.056338 77.8169014 513.056338">
			</polygon>
			<path d="M194.197183,492.574648 L194.197183,494.239437 C194.197183,502.304225 197.721127,506.380282 205.039437,506.380282 C211.715493,506.380282 215.056338,501.653521 215.056338,496.752113 C215.056338,489.794366 211.529577,486.738028 205.602817,484.974648 L198.369014,482.473239 C188.732394,478.760563 184.560563,473.75493 184.560563,464.301408 C184.560563,452.250704 192.71831,445.583099 205.138028,445.583099 C222.098592,445.583099 223.859155,456.143662 223.859155,463.005634 L223.859155,464.473239 L213.301408,464.473239 L213.301408,463.101408 C213.301408,457.070423 210.605634,453.55493 204.028169,453.55493 C199.490141,453.55493 195.135211,456.056338 195.135211,463.101408 C195.135211,468.749296 198.002817,471.628169 205.04507,474.307042 L212.188732,476.898592 C221.546479,480.233803 225.622535,485.343662 225.622535,494.425352 C225.622535,508.523944 217.095775,514.360563 203.743662,514.360563 C187.346479,514.360563 183.63662,503.408451 183.63662,494.152113 L183.63662,492.574648 L194.197183,492.574648 L194.197183,492.574648 Z" id="Path">
			</path>
			<polygon id="Path" points="300.016901 455.771831 284.259155 455.771831 284.259155 446.88169 326.064789 446.88169 326.064789 455.771831 310.585915 455.771831 310.585915 513.059155 300.016901 513.059155">
			</polygon>
			<rect id="Rectangle" x="386.647887" y="446.876056" width="10.5661972" height="66.1746479">
			</rect>
			<polygon id="Path" points="473.574648 455.771831 457.808451 455.771831 457.808451 446.88169 499.611268 446.88169 499.611268 455.771831 484.138028 455.771831 484.138028 513.059155 473.574648 513.059155">
			</polygon>
			<path d="M570.397183,446.88169 L570.397183,494.340845 C570.397183,502.68169 573.735211,506.385915 580.126761,506.385915 C586.430986,506.385915 589.769014,502.68169 589.769014,494.340845 L589.769014,446.88169 L600.338028,446.88169 L600.338028,493.495775 C600.338028,508.794366 592.735211,514.36338 580.126761,514.36338 C567.428169,514.36338 559.83662,508.794366 559.83662,493.495775 L559.83662,446.88169 L570.397183,446.88169 L570.397183,446.88169 Z" id="Path">
			</path>
			<polygon id="Path" points="676.309859 455.771831 660.55493 455.771831 660.55493 446.88169 702.346479 446.88169 702.346479 455.771831 686.876056 455.771831 686.876056 513.059155 676.309859 513.059155">
			</polygon>
			<polygon id="Path" points="763.402817 446.88169 799.183099 446.88169 799.183099 455.774648 773.971831 455.774648 773.971831 474.123944 797.707042 474.123944 797.707042 483.022535 773.971831 483.022535 773.971831 504.160563 799.923944 504.160563 799.923944 513.056338 763.402817 513.056338">
			</polygon>
		</g>
		<g id="Middlesex-University" transform="translate(100.000000, 643.000000)" fill="#222222" fill-rule="nonzero">
			<path d="M371.161688,89.460502 C371.054268,87.5217509 366.148842,37.6095611 366.148842,37.6095611 C365.699064,32.7043476 365.806431,28.1469146 365.806431,28.1469146 L365.576172,28.1469146 C365.576172,28.1469146 364.783239,32.5919296 363.305111,37.6095611 C363.305111,37.6095611 349.279822,86.8415013 348.369207,89.460502 L340.164717,89.460502 C339.371996,87.1842843 325.356914,37.4921456 325.356914,37.4921456 C323.986021,32.5919296 323.070409,28.1469146 323.070409,28.1469146 L322.845387,28.1469146 C322.845387,28.1469146 322.957752,32.5919296 322.50271,37.4921456 C322.50271,37.4921456 317.602494,87.1842843 317.495074,89.460502 L305.295745,89.460502 L314.068174,11.0576842 L328.650928,11.0576842 L342.676244,61.3127102 C344.036929,66.3253441 344.727493,70.0900563 344.727493,70.0900563 L344.952488,70.0900563 C344.952488,70.0900563 345.525184,66.3252909 347.003498,61.3127102 L361.473914,11.0576842 L376.061904,11.0576842 L384.844328,89.460502 L371.161662,89.460502 L371.161688,89.460502 Z" id="path52">
			</path>
			<path d="M397.953766,28.0354537 L411.856483,28.0354537 L411.856483,89.4564349 L397.953766,89.4564349 L397.953766,28.0354537 Z M404.899994,17.4370376 C400.685131,17.4370376 397.2682,14.3578383 397.2682,10.5983895 C397.2682,6.72125926 400.685131,3.6470575 404.899994,3.6470575 C409.237243,3.6470575 412.536546,6.72125926 412.536546,10.5983895 C412.536546,14.3578383 409.237243,17.4370376 404.899994,17.4370376" id="path54">
			</path>
			<path d="M460.970024,36.1278717 C459.031459,35.5599869 456.98542,35.3298877 454.81649,35.3298877 C442.735056,35.3298877 438.632824,45.6978854 438.632824,58.695198 C438.632824,72.592891 443.082703,81.7127278 453.798747,81.7127278 C457.092788,81.7127278 459.379319,81.3699448 460.970024,80.3418614 L460.970024,36.1278186 L460.970024,36.1278717 L460.970024,36.1278717 Z M453.450861,90.6028641 C435.328549,90.6028641 424.847788,78.9813623 424.847788,59.4932087 C424.847788,39.4371437 435.783591,27.4632359 451.747525,27.4632359 C455.16443,27.4632359 458.24363,27.8056734 460.969998,28.603684 L460.969998,0.000691148459 L474.877686,0.000691148459 L474.877686,86.1578491 C469.972445,88.8942654 463.021007,90.6028641 453.450834,90.6028641" id="path58">
			</path>
			<path d="M523.539481,36.1278717 C521.6061,35.5599869 519.53938,35.3298877 517.380976,35.3298877 C505.304539,35.3298877 501.207252,45.6978854 501.207252,58.695198 C501.207252,72.592891 505.641926,81.7127278 516.352734,81.7127278 C519.667482,81.7127278 521.933279,81.3699448 523.539481,80.3418614 L523.539481,36.1278186 L523.539481,36.1278717 Z M516.020318,90.6028641 C497.898007,90.6028641 487.412221,78.9813623 487.412221,59.4932087 C487.412221,39.4371437 498.353021,27.4632359 514.306695,27.4632359 C517.723627,27.4632359 520.802879,27.8056734 523.539481,28.603684 L523.539481,0.000691148459 L537.44709,0.000691148459 L537.44709,86.1578491 C532.5469,88.8942654 525.595675,90.6028641 516.020318,90.6028641" id="path62">
			</path>
			<polygon id="path64" points="553.501246 0 567.393409 0 567.393409 89.4614324 553.501246 89.4614324">
			</polygon>
			<path d="M606.257671,35.4410297 C598.175806,35.4410297 592.590556,42.0548951 592.927942,56.7552241 L618.339398,52.8830914 C618.339398,40.4589801 613.89425,35.4410297 606.257671,35.4410297 M593.725926,63.818974 C594.8563,75.220345 600.329478,80.9135475 610.472347,80.9135475 C617.54144,80.9135475 622.671702,79.2048956 625.970953,77.4965361 L629.280225,86.2688848 C624.94792,88.6627838 618.339398,90.601216 608.994007,90.601216 C591.557076,90.601216 580.498594,79.3175528 580.498594,58.5762142 C580.498594,38.5201492 590.646647,26.893703 606.72821,26.893703 C623.009594,26.893703 631.894148,37.7222183 631.326184,58.3511124 L593.7259,63.8188676 L593.7259,63.8189208 L593.725926,63.818974 Z" id="path68">
			</path>
			<path d="M656.837085,90.4888512 C649.6556,90.4888512 643.507303,88.5501 639.850144,86.0388387 L643.50733,77.1540721 C645.78889,78.9800863 650.003514,80.6884192 655.016121,80.6884192 C660.70935,80.6884192 664.468666,77.0413351 664.468666,72.0237568 C664.468666,66.7807578 661.737301,64.2744408 655.466165,61.8858583 C643.845035,57.4408167 641.456134,51.0623937 641.456134,44.6788934 C641.456134,34.8734639 649.195109,26.8940486 660.939396,26.8940486 C667.772967,26.8940486 672.898471,28.6023815 676.898014,31.2263798 L673.481375,39.3181598 C671.660438,37.8349287 668.008489,35.901494 663.675706,35.901494 C657.972509,35.901494 654.898519,39.6609429 654.898519,43.9882766 C654.898519,49.0061739 658.663072,51.5074933 664.013625,53.6759982 C675.982455,58.4637962 678.719297,64.6221948 678.719297,71.793312 C678.719297,81.8241356 670.279258,90.4888512 656.837138,90.4888512" id="path72">
			</path>
			<path d="M714.398135,35.4410297 C706.301011,35.4410297 700.720519,42.0548951 701.063169,56.7552241 L726.469415,52.8830914 C726.469415,40.4589801 722.034714,35.4410297 714.398108,35.4410297 M701.871547,63.818974 C703.007024,75.220345 708.47462,80.9135475 718.607787,80.9135475 C725.676827,80.9135475 730.801826,79.2048956 734.116387,77.4965361 L737.420635,86.2688848 C733.093647,88.6627838 726.469415,90.601216 717.129474,90.601216 C699.692489,90.601216 688.644082,79.3175528 688.644082,58.5762142 C688.644082,38.5201492 698.776611,26.893703 714.848179,26.893703 C731.149766,26.893703 740.039609,37.7222183 739.461623,58.3511124 L701.871547,63.8188676 L701.871547,63.8189208 L701.871547,63.818974 Z" id="path76">
			</path>
			<polygon id="path80" points="782.193419 89.460502 770.679683 67.1232218 770.454634 67.1232218 758.710347 89.460502 744.577611 89.460502 763.615561 57.6706236 746.521492 28.0395474 761.114773 28.0395474 771.482638 48.0902958 771.702476 48.0902958 782.530885 28.0395474 795.625304 28.0395474 778.203578 56.7552772 797.456768 89.4605552 782.193419 89.4605552 782.193419 89.4605286">
			</polygon>
			<path d="M334.011954,200.881741 C318.626218,200.881741 308.140193,191.076312 308.140193,176.830838 L308.140193,121.220741 L322.615846,121.220741 L322.615846,176.723444 C322.615846,185.15301 328.093995,189.710416 334.584889,189.710416 C341.193438,189.710416 346.436331,185.15301 346.436331,176.723444 L346.436331,121.220741 L359.87869,121.220741 L359.87869,176.830838 C359.87869,191.076312 349.397902,200.881741 334.011954,200.881741" id="path84">
			</path>
			<path d="M409.914143,199.622947 L409.914143,156.099441 C409.914143,151.081544 407.627638,145.838519 398.86042,145.838519 C394.297856,145.838519 391.909221,146.518795 389.290247,147.552195 L389.290247,199.622947 L375.382559,199.622947 L375.382559,141.511211 C381.193416,138.774822 389.05499,137.071486 399.428358,137.071486 C417.775718,137.071486 423.821778,145.951255 423.821778,155.86905 L423.821778,199.622947 L409.914117,199.622947 L409.914117,199.622947 L409.914143,199.622947 Z" id="path88">
			</path>
			<path d="M439.088636,138.202577 L452.9913,138.202577 L452.9913,199.623532 L439.088636,199.623532 L439.088636,138.202577 Z M446.045072,127.604135 C441.830209,127.604135 438.403043,124.530252 438.403043,120.765513 C438.403043,116.893381 441.830209,113.814181 446.045072,113.814181 C450.377377,113.814181 453.67139,116.893381 453.67139,120.765513 C453.67139,124.530279 450.37735,127.604135 446.045072,127.604135" id="path90">
			</path>
			<path d="M496.527087,199.622947 L483.309723,199.622947 L463.24882,138.201966 L478.066857,138.201966 L488.885271,177.863574 C490.148531,182.308588 490.37358,186.293139 490.37358,186.293139 L490.598867,186.293139 C490.598867,186.293139 490.946515,182.421299 492.194809,177.863574 L503.248001,138.201966 L516.240342,138.201966 L496.527114,199.622947 L496.527087,199.622947 Z" id="path94">
			</path>
			<path d="M547.906904,145.610679 C539.809807,145.610679 534.219001,152.224518 534.572151,166.924873 L559.988631,163.052714 C559.988631,150.628629 555.543456,145.610679 547.906904,145.610679 M535.370162,173.983599 C536.505533,185.389994 541.973687,191.077854 552.111559,191.077854 C559.180147,191.077854 564.310382,189.374811 567.615162,187.666185 L570.929431,196.438534 C566.592182,198.832433 559.988631,200.765868 550.628062,200.765868 C533.196314,200.765868 522.142591,189.487202 522.142591,168.745916 C522.142591,148.684854 532.280702,137.068722 548.357001,137.068722 C564.648327,137.068722 573.548405,147.891921 572.970472,168.520815 L535.370189,173.983626 L535.370189,173.983652 L535.370162,173.983599 Z" id="path98">
			</path>
			<path d="M612.516578,147.323079 C607.846408,145.732427 602.721383,145.952186 599.529527,147.773256 L599.529527,199.623904 L585.621865,199.623904 L585.621865,141.507197 C592.000395,138.433315 599.754788,136.719639 615.263149,137.174866 L612.516578,147.323079 L612.516578,147.323079 Z" id="path102">
			</path>
			<path d="M637.586606,200.65321 C630.410119,200.65321 624.246617,198.709435 620.609927,196.213432 L624.246617,187.318378 C626.532883,189.14939 630.757767,190.852725 635.765377,190.852725 C641.458606,190.852725 645.228422,187.210958 645.228422,182.19306 C645.228422,176.950407 642.491846,174.443744 636.225921,172.050164 C624.599501,167.605123 622.205629,161.226673 622.205629,154.843173 C622.205629,145.037743 629.954812,137.068642 641.693862,137.068642 C648.53267,137.068642 653.657908,138.771658 657.642512,141.395683 L654.230843,149.487782 C652.420114,148.004232 648.76269,146.070798 644.425175,146.070798 C638.727241,146.070798 635.657957,149.830565 635.657957,154.157554 C635.657957,159.175477 639.417565,161.67677 644.773354,163.840304 C656.731924,168.6331 659.473497,174.791498 659.473497,181.967932 C659.473497,191.993439 651.038934,200.65321 637.58658,200.65321" id="path106">
			</path>
			<path d="M672.123162,138.202577 L686.025826,138.202577 L686.025826,199.623532 L672.123162,199.623532 L672.123162,138.202577 Z M679.084888,127.604135 C674.859525,127.604135 671.437835,124.530252 671.437835,120.765513 C671.437835,116.893381 674.859525,113.814181 679.084888,113.814181 C683.406931,113.814181 686.710913,116.893381 686.710913,120.765513 C686.710913,124.530279 683.406905,127.604135 679.084888,127.604135" id="path108">
			</path>
			<path d="M721.701288,200.30947 C709.614483,200.30947 704.826739,192.222661 704.826739,183.670364 L704.826739,147.092926 L697.998378,147.092926 L697.998378,138.202843 L704.826739,138.202843 L704.826739,124.637965 L718.739956,120.765832 L718.739956,138.20287 L728.759881,138.20287 L728.759881,147.09298 L718.739956,147.09298 L718.739956,182.990114 C718.739956,187.782936 720.673204,190.969556 725.455633,190.969556 C726.708924,190.969556 727.629507,190.739457 728.759881,190.401618 L728.759881,199.056312 C727.506855,199.624197 725.000511,200.30947 721.701314,200.30947" id="path112">
			</path>
			<path d="M760.333802,224.13054 L745.633127,224.13054 L755.653849,199.624462 L735.372656,138.203508 L750.195903,138.203508 L760.789136,177.977826 C762.042081,182.765597 762.042081,186.755145 762.042081,186.755145 L762.272633,186.755145 C762.272633,186.755145 762.615043,182.765597 763.96568,177.977826 L775.372076,138.203508 L788.369069,138.203508 L760.333748,224.13054 L760.333802,224.13054 Z" id="path116">
			</path>
			<polygon id="path120" points="309.170962 313.595162 309.170962 235.192318 319.651723 235.192318 319.651723 306.526122 343.247186 306.526122 343.247186 313.595162 309.170962 313.595162">
			</polygon>
			<path d="M375.496678,257.412475 C363.757654,257.412475 361.471388,270.517181 361.471388,282.941612 C361.471388,295.371039 363.98265,307.785156 375.496678,307.785156 C387.235781,307.785156 389.399129,295.248042 389.399129,282.941612 C389.399129,270.634863 387.235755,257.412475 375.496678,257.412475 M375.496678,314.741512 C358.740049,314.741512 351.451144,300.946242 351.451144,282.941638 C351.451144,264.593906 358.862701,251.034052 375.384021,251.034052 C392.243072,251.034052 399.42982,264.59388 399.42982,282.941638 C399.42982,300.946268 392.130707,314.741512 375.496651,314.741512" id="path124">
			</path>
			<path d="M447.750215,313.595189 L447.750215,269.493537 C447.750215,263.800627 445.361526,257.529545 434.875741,257.529545 C429.182804,257.529545 426.441231,258.327529 423.249321,259.693105 L423.249321,313.595189 L413.22384,313.595189 L413.22384,255.355803 C418.691782,252.736776 425.873266,251.033467 435.673672,251.033467 C452.757772,251.033467 457.78585,260.491089 457.78585,269.268462 L457.78585,313.595189 L447.750188,313.595189 L447.750215,313.595189 Z" id="path128">
			</path>
			<path d="M507.919712,258.552631 C505.418393,257.872328 502.906839,257.411837 500.277896,257.411837 C486.042817,257.411837 481.485304,269.718586 481.485304,283.048368 C481.485304,297.528911 486.498151,308.127354 499.029656,308.127354 C503.137124,308.127354 505.975884,307.672153 507.919712,306.418675 L507.919712,258.552631 L507.919712,258.552631 Z M498.574588,314.7409 C481.03518,314.7409 471.56743,302.429127 471.56743,283.851349 C471.56743,263.45282 482.390629,251.601272 498.226674,251.601272 C501.64855,251.601272 504.615464,252.056447 507.919712,252.967141 L507.919712,224.133703 L517.837507,224.133703 L517.837507,310.408569 C513.735275,312.91486 507.121755,314.7409 498.574588,314.7409" id="path132">
			</path>
			<path d="M555.674057,257.412475 C543.940031,257.412475 541.653472,270.517181 541.653472,282.941612 C541.653472,295.371039 544.165053,307.785156 555.674057,307.785156 C567.423102,307.785156 569.581745,295.248042 569.581745,282.941612 C569.581745,270.634863 567.423076,257.412475 555.674057,257.412475 M555.674057,314.741512 C538.922213,314.741512 531.633308,300.946242 531.633308,282.941638 C531.633308,264.593906 539.045291,251.034052 555.556189,251.034052 C572.420531,251.034052 579.607225,264.59388 579.607225,282.941638 C579.607225,300.946268 572.31311,314.741512 555.674057,314.741512" id="path136">
			</path>
			<path d="M627.923527,313.595189 L627.923527,269.493537 C627.923527,263.800627 625.539915,257.529545 615.05413,257.529545 C609.350932,257.529545 606.614091,258.327529 603.422739,259.693105 L603.422739,313.595189 L593.397259,313.595189 L593.397259,255.355803 C598.870198,252.736776 606.036423,251.033467 615.846851,251.033467 C632.936187,251.033467 637.959029,260.491089 637.959029,269.268462 L637.959029,313.595189 L627.923527,313.595189 L627.923527,313.595189 Z" id="path140">
			</path>
			<path d="M136.007968,0.000637983194 L273.601644,10.5272012 C273.601644,10.5272012 274.55822,40.0664875 274.55822,76.6592098 C274.55822,264.154947 136.841653,313.61696 136.841653,313.61696 C136.841653,313.61696 -2.65826333e-05,263.679145 -2.65826333e-05,76.1884313 C-2.65826333e-05,39.5854216 0.951179775,10.0567417 0.951179775,10.0567417 L0.951179775,10.0567417 L136.007968,0.000637983194 Z M102.176225,230.009236 C101.99214,230.009236 101.843809,230.055144 101.746623,230.086033 C101.567562,230.101318 101.378241,230.136966 101.163453,230.198478 C100.984632,230.259963 100.820803,230.321104 100.728641,230.372355 L100.534588,230.45415 C100.48339,230.479775 100.330034,230.582145 100.115007,230.750759 C99.9771499,230.853128 99.8542584,230.960575 99.7673598,231.04237 C98.7083874,231.993895 95.5015117,235.558866 97.4910889,242.285123 C97.4653569,242.285123 97.4501251,242.300727 97.4348932,242.305777 C96.4066504,242.704729 95.6443934,243.584535 95.2355525,244.807097 C94.2585078,244.361864 93.2557311,244.310693 92.381322,244.653476 C91.3375815,245.052428 90.5755903,245.96283 90.2022107,247.216307 C89.2304028,246.72522 88.2023992,246.648423 87.3275116,246.991232 C86.268805,247.405469 85.5167823,248.341444 85.1741056,249.61523 C84.1920634,249.08823 83.1690574,248.99115 82.2689428,249.333933 C81.2049729,249.748223 80.4477135,250.725082 80.1360321,252.008837 C79.1589874,251.446269 78.1205103,251.333877 77.2203692,251.676368 C76.4071798,251.988528 75.7727853,252.617659 75.3739395,253.512696 C74.8112383,254.781459 74.8317069,256.397683 75.4301352,257.937136 C76.4481437,260.576739 78.9541948,262.146789 80.9747142,261.359092 C81.9465221,260.970401 82.64732,260.116248 82.9695015,258.965486 C84.013242,259.62516 85.1793424,259.794013 86.1663822,259.410373 C87.1279292,259.036966 87.8339905,258.198125 88.1869015,257.062674 C89.245608,257.691699 90.4017399,257.829689 91.3685503,257.451365 C92.3146262,257.093271 93.0309218,256.285052 93.4142965,255.180145 C94.4732689,255.768632 95.598432,255.906649 96.5754767,255.512641 C97.5115575,255.149549 98.2276139,254.387504 98.6367206,253.328532 C99.6854587,253.850535 100.795363,253.942617 101.78764,253.558897 C102.002667,253.471786 102.206981,253.359421 102.401539,253.236689 C102.877315,255.267203 102.529402,256.576531 102.135553,257.333631 C100.319827,257.359257 98.8517475,258.771007 98.8517475,260.520224 C98.8517475,262.274758 100.345293,263.717105 102.176491,263.717105 C102.68273,263.717105 103.183999,263.584112 103.695502,263.318126 L103.95649,263.216022 C104.452761,262.919121 106.948578,261.257015 107.843961,257.630213 C108.401426,255.359339 108.294005,253.34908 107.450086,250.883701 C115.756734,248.612454 123.720944,247.461692 131.132208,247.461692 C139.797004,247.461692 145.464474,249.067947 147.89434,249.922127 C151.18838,245.303182 156.282888,243.185583 160.04247,245.170189 C163.750854,247.129196 164.891488,252.433415 163.02956,257.691699 L168.154559,261.834895 L195.182451,261.834895 L195.182451,261.057539 C195.182451,255.528245 185.223427,235.093484 139.740808,234.034804 L139.142406,234.029673 C123.684738,234.029673 112.237406,238.060079 103.87956,241.006285 L102.902515,241.344071 C101.838546,238.540932 102.15573,237.318663 102.6163,236.377398 C104.247969,236.167582 105.506231,234.827684 105.506231,233.206117 C105.506231,231.446586 104.012686,230.009236 102.176225,230.009236 Z M90.879802,177.856715 C90.6855095,177.856715 90.5218934,177.902597 90.3530671,177.948797 C90.143277,177.964109 89.9436946,177.999996 89.7289335,178.066479 C89.5141458,178.137986 89.31459,178.204496 89.1969352,178.281266 L88.9259519,178.388687 C88.8899856,178.414313 88.726396,178.53202 88.4858764,178.721182 C88.3427555,178.8336 88.1993953,178.946258 88.1279678,179.03305 C86.4963258,180.491001 83.0896285,184.654453 85.4885516,192.444626 C85.3299596,192.480539 85.1816019,192.526448 85.038481,192.577646 C83.7392548,193.094332 82.7674469,194.229783 82.2814367,195.769502 C81.0588748,195.19133 79.7701222,195.109509 78.6702126,195.534086 C77.3504912,196.050826 76.3787098,197.222163 75.9338761,198.797477 C74.7268119,198.178739 73.4223223,198.061005 72.3124176,198.485609 C70.9669642,199.001977 70.0054172,200.204256 69.6068107,201.82048 C68.3892463,201.150492 67.0745225,201.007185 65.9288907,201.447048 C64.5939375,201.958444 63.6578566,203.227233 63.3152065,204.889339 C62.0876471,204.132558 60.7167541,203.933082 59.5553855,204.403568 C58.5838434,204.771977 57.8215864,205.534021 57.3457838,206.597991 C56.6552202,208.152703 56.686189,210.137336 57.4174506,212.029886 C58.670742,215.257656 61.7037673,217.175779 64.1333933,216.234541 C65.3664288,215.74348 66.2356011,214.623314 66.5939882,213.114484 C67.9134438,214.004524 69.4224867,214.255251 70.7012177,213.764164 C71.9082819,213.293385 72.7726959,212.224444 73.1770443,210.761443 C74.5119976,211.600311 76.0105404,211.794789 77.2585684,211.308407 C78.4761327,210.843237 79.3710105,209.809864 79.8213203,208.403111 C81.1562736,209.170472 82.5935965,209.329117 83.8211559,208.84861 C85.0129883,208.393169 85.9233637,207.385688 86.4143715,206.014502 C87.749564,206.725694 89.1664449,206.863977 90.3939778,206.392879 C90.7673574,206.244575 91.1152709,206.050415 91.4374525,205.789374 C91.8210664,207.91197 91.44245,209.344349 90.930947,210.27001 L90.8799881,210.27001 C88.777541,210.27001 87.0742057,211.901864 87.0742057,213.912362 C87.0742057,215.927644 88.777541,217.559473 90.8799881,217.559473 C91.4681554,217.559473 92.0410909,217.400588 92.6497534,217.088694 L92.8952706,216.986617 C93.2429449,216.787114 96.3631346,214.889274 97.4475731,210.444206 C98.0667092,207.937889 97.9488152,205.636098 97.0639326,202.853854 C107.994525,199.79491 118.623883,198.25022 128.664596,198.25022 C142.541288,198.25022 151.328975,201.22697 154.172945,202.352425 C158.034657,196.383269 164.392718,193.518884 169.032185,195.973976 C173.57949,198.372607 174.837752,205.027622 172.295495,211.462294 L179.072871,217.400854 L214.781003,217.400854 L214.781003,216.618155 C214.781003,211.078254 201.978248,182.53175 141.119649,180.854013 C140.679414,180.843806 140.244841,180.838808 139.809763,180.838808 C122.5264,180.838808 100.828326,187.779826 91.5601313,191.05353 C90.5883234,188.19409 90.8186088,186.301592 91.2941455,185.125205 C93.1917999,184.925728 94.6750842,183.370698 94.6750842,181.49843 C94.6750842,179.488171 92.9770122,177.856715 90.879802,177.856715 Z M80.2094268,116.849041 C79.9896415,116.849041 79.8105543,116.894949 79.5905299,116.956461 C79.3450127,116.98206 79.1149932,117.027942 78.8642392,117.099768 C78.6134852,117.166278 78.3934608,117.25836 78.1839099,117.365727 L77.9129265,117.483409 C77.8617283,117.519003 77.6519382,117.657339 77.4216529,117.846501 C77.2428315,117.984491 77.0839737,118.112487 76.9458769,118.24548 C75.4880587,119.565095 71.0381525,124.506248 73.6313681,133.825587 C72.1123567,134.449641 71.0024255,135.820508 70.4704538,137.677411 C69.0023747,136.935676 67.4526604,136.80263 66.1177072,137.319343 C64.5372367,137.927819 63.3758681,139.380454 62.8848602,141.303893 C61.4068127,140.495595 59.8468374,140.33703 58.4909105,140.843403 C56.8797371,141.467483 55.7443397,142.956031 55.3144985,144.930349 C53.8416877,144.050544 52.2200142,143.851095 50.8695899,144.383066 C49.2531797,145.007147 48.1382509,146.556888 47.7651105,148.592745 C46.3072923,147.625882 44.6756237,147.365159 43.2432717,147.907445 C40.4147732,149.012006 39.3046293,153.017159 40.772921,156.838067 C42.2407343,160.623168 45.7445645,162.884074 48.6242612,161.768906 C50.0973378,161.19605 51.1460492,159.799584 51.5501584,157.97886 C53.1253655,159.093709 54.9360947,159.431521 56.4708696,158.83304 C57.9284486,158.260158 58.9976552,156.945514 59.4629576,155.190953 C61.0384306,156.208988 62.8081959,156.479998 64.3119755,155.896829 C65.7648227,155.33426 66.8337635,154.0605 67.3502641,152.331858 C68.9514424,153.298429 70.6955024,153.523478 72.1635549,152.955939 C73.5906701,152.403366 74.6698453,151.165466 75.2325464,149.487756 C76.8387223,150.38811 78.5470552,150.582322 80.0151343,150.014703 C80.2758833,149.912334 80.5266373,149.784338 80.777152,149.626012 C81.7132329,153.129789 81.0381403,155.313898 80.3628085,156.495257 C80.3118496,156.490259 80.2606515,156.485262 80.2094533,156.485262 C77.7441002,156.485262 75.7338152,158.408382 75.7338152,160.771392 C75.7338152,163.799686 79.0433264,166.188322 82.2964027,164.495274 L82.593118,164.382563 C83.0176959,164.14215 86.7670433,161.845703 88.0762646,156.485262 C88.8537534,153.329292 88.5775333,149.804913 87.268312,146.014575 C99.7488848,142.623509 112.254924,140.899572 124.459489,140.899572 C145.886075,140.899572 160.013787,146.24494 163.072571,147.513437 C167.098139,141.007284 173.921475,137.830686 178.888121,140.454711 C183.967398,143.140169 185.133525,150.889166 181.711622,158.029739 L189.200083,165.052871 L233.567508,165.052871 L233.567508,164.270199 C233.567508,157.365067 217.598576,121.856597 141.676449,119.754283 C114.920072,119.754363 90.6799803,128.439627 80.7466618,132.531571 C79.6569865,129.08928 79.9996366,126.813062 80.6085384,125.401312 C82.8895676,125.206833 84.6903017,123.365534 84.6903017,121.130174 C84.6903017,118.767164 82.6800167,116.849041 80.2094268,116.849041 Z M136.585423,24.1117773 C133.240185,24.1117773 130.513843,26.8378795 130.513843,30.1830646 C130.513843,30.9760511 130.672435,31.7484095 130.989646,32.5001664 L128.524293,34.9655461 L133.066361,39.5130105 C132.432232,46.285149 131.040844,53.8452498 130.636735,55.9628755 C123.603581,56.3718759 117.291748,57.4563942 112.71374,59.0470458 C111.00017,56.5713254 108.084747,52.2493348 105.496529,47.8351823 L107.680664,41.8148273 L104.391621,40.6228621 C104.360892,39.8095664 104.176834,39.0322105 103.849389,38.3210187 C102.852115,36.1934245 100.693472,34.8172416 98.3405103,34.8172416 C97.4556277,34.8172416 96.5962111,35.0067492 95.7777584,35.3851264 C92.74997,36.8071909 91.4302486,40.4233328 92.8468637,43.4565973 C93.1745478,44.1727866 93.6500845,44.8121521 94.2535103,45.3491213 L93.0669147,48.6327942 L99.1332576,50.8425287 C101.501451,56.1673225 104.979789,78.0647133 105.020487,78.3050735 C106.186853,84.801231 119.572804,89.5119394 136.851409,89.5119394 C154.344589,89.5119394 167.403334,84.9086249 168.610398,78.310071 C168.758756,77.4967754 168.953075,76.2539575 169.198566,74.7297891 C170.31897,67.7937688 172.385212,55.0012488 174.518123,50.8527896 L180.615434,48.632741 L179.423602,45.3490681 C180.027028,44.8120724 180.497806,44.1727069 180.835219,43.4565442 C182.247103,40.4232531 180.932379,36.8017946 177.904325,35.3850466 C177.086164,35.0067492 176.231985,34.8172416 175.341839,34.8172416 C172.983879,34.8172416 170.820239,36.1933713 169.83296,38.3210187 C169.49031,39.042179 169.31646,39.8145639 169.280759,40.6228621 L165.996714,41.8148273 L168.18606,47.8401798 C165.61831,52.2134217 162.682179,56.5613569 160.958375,59.0523623 C156.902317,57.7017785 148.498297,56.1417501 142.513882,55.926989 C142.11477,53.8143608 140.795049,46.5717629 140.114959,39.4976989 L144.657027,34.9708892 L142.176203,32.5001664 C142.498384,31.758697 142.667237,30.9810221 142.667237,30.1830646 C142.667237,26.8379061 139.930661,24.1117773 136.585423,24.1117773 Z M164.411273,78.3410398 C164.411273,81.5635461 152.298843,84.0851215 136.841174,84.0851215 C121.383772,84.0851215 109.271342,81.5634929 109.271342,78.3410398 C109.271342,74.4180662 122.830637,72.6440625 136.412289,72.6075298 L136.841174,72.6069532 C150.114734,72.6069532 164.411273,74.3973999 164.411273,78.3410398 Z" id="path48-2">
			</path>
		</g>
	</g>
</svg>
