<?xml version="1.0" encoding="UTF-8"?>
<svg width="1920px" height="1080px" viewBox="0 0 1920 1080" version="1.1" xmlns="http://www.w3.org/2000/svg" xmlns:xlink="http://www.w3.org/1999/xlink">
    <!-- Generator: Sketch 62 (91390) - https://sketch.com -->
    <title>Apple TV</title>
    <desc>Created with Sketch.</desc>
    <g id="Apple-TV" stroke="none" stroke-width="1" fill="none" fill-rule="evenodd">
        <rect fill="#1BF9D8" x="0" y="0" width="1920" height="1080"></rect>
        <g id="1585892" transform="translate(1387.500000, 548.000000) rotate(-90.000000) translate(-1387.500000, -548.000000) translate(839.500000, 0.500000)" fill-rule="nonzero">
            <path d="M1.17410308,0.5 C1.17410308,0.5 -34.561411,561.31651 414.343121,749.136873 C589.22084,822.306669 677.461217,770.411138 828.205193,803.294725 C978.949169,836.180151 1095.5,832.890505 1095.5,832.890505 L1095.5,1094.5 L1.17410308,1094.5 L1.17410308,0.5 Z" id="Path" fill="#057E76"></path>
            <path d="M1095.5,832.674446 L1095.5,1094.5 L1.5,1094.5 L15.9046271,860.135321 C15.9046271,860.135321 183.162232,806.317156 380.561492,795.410057 C488.237825,789.467252 604.880754,796.291086 708.24011,831.589254 C1001.0374,931.610846 1095.5,832.674446 1095.5,832.674446 Z" id="Path" fill="#068C84"></path>
            <path d="M388,803 C388,803 805.000588,1038.15402 935.837968,1066.07793 C1066.67719,1094 1095,1094 1095,1094 L388,1094 L388,803 Z" id="Path" fill="#057E76"></path>
            <path d="M1095.5,1094.5 L1.5,1094.5 L1.5,43.592248 C1.5,40.9911322 5.28585504,40.726425 5.66260275,43.2999671 C111.109692,763.801679 585.295387,983.663057 872.318332,1058.76453 C1003.44308,1093.08455 1095.5,1094.5 1095.5,1094.5 Z" id="Path" fill="#08A79D"></path>
            <path d="M1095.5,832.595505 L1095.5,879.66034 C1064.03427,894.363512 1021.30189,911.508035 984.487713,916.262244 C916.483497,925.054778 767.609403,885.442487 672.035911,846.894844 C576.462418,808.347202 380.5,795.424564 380.5,795.424564 L380.5,795.406208 C488.185595,789.475378 604.838556,796.285462 708.206802,831.5125 C1001.02928,931.332537 1095.5,832.595505 1095.5,832.595505 Z" id="Path" fill="#3CBFB9"></path>
            <path d="M871.5,1058.5 C700.937421,1021.01795 466.27831,946.5872 291.910746,802.838565 C28.1352294,585.358063 2.45433922,150.139576 0.509569207,30.5 C0.5,30.3036813 0.5,42.9791622 0.5,42.7823722 C0.456262657,40.1597321 4.28330534,39.8728234 4.66380382,42.4678761 C110.113351,763.377579 584.41114,983.359337 871.5,1058.5 Z" id="Path" fill="#3CBFB9"></path>
        </g>
        <rect id="Rectangle" fill="#1BF9D8" style="mix-blend-mode: color;" x="-29" y="-23" width="2046" height="1159"></rect>
    </g>
</svg>