<?xml version="1.0" encoding="UTF-8"?>
<svg width="1920px" height="1080px" viewBox="0 0 1920 1080" version="1.1" xmlns="http://www.w3.org/2000/svg" xmlns:xlink="http://www.w3.org/1999/xlink">
    <!-- Generator: Sketch 62 (91390) - https://sketch.com -->
    <title>Apple TV</title>
    <desc>Created with Sketch.</desc>
    <g id="Apple-TV" stroke="none" stroke-width="1" fill="none" fill-rule="evenodd">
        <rect fill="#06091C" x="0" y="0" width="1920" height="1080"></rect>
        <g id="1551149" transform="translate(1573.540578, 487.040578) scale(1, -1) rotate(90.000000) translate(-1573.540578, -487.040578) translate(1086.040578, 137.040578)" fill-rule="nonzero">
            <polygon id="Path" fill="#BF202F" points="63.9392305 388.354317 0.905196691 388.354317 120.995899 0.321304914 183.848801 0.321304914"></polygon>
            <polygon id="Path" fill="#EF4037" points="157.536558 286.772474 94.7098734 286.772474 182.089516 1.76559652 244.916201 1.76559652"></polygon>
            <polygon id="Path" fill="#EF7147" points="197.576874 356.579902 134.668608 356.579902 245.075335 1.28416599 307.983601 1.28416599"></polygon>
            <polygon id="Path" fill="#F19420" points="298.063875 234.296546 234.731882 234.296546 307.345288 1.28416599 370.495293 1.28416599"></polygon>
            <polygon id="Path" fill="#FAAA46" points="294.26329 448.533134 231.399007 448.533134 369.772688 2.7284576 432.636971 2.7284576"></polygon>
            <polygon id="Path" fill="#F9ED30" points="277.229238 699.839874 214.030369 699.839874 432.949794 1.76559652 496.148663 1.76559652"></polygon>
            <polygon id="Path" fill="#D5DD27" points="362.940743 625.699572 299.687865 625.699572 495.626377 0.80273545 558.697494 0.80273545"></polygon>
            <polygon id="Path" fill="#8CC440" points="533.204715 281.476738 470.558567 281.476738 557.938209 1.28416599 620.764894 1.28416599"></polygon>
            <polygon id="Path" fill="#39B34A" points="504.970384 568.409338 441.672735 568.409338 621.197965 1.28416599 684.313725 1.28416599"></polygon>
            <polygon id="Path" fill="#016838" points="627.914533 377.762845 564.956091 377.762845 683.978391 0.321304914 746.936834 0.321304914"></polygon>
            <polygon id="Path" fill="#26B571" points="662.914041 466.346064 599.544812 466.346064 747.042157 0.321304914 810.411387 0.321304914"></polygon>
            <polygon id="Path" fill="#00A69C" points="679.515621 608.368072 616.39488 608.368072 809.395185 1.76559652 872.515926 1.76559652"></polygon>
            <polygon id="Path" fill="#28A9E1" points="824.166258 351.284166 760.824041 351.284166 872.72254 0.80273545 936.064757 0.80273545"></polygon>
            <polygon id="Path" fill="#1776BA" points="819.67626 561.18788 755.972597 561.18788 935.734082 1.76559652 974.542061 1.76559652 974.175948 80.1501882"></polygon>
            <polygon id="Path" fill="#283B8F" points="922.553217 438.423093 859.443023 438.423093 973.659744 80.238774 974.023491 277.28572"></polygon>
        </g>
    </g>
</svg>