<?xml version="1.0" encoding="UTF-8"?>
<svg width="512px" height="512px" viewBox="0 0 512 512" version="1.1" xmlns="http://www.w3.org/2000/svg" xmlns:xlink="http://www.w3.org/1999/xlink">
    <title>graphic-design</title>
    <g id="graphic-design" stroke="none" stroke-width="1" fill="none" fill-rule="evenodd">
        <g id="Group-2">
            <path d="M511.779677,255.922641 C511.779677,326.578546 483.176173,390.542805 436.859489,436.859489 C411.470598,462.248379 380.833358,482.323316 346.653482,495.312981 C318.443604,506.006493 287.871968,511.845282 255.922641,511.845282 L255.857036,511.845282 C202.061454,511.845282 152.070926,495.181772 110.871382,466.840685 L212.295736,409.108841 L255.922641,452.735746 L346.653482,362.004904 L393.232584,315.360199 L511.779677,255.922641" id="Fill-102" fill="#FDE91E"></path>
            <path d="M511.779677,255.922641 C511.779677,326.578546 483.176173,390.542805 436.859489,436.859489 C411.470598,462.248379 380.833358,482.323316 346.653482,495.312981 L346.653482,362.004904 L393.232584,315.360199 L452.670141,255.922641 L393.298188,196.485083 L361.9393,165.191799 L495.247377,165.191799 C498.527595,173.91718 501.414187,182.839375 503.71034,191.958382 C504.235175,193.926513 504.694406,195.829039 505.088032,197.731566 C506.85935,205.276069 508.302646,212.886175 509.352316,220.627491 C509.614733,222.530017 509.877151,224.432544 510.073964,226.400675 C510.270777,227.778367 510.401986,229.221663 510.533194,230.599355 C510.664403,232.042651 510.795612,233.485947 510.926821,234.994847 C511.51726,241.883306 511.779677,248.902973 511.779677,255.922641" id="Fill-103" fill="#EA882D"></path>
            <path d="M511.779677,255.922641 L393.298188,196.485083 L361.9393,165.191799 L299.549546,102.736441 L255.922641,59.1095359 L255.857036,59.1751402 L255.857036,-1.86458829e-13 L259.202859,-1.86458829e-13 C261.236595,-1.86458829e-13 263.204726,0.0656043683 265.238461,0.196813105 C266.025714,0.196813105 266.812966,0.196813105 267.600218,0.262417473 C270.093184,0.39362621 272.651755,0.524834947 275.144721,0.721648052 L276.391204,0.852856788 C278.752961,0.984065525 281.114718,1.246483 283.476476,1.50890047 L284.919772,1.64010921 C285.969442,1.77131794 287.084716,1.90252668 288.19999,2.03373542 C290.627352,2.36175726 293.054713,2.6897791 295.482075,3.08340531 C298.237458,3.47703152 300.992842,3.9362621 303.682621,4.46109705 C304.666687,4.65791015 305.585148,4.78911889 306.438004,4.98593199 C308.734157,5.44516257 310.964706,5.96999752 313.195254,6.4292281 C314.113716,6.69164557 315.032177,6.88845867 315.950638,7.08527178 C321.723822,8.46296351 327.497007,10.1030727 333.138982,11.8743907 C336.156783,12.8584562 339.240189,13.8425217 342.192385,14.957796 C345.210186,16.0074659 348.162383,17.1227401 351.114579,18.3036188 L351.311392,18.3692231 C354.066776,19.5501018 356.822159,20.665376 359.577543,21.911859 L360.233586,22.1742765 C362.857761,23.3551551 365.481936,24.6016381 368.106111,25.8481211 L368.434133,26.0449342 C371.25512,27.422626 374.076108,28.8659221 376.831492,30.3748225 C379.586875,31.8181186 382.342259,33.3926235 385.032038,34.9671283 C387.787421,36.5416332 390.411596,38.1817424 393.101375,39.8874559 C395.72555,41.5275652 398.349724,43.2988831 400.908295,45.070201 C413.832355,53.9267908 425.837955,63.9642591 436.859489,74.985793 C462.248379,100.374684 482.257712,131.011924 495.247377,165.191799 C498.527595,173.91718 501.414187,182.839375 503.71034,191.958382 C504.235175,193.926513 504.694406,195.829039 505.088032,197.731566 C506.85935,205.276069 508.302646,212.886175 509.352316,220.627491 C509.614733,222.530017 509.877151,224.432544 510.073964,226.400675 C510.270777,227.778367 510.401986,229.221663 510.533194,230.599355 C510.664403,232.042651 510.795612,233.485947 510.926821,234.994847 C511.51726,241.883306 511.779677,248.902973 511.779677,255.922641" id="Fill-104" fill="#DA2A45"></path>
            <path d="M400.908295,45.070201 L299.549546,102.736441 L255.922641,59.1095359 L118.547094,196.485083 L3.72917659e-13,255.922641 L3.72917659e-13,252.642422 C0.0656043683,249.362204 0.131208737,246.14759 0.328021842,242.932976 C0.39362621,241.883306 0.39362621,240.768032 0.524834947,239.718362 C0.656043683,237.553418 0.78725242,235.454078 0.984065525,233.289134 L0.984065525,232.961112 C1.18087863,230.927377 1.37769173,228.959245 1.64010921,226.92551 C1.77131794,225.87584 1.83692231,224.82617 1.96813105,223.7765 L2.03373542,223.31727 C2.16494415,222.398809 2.29615289,221.545952 2.42736163,220.627491 C2.82098784,217.740898 3.28021842,214.854306 3.73944899,212.033318 C4.00186647,210.721231 4.19867957,209.409144 4.46109705,208.162661 C4.65791015,206.916178 4.92032762,205.60409 5.1827451,204.357607 C5.3795582,203.570355 5.51076694,202.783103 5.70758004,201.99585 C6.10120625,199.962115 6.56043683,197.928379 7.08527178,195.894644 C8.59417225,189.596624 10.3654902,183.364209 12.3336212,177.197399 C13.2520824,174.376411 14.2361479,171.489819 15.2202135,168.734435 C19.7469149,156.33521 25.1920774,144.32961 31.4900968,132.848846 C32.408558,131.077528 33.4582278,129.30621 34.4422934,127.600496 C34.901524,126.74764 35.4263589,125.894783 35.9511938,124.976322 C36.4760288,124.123465 37.0008637,123.270608 37.5256987,122.417751 C39.6906428,119.006324 41.855587,115.529293 44.1517399,112.18347 C45.9230578,109.559295 47.7599801,107.000725 49.5969025,104.507759 C50.8433855,102.86765 52.0242641,101.22754 53.2707471,99.6530355 C57.535031,94.1422686 61.9961281,88.8283147 66.6540382,83.711174 C69.3438173,80.7589774 72.1648052,77.8067808 74.985793,74.985793 C76.5602978,73.4112882 78.1348027,71.8367833 79.7749119,70.2622785 C80.5621643,69.5406304 81.4150211,68.753378 82.2678779,67.9661256 C83.0551303,67.2444775 83.8423827,66.4572251 84.6952395,65.7355771 C91.3212807,59.7655795 98.3409481,54.0579995 105.688637,48.7440457 C106.607099,48.088002 107.459955,47.4319583 108.378416,46.7759146 C109.231273,46.1854753 110.08413,45.595036 110.936987,45.070201 C112.839514,43.6925093 114.807645,42.3804219 116.775776,41.1339389 C117.694237,40.4778953 118.678302,39.8874559 119.596763,39.2970166 C120.580829,38.7065773 121.49929,38.116138 122.483356,37.5256987 C124.451487,36.2792157 126.419618,35.0983371 128.453353,33.9830628 C130.35588,32.8677885 132.258407,31.8181186 134.160933,30.8340531 C136.194669,29.6531745 138.228404,28.6035046 140.262139,27.5538347 C141.902249,26.7665823 143.542358,25.9137255 145.182467,25.1264731 C146.363346,24.6016381 147.544224,24.0111988 148.725103,23.4863639 C152.070926,21.9774634 155.416749,20.4685629 158.828176,19.0908712 L160.599494,18.3036188 C162.108394,17.7131794 163.682899,17.1227401 165.191799,16.5323008 C166.897513,15.9418615 168.603227,15.2858178 170.374545,14.6953785 L171.489819,14.2361479 C172.211467,13.9737305 172.998719,13.7769173 173.720367,13.5144999 C174.310807,13.3176868 174.901246,13.1208737 175.55729,12.9240606 C176.410146,12.5960387 177.263003,12.3336212 178.181464,12.0712038 C179.034321,11.7431819 179.887178,11.4807645 180.805639,11.218347 C181.658496,10.9559295 182.511353,10.693512 183.429814,10.4310946 C185.201132,9.90625962 186.97245,9.38142467 188.743768,8.92219409 C190.515086,8.39735915 192.286404,7.93812857 194.123326,7.54450236 C195.041787,7.28208488 195.894644,7.08527178 196.813105,6.88845867 C198.256401,6.49483246 199.765302,6.16681062 201.208598,5.90439315 C202.061454,5.70758004 202.848707,5.51076694 203.701564,5.31395383 C209.671561,4.06747084 215.772767,3.08340531 221.939578,2.23054852 C222.661226,2.16494415 223.382874,2.03373542 224.104522,1.96813105 C224.957379,1.83692231 225.744631,1.77131794 226.531884,1.70571358 C227.515949,1.57450484 228.565619,1.4432961 229.615289,1.37769173 C235.126056,0.78725242 240.636823,0.39362621 246.278799,0.196813105 C247.066051,0.131208737 247.853304,0.131208737 248.640556,0.131208737 C250.018248,0.0656043683 251.461544,0.0656043683 252.90484,-1.86458829e-13 L255.922641,-1.86458829e-13 C259.071651,-1.86458829e-13 262.155056,0.0656043683 265.238461,0.196813105 C266.025714,0.196813105 266.812966,0.196813105 267.600218,0.262417473 C270.093184,0.39362621 272.651755,0.524834947 275.144721,0.721648052 L276.391204,0.852856788 C278.752961,0.984065525 281.114718,1.246483 283.476476,1.50890047 L284.919772,1.64010921 C285.969442,1.77131794 287.084716,1.90252668 288.19999,2.03373542 C290.627352,2.36175726 293.054713,2.6897791 295.482075,3.08340531 C298.237458,3.47703152 300.992842,3.9362621 303.682621,4.46109705 C304.666687,4.65791015 305.585148,4.78911889 306.438004,4.98593199 C308.734157,5.44516257 310.964706,5.96999752 313.195254,6.4292281 C314.113716,6.69164557 315.032177,6.88845867 315.950638,7.08527178 C321.789427,8.52856788 327.497007,10.1030727 333.138982,11.8743907 C336.156783,12.8584562 339.240189,13.8425217 342.192385,14.957796 C345.210186,16.0074659 348.162383,17.1227401 351.114579,18.3036188 L351.311392,18.3692231 C354.066776,19.5501018 356.822159,20.665376 359.577543,21.911859 L360.233586,22.1742765 C362.857761,23.3551551 365.481936,24.6016381 368.106111,25.8481211 L368.434133,26.0449342 C371.25512,27.422626 374.076108,28.8659221 376.831492,30.3748225 C379.586875,31.8181186 382.342259,33.3926235 385.032038,34.9671283 C387.787421,36.5416332 390.411596,38.1817424 393.101375,39.8874559 C395.72555,41.5275652 398.349724,43.2988831 400.908295,45.070201" id="Fill-105" fill="#DD3F75"></path>
            <path d="M59.1095359,255.922641 L149.840377,346.653482 L16.5323008,346.391065 L16.4666965,346.391065 C15.4170266,343.635681 14.432961,340.880298 13.4488955,338.05931 C13.0552693,336.812827 12.6616431,335.566344 12.2680169,334.385465 C11.6119732,332.417334 11.0215339,330.449203 10.4310946,328.415468 C10.1686771,327.628215 9.90625962,326.840963 9.70944651,325.988106 C9.3158203,324.610414 8.92219409,323.232723 8.59417225,321.789427 C8.26615041,320.608548 7.93812857,319.427669 7.67571109,318.246791 C7.28208488,316.73789 6.88845867,315.22899 6.56043683,313.720089 L6.49483246,313.523276 C5.83878878,310.636684 5.1827451,307.750092 4.65791015,304.797895 L4.39549268,303.288995 C3.80505336,300.533611 3.34582278,297.712623 2.95219657,294.891636 C2.82098784,294.104383 2.6897791,293.251526 2.62417473,292.464274 C2.09933979,289.052847 1.64010921,285.575815 1.31208737,282.098784 L1.31208737,281.967575 C0.984065525,278.752961 0.721648052,275.472743 0.524834947,272.12692 C0.459230578,271.142854 0.39362621,270.093184 0.328021842,269.109119 C0.196813105,266.288131 0.0656043683,263.467143 0.0656043683,260.646155 C1.86458829e-13,259.071651 1.86458829e-13,257.497146 1.86458829e-13,255.922641 L1.86458829e-13,252.642422 C0.0656043683,249.362204 0.131208737,246.14759 0.328021842,242.932976 C0.39362621,241.883306 0.39362621,240.768032 0.524834947,239.718362 C0.656043683,237.553418 0.78725242,235.454078 0.984065525,233.289134 L0.984065525,232.961112 C1.18087863,230.927377 1.37769173,228.959245 1.64010921,226.92551 C1.83692231,224.82617 2.09933979,222.72683 2.42736163,220.627491 C2.82098784,217.740898 3.28021842,214.854306 3.73944899,212.033318 C4.00186647,210.721231 4.19867957,209.409144 4.46109705,208.162661 C4.85472326,206.063321 5.24834947,204.029586 5.70758004,201.99585 C6.10120625,199.962115 6.56043683,197.928379 7.08527178,195.894644 C8.59417225,189.596624 10.3654902,183.364209 12.3336212,177.197399 C13.2520824,174.376411 14.2361479,171.489819 15.2202135,168.734435 C19.7469149,156.33521 25.1920774,144.32961 31.4900968,132.848846 C32.408558,131.077528 33.4582278,129.30621 34.4422934,127.600496 C35.4919633,125.829178 36.4760288,124.123465 37.5256987,122.417751 C39.6906428,119.006324 41.855587,115.529293 44.1517399,112.18347 C45.9230578,109.559295 47.7599801,107.000725 49.5969025,104.507759 C50.8433855,102.86765 52.0242641,101.22754 53.2707471,99.6530355 C57.535031,94.1422686 61.9961281,88.8283147 66.6540382,83.711174 C69.3438173,80.7589774 72.1648052,77.8067808 74.985793,74.985793 C77.3475503,72.6240357 79.7749119,70.2622785 82.2678779,67.9661256 C83.0551303,67.2444775 83.8423827,66.4572251 84.6952395,65.7355771 C91.3212807,59.7655795 98.3409481,54.0579995 105.688637,48.7440457 C107.394351,47.4975627 109.165669,46.2510797 110.936987,45.070201 C112.839514,43.6925093 114.807645,42.3804219 116.775776,41.1339389 C118.678302,39.8874559 120.580829,38.7065773 122.483356,37.5256987 C124.451487,36.2792157 126.419618,35.0983371 128.453353,33.9830628 C130.35588,32.8677885 132.258407,31.8181186 134.160933,30.8340531 C136.194669,29.6531745 138.228404,28.6035046 140.262139,27.5538347 C141.902249,26.7665823 143.542358,25.9137255 145.182467,25.1264731 C146.363346,24.6016381 147.544224,24.0111988 148.725103,23.4863639 C152.595761,21.6494415 156.597627,19.943728 160.599494,18.3036188 C162.108394,17.7131794 163.682899,17.1227401 165.191799,16.5323008 L165.191799,149.840377 L59.1095359,255.922641" id="Fill-106" fill="#4A9FCC"></path>
            <path d="M212.295736,409.108841 L110.871382,466.840685 C98.0129263,457.918491 86.0073269,447.881023 74.985793,436.859489 C49.4656937,411.404994 29.4563614,380.636545 16.5323008,346.391065 L16.4666965,346.391065 C15.4170266,343.635681 14.432961,340.880298 13.4488955,338.05931 C13.0552693,336.812827 12.6616431,335.566344 12.2680169,334.385465 C11.6119732,332.417334 11.0215339,330.449203 10.4310946,328.415468 C10.1686771,327.628215 9.90625962,326.840963 9.70944651,325.988106 C9.3158203,324.610414 8.92219409,323.232723 8.59417225,321.789427 C8.26615041,320.608548 7.93812857,319.427669 7.67571109,318.246791 C7.28208488,316.73789 6.88845867,315.22899 6.56043683,313.720089 L6.49483246,313.523276 C5.83878878,310.636684 5.1827451,307.750092 4.65791015,304.797895 L4.39549268,303.288995 C3.80505336,300.533611 3.34582278,297.712623 2.95219657,294.891636 C2.82098784,294.104383 2.6897791,293.251526 2.62417473,292.464274 C2.09933979,289.052847 1.64010921,285.575815 1.31208737,282.098784 L1.31208737,281.967575 C0.984065525,278.752961 0.721648052,275.472743 0.524834947,272.12692 C0.459230578,271.142854 0.39362621,270.093184 0.328021842,269.109119 C0.196813105,266.288131 0.0656043683,263.467143 0.0656043683,260.646155 C3.72917659e-13,259.071651 3.72917659e-13,257.497146 3.72917659e-13,255.922641 L118.547094,315.360199 L212.295736,409.108841" id="Fill-107" fill="#C0D435"></path>
        </g>
    </g>
</svg>