<svg xmlns="http://www.w3.org/2000/svg" width="512" height="512" viewBox="0 0 512 512"><g fill="none" fill-rule="evenodd"><rect width="512" height="512" fill="#00F"/><g fill-rule="nonzero" transform="translate(51 143.5)"><polygon fill="#006" points="122.5 220 139.25 192.5 0 192.5 0 160 159 160 179.5 126.25 0 126.25 0 93.75 199.5 93.75 220 60 0 60 0 27.5 239.75 27.5 256.5 0 287 0 270.25 27.5 410 27.5 410 60 250.5 60 230 93.75 410 93.75 410 126.25 210 126.25 189.5 160 410 160 410 192.5 169.75 192.5 153 220" transform="translate(10 20)"/><polygon fill="#FFF" points="122.5 220 139.25 192.5 0 192.5 0 160 159 160 179.5 126.25 0 126.25 0 93.75 199.5 93.75 220 60 0 60 0 27.5 239.75 27.5 256.5 0 287 0 270.25 27.5 410 27.5 410 60 250.5 60 230 93.75 410 93.75 410 126.25 210 126.25 189.5 160 410 160 410 192.5 169.75 192.5 153 220"/></g></g></svg>