<?xml version="1.0" encoding="UTF-8"?>
<svg width="438px" height="114px" viewBox="0 0 438 114" version="1.1" xmlns="http://www.w3.org/2000/svg" xmlns:xlink="http://www.w3.org/1999/xlink">
    <title>Path 2</title>
    <g id="V4" stroke="none" stroke-width="1" fill="none" fill-rule="evenodd" fill-opacity="0.5">
        <g id="Artboard" transform="translate(-213.000000, -280.000000)" fill="#1BF9D8" fill-rule="nonzero">
            <path d="M483.804671,284.888858 C537.842051,279.203674 578.924576,279.210329 648.418486,283.517846 L650.576886,283.652438 L644.254057,384.454332 L638.305944,384.087537 C575.71944,380.297337 540.246912,380.430877 492.821383,385.498984 L489.742989,385.829116 C475.828053,387.293925 458.937169,388.50641 438.228316,389.627341 L428.526148,390.13235 C423.058622,390.406518 417.400195,390.673826 411.088109,390.958379 L372.23936,392.652446 C344.555416,393.816801 321.092444,393.849404 274.356816,393.18513 L245.532848,392.772926 C233.951245,392.623824 225.843855,392.558257 217.187098,392.545651 L213.949752,392.543347 L213.949752,291.543347 L223.554761,291.563826 C229.750655,291.591337 236.08858,291.648267 243.939698,291.744744 L282.779565,292.291498 C323.438923,292.831855 344.564019,292.743162 368.852229,291.705165 L405.223283,290.120008 C412.958917,289.773325 419.638304,289.456409 426.109905,289.125262 L431.405624,288.848271 C451.14961,287.791815 466.943507,286.669088 479.108518,285.390501 L483.804671,284.888858 Z" id="Path-2"></path>
        </g>
    </g>
</svg>