<?xml version="1.0" encoding="UTF-8"?>
<svg width="514px" height="137px" viewBox="0 0 514 137" version="1.1" xmlns="http://www.w3.org/2000/svg" xmlns:xlink="http://www.w3.org/1999/xlink">
    <title>Path 3</title>
    <g id="V4" stroke="none" stroke-width="1" fill="none" fill-rule="evenodd" fill-opacity="0.5">
        <g id="Artboard" transform="translate(-110.000000, -95.000000)" fill="#1BF9D8" fill-rule="nonzero">
            <path d="M161.779566,95.702536 C201.990698,94.6539787 221.986662,94.7677736 246.956187,96.830655 L247.763412,96.8978766 C263.402513,98.2104506 280.723923,100.330235 301.773087,103.397512 L307.898956,104.300968 C314.624788,105.304089 321.764862,106.404161 330.006912,107.701975 L372.476492,114.469396 C388.44867,116.995874 400.768709,118.873581 412.790529,120.589498 L415.133153,120.922358 C467.759325,128.366007 507.052528,131.320186 538.782321,129.387191 L541.129251,129.243546 C548.86713,128.811401 554.669429,129.086613 569.000578,130.216745 L577.780865,130.908105 L579.907113,131.06135 C584.937315,131.410452 588.683283,131.564793 591.621357,131.538629 L592.311227,131.528891 C593.433806,131.506951 594.307107,131.457737 594.893662,131.399706 L595.191121,131.366783 L594.954381,131.414293 C594.556427,131.496758 594.080647,131.616791 593.518719,131.787864 L593.230538,131.877717 L623.617547,227.149064 C614.33419,230.110012 604.872372,231.302495 594.265226,231.509798 C587.835035,231.635468 581.34931,231.396425 573.376369,230.84865 L570.695533,230.657258 C568.977184,230.530427 567.252079,230.395746 564.826936,230.201385 L556.393123,229.538792 C555.186796,229.450031 554.232264,229.385741 553.299873,229.329503 L551.889185,229.249133 C549.074262,229.097022 547.153294,229.069783 546.271551,229.114525 L546.162447,229.120765 C506.333221,231.683458 461.408022,228.401473 402.905146,220.187229 L397.85651,219.471268 C385.029248,217.635133 371.941779,215.633628 354.919273,212.935186 L324.005124,208.022313 C275.226512,200.305167 261.79805,198.473951 241.592635,196.733875 L238.082812,196.438848 C217.508839,194.770857 199.624454,194.724084 161.499775,195.744957 L145.953574,196.16804 C131.280498,196.552844 122.615877,196.704636 112.722635,196.721162 L110.851488,196.7227 L110.851488,96.7226997 L115.882666,96.7092625 C123.080784,96.6695133 130.259639,96.5375927 141.063687,96.2610816 L161.779566,95.702536 Z" id="Path-3"></path>
        </g>
    </g>
</svg>