<svg xmlns="http://www.w3.org/2000/svg" width="400" height="60" viewBox="0 0 400 60">
  <path fill="#FFF" d="M7.72292156,41.5339178 L8.10817706,41.2063254 C8.8685081,40.5771913 9.19071887,40.005639 9.15001864,39.3584213 C9.10238627,38.6012131 8.9586345,38.3992591 7.86922651,37.9810103 L4.99452484,36.9283408 C4.38402924,36.7029852 4.21750769,36.4046291 4.34602891,35.6976432 L4.37803086,35.5397693 C4.52410381,34.8801724 4.41182958,34.4688094 4.04605337,34.3201295 L3.95714565,34.2904883 C3.62080906,34.200584 3.12803159,33.627246 2.81737357,32.9799153 L2.74907025,32.8294041 C2.47431847,32.1868684 1.82537149,31.1958936 1.24341101,30.515878 L1.07127364,30.3218614 C-0.433681466,28.691272 -0.391827893,27.9386515 1.44387836,26.8502788 L1.82164251,26.6351076 L1.82164251,26.6351076 C3.77252845,25.5628163 5.63508893,25.2242123 8.55320568,25.4305459 L9.72622668,25.5222036 L10.4678994,25.5711595 C10.7077052,25.5853575 10.9401037,25.597434 11.1651282,25.6073866 L11.8181132,25.6308699 L12.4270546,25.6415945 L12.4270546,25.6415945 L12.9921527,25.6395454 C14.7124228,25.6128161 15.7762277,25.3937251 16.2121768,24.9801382 L16.3929428,24.7876975 L16.5290725,24.6678793 L16.5290725,24.6678793 L16.634076,24.5898702 L16.7530723,24.512448 L16.8882835,24.4348335 L17.1263643,24.3163471 L17.3118347,24.2348435 L17.6357205,24.1068715 L17.8853384,24.0166095 L18.3158617,23.8718479 L18.8203671,23.7135067 L19.4063543,23.5389565 L20.3273825,23.2764642 L22.3732952,22.7177692 L23.0701556,22.5311233 C23.8828383,22.3140666 25.4106654,22.1496525 26.6016025,22.1439286 L26.8917094,22.1458651 C29.9506127,22.2040872 30.9094757,21.6624208 31.0786701,19.7806459 L31.2124951,18.2923479 L34.7463234,18.1310392 L35.2510775,18.1145264 L35.7390838,18.1049396 L36.4248618,18.1031041 L36.8413401,18.109949 L37.217344,18.123013 L37.6201041,18.1477812 L37.6201041,18.1477812 L37.9357904,18.1815568 C38.0428847,18.196816 38.1259036,18.2141422 38.1810339,18.233422 L38.2267268,18.2533488 C38.7088972,18.5280019 40.1258257,18.1624518 40.5416831,17.6561494 C40.6665113,17.5041724 40.3809248,16.9148107 39.8982797,16.308515 L39.7919174,16.1784886 C38.5597761,14.7122483 38.7277076,13.4478214 40.2765709,12.4945397 L40.4543487,12.3899055 C41.8790613,11.5873803 43.2593499,9.34339409 43.1042705,8.14479801 L43.0587751,7.9146763 L43.0477806,7.82568166 C43.0341959,7.61228833 43.1314936,7.46553034 43.4886563,7.35021276 L43.645734,7.30567913 L43.9379586,7.2440718 L43.9379586,7.2440718 L44.1736037,7.20573237 L44.4443838,7.16899465 L44.7524177,7.1333581 L45.2889545,7.08087302 L46.1545014,7.01007518 L47.8090343,6.89399224 L49.5787434,6.77951937 L50.332781,6.73505494 L51.0206389,6.69885636 L51.658091,6.67073698 L52.4080534,6.64666485 L52.4080534,6.64666485 L53.4257506,6.63298789 L53.4257506,6.63298789 L54.0193175,6.63531912 L54.6413477,6.64479643 L55.3076149,6.66123321 L56.4244653,6.69852911 L58.4732084,6.78062199 L58.4732084,6.78062199 L58.9527163,6.79117419 C61.2337315,6.81290234 61.7885417,6.35698485 61.5918769,4.87652835 L61.42145,3.59363395 L64.142545,3.58590797 L64.8829358,3.57448361 L65.7158042,3.55436051 L66.6003459,3.52687178 L67.4957568,3.49335053 L68.3612325,3.45512987 L69.1559688,3.4135429 C69.3714092,3.40117216 69.5969887,3.39049357 69.8286769,3.38150271 L70.5380373,3.35958884 L70.898905,3.35242097 L70.898905,3.35242097 L71.6179014,3.34564671 L72.480338,3.35132239 L72.480338,3.35132239 L73.2583485,3.37266458 L73.6224583,3.39043499 L73.6224583,3.39043499 L74.0140165,3.41888182 C74.9821291,3.50662676 76.3897026,3.46629269 77.2907026,3.33185875 L77.5231595,3.29288743 C78.1544523,3.17368458 79.2704915,3.21181469 80.6806107,3.38975219 L81.3023964,3.47451966 C81.5152894,3.50559463 81.7336281,3.53947172 81.9568567,3.57609983 L82.6406562,3.69418614 L84.241968,3.99897812 C85.8350762,4.29372936 87.2025793,4.49037442 88.3721181,4.58944175 L88.9905818,4.63380452 C90.987792,4.74944449 92.3471888,4.54283106 93.2349083,4.01714043 L93.5293696,3.83820126 L93.7629316,3.6846228 C94.2048315,3.37656542 94.2356756,3.22000281 93.9710182,3.03887029 L93.9047504,2.99655419 C93.117384,2.52336427 93.8400572,1.935347 94.9664111,2.06733248 L95.1092278,2.08764107 C95.323239,2.12338889 95.6457837,2.14608064 96.0254814,2.15579701 L96.5052639,2.16123363 L97.0201833,2.15424485 L97.2846536,2.14610062 L97.2846536,2.14610062 L97.8152843,2.12053183 L98.0765122,2.10311502 L98.0765122,2.10311502 L98.3317267,2.0826151 C99.4071082,1.9883383 100.881206,2.01280691 101.76693,2.13296108 L101.993162,2.16808544 C102.769136,2.30642634 103.637827,2.35742757 104.018429,2.29211406 L104.103074,2.27334569 C104.27364,2.22428805 104.683104,2.21518544 105.19463,2.24031653 L105.595273,2.26549427 L106.021361,2.30297328 L106.239938,2.32615814 L106.239938,2.32615814 L106.68014,2.38108333 L109.673752,2.06283435 L111.587931,1.8731745 L112.798169,1.76554266 L113.718829,1.6971226 L114.406481,1.66170542 L114.826852,1.65296139 L115.085449,1.65574451 L115.377904,1.66936042 L115.63709,1.69138238 L116.329574,1.76235189 L116.700406,1.7887608 L117.168307,1.80927049 L117.762239,1.82070202 L118.30782,1.82140577 L118.952805,1.81387378 L119.988534,1.78870198 L121.251668,1.74332569 L122.771171,1.67456595 L124.576008,1.57924383 C124.797963,1.56645218 125.028388,1.55511245 125.263762,1.54523894 L125.98121,1.5200313 L126.344468,1.51075323 L126.344468,1.51075323 L127.066847,1.49890214 L127.766106,1.49606253 L128.421121,1.50232009 L129.189136,1.52496278 L129.189136,1.52496278 L129.513916,1.54246951 L129.513916,1.54246951 L129.726453,1.55832649 C130.874224,1.65694455 131.70367,1.53426832 132.057716,1.21727595 L132.126249,1.14638461 C132.386087,0.831791686 132.870276,0.703592794 133.350888,0.811320203 L133.481704,0.846587032 C133.619619,0.89016195 133.879413,0.921507676 134.225243,0.940574874 L134.598425,0.955547403 L135.021,0.962323283 L135.485003,0.96089155 L135.98247,0.951241242 L136.505437,0.933361394 L137.045939,0.907241043 L137.320276,0.891087252 L137.320276,0.891087252 L138.715971,0.790912862 L139.201258,0.760528865 L139.824246,0.732318313 L140.256621,0.725818139 L140.256621,0.725818139 L140.619231,0.735837606 C141.192237,0.768094385 141.489403,0.879266596 141.711282,1.09258221 L141.809072,1.19837293 L141.900552,1.31917672 L142.074689,1.5599849 C142.692009,2.37874387 143.10495,2.4974214 144.259159,2.11951866 L144.593032,2.00429526 L144.775085,1.9377363 L144.775085,1.9377363 C145.668019,1.60657419 146.60282,1.51317293 147.239846,1.68416345 L147.392702,1.73243465 C147.956245,1.93978305 148.610464,1.91718943 149.054244,1.68443006 L149.169832,1.61575436 C149.558866,1.35434069 150.350462,1.27166522 151.065836,1.40706286 L151.242815,1.44547822 C151.914366,1.61064894 152.830087,1.59811092 153.376989,1.42660858 L153.51654,1.37590804 C153.987403,1.17731917 154.568632,1.12464844 154.879523,1.2423747 L154.9643,1.28282896 C155.217294,1.43488606 155.78847,1.4099667 156.290183,1.23549046 L156.438226,1.1786883 C156.970567,0.954164222 157.62195,0.894545107 157.88576,1.04619164 C158.635177,1.47701432 161.559734,1.31585826 161.658781,0.838279773 L161.665496,0.834678232 L161.756775,0.81909798 L162.241925,0.77052223 L163.270657,0.69549022 L164.501005,0.626623489 L165.477952,0.583508743 L166.853558,0.537855117 L168.06241,0.511455793 L169.354102,0.497194522 L170.369748,0.496207394 L171.419737,0.504900475 L172.498819,0.524496288 L173.231777,0.544220951 C173.833474,0.562604459 174.25137,0.670642628 174.647602,0.797004782 L175.042617,0.926833053 C175.44242,1.05748556 175.874603,1.18268517 176.501301,1.23110119 L176.831611,1.24858033 C177.764431,1.27650984 178.561491,1.4199598 179.343729,1.5925471 L180.521087,1.86248317 C181.45168,2.07263352 182.444407,2.26365451 183.691316,2.29837298 C184.394603,2.31795502 185.180998,2.05578557 185.988333,1.74383654 L187.032978,1.33358984 C187.846841,1.02157969 188.654997,0.759206505 189.395278,0.7784422 L189.941418,0.79718212 C190.037993,0.801165432 190.137184,0.805553436 190.238755,0.810308173 L191.210724,0.861977782 L192.825419,0.963162884 L195.613849,1.14371084 L196.651022,1.20216233 L197.363798,1.23512134 L197.363798,1.23512134 L198.002732,1.25587257 C198.962334,1.27804123 199.801762,1.35454201 200.599459,1.44996137 L201.386151,1.55037533 L201.386151,1.55037533 L202.421927,1.69027797 C203.462243,1.82817836 204.536835,1.95074494 205.831647,1.97403454 C207.518312,2.00437235 209.200903,2.03181077 210.868644,2.05565748 C211.354007,2.06259761 212.044023,1.83616119 212.76839,1.56879699 L213.705241,1.21764 C214.427771,0.950542582 215.111666,0.724995428 215.586624,0.733447311 C216.159749,0.743646088 216.829686,0.945766714 217.515267,1.18607076 L218.545226,1.55594709 C219.226158,1.79599995 219.88215,1.99736702 220.432034,2.00630986 C220.772738,2.0118508 221.101001,1.85443521 221.42538,1.66992783 L221.813317,1.44421025 C222.135958,1.25976779 222.458136,1.10257942 222.78841,1.1085099 C223.2617,1.1170084 223.730423,1.28525483 224.194044,1.47996302 L224.747907,1.71778418 C225.207363,1.91233599 225.661504,2.08003509 226.109796,2.0875953 L231.049949,2.1654511 C231.286943,2.16887488 231.483681,2.00441803 231.665811,1.78637757 L231.818943,1.58902904 L231.818943,1.58902904 L232.107336,1.19346316 C232.300898,0.942540778 232.502783,0.742691087 232.747319,0.746891697 L233.516115,0.763946463 L234.266376,0.787969693 L234.99696,0.818326748 L235.706727,0.854382987 L236.394534,0.89550377 L237.059241,0.94105446 L238.010491,1.01629829 L238.903347,1.09793956 L239.733956,1.18383636 L240.498467,1.27184679 L241.408339,1.38877981 L242.003643,1.47339237 L242.673924,1.57802058 L243.300526,1.68850598 L243.556973,1.74016279 L243.75148,1.78752257 L243.782986,1.80055339 L243.782986,1.80055339 C244.532977,2.56261172 245.941102,3.02171482 246.379533,2.67377283 L246.433155,2.6212765 C246.572592,2.45144804 246.984238,2.31094312 247.394143,2.28380553 L247.54724,2.27910717 C247.952436,2.28161831 248.430176,2.1156789 248.681299,1.89619339 L248.764263,1.81160077 C248.938942,1.59889979 249.528013,1.37535455 250.385007,1.16861472 L250.835154,1.06677326 C251.070712,1.01668076 251.32149,0.967926624 251.585199,0.920942866 L252.129179,0.829463866 L252.703574,0.743473929 L253.304314,0.663741102 L253.92733,0.591033432 L254.568554,0.526118964 L255.389491,0.45710514 L255.389491,0.45710514 L256.224574,0.402968359 L256.590009,0.387513421 L257.037621,0.376260315 L257.837091,0.36677983 L259.079602,0.366800752 L260.436616,0.379685378 L261.812928,0.403680985 L263.113335,0.437034851 L263.705322,0.456673406 L264.242632,0.477994255 L264.920043,0.512650571 L265.268593,0.537218636 L265.467441,0.556257449 L265.467441,0.556257449 L265.607082,0.57571879 L265.607082,0.57571879 C265.84878,0.619528214 266.207711,0.718354958 266.603588,0.845708906 L267.091237,1.01053134 L267.091237,1.01053134 L267.583525,1.19256768 C267.664247,1.22377644 267.743877,1.2552786 267.821774,1.28686225 L268.049622,1.38164573 C269.711485,2.09186658 271.266221,2.02364762 273.647415,1.13599784 C275.804081,0.332055591 280.047885,0.134827175 283.180764,0.673649892 L283.524127,0.736554671 C284.875778,0.999913556 287.137374,1.15670181 288.732594,1.10585035 L289.596803,1.06876659 L290.123495,1.05740292 L290.633137,1.05715773 L291.11514,1.06754115 L291.558914,1.0880633 C292.050231,1.11772955 292.441876,1.16709553 292.658174,1.23266065 L292.739916,1.26174157 C293.160282,1.44079548 293.870528,1.33510857 294.525504,1.00554077 L294.687896,0.918519857 C295.470693,0.472655311 296.328754,0.354756122 297.616132,0.526090864 L297.898699,0.567218386 C299.097124,0.755755864 300.387464,0.675288119 301.042754,0.371155083 C301.603093,0.111085436 302.178715,-0.0403299189 302.392512,0.00940572948 L302.441566,0.0280267063 C302.473178,0.0470223783 302.538349,0.063868079 302.630876,0.0783071402 L302.850566,0.103900361 L302.98432,0.114147738 L302.98432,0.114147738 L303.292752,0.129258841 L303.64656,0.136811493 L304.034714,0.136349395 L304.446185,0.127416248 L304.657218,0.119630439 C304.863203,0.110967717 305.069662,0.104531301 305.275636,0.100229447 L305.891141,0.0936358249 C306.60529,0.0932001623 307.301734,0.117789014 307.93932,0.16346885 L308.470448,0.20769639 C309.585835,0.314316303 310.457668,0.489802398 310.822358,0.70895944 C311.135531,0.897153578 312.053683,0.929371359 312.929837,0.792030072 L313.130986,0.757319822 C313.99174,0.59479878 315.083709,0.595677432 315.670449,0.750361992 L315.806182,0.792231869 C316.300156,0.971239275 317.202145,0.960317338 317.898435,0.777904233 L318.082771,0.72391721 C318.796017,0.491066437 320.156685,0.404678308 321.106493,0.531940438 C321.988442,0.650113304 322.930175,0.644494743 323.297041,0.525239312 L323.371209,0.495706227 C323.534966,0.414204581 324.024387,0.413744193 324.660197,0.478855532 L325.057816,0.525667185 C325.263974,0.55288356 325.480081,0.585722937 325.701295,0.623767642 L326.1491,0.706673729 L326.1491,0.706673729 L326.389583,0.756108642 C327.859852,1.0690791 329.282466,1.12500092 330.369677,0.916528215 L330.614487,0.863722392 C331.254088,0.709571919 332.507689,0.627673501 333.835824,0.63385377 L334.503604,0.644357067 C334.838102,0.653351932 335.17164,0.668016576 335.495787,0.68859829 L335.816491,0.711161519 C336.599545,0.771823814 337.49646,0.806312878 338.367508,0.815010743 L339.104527,0.816158754 C339.949389,0.810149977 340.728462,0.778459153 341.302019,0.721468312 L341.534839,0.695495799 C342.682582,0.551556051 344.293099,0.566459491 345.273502,0.721560012 L345.504843,0.763245124 C346.377822,0.942656543 347.324743,0.946550205 347.706759,0.781374189 L347.784598,0.740258344 C348.069809,0.553125659 348.651037,0.521149243 349.135642,0.654923112 L349.277732,0.700038376 C349.742928,0.868447419 350.59303,0.857583999 351.249574,0.685172875 L351.423398,0.634159661 C352.054001,0.427952187 353.619696,0.361919788 355.007566,0.474805288 L355.732879,0.541950099 L356.163928,0.576115652 L356.56872,0.602123987 L356.940389,0.619822997 L357.420766,0.630458785 L357.420766,0.630458785 L357.679588,0.626719001 C357.872412,0.619939595 358.005701,0.603950077 358.061573,0.578354327 L358.085664,0.561840961 C358.120133,0.519871805 358.278338,0.499759134 358.520419,0.499718213 L358.788982,0.506301773 L359.189824,0.53274428 L359.189824,0.53274428 L359.646895,0.578700535 L360.041411,0.628994888 L360.245244,0.658515514 C361.26804,0.812602297 362.382189,0.762532832 362.828405,0.552104835 L362.913523,0.504574616 C363.254279,0.275642563 363.992701,0.183892403 364.622614,0.281170018 L364.891514,0.332011919 L365.148994,0.370636862 L365.475908,0.408135509 L366.078782,0.461230206 L366.792405,0.50911267 L367.58949,0.550176064 L368.153773,0.572969787 L368.734937,0.591542559 L369.324898,0.605418282 L369.91557,0.614120854 C371.937975,0.634604131 374.957183,0.905621086 376.863858,1.23049167 L377.762455,1.39360658 L378.289472,1.48356535 L378.803119,1.56506568 L379.295731,1.63717145 L379.759642,1.69894647 L380.187186,1.74945462 L380.570696,1.78775972 L380.902508,1.81292562 L381.174955,1.82401617 L381.251253,1.82442336 L381.251253,1.82442336 L381.380371,1.82009522 L381.380371,1.82009522 L381.455547,1.81221288 C381.91419,1.74280288 382.7674,1.97324363 383.35159,2.32430748 C383.785517,2.58507198 384.352065,3.04413116 384.954104,3.59746075 L385.410769,4.02850826 C385.871053,4.47398071 386.337641,4.95785185 386.769555,5.43623644 L387.188393,5.91116679 C387.302411,6.0436888 387.412584,6.1746106 387.517992,6.3029475 L387.819004,6.67921879 C388.246323,7.22903958 388.558542,7.70657599 388.671876,8.02209747 L388.798128,8.3882053 L388.852534,8.57602422 C388.942666,8.93774768 388.847359,9.01474846 388.46753,8.9862543 L388.27166,8.96626501 L387.948839,8.92577776 L387.525297,8.88019905 L387.101036,8.84349611 L386.48039,8.80522075 L386.48039,8.80522075 L386.088518,8.79098118 L385.637045,8.78597877 L385.637045,8.78597877 L385.242445,8.79530944 L384.977972,8.81317598 C384.739186,8.8356891 384.581374,8.87217328 384.539701,8.92291028 C384.520379,8.94642919 384.565336,9.00412408 384.663257,9.08936959 L384.80546,9.20446448 C384.833157,9.22570966 384.862791,9.24795087 384.894272,9.2711351 L385.138009,9.44426002 L385.43316,9.64314795 L385.958099,9.98147807 L386.562236,10.3564131 L387.45312,10.8911144 L388.394005,11.4377237 L389.101272,11.8372191 L390.004816,12.3315626 L390.624493,12.6569675 L391.17015,12.9292575 L391.331803,13.0060023 L391.331803,13.0060023 L391.619899,13.1356155 L391.855641,13.2302292 L391.951853,13.2632244 C393.231713,13.6675764 393.985179,14.8293834 393.498788,15.5847573 L393.43148,15.676978 C393.167188,15.9988236 393.126718,16.977793 393.327629,17.9147613 L393.464991,18.4976719 C393.709581,19.6122569 393.611108,20.0955285 392.965496,20.9490407 L392.633806,21.3665873 L392.332547,21.7249377 L392.332547,21.7249377 L392.136752,21.9327754 C391.726003,22.3362586 391.332277,22.4920236 390.428804,22.5472891 L390.065079,22.5635902 L389.647392,22.5721948 L388.906179,22.5744443 L387.466318,22.5629526 L386.411774,22.5388953 L385.67482,22.5119586 L385.0101,22.4787624 L384.441004,22.4405343 L383.99092,22.3985016 L383.871382,22.3838574 L383.871382,22.3838574 L383.683238,22.3538917 L383.616365,22.3386612 C383.19562,22.2265189 382.108792,22.2050138 381.201192,22.2908667 L380.984783,22.3121296 L380.608341,22.3558888 C379.755919,22.4708494 379.542216,22.6450658 379.373369,23.2730909 L379.306815,23.5494393 C379.11287,24.425105 378.928118,24.643749 378.178881,24.750151 L377.859326,24.7895561 L377.57226,24.8310386 C376.784547,24.9612234 376.655659,25.1467138 377.116727,25.486598 L377.292172,25.605747 L377.440377,25.6956084 L377.533737,25.7443883 L377.635385,25.7897091 L377.747556,25.8317509 L377.872488,25.8706937 L378.012416,25.9067177 L378.169578,25.9400028 L378.34621,25.9707293 L378.652557,26.0124154 L378.887649,26.037533 L379.29217,26.0716498 L379.765661,26.1020354 L380.517313,26.137796 L381.675432,26.1768828 L383.767387,26.2261674 L384.477671,26.2400291 C385.279738,26.2552179 386.489948,26.3653964 387.333219,26.4955678 L387.630731,26.5451727 C388.398612,26.6843234 389.250023,26.694425 389.616113,26.5759079 L389.697196,26.5435994 C390.476791,26.1556589 391.290177,26.7485308 391.419824,27.760963 L391.440969,28.0049236 L391.464771,28.1944587 C391.541119,28.6426021 391.759164,28.9126728 392.4649,29.3339228 L392.774025,29.5112662 L393.346015,29.8177605 L393.56802,29.9330611 C395.002545,30.674315 395.788534,31.2710086 396.508144,32.1863549 L396.673294,32.4034561 C397.193024,33.1085334 397.988639,34.0217185 398.523804,34.5338426 L398.662898,34.6631114 C399.92059,35.7927825 400.311862,36.9079629 399.74804,37.7277803 L399.665227,37.8377164 C399.140017,38.4772048 399.027185,39.8735993 399.394384,40.9270655 L399.464181,41.1091877 C399.487122,41.1638065 399.506706,41.2472846 399.522795,41.3539202 L399.550275,41.5963785 L399.550275,41.5963785 L399.568193,41.8904529 L399.576304,42.2260066 L399.572279,42.688336 L399.572279,42.688336 L399.55207,43.1798393 C399.548275,43.246438 399.544036,43.3132868 399.539348,43.3801743 L399.361217,45.5226702 L397.593464,45.9483048 C395.344103,46.4898919 395.256927,47.2463898 397.321497,48.5305529 L397.926803,48.9015423 L397.926803,48.9015423 L398.266306,49.125465 C398.986438,49.6279444 399.045123,49.9073342 398.878727,50.5779721 C398.617074,51.6325123 397.995805,51.9571238 396.112129,51.7520834 L395.654614,51.6954555 L395.408279,51.6602609 L395.408279,51.6602609 L394.878912,51.5764521 L394.334834,51.4836816 L393.809787,51.4009806 L393.290854,51.3274037 L392.792071,51.2644836 L392.327474,51.2137526 L391.911098,51.1767435 L391.55698,51.1549887 C391.450877,51.1504498 391.357489,51.1487087 391.279155,51.1500209 L391.173239,51.1543109 C390.727403,51.1858085 390.213747,51.1281567 389.953142,51.0236361 L389.867904,50.9823265 C389.830277,50.9597151 389.743524,50.9358283 389.615178,50.9113708 L389.392403,50.8743444 L389.112884,50.8369902 L388.782268,50.7998365 L388.406203,50.7634116 L387.769243,50.7112965 L386.813601,50.6492919 L386.041807,50.6107115 L385.777819,50.5997128 C385.535219,50.5901177 385.300531,50.5830261 385.073903,50.5784242 L384.418347,50.572073 C382.840649,50.5747966 381.724678,50.7167699 381.133061,50.9920815 L381.021748,51.0489199 C379.209043,52.0677522 374.18705,51.7059671 372.822286,50.4582232 C372.049298,49.7515081 371.652404,49.8638682 371.88056,50.6984557 L371.913885,50.8114028 C372.024469,51.1620088 371.772436,51.3415598 370.807682,51.4651025 L370.45922,51.5043668 L370.055082,51.5404293 L369.348256,51.5903618 L368.710868,51.6283637 L368.203707,51.6478876 L368.203707,51.6478876 L367.93015,51.6487855 C367.26432,51.6370192 367.091102,51.5080141 367.011266,51.1669222 L366.984924,51.0288859 L366.973575,50.9520642 C366.890808,50.3558367 366.702951,50.1581835 366.014977,50.0224914 L365.429489,49.926835 L365.429489,49.926835 L365.210897,49.9029278 C364.752624,49.8691169 364.645318,49.9993656 364.648561,50.5089625 L364.656019,50.7512142 L364.672808,51.0436827 C364.730744,51.964431 364.451447,52.3289059 363.139779,52.4308241 L362.755933,52.452331 L362.755933,52.452331 L362.336371,52.4619581 L361.86397,52.4619782 L361.335958,52.4535627 C360.114045,52.4266935 358.654143,52.6362178 357.956877,52.9287263 L357.8195,52.9926209 C357.194651,53.3178981 355.943894,53.5462436 355.04006,53.5000571 L354.593578,53.4809926 L354.006519,53.4674958 L353.318627,53.4654709 L352.16243,53.482882 L349.687114,53.5584068 L345.221455,53.7339751 L341.626533,53.8837691 L337.778719,54.0188528 L336.204971,54.0575834 L335.254273,54.0688057 L334.621091,54.0828487 L334.01371,54.1029756 L333.15686,54.1439552 L332.625674,54.1780557 L332.011443,54.2278134 L332.011443,54.2278134 L331.457367,54.2849806 L331.060925,54.3356784 L330.708996,54.3904827 C330.215826,54.4756278 329.881912,54.5736791 329.747855,54.6803465 L329.710628,54.7162155 C329.67447,54.7602421 329.547631,54.8063177 329.341659,54.853829 L329.057246,54.9114923 L328.701298,54.9702981 L328.278248,55.0300109 L327.79253,55.0903949 L326.956149,55.1817141 L325.663016,55.3036234 L324.199016,55.4239765 L323.010221,55.5120863 L320.90029,55.6524745 L318.689639,55.7815955 L316.895153,55.8743057 L315.116012,55.9555636 L312.967698,56.0381595 L312.146121,56.0645381 L310.968055,56.0962342 L309.521937,56.1225647 L308.86227,56.1283722 L308.250774,56.1289604 L307.691885,56.1240937 L307.190035,56.1135364 L306.749658,56.0970529 L306.375188,56.0744076 L306.071058,56.0453649 C305.981898,56.0345916 305.905199,56.0227127 305.841702,56.0096891 L305.75645,55.9892902 C305.366086,55.8788376 304.948424,55.8974811 304.76849,56.0244336 L304.71768,56.0707341 C304.658754,56.1424627 304.433741,56.2211047 304.086468,56.3023446 L303.759888,56.3725144 C303.700809,56.3842818 303.63949,56.3960771 303.576059,56.4078877 L303.123305,56.4867129 L302.876094,56.5260364 L302.876094,56.5260364 L302.063743,56.6424073 L301.473763,56.7176194 L300.854867,56.7899703 L300.215471,56.8586316 L299.563987,56.9227747 L298.582503,57.0087057 L297.937611,57.0579291 L297.310079,57.0997349 L296.708322,57.1332946 L296.005189,57.1623861 L296.005189,57.1623861 L295.371907,57.1756807 L294.926618,57.1738552 L294.926618,57.1738552 L294.544965,57.1600557 C294.37145,57.1500243 294.224953,57.1351921 294.110208,57.1150929 C291.363006,56.6338807 287.127712,56.6092531 283.089228,57.0427396 L281.968965,57.1687679 L281.405236,57.2253918 L280.854829,57.2742974 L280.323858,57.315219 L279.818438,57.3478911 L279.34468,57.3720481 L278.806323,57.3898655 L278.806323,57.3898655 L278.338933,57.3934446 L278.174523,57.3907733 L278.174523,57.3907733 L277.888554,57.3782145 C277.760617,57.3694966 277.656018,57.3570876 277.578193,57.3408381 L277.509422,57.323303 C277.05757,57.1805435 275.851793,57.4042844 274.717384,57.8314472 L274.491699,57.9195437 C272.38316,58.7725201 270.592595,58.7703244 268.685069,57.9033309 L268.435562,57.7853397 C267.89385,57.5192979 267.184928,57.3864091 266.860189,57.4900288 C266.701842,57.5405543 266.486367,57.5896531 266.229726,57.6360995 L265.815884,57.7036267 L265.815884,57.7036267 L265.352265,57.7662561 C265.271512,57.7762351 265.189183,57.7859718 265.105529,57.795447 L264.589688,57.8490064 C264.501728,57.8573588 264.412941,57.8654115 264.323576,57.8731451 L263.673614,57.9230511 L263.024374,57.9603451 C262.917376,57.9654215 262.811271,57.9699062 262.706489,57.9737662 L262.097118,57.9891641 C261.706052,57.9940783 261.349945,57.9879372 261.056377,57.9686231 L260.848359,57.9516345 C260.146861,57.8815444 259.326209,57.9596655 258.929832,58.1261286 L258.832657,58.1736729 C258.523662,58.3524122 257.951948,58.4029212 257.49616,58.3023774 L257.349044,58.2632369 C256.876424,58.1139187 256.329114,58.1872915 256.132814,58.4262938 L256.10753,58.4402 L256.056447,58.4515795 L255.979158,58.4606435 L255.813195,58.4703596 L255.399788,58.4779657 L251.398017,58.462275 L248.989606,58.4736473 L247.206876,58.4953848 L245.203068,58.5323337 L243.436567,58.5750615 L241.018777,58.6477026 L240.595709,58.6632182 L240.595709,58.6632182 L239.698936,58.7040829 C239.389354,58.7197466 239.069511,58.7373569 238.740597,58.7566275 L237.466973,58.8361161 L236.122252,58.9278155 L230.311296,59.3496206 L228.448923,59.4765494 L228.448923,59.4765494 L226.611641,59.589794 C224.917027,59.6870642 223.290786,59.7578913 221.832564,59.778301 C221.354488,59.7849923 220.771901,59.667606 220.164122,59.5217167 L219.060044,59.2489768 C218.45059,59.1032907 217.863535,58.9864464 217.3782,58.9940184 C216.762272,59.0036279 216.012686,59.1413176 215.232033,59.3081336 L213.815464,59.6184848 C213.034463,59.784629 212.283947,59.9205273 211.666507,59.9272258 L210.525872,59.9433476 L207.837549,59.9870769 L206.705932,60 C205.96239,60.0046382 204.950632,59.8490958 203.87365,59.6515334 L201.539978,59.2069691 L201.187681,59.1429534 L201.187681,59.1429534 L200.507497,59.0282503 C199.846928,58.9243794 199.251886,58.8568988 198.782519,58.8608502 C198.385595,58.8641918 198.119499,58.9099053 197.9019,58.9707254 L197.697417,59.0355713 L197.697417,59.0355713 L197.443443,59.1272263 C197.187489,59.2176604 196.90391,59.2972507 196.397549,59.3013685 C195.892423,59.3054762 195.509763,59.2797083 195.164585,59.2458154 L194.41533,59.1650213 C194.07857,59.1311755 193.715552,59.1055176 193.241293,59.1097983 L190.664224,59.1385304 L188.301023,59.1749833 L186.563765,59.2084084 L184.962212,59.2445527 L182.164139,59.3210487 L178.556136,59.4478195 L176.295941,59.5382825 L176.132511,59.5371838 L176.132511,59.5371838 C175.96202,59.4354091 175.565339,59.3482327 175.01552,59.2775475 L174.575626,59.2276701 L174.575626,59.2276701 L173.955824,59.1744261 L173.955824,59.1744261 L173.271264,59.1317826 L172.686315,59.1056502 L172.075904,59.0869021 L171.447134,59.0758052 L170.807109,59.072626 L170.162932,59.0776314 L169.521707,59.091088 L168.890537,59.1132626 L168.276524,59.1444219 L168.276524,59.1444219 L167.686774,59.1848325 L167.403216,59.2085904 C167.204931,59.2263061 167.003094,59.2423383 166.800164,59.2566505 L166.190555,59.2943903 L165.589147,59.3215898 L165.589147,59.3215898 L165.010698,59.338029 L164.734695,59.3421447 L164.734695,59.3421447 L164.218354,59.342031 L163.761865,59.330607 C163.551043,59.3220308 163.3682,59.3091308 163.221637,59.2917831 L162.906231,59.2473443 L162.515581,59.205956 L161.799309,59.1468007 L160.646345,59.0698947 L159.566772,59.0089645 L157.779445,58.9242599 L154.912355,58.8143668 L153.381254,58.7480102 L151.938699,58.6764168 L150.58227,58.5992763 L149.309544,58.5162783 L148.506367,58.4575387 L147.738597,58.3959658 L147.005518,58.3314676 L146.306412,58.263952 L145.640561,58.1933272 L145.007248,58.1195012 L144.405755,58.0423819 L143.835366,57.9618773 L143.295361,57.8778956 L142.785025,57.7903446 L142.303639,57.6991325 L141.741525,57.5798286 L141.741525,57.5798286 L141.222124,57.4544808 L140.836414,57.3497302 C140.650049,57.2963438 140.47333,57.2414292 140.305853,57.1849347 L139.983101,57.0698238 C139.711267,56.9672317 139.466913,56.8596955 139.247875,56.746938 L139.037196,56.6324297 C137.716115,55.8735498 135.510786,55.9056163 132.290393,56.7305609 L131.086074,56.6397846 L129.944126,56.5626408 L128.861901,56.4984335 L128.342357,56.4709637 L128.342357,56.4709637 L127.34475,56.4248571 L126.400244,56.3899478 L125.506191,56.3655402 L124.659941,56.3509386 L123.665318,56.3454164 L123.665318,56.3454164 L122.736076,56.3527703 L122.036281,56.3670111 L121.372372,56.3879271 L120.741698,56.4148229 L120.141612,56.4470025 L119.569465,56.4837704 L119.022608,56.5244308 L117.99417,56.6146464 L116.574973,56.7617713 L115.240361,56.906361 L114.582427,56.9718352 L114.141204,57.0113641 L113.694813,57.0467851 L113.00974,57.090692 L112.538837,57.1127991 L112.053495,57.1283633 L111.551065,57.1366887 L111.028897,57.1370797 L110.202846,57.1212674 L110.202846,57.1212674 L109.317488,57.0836893 L109.317488,57.0836893 L108.363884,57.0219975 L108.363884,57.0219975 L107.685819,56.9663136 L106.785962,56.8791103 L106.785962,56.8791103 L105.823193,56.771085 L105.004204,56.6687598 L104.138992,56.5515431 L103.224907,56.4187394 L101.756352,56.188786 L101.756352,56.188786 L100.162936,55.9198483 L100.162936,55.9198483 L99.0268765,55.717739 L97.828702,55.4965641 L96.803492,55.3024404 L96.6390551,55.2887454 L95.9892065,55.2738044 L95.0892439,55.2343532 L93.8725297,55.16198 C92.9266649,55.219397 91.3225049,55.0674145 89.8366689,54.8300823 L89.2093905,54.7235047 L88.9483588,54.675167 L88.9483588,54.675167 L88.4460423,54.5746119 C87.5531847,54.3861453 86.8290127,54.1773394 86.5107522,53.9860863 C86.3989911,53.9189109 86.1263919,53.8730339 85.7473882,53.8490553 L85.3977392,53.8338791 L85.0035913,53.8295125 L84.572562,53.8360396 L84.3455974,53.8434145 L84.3455974,53.8434145 L83.8735289,53.8664395 L83.2592521,53.910845 L83.2592521,53.910845 L82.8834971,53.9458841 C80.772119,54.159838 78.9276289,54.0458489 76.1599862,53.5179416 L75.6899607,53.4261097 C73.5358669,52.9957566 70.5205937,52.6454348 68.7711598,52.6149279 L68.126581,52.6130932 L67.4260421,52.6043355 C67.192564,52.5994418 66.959393,52.5926083 66.7273465,52.5839387 L66.0353972,52.5525252 L65.6934848,52.5328816 L65.6934848,52.5328816 L65.0208487,52.4861095 L64.6913509,52.4591366 L64.6913509,52.4591366 L64.0490604,52.398406 L63.4331293,52.3291475 L62.8484608,52.2519833 C61.5245212,52.063194 60.4959364,51.8149226 60.043009,51.5427388 C59.6772793,51.3229509 59.0248633,51.299058 58.4963354,51.4747232 L58.3555715,51.5275823 C57.7985955,51.7624983 57.0533411,51.7534106 56.3464882,51.5096201 L56.1548326,51.4373197 C55.5265033,51.1795117 54.1136799,51.039414 52.9115664,51.106251 L52.6575584,51.1237731 C51.4072681,51.2275318 49.7423886,51.1811582 48.9578202,51.0207312 C46.7275402,50.5646742 44.0471416,50.2064075 42.0877357,50.0975895 L41.6793254,50.0781447 C40.7298673,50.0410012 39.5081655,49.8511473 38.8288492,49.641744 L38.6576408,49.5842494 C38.0732431,49.3685336 36.6990805,49.2817694 35.5044139,49.3765003 L35.2515146,49.3995969 C34.0933747,49.5199067 32.3323441,49.4388103 31.1805282,49.2210889 L30.7468956,49.1295104 L30.7468956,49.1295104 L30.3361607,49.0495825 C30.1885582,49.0226084 30.0308924,48.9953856 29.8650459,48.9681618 L29.2084509,48.866553 L28.8582872,48.8166535 L28.8582872,48.8166535 L28.1280154,48.72048 L27.3762025,48.6315618 L26.6249098,48.5528043 L25.8961986,48.4871128 L25.8961986,48.4871128 L24.8147492,48.4032522 L24.1246627,48.342981 L23.3035588,48.2610024 L22.7868169,48.2011164 L22.5001463,48.163158 L22.2663556,48.1275216 L22.0911196,48.0948495 C22.0430973,48.0845243 22.0057799,48.0748002 21.9801132,48.0657844 L21.9504694,48.0528051 C21.9147508,48.0314323 21.8200694,48.0068094 21.6787473,47.9804585 L21.4333237,47.9398265 L21.1271805,47.8977443 L20.7695592,47.8553534 L20.1568215,47.7936857 L19.7109364,47.7555178 L19.2459185,47.721037 C16.6493769,47.5434236 15.0567183,47.2446146 12.4687484,46.4271584 L11.2169921,46.0212688 L10.7793042,45.8713326 C9.77536986,45.5145272 9.41075901,45.2673483 8.83456294,44.5529381 L8.590783,44.2408877 L7.93906195,43.3680371 L7.75386862,43.1120532 L7.6006538,42.8889033 L7.47932794,42.6940229 C7.23336841,42.2687328 7.24710416,42.0370346 7.51541633,41.7379988 L7.64597865,41.6049571 L7.72292156,41.5339178 L7.72292156,41.5339178 Z"/>
</svg>
