<?xml version="1.0" encoding="UTF-8"?>
<svg width="400px" height="600px" viewBox="0 0 400 600" version="1.1" xmlns="http://www.w3.org/2000/svg" xmlns:xlink="http://www.w3.org/1999/xlink">
    <!-- Generator: Sketch 42 (36781) - http://www.bohemiancoding.com/sketch -->
    <title>nodejs</title>
    <desc>Created with Sketch.</desc>
    <defs>
        <path d="M40.0544802,95.522535 L2.57767551,73.8951437 C1.17676491,73.0866181 0.313981869,71.5932029 0.313981869,69.9752624 L0.313981869,26.6884589 C0.313981869,25.0714078 1.17676491,23.5779926 2.57678605,22.7676881 L40.0527013,1.12339689 C41.4545014,0.314871336 43.1800675,0.314871336 44.5809781,1.12339689 L82.0488881,22.7676881 C83.4489093,23.5779926 84.3108028,25.0714078 84.3108028,26.6884589 L84.3108028,69.9770413 C84.3108028,71.5932029 83.4489093,73.0866181 82.0471092,73.8951437 L44.5800886,95.522535 C43.880078,95.9263531 43.0982365,96.1291516 42.3172844,96.1291516 C41.5354429,96.1291516 40.7544908,95.9263531 40.0544802,95.522535" id="path-1"></path>
        <linearGradient x1="-4418.47%" y1="16.568%" x2="5323.2292%" y2="16.568%" id="linearGradient-3">
            <stop stop-color="#9BB48F" offset="0%"></stop>
            <stop stop-color="#9BB48F" offset="9.19165%"></stop>
            <stop stop-color="#9BB48F" offset="30.262629%"></stop>
            <stop stop-color="#687E67" offset="86.2444%"></stop>
            <stop stop-color="#687E67" offset="100%"></stop>
        </linearGradient>
        <path d="M40.0544802,95.522535 L2.57767551,73.8951437 C1.17676491,73.0866181 0.313981869,71.5932029 0.313981869,69.9752624 L0.313981869,26.6884589 C0.313981869,25.0714078 1.17676491,23.5779926 2.57678605,22.7676881 L40.0527013,1.12339689 C41.4545014,0.314871336 43.1800675,0.314871336 44.5809781,1.12339689 L82.0488881,22.7676881 C83.4489093,23.5779926 84.3108028,25.0714078 84.3108028,26.6884589 L84.3108028,69.9770413 C84.3108028,71.5932029 83.4489093,73.0866181 82.0471092,73.8951437 L44.5800886,95.522535 C43.880078,95.9263531 43.0982365,96.1291516 42.3172844,96.1291516 C41.5354429,96.1291516 40.7544908,95.9263531 40.0544802,95.522535" id="path-4"></path>
        <linearGradient x1="-9713.77%" y1="31.987%" x2="27.9292%" y2="31.987%" id="linearGradient-6">
            <stop stop-color="#9BB48F" offset="0%"></stop>
            <stop stop-color="#9BB48F" offset="9.19165%"></stop>
            <stop stop-color="#9BB48F" offset="30.262629%"></stop>
            <stop stop-color="#687E67" offset="86.2444%"></stop>
            <stop stop-color="#687E67" offset="100%"></stop>
        </linearGradient>
        <polygon id="path-7" points="0 533.680231 533.680231 533.680231 533.680231 0 0 0"></polygon>
        <linearGradient x1="68.1407211%" y1="82.520314%" x2="27.8327029%" y2="10.2813689%" id="linearGradient-9">
            <stop stop-color="#687E67" offset="0%"></stop>
            <stop stop-color="#687E67" offset="52.88042%"></stop>
            <stop stop-color="#83A178" offset="100%"></stop>
        </linearGradient>
        <linearGradient x1="43.2035882%" y1="44.7780851%" x2="159.268147%" y2="118.300172%" id="linearGradient-10">
            <stop stop-color="#687E67" offset="0%"></stop>
            <stop stop-color="#687E67" offset="13.7556%"></stop>
            <stop stop-color="#9BB48F" offset="69.737407%"></stop>
            <stop stop-color="#9BB48F" offset="90.8084%"></stop>
            <stop stop-color="#9BB48F" offset="100%"></stop>
        </linearGradient>
        <linearGradient x1="-4.53258439%" y1="49.9981197%" x2="101.719247%" y2="49.9981197%" id="linearGradient-11">
            <stop stop-color="#9BB48F" offset="0%"></stop>
            <stop stop-color="#9BB48F" offset="9.19165%"></stop>
            <stop stop-color="#9BB48F" offset="30.262629%"></stop>
            <stop stop-color="#687E67" offset="86.2444%"></stop>
            <stop stop-color="#687E67" offset="100%"></stop>
        </linearGradient>
        <path d="M40.0544802,95.522535 L2.57767551,73.8951437 C1.17676491,73.0866181 0.313981869,71.5932029 0.313981869,69.9752624 L0.313981869,26.6884589 C0.313981869,25.0714078 1.17676491,23.5779926 2.57678605,22.7676881 L40.0527013,1.12339689 C41.4545014,0.314871336 43.1800675,0.314871336 44.5809781,1.12339689 L82.0488881,22.7676881 C83.4489093,23.5779926 84.3108028,25.0714078 84.3108028,26.6884589 L84.3108028,69.9770413 C84.3108028,71.5932029 83.4489093,73.0866181 82.0471092,73.8951437 L44.5800886,95.522535 C43.880078,95.9263531 43.0982365,96.1291516 42.3172844,96.1291516 C41.5354429,96.1291516 40.7544908,95.9263531 40.0544802,95.522535" id="path-12"></path>
        <linearGradient x1="-103.698492%" y1="49.9989911%" x2="100.585677%" y2="49.9989911%" id="linearGradient-14">
            <stop stop-color="#9BB48F" offset="0%"></stop>
            <stop stop-color="#9BB48F" offset="9.19165%"></stop>
            <stop stop-color="#9BB48F" offset="30.262629%"></stop>
            <stop stop-color="#687E67" offset="86.2444%"></stop>
            <stop stop-color="#687E67" offset="100%"></stop>
        </linearGradient>
        <path d="M40.0544802,95.522535 L2.57767551,73.8951437 C1.17676491,73.0866181 0.313981869,71.5932029 0.313981869,69.9752624 L0.313981869,26.6884589 C0.313981869,25.0714078 1.17676491,23.5779926 2.57678605,22.7676881 L40.0527013,1.12339689 C41.4545014,0.314871336 43.1800675,0.314871336 44.5809781,1.12339689 L82.0488881,22.7676881 C83.4489093,23.5779926 84.3108028,25.0714078 84.3108028,26.6884589 L84.3108028,69.9770413 C84.3108028,71.5932029 83.4489093,73.0866181 82.0471092,73.8951437 L44.5800886,95.522535 C43.880078,95.9263531 43.0982365,96.1291516 42.3172844,96.1291516 C41.5354429,96.1291516 40.7544908,95.9263531 40.0544802,95.522535" id="path-15"></path>
        <linearGradient x1="130.347411%" y1="311.036321%" x2="4.35792774%" y2="-101.152817%" id="linearGradient-17">
            <stop stop-color="#687E67" offset="0%"></stop>
            <stop stop-color="#687E67" offset="52.88042%"></stop>
            <stop stop-color="#83A178" offset="100%"></stop>
        </linearGradient>
    </defs>
    <g id="Page-1" stroke="none" stroke-width="1" fill="none" fill-rule="evenodd">
        <g id="nodejs">
            <g id="Node.js_logo" transform="translate(-67.195902, -47.000000)">
                <g id="g3363" transform="translate(267.083788, 267.376726) scale(-1, 1) rotate(-180.000000) translate(-267.083788, -267.376726) translate(0.083788, 0.376726)">
                    <g id="g3449" transform="translate(172.556608, 236.598236)">
                        <g id="g3451-Clipped">
                            <mask id="mask-2" fill="white">
                                <use xlink:href="#path-1"></use>
                            </mask>
                            <g id="path3455"></g>
                            <g id="g3451" mask="url(#mask-2)">
                                <g transform="translate(38.247083, 103.178178)" id="g3457">
                                    <g>
                                        <g id="g3459" fill-rule="nonzero" fill="url(#linearGradient-3)">
                                            <g id="g3465">
                                                <g id="g3467">
                                                    <polygon id="path3481" points="0.557695841 0.294413594 0.0418049514 0 0.730252449 0"></polygon>
                                                </g>
                                            </g>
                                        </g>
                                    </g>
                                </g>
                            </g>
                        </g>
                    </g>
                    <g id="g3509" transform="translate(172.556608, 236.598236)">
                        <g id="g3511-Clipped">
                            <mask id="mask-5" fill="white">
                                <use xlink:href="#path-4"></use>
                            </mask>
                            <g id="path3515"></g>
                            <g id="g3511" mask="url(#mask-5)">
                                <g transform="translate(85.388837, 23.126143)" id="g3517">
                                    <g>
                                        <g id="g3519" fill-rule="nonzero" fill="url(#linearGradient-6)">
                                            <g id="g3525">
                                                <g id="g3527">
                                                    <polygon id="path3541" points="0.248161307 0.337997479 0 0.762273263 0 0.193903817 0.248161307 0.337997479"></polygon>
                                                </g>
                                            </g>
                                        </g>
                                    </g>
                                </g>
                            </g>
                        </g>
                    </g>
                    <g id="g3590" transform="translate(0.000000, 0.000000)">
                        <g id="g3365">
                            <g id="g3367-Clipped">
                                <mask id="mask-8" fill="white">
                                    <use xlink:href="#path-7"></use>
                                </mask>
                                <g id="path3371"></g>
                                <g id="g3367" mask="url(#mask-8)">
                                    <g transform="translate(69.378430, 146.762063)">
                                        <g id="g3373" transform="translate(151.167772, 0.049454)">
                                            <path d="M43.5838855,0 C42.2852636,0 40.9937575,0.338886946 39.8570186,0.997092564 L27.993307,8.01676653 C26.2223781,9.00763283 27.0869401,9.35897231 27.67132,9.56266027 C30.0346339,10.3827489 30.5131672,10.5722054 33.0356957,12.0024684 C33.2980885,12.1510094 33.6467596,12.0940835 33.9180471,11.9348689 L43.0324159,6.52424082 C43.3624082,6.34101061 43.8284889,6.34101061 44.1326867,6.52424082 L79.6668954,27.0335721 C79.9977771,27.2221391 80.2094703,27.602831 80.2094703,27.995086 L80.2094703,69.0030749 C80.2094703,69.4042245 79.9977771,69.7786902 79.6580007,69.9823781 L44.1389129,90.47392 C43.8106996,90.6660449 43.3748608,90.6660449 43.043979,90.47392 L7.53378592,69.9761518 C7.18867271,69.7786902 6.96986381,69.391772 6.96986381,69.0030749 L6.96986381,27.995086 C6.96986381,27.602831 7.18867271,27.2310338 7.53022806,27.0451352 L17.2645555,21.421035 C22.5462108,18.7802073 25.780313,21.8906736 25.780313,25.0153713 L25.780313,65.503022 C25.780313,66.0758388 26.2401675,66.5267986 26.8129843,66.5267986 L31.3181349,66.5267986 C31.882057,66.5267986 32.3481377,66.0758388 32.3481377,65.503022 L32.3481377,25.0153713 C32.3481377,17.966345 28.5091979,13.9237172 21.826632,13.9237172 C19.7728525,13.9237172 18.1558014,13.9237172 13.6417562,16.1482743 L4.32369934,21.5126501 C2.02175861,22.8432928 0.596832391,25.3311322 0.596832391,27.995086 L0.596832391,69.0030749 C0.596832391,71.6670287 2.02175861,74.1548681 4.32369934,75.4792845 L39.8570186,96.0126314 C42.1055913,97.2836798 45.0942006,97.2836798 47.3249839,96.0126314 L82.8565242,75.4792845 C85.1575755,74.1486418 86.588728,71.6670287 86.588728,69.0030749 L86.588728,27.995086 C86.588728,25.3311322 85.1575755,22.8521875 82.8565242,21.5126501 L47.3249839,0.997092564 C46.1891345,0.338886946 44.9002967,0 43.5838855,0" id="path3375" fill="#689F63" fill-rule="nonzero"></path>
                                        </g>
                                        <g id="g3377" transform="translate(186.159583, 28.301418)">
                                            <path d="M19.5682751,0 C4.01861214,0 0.761383796,7.13708362 0.761383796,13.1240863 C0.761383796,13.6933453 1.21856986,14.1478629 1.78782877,14.1478629 L6.38192609,14.1478629 C6.89514858,14.1478629 7.32298223,13.7787341 7.40303427,13.2779641 C8.09681857,8.60114638 10.1648295,6.24050083 19.5682751,6.24050083 C27.0540298,6.24050083 30.2409903,7.9340461 30.2409903,11.9055165 C30.2409903,14.1950047 29.3372917,15.8947762 17.7039522,17.0341835 C7.98118785,17.9956974 1.96750112,20.1437603 1.96750112,27.9212602 C1.96750112,35.0912541 8.01054026,39.3669222 18.1433489,39.3669222 C29.5267482,39.3669222 35.1597431,35.4159096 35.8730956,26.9392886 C35.8997797,26.6466539 35.7966015,26.3664718 35.6018082,26.1485524 C35.4070149,25.9448644 35.1357275,25.820339 34.8493191,25.820339 L30.2374324,25.820339 C29.7597886,25.820339 29.3372917,26.1601154 29.2403398,26.6235278 C28.1338428,31.544949 25.443205,33.1175267 18.1433489,33.1175267 C9.97003618,33.1175267 9.02008537,30.2703427 9.02008537,28.1365112 C9.02008537,25.55172 10.1408139,24.8001203 21.1764316,23.3396154 C32.0964185,21.8960104 37.2837904,19.8520151 37.2837904,12.1768039 C37.2837904,4.43488272 30.8280385,0 19.5682751,0" id="path3379" fill="#689F63" fill-rule="nonzero"></path>
                                        </g>
                                        <g id="g3381" transform="translate(242.770070, 63.774699)">
                                            <path d="M6.22626936,8.00520346 L7.42082361,8.00520346 C8.39745843,8.00520346 8.58068864,8.69276149 8.58068864,9.09124273 C8.58068864,10.1434823 7.85488353,10.1434823 7.45640229,10.1434823 L6.22626936,10.1434823 L6.22626936,8.00520346 Z M4.77465913,11.3753941 L7.42082361,11.3753941 C8.32719053,11.3753941 10.1034562,11.3753941 10.1034562,9.34474084 C10.1034562,7.9313777 9.19708931,7.6423009 8.65184601,7.46084963 C9.704975,7.38880279 9.77613236,6.69946583 9.92022602,5.72194154 C9.99405179,5.10643034 10.1034562,4.05419082 10.3187073,3.6930672 L8.69009309,3.6930672 C8.65184601,4.05419082 8.39745843,6.0119078 8.39745843,6.11953331 C8.29161185,6.55537217 8.14396032,6.77151266 7.60138542,6.77151266 L6.26184804,6.77151266 L6.26184804,3.6930672 L4.77465913,3.6930672 L4.77465913,11.3753941 Z M1.60548803,7.55246473 C1.60548803,4.36283589 4.17871621,1.78960771 7.33009797,1.78960771 C10.5197268,1.78960771 13.0920655,4.41709338 13.0920655,7.55246473 C13.0920655,10.7403146 10.4841481,13.2770747 7.33009797,13.2770747 C4.21429489,13.2770747 1.60548803,10.7776723 1.60548803,7.55246473 L1.60548803,7.55246473 Z M14.1958941,7.53289646 C14.1958941,3.76511403 11.1147803,0.684889629 7.34788731,0.684889629 C3.6147941,0.684889629 0.498991016,3.72864588 0.498991016,7.53289646 C0.498991016,11.4100833 3.68861986,14.3826822 7.34788731,14.3826822 C11.0445124,14.3826822 14.1958941,11.4100833 14.1958941,7.53289646 L14.1958941,7.53289646 Z" id="path3383" fill="#689F63" fill-rule="nonzero"></path>
                                        </g>
                                        <g id="g3385" transform="translate(0.215963, 99.115893)">
                                            <path d="M84.4993699,61.3732265 C84.4993699,63.0107354 83.6374763,64.5157136 82.2241131,65.3269076 L44.5507362,87.0076669 C43.9138778,87.383022 43.1996357,87.5778153 42.4773885,87.6071677 L42.0878019,87.6071677 C41.3673336,87.5778153 40.653981,87.383022 40.0073385,87.0076669 L2.33396154,65.3269076 C0.929493068,64.5157136 0.0560364242,63.0107354 0.0560364242,61.3732265 L0.13875686,2.99305663 C0.13875686,2.18097321 0.560364242,1.42581568 1.27460628,1.02733444 C1.97372739,0.608395463 2.83828936,0.608395463 3.53474206,1.02733444 L25.9244067,13.8481125 C27.3404382,14.6886589 28.2023318,16.1731794 28.2023318,17.7964568 L28.2023318,45.0710744 C28.2023318,46.6970202 29.0633359,48.2019984 30.4740306,49.010524 L40.0073385,54.5012041 C40.7180227,54.9112484 41.4945274,55.112268 42.287932,55.112268 C43.0644367,55.112268 43.8605098,54.9112484 44.5507362,54.5012041 L54.0813756,49.010524 C55.4920704,48.2019984 56.3566324,46.6970202 56.3566324,45.0710744 L56.3566324,17.7964568 C56.3566324,16.1731794 57.230089,14.6797642 58.6372259,13.8481125 L81.0206642,1.02733444 C81.7224537,0.608395463 82.5994682,0.608395463 83.2950315,1.02733444 C83.9888158,1.42581568 84.4255441,2.18097321 84.4255441,2.99305663 L84.4993699,61.3732265 Z" id="path3387" fill="#333333"></path>
                                        </g>
                                        <g id="g3389" transform="translate(205.564108, 89.175209)">
                                            <path d="M56.9258913,40.9154844 C56.9258913,40.5098874 56.7088613,40.1336428 56.3566324,39.9317338 L43.4166657,32.4726631 C43.0653262,32.2707541 42.6321558,32.2707541 42.2808163,32.4726631 L29.3408496,39.9317338 C28.9877312,40.1336428 28.7715907,40.5098874 28.7715907,40.9154844 L28.7715907,55.8576413 C28.7715907,56.2632383 28.9877312,56.6394829 29.3399601,56.8431708 L42.2790373,64.316473 C42.6321558,64.520161 43.0653262,64.520161 43.4184446,64.316473 L56.3575218,56.8431708 C56.7088613,56.6394829 56.9258913,56.2632383 56.9258913,55.8576413 L56.9258913,40.9154844 Z M60.4223863,151.567854 C59.7170389,151.959219 58.8569242,151.951214 58.1604715,151.542059 C57.4657978,151.133794 57.0379641,150.386642 57.0379641,149.579895 L57.0379641,91.7645367 C57.0379641,91.1961673 56.7337664,90.6696028 56.2427806,90.3849733 C55.7500158,90.1003439 55.1425098,90.1003439 54.6497451,90.3849733 L45.2133891,95.821396 C43.8062523,96.6334794 42.0744599,96.6317004 40.6664336,95.8205065 L2.97882515,74.0703687 C1.56990935,73.2573958 0.70267897,71.755086 0.70267897,70.1291402 L0.70267897,26.6199699 C0.70267897,24.9940241 1.56990935,23.4926038 2.97704622,22.6778519 L40.6637652,0.911703727 C42.072681,0.0987308427 43.8071417,0.0987308427 45.2160575,0.911703727 L82.9090028,22.6778519 C84.3161396,23.4926038 85.1842595,24.9940241 85.1842595,26.6199699 L85.1842595,135.078024 C85.1842595,136.727096 84.2912346,138.248085 82.8502979,139.052163 L60.4223863,151.567854 Z" id="path3391" fill="#333333"></path>
                                        </g>
                                        <g id="g3393" transform="translate(308.761587, 90.276458)">
                                            <path d="M82.7204358,55.1469572 C84.1222358,55.9608195 84.9850189,57.460461 84.9850189,59.0819594 L84.9850189,69.6257018 C84.9850189,71.2472003 84.1222358,72.7477312 82.7186568,73.5615935 L45.2729834,95.3028367 C43.8640676,96.1220358 42.1251595,96.1229253 40.7126859,95.3090629 L3.03841945,73.5589251 C1.6303931,72.7459522 0.76316273,71.2445319 0.76316273,69.6185861 L0.76316273,26.1209789 C0.76316273,24.4843595 1.64106671,22.9749339 3.06154559,22.1664084 L40.5018822,0.83254116 C41.882335,0.0444733526 43.5749908,0.035578682 44.9643384,0.807636082 L67.6101695,13.3944843 C68.3288589,13.7947445 68.7762608,14.5481231 68.7807081,15.3682117 C68.7860449,16.1891898 68.3493166,16.9487947 67.6386324,17.35706 L29.7250994,39.1178714 C29.0170836,39.5234684 28.5812448,40.2777365 28.5812448,41.0915988 L28.5812448,54.7235709 C28.5812448,55.5365437 29.0153047,56.2890329 29.720652,56.6946298 L41.5203219,63.4972738 C42.2221115,63.9028708 43.0893418,63.9028708 43.7920208,63.4972738 L55.5970275,56.6946298 C56.3023749,56.2890329 56.7355453,55.5365437 56.7355453,54.7235709 L56.7355453,43.9983772 C56.7355453,43.1836253 57.1713842,42.4311362 57.8767316,42.0255392 C58.5820789,41.6181633 59.4510882,41.6217212 60.1546567,42.0299866 L82.7204358,55.1469572 Z" id="path3395" fill="#333333"></path>
                                        </g>
                                        <g id="g3397" transform="translate(343.193924, 128.782021)">
                                            <path d="M8.00520346,18.6788081 C8.27560144,18.8353543 8.60826212,18.8353543 8.8786601,18.6788081 L16.1100272,14.5072076 C16.3804252,14.3506614 16.5467556,14.0624741 16.5467556,13.7502711 L16.5467556,5.39995447 C16.5467556,5.08686207 16.3804252,4.79956421 16.1100272,4.64301801 L8.8786601,0.47052807 C8.60826212,0.313981869 8.27560144,0.313981869 8.00520346,0.47052807 L0.779173137,4.64301801 C0.508775153,4.79956421 0.342444815,5.08686207 0.342444815,5.39995447 L0.342444815,13.7502711 C0.342444815,14.0624741 0.508775153,14.3506614 0.779173137,14.5072076 L8.00520346,18.6788081 Z" id="path3399" fill="#689F63"></path>
                                        </g>
                                    </g>
                                </g>
                            </g>
                        </g>
                        <g id="g3401" transform="translate(172.556608, 236.598236)" fill-rule="nonzero" fill="url(#linearGradient-9)">
                            <g id="g3403">
                                <g id="g3409">
                                    <g id="g3411">
                                        <path d="M40.0544802,95.522535 L2.57767551,73.8951437 C1.17587544,73.0866181 0.313981869,71.5932029 0.313981869,69.9752624 L0.313981869,69.9752624 L0.313981869,26.6884589 C0.313981869,25.0714078 1.17587544,23.5779926 2.57678605,22.7676881 L2.57678605,22.7676881 L40.0527013,1.12339689 C41.4545014,0.314871336 43.1800675,0.314871336 44.5809781,1.12339689 L44.5809781,1.12339689 L82.0488881,22.7676881 C83.4489093,23.5779926 84.3108028,25.0714078 84.3108028,26.6884589 L84.3108028,26.6884589 L84.3108028,69.9770413 C84.3108028,71.5932029 83.4489093,73.0866181 82.0471092,73.8951437 L82.0471092,73.8951437 L44.5800886,95.522535 C43.880078,95.9263531 43.0982365,96.1291516 42.3172844,96.1291516 L42.3172844,96.1291516 C41.5354429,96.1291516 40.7544908,95.9263531 40.0544802,95.522535" id="path3421"></path>
                                    </g>
                                </g>
                            </g>
                        </g>
                        <g id="g3423" transform="translate(173.446075, 236.598236)" fill-rule="nonzero" fill="url(#linearGradient-10)">
                            <g id="g3425">
                                <g id="g3431">
                                    <g id="g3433">
                                        <path d="M0.35578682,23.9391162 C0.712463108,23.472146 1.16164397,23.0718858 1.687319,22.7676881 L1.687319,22.7676881 L33.8353266,4.20095288 L39.1872499,1.12339689 C39.9877702,0.661763486 40.9012529,0.466080735 41.7987251,0.531901297 L41.7987251,0.531901297 C42.0984755,0.556806374 42.3973365,0.611953331 42.6890817,0.696452701 L42.6890817,0.696452701 L82.2081027,73.0608236 C81.9056839,73.3854791 81.553455,73.6674401 81.1576421,73.8951437 L81.1576421,73.8951437 L56.6190251,88.0599065 L43.651485,95.522535 C43.2805772,95.7360071 42.8829855,95.8898849 42.4747201,95.9903947 L42.4747201,95.9903947 L0.35578682,23.9391162 Z" id="path3447"></path>
                                    </g>
                                </g>
                            </g>
                        </g>
                        <g id="g3483" transform="translate(175.225009, 236.598236)" fill-rule="nonzero" fill="url(#linearGradient-11)">
                            <g id="g3485">
                                <g id="g3491">
                                    <g id="g3493">
                                        <path d="M39.1943656,96.1051359 C38.5672913,96.0428733 37.9508907,95.84808 37.3860791,95.522535 L37.3860791,95.522535 L0.0160104069,73.9574064 L40.3026416,0.564811577 C40.8612269,0.645753079 41.4082491,0.83254116 41.9125769,1.12339689 L41.9125769,1.12339689 L79.380487,22.7676881 C80.5376836,23.4374568 81.3275304,24.5741957 81.566797,25.860365 L81.566797,25.860365 L40.4929875,96.0304207 C40.1896792,96.0909045 39.8810342,96.1211464 39.5723891,96.1211464 L39.5723891,96.1211464 C39.4460848,96.1211464 39.3197805,96.1158095 39.1943656,96.1051359" id="path3507"></path>
                                    </g>
                                </g>
                            </g>
                        </g>
                        <g id="g3543" transform="translate(172.556608, 236.598236)">
                            <g id="g3545-Clipped">
                                <mask id="mask-13" fill="white">
                                    <use xlink:href="#path-12"></use>
                                </mask>
                                <g id="path3549"></g>
                                <g id="g3545" mask="url(#mask-13)">
                                    <g transform="translate(42.694418, -0.889467)" id="g3551">
                                        <g>
                                            <g id="g3553" fill-rule="nonzero" fill="url(#linearGradient-14)">
                                                <g id="g3559">
                                                    <g id="g3561">
                                                        <path d="M39.4487532,23.6571552 L1.93370137,2.0137534 C1.41781048,1.71578194 0.854777836,1.52899386 0.278403187,1.45072076 L1.02555551,0.0898361722 L42.6944185,24.2095142 L42.6944185,24.7778836 L41.6644156,26.5381389 C41.3557705,25.3391374 40.5410187,24.2895662 39.4487532,23.6571552" id="path3575"></path>
                                                    </g>
                                                </g>
                                            </g>
                                        </g>
                                    </g>
                                </g>
                            </g>
                        </g>
                        <g id="g3577" transform="translate(172.556608, 236.598236)">
                            <g id="g3579-Clipped">
                                <mask id="mask-16" fill="white">
                                    <use xlink:href="#path-15"></use>
                                </mask>
                                <g id="path3583"></g>
                                <g id="g3579" mask="url(#mask-16)">
                                    <g transform="translate(42.694418, -0.889467)" id="g3585">
                                        <g>
                                            <g id="g3587" fill-rule="nonzero" fill="url(#linearGradient-17)">
                                                <g id="g3593">
                                                    <g id="g3595">
                                                        <path d="M39.4487532,23.6571552 L1.93370137,2.0137534 C1.41781048,1.71578194 0.854777836,1.52899386 0.278403187,1.45072076 L1.02555551,0.0898361722 L42.6944185,24.2095142 L42.6944185,24.7778836 L41.6644156,26.5381389 C41.3557705,25.3391374 40.5410187,24.2895662 39.4487532,23.6571552" id="path3605"></path>
                                                    </g>
                                                </g>
                                            </g>
                                        </g>
                                    </g>
                                </g>
                            </g>
                        </g>
                    </g>
                </g>
            </g>
        </g>
    </g>
</svg>