<?xml version="1.0" encoding="UTF-8"?>
<svg width="400px" height="600px" viewBox="0 0 400 600" version="1.1" xmlns="http://www.w3.org/2000/svg" xmlns:xlink="http://www.w3.org/1999/xlink">
    <!-- Generator: Sketch 42 (36781) - http://www.bohemiancoding.com/sketch -->
    <title>polymer</title>
    <desc>Created with Sketch.</desc>
    <defs></defs>
    <g id="Page-1" stroke="none" stroke-width="1" fill="none" fill-rule="evenodd">
        <g id="polymer">
            <g id="Group" transform="translate(0.000000, 100.000000)">
                <polygon id="Shape" fill="#FF4081" fill-rule="nonzero" points="239.689922 285.569805 80.9209302 0.970725541 160.310078 0.970725541 319.08062 285.569805"></polygon>
                <polygon id="Shape" fill-opacity="0.2" fill="#FFFFFF" fill-rule="nonzero" points="239.689922 285.569805 279.379845 214.419634 319.08062 285.569805"></polygon>
                <polygon id="Shape" fill-opacity="0.1" fill="#FFFFFF" fill-rule="nonzero" points="200 214.419634 239.689922 285.569805 279.379845 214.419634"></polygon>
                <polygon id="Shape" fill-opacity="0.1" fill="#000000" fill-rule="nonzero" points="160.310078 143.269463 200 214.419634 239.689922 143.269463 160.310078 143.269463"></polygon>
                <polygon id="Shape" fill-opacity="0.2" fill="#000000" fill-rule="nonzero" points="160.310078 143.269463 200 72.1192919 239.689922 143.269463 160.310078 143.269463"></polygon>
                <polygon id="Shape" fill-opacity="0.3" fill="#000000" fill-rule="nonzero" points="120.620155 72.1192919 160.310078 143.269463 200.00155 72.1192919 120.621705 72.1192919"></polygon>
                <polygon id="Shape" fill-opacity="0.4" fill="#000000" fill-rule="nonzero" points="120.620155 72.1192919 160.310078 0.970725541 200.00155 72.1192919 120.621705 72.1192919"></polygon>
                <polygon id="Shape" fill-opacity="0.5" fill="#000000" fill-rule="nonzero" points="80.9209302 0.970725541 120.620155 72.1192919 160.310078 0.970725541 80.9224806 0.970725541"></polygon>
                <g transform="translate(0.000000, 70.598221)" id="Shape">
                    <polygon fill="#536DFE" fill-rule="nonzero" points="80.9209302 214.971583 1.53023256 72.6712417 41.2294574 1.52107077 160.310078 214.971583 80.9193798 214.971583"></polygon>
                    <polygon fill-opacity="0.2" fill="#FFFFFF" fill-rule="nonzero" points="80.9209302 214.971583 120.620155 143.821413 160.310078 214.971583 80.9224806 214.971583"></polygon>
                    <polygon fill-opacity="0.1" fill="#FFFFFF" fill-rule="nonzero" points="41.2294574 143.821413 80.9193798 214.971583 120.620155 143.821413"></polygon>
                    <polygon points="41.2294574 143.821413 80.9193798 72.6712417 120.620155 143.821413"></polygon>
                    <polygon fill-opacity="0.1" fill="#000000" fill-rule="nonzero" points="1.53023256 72.6712417 41.2294574 143.821413 80.9193798 72.6712417 1.53178295 72.6712417"></polygon>
                    <polygon fill-opacity="0.2" fill="#000000" fill-rule="nonzero" points="1.53023256 72.6712417 41.2294574 1.52107077 80.9193798 72.6712417 1.53178295 72.6712417"></polygon>
                </g>
                <g transform="translate(40.310078, 0.000000)" id="Shape" fill-rule="nonzero">
                    <polygon fill="#303F9F" points="40.6108527 143.269463 0.920930233 72.1192919 40.6093023 0.970725541 80.3100775 72.1192919"></polygon>
                    <polygon fill-opacity="0.2" fill="#000000" points="80.3100775 72.1192919 40.6108527 0.970725541 0.920930233 72.1192919"></polygon>
                </g>
                <g transform="translate(279.069767, 142.800947)" id="Shape" fill-rule="nonzero">
                    <polygon fill="#3F51B5" points="40.0093023 142.768857 0.310077519 71.6186864 40.0093023 0.468515468 79.6992248 71.6186864 40.0093023 142.768857"></polygon>
                    <polygon fill-opacity="0.2" fill="#000000" points="79.7007752 71.6186864 40.0108527 142.768857 0.310077519 71.6186864"></polygon>
                </g>
                <g transform="translate(238.759690, 0.000000)" id="Shape" fill-rule="nonzero">
                    <polygon fill="#7986CB" points="120.010853 214.419634 0.930232558 0.970725541 80.3209302 0.970725541 159.711628 143.269463 120.012403 214.419634"></polygon>
                    <polygon fill-opacity="0.2" fill="#FFFFFF" points="80.3193798 143.269463 120.009302 214.419634 159.710078 143.269463 80.3193798 143.269463"></polygon>
                    <polygon fill-opacity="0.1" fill="#FFFFFF" points="80.3193798 143.269463 120.009302 72.1192919 159.710078 143.269463 80.3193798 143.269463"></polygon>
                    <polygon fill-opacity="0.1" fill="#000000" points="40.620155 72.1192919 80.3193798 0.970725541 120.009302 72.1192919"></polygon>
                    <polygon fill-opacity="0.2" fill="#000000" points="0.930232558 0.970725541 40.620155 72.1192919 80.3224806 0.970725541"></polygon>
                </g>
            </g>
        </g>
    </g>
</svg>