<?xml version="1.0" encoding="UTF-8"?>
<svg width="400px" height="600px" viewBox="0 0 400 600" version="1.1" xmlns="http://www.w3.org/2000/svg" xmlns:xlink="http://www.w3.org/1999/xlink">
    <!-- Generator: Sketch 42 (36781) - http://www.bohemiancoding.com/sketch -->
    <title>riot</title>
    <desc>Created with Sketch.</desc>
    <defs></defs>
    <g id="Page-1" stroke="none" stroke-width="1" fill="none" fill-rule="evenodd">
        <g id="riot" fill-rule="nonzero">
            <g transform="translate(0.000000, 70.000000)" id="Layer_1">
                <g>
                    <path d="M11.483871,0 L388.387097,0 C394.709677,0 399.870968,5.16129032 399.870968,11.483871 L399.870968,181.290323 C399.870968,187.612903 394.709677,192.774194 388.387097,192.774194 L11.483871,192.774194 C5.16129032,192.774194 0,187.612903 0,181.290323 L0,11.483871 C0,5.16129032 5.16129032,0 11.483871,0 Z" id="Shape" fill="#ED1846"></path>
                    <path d="M73.5483871,62.3225806 L108.258065,62.3225806 C120.903226,62.3225806 128.903226,65.4193548 133.806452,70.4516129 C138.064516,74.7096774 140.258065,80 140.258065,87.3548387 L140.258065,87.6129032 C140.258065,97.9354839 134.83871,105.16129 126.193548,109.419355 L142.709677,133.548387 L115.612903,133.548387 L102.451613,113.032258 L97.4193548,113.032258 L97.4193548,133.290323 L73.5483871,133.290323 L73.5483871,62.3225806 Z M107.612903,96.1290323 C113.290323,96.1290323 116.774194,93.5483871 116.774194,89.1612903 L116.774194,89.0322581 C116.774194,84.516129 113.16129,82.1935484 107.741935,82.1935484 L97.4193548,82.1935484 L97.4193548,96.1290323 L107.612903,96.1290323 Z M155.612903,62.3225806 L179.354839,62.3225806 L179.354839,133.419355 L155.612903,133.419355 L155.612903,62.3225806 Z M193.16129,98.0645161 L193.16129,97.8064516 C193.16129,77.1612903 210.193548,60.7741935 232.129032,60.7741935 C254.064516,60.7741935 270.83871,77.0322581 270.83871,97.6774194 L270.83871,97.9354839 C270.83871,118.580645 253.935484,134.967742 231.870968,134.967742 C209.935484,134.967742 193.16129,118.709677 193.16129,98.0645161 Z M246.83871,98.0645161 L246.83871,97.8064516 C246.83871,89.4193548 241.032258,81.8064516 231.870968,81.8064516 C222.83871,81.8064516 217.16129,89.2903226 217.16129,97.6774194 L217.16129,97.9354839 C217.16129,106.322581 222.967742,113.935484 232.129032,113.935484 C241.032258,113.935484 246.83871,106.322581 246.83871,98.0645161 L246.83871,98.0645161 Z M298.451613,82.3225806 L277.548387,82.3225806 L277.548387,62.3225806 L343.225806,62.3225806 L343.225806,82.4516129 L322.322581,82.4516129 L322.322581,133.419355 L298.580645,133.419355 L298.580645,82.3225806 L298.451613,82.3225806 Z" id="Shape" fill="#FFFFFF"></path>
                </g>
            </g>
        </g>
    </g>
</svg>