<?xml version="1.0" encoding="UTF-8"?>
<svg width="216px" height="216px" viewBox="0 0 216 216" version="1.1" xmlns="http://www.w3.org/2000/svg" xmlns:xlink="http://www.w3.org/1999/xlink">
    <!-- Generator: Sketch 52.6 (67491) - http://www.bohemiancoding.com/sketch -->
    <title>Shape</title>
    <desc>Created with Sketch.</desc>
    <g id="Page-1" stroke="none" stroke-width="1" fill="none" fill-rule="evenodd">
        <g id="stencil" fill="#000000" fill-rule="nonzero">
            <path d="M142.1,0.4 L74.5,0.4 C33.9,0.4 0.7,33.6 0.7,74.2 L0.7,141.8 C0.7,182.4 33.9,215.6 74.5,215.6 L142.1,215.6 C182.7,215.6 215.9,182.4 215.9,141.8 L215.9,74.2 C215.9,33.6 182.7,0.4 142.1,0.4 Z M158.7,142.5 C158.7,153.8 142.3,163 131,163 L85.6,163 C74.3,163 57.9,153.8 57.9,142.5 L57.9,141.4 L158.7,141.4 L158.7,142.5 Z M158.7,118.8 L85.6,118.8 C74.3,118.8 57.9,109.6 57.9,98.3 L57.9,97.2 L131,97.2 C142.3,97.2 158.7,106.4 158.7,117.7 L158.7,118.8 Z M158.7,74.6 L57.9,74.6 L57.9,73.5 C57.9,62.2 74.3,53 85.6,53 L131,53 C142.3,53 158.7,62.2 158.7,73.5 L158.7,74.6 Z" id="Shape"></path>
        </g>
    </g>
</svg>