<svg xmlns="http://www.w3.org/2000/svg" width="1610" height="1320" viewBox="0 0 1610 1320">
  <defs>
    <linearGradient id="webcomponents2.inverse-a" x1="0%" x2="100%" y1="50%" y2="50%">
      <stop offset="0%" stop-color="#2A3B8F"/>
      <stop offset="100%" stop-color="#29ABE2"/>
    </linearGradient>
    <linearGradient id="webcomponents2.inverse-b" x1="0%" x2="100%" y1="50%" y2="50%">
      <stop offset="0%" stop-color="#2A3B8F"/>
      <stop offset="100%" stop-color="#29ABE2"/>
    </linearGradient>
    <linearGradient id="webcomponents2.inverse-c" x1="100%" x2="0%" y1="50%" y2="50%">
      <stop offset="0%" stop-color="#B4D44E"/>
      <stop offset="100%" stop-color="#E7F716"/>
    </linearGradient>
    <linearGradient id="webcomponents2.inverse-d" x1="100%" x2="0%" y1="50%" y2="50%">
      <stop offset="0%" stop-color="#B4D44E"/>
      <stop offset="100%" stop-color="#E7F716"/>
    </linearGradient>
  </defs>
  <g fill="none">
    <polygon fill="#166DA5" points="1606 659 1432 952 1188 655 1432 366"/>
    <polygon fill="#8FDB69" points="1413 1002 1148 685 989 951 1236 1312"/>
    <polygon fill="#166DA5" points="1410 314 1148 632 989 366 1236 9"/>
    <polygon fill="url(#webcomponents2.inverse-a)" points="611 314 1410 314 1234 9 787 9" opacity=".95"/>
    <polyline fill="url(#webcomponents2.inverse-b)" points="1148 633 1590 633 1431 365 988 365" opacity=".95"/>
    <polygon fill="url(#webcomponents2.inverse-c)" points="1413 1003 610 1003 786 1308 1236 1308" opacity=".95"/>
    <polygon fill="#010101" points="786 1308 410 658 791 8 379 8 4 658 379 1308"/>
    <polyline fill="url(#webcomponents2.inverse-d)" points="1148 684 1590 684 1431 952 988 952" opacity=".95"/>
  </g>
</svg>
