<?xml version="1.0" encoding="UTF-8"?>
<svg width="880px" height="1000px" viewBox="0 0 880 1000" version="1.1" xmlns="http://www.w3.org/2000/svg" xmlns:xlink="http://www.w3.org/1999/xlink">
    <title>css.inverse</title>
    <g id="V4" stroke="none" stroke-width="1" fill="none" fill-rule="evenodd">
        <g id="Square" transform="translate(-60.000000, 0.000000)" fill-rule="nonzero">
            <g id="css.inverse" transform="translate(60.570071, 0.000000)">
                <g id="#0170baff" transform="translate(0.000000, 0.909836)" fill="#0170BA">
                    <path d="M0,1.18209221 C292.747705,1.15241911 585.469713,1.13069689 878.217416,1.18209221 C862.104986,183.24999 846.249532,365.317886 829.468962,547.33439 C819.498271,663.667682 809.219209,780.000971 798.374796,896.257171 C735.903793,912.806461 674.049534,931.668542 611.604228,948.294926 C554.247059,965.126891 496.42733,980.365601 439.044463,997.069078 L437.348418,997.069078 C382.740898,980.828159 327.593727,966.540261 272.986207,950.299342 C208.536484,932.927727 144.652109,913.551694 80.1766888,896.257171 C71.7735551,809.116418 64.1927463,721.924268 56.7147283,634.732119 C42.6067147,473.633511 27.2652138,312.637691 13.696851,151.513384 C8.99417983,103.021905 5.62778682,54.3762416 0,5.98755399 L0,1.18209221 L0,1.18209221 Z M440.483532,73.0070425 C439.866789,107.981553 440.94609,142.981762 439.866789,177.930575 C339.440347,177.570807 238.988207,177.853482 138.561765,177.956272 C140.283508,211.902877 144.831993,245.618202 149.508967,279.282133 C242.945646,282.751316 336.510815,279.153644 429.947494,281.954689 C348.203247,318.625245 265.456793,353.162895 183.35278,389.062523 C176.311622,392.197637 168.782209,394.561819 162.486283,399.136002 C163.18012,436.423304 169.193371,473.505021 171.84023,510.715228 C221.642289,510.535344 271.418648,509.738717 321.220708,509.661625 C361.129169,509.456043 401.063328,510.25267 440.971789,509.37895 C439.070162,570.693558 441.562834,632.085261 439.686905,693.399869 C412.832855,689.416732 386.312872,683.429178 359.561613,678.675112 C338.463836,674.075233 316.852107,671.685349 296.062703,665.646401 C293.107473,636.222584 291.05166,606.695976 288.430499,577.246461 C282.417247,575.39623 276.044228,575.576114 269.825394,575.473323 C239.656347,575.653207 209.461599,575.370532 179.266853,575.83309 C182.222083,632.445029 187.310219,688.979872 195.97033,745.052159 C225.728216,752.812853 255.537499,760.419359 285.243988,768.514119 C330.754539,780.90039 376.830437,791.20515 422.418081,803.385841 C427.840285,804.542235 433.313886,806.546651 438.941672,806.084095 C441.973998,843.319998 439.635511,880.787183 440.200857,918.125876 C450.7112,916.429831 461.041658,913.834368 471.192233,910.699254 C557.484964,887.26299 643.674905,863.389869 729.91624,839.722325 C734.207748,805.80142 736.212166,771.649233 739.604257,737.651235 C748.572739,634.295259 757.618314,530.939285 767.023656,427.609007 C778.04795,309.399786 787.581781,191.062077 798.683169,72.8528565 C679.266159,72.9556473 559.874846,72.6215777 440.483532,73.0070425 Z" id="Shape"></path>
                </g>
                <g id="#29a9dfff" transform="translate(436.860164, 72.863273)" fill="#29A9DF">
                    <path d="M3.6233696,1.05360392 C123.014682,0.668139074 242.405995,1.00220861 361.823005,0.899417983 C350.721618,119.108638 341.187786,237.446348 330.163492,355.655568 C320.75815,458.985846 311.712575,562.341819 302.744093,665.697796 C299.352002,699.695796 297.347584,733.847981 293.056076,767.768888 C206.814741,791.43643 120.6248,815.309553 34.3320694,838.745815 C24.181495,841.880929 13.8510369,844.476392 3.34069537,846.172437 C2.77534691,808.833743 5.11383368,771.366561 2.08151019,734.130656 C2.85243988,733.97647 4.41999694,733.668097 5.19092665,733.513912 C85.4447083,713.366948 165.158839,691.189872 245.232736,670.323373 C255.357615,556.739732 266.587489,443.207485 273.705741,329.392563 C205.606951,329.75233 137.482463,329.546748 69.3836729,329.829423 C59.4643774,329.880819 49.5450819,329.829423 39.6771819,329.109888 C76.3220401,310.247808 114.868525,295.291772 152.489895,278.459808 C188.595102,262.090399 225.13717,246.7489 261.370867,230.687864 C268.360629,227.475657 275.812948,224.8031 281.954689,220.023336 C284.370268,211.157645 284.241779,201.880791 285.192594,192.809518 C287.274105,164.028143 290.974565,135.400953 292.36224,106.59388 C195.918934,105.82295 99.475629,106.491089 3.00662582,105.977136 C4.08592741,71.028323 3.00662582,36.0281147 3.6233696,1.05360392 Z" id="Path"></path>
                    <path d="M4.11162506,437.425511 C50.6757789,436.628884 97.2656304,437.888069 143.855482,437.579698 C141.260019,485.197456 137.30258,532.738121 134.835605,580.355879 C106.285508,589.684128 77.2985513,597.573309 48.5171758,606.20772 C33.1756748,610.884694 17.4230112,614.585157 2.82674223,621.44643 C4.70267116,560.131822 2.20999847,498.740121 4.11162506,437.425511 Z" id="Path"></path>
                </g>
                <g id="#cfcfcfff" transform="translate(138.572876, 178.223667)" fill="#CFCFCF">
                    <path d="M-0.0111125012,0.642441416 C100.41533,0.539650789 200.86747,0.256976568 301.293912,0.61674376 C302.604492,111.116667 300.959843,221.616591 302.398912,332.065119 C262.490451,332.938838 222.556292,332.142211 182.647831,332.347793 C132.845772,332.424886 83.0694114,333.221513 33.267353,333.401397 C30.6204943,296.19119 24.6072425,259.109473 23.9134059,221.822172 C30.2093318,217.247989 37.7387451,214.883805 44.7799031,211.748691 C126.883916,175.849064 209.630371,141.311414 291.374615,104.640858 C197.937937,101.839813 104.372769,105.437485 10.9360892,101.968302 C6.25911572,68.3043715 1.7106305,34.5890458 -0.0111125012,0.642441416 Z" id="Path"></path>
                    <path d="M40.6939755,398.519259 C70.8887221,398.056701 101.083469,398.339375 131.252518,398.159492 C137.471351,398.262283 143.844369,398.082399 149.857621,399.932629 C152.478782,429.382145 154.534595,458.908753 157.489825,488.33257 C178.279229,494.371518 199.890959,496.761401 220.988735,501.36128 C247.739995,506.115347 274.259976,512.102903 301.114029,516.086038 C303.683793,553.399036 299.186703,590.96901 303.478211,628.15352 C302.707283,628.307705 301.139727,628.616076 300.368796,628.770264 C294.74101,629.232822 289.267409,627.228404 283.845202,626.07201 C238.257561,613.891321 192.181662,603.586561 146.671112,591.20029 C116.964621,583.105527 87.155339,575.499021 57.3974525,567.738328 C48.7373423,511.666043 43.6492062,455.131197 40.6939755,398.519259 Z" id="Path"></path>
                </g>
                <g id="#ffffffff" transform="translate(439.429929, 178.223667)" fill="#FFFFFF">
                    <path d="M0.436860164,0.61674376 C96.9058632,1.13069689 193.349169,0.462557819 289.792475,1.23348752 C288.4048,30.0405606 284.704337,58.6677501 282.622829,87.4491257 C281.672014,96.5203983 281.800504,105.797252 279.384924,114.662944 C273.243183,119.442708 265.790862,122.115264 258.8011,125.327471 C222.567404,141.388507 186.025337,156.730008 149.920129,173.099415 C112.29876,189.93138 73.7522746,204.887416 37.1074162,223.749496 C46.9753164,224.469031 56.8946119,224.520426 66.8139074,224.469031 C134.912697,224.186357 203.037185,224.391938 271.135976,224.032171 C264.017724,337.847093 252.787848,451.37934 242.662971,564.962981 C162.589074,585.82948 82.8749428,608.006556 2.62116097,628.15352 C-1.67034768,590.96901 2.82674223,553.399036 0.256976568,516.086038 C14.8532455,509.224765 30.605909,505.524302 45.94741,500.847328 C74.7287855,492.212914 103.715742,484.323734 132.265839,474.995485 C134.732814,427.377727 138.690253,379.837064 141.285716,332.219304 C94.6958648,332.527677 48.1060133,331.268492 1.5418594,332.065119 C0.102790627,221.616591 1.74744065,111.116667 0.436860164,0.61674376 Z" id="Path"></path>
                </g>
            </g>
        </g>
    </g>
</svg>