<?xml version="1.0" encoding="UTF-8"?>
<svg width="883px" height="1000px" viewBox="0 0 883 1000" version="1.1" xmlns="http://www.w3.org/2000/svg" xmlns:xlink="http://www.w3.org/1999/xlink">
    <title>html.inverse</title>
    <g id="V4" stroke="none" stroke-width="1" fill="none" fill-rule="evenodd">
        <g id="Square" transform="translate(-59.000000, 0.000000)" fill-rule="nonzero">
            <g id="html.inverse" transform="translate(59.299191, 0.000000)">
                <polygon id="Shape" fill="#E44D26" points="881.212517 0.666618722 800.949629 899.820933 440.162061 999.841315 80.3691038 899.959072 0.189100403 0.666618722"></polygon>
                <polygon id="Shape" fill="#F16529" points="440.700809 923.387643 732.235259 842.565289 800.821851 74.1951746 440.700809 74.1951746"></polygon>
                <path d="M284.671495,294.787746 L440.700809,294.787746 L440.700809,184.493185 L164.133844,184.493185 L166.772321,214.082809 L193.882328,518.0257 L440.700809,518.0257 L440.700809,407.731142 L294.752273,407.731142 L284.671495,294.787746 L284.671495,294.787746 Z M309.529819,573.174705 L198.810478,573.174705 L214.261456,746.35412 L440.193143,809.069753 L440.700809,808.931614 L440.700809,694.178581 L440.217317,694.306359 L317.383086,661.138907 L309.529819,573.174705 L309.529819,573.174705 Z" id="Shape" fill="#EBEBEB"></path>
                <path d="M440.320924,518.0257 L576.136876,518.0257 L563.331285,661.069838 L440.317469,694.271825 L440.317469,809.01795 L666.428741,746.35412 L668.086423,727.719012 L694.008423,437.348392 L696.698704,407.731142 L440.320924,407.731142 L440.320924,518.0257 Z M440.320924,294.518371 L440.320924,294.787746 L706.734586,294.787746 L708.944829,269.998494 L713.973131,214.082809 L716.608153,184.493185 L440.320924,184.493185 L440.320924,294.521826 L440.320924,294.518371 Z" id="Shape" fill="#FFFFFF"></path>
            </g>
        </g>
    </g>
</svg>