<?xml version="1.0" encoding="UTF-8"?>
<svg width="1000px" height="1000px" viewBox="0 0 1000 1000" version="1.1" xmlns="http://www.w3.org/2000/svg" xmlns:xlink="http://www.w3.org/1999/xlink">
    <title>Square</title>
    <g id="Square" stroke="none" stroke-width="1" fill="none" fill-rule="evenodd">
        <g id="Magic-Wand" transform="translate(244.000000, 244.000000)">
            <polyline id="Fill-1" fill="#9A502C" points="174.917288 282.539396 40.4188262 417.037858 53.867943 430.486974 188.366405 295.988513 174.917288 282.539396"></polyline>
            <polyline id="Fill-2" fill="#A95F3D" points="295.965174 161.490051 174.917288 282.539396 188.366405 295.988513 309.415749 174.940627 295.965174 161.490051"></polyline>
            <polyline id="Fill-3" fill="#FFF5A3" points="417.059738 174.985846 349.764558 107.690667 322.864866 134.590359 336.315442 148.040934 349.764558 134.590359 417.059738 201.885538 430.510313 188.436422 417.059738 174.985846"></polyline>
            <polyline id="Fill-4" fill="#FFF5A3" points="336.338781 174.962507 349.787897 188.413083 363.238473 174.962507 336.315442 148.040934 322.864866 161.490051 336.338781 174.962507"></polyline>
            <polyline id="Fill-5" fill="#FFEE69" points="336.338781 228.761892 322.888205 242.212467 336.360661 255.684923 349.811236 242.235806 336.338781 228.761892"></polyline>
            <polyline id="Fill-6" fill="#FFEE69" points="363.238473 201.862199 336.338781 174.962507 322.888205 188.413083 336.338781 201.862199 322.888205 215.312775 336.338781 228.761892 363.238473 201.862199"></polyline>
            <polyline id="Fill-7" fill="#FFEE69" points="363.238473 174.962507 376.68759 161.51339 349.764558 134.590359 336.315442 148.040934 363.238473 174.962507"></polyline>
            <polyline id="Fill-8" fill="#FFEE69" points="309.415749 148.040934 295.965174 134.590359 282.516057 148.040934 269.043601 134.56702 255.593026 148.017595 228.693333 121.117903 215.244217 134.56702 255.616365 174.940627 269.065481 161.490051 282.516057 174.940627 295.965174 161.490051 309.415749 174.940627 336.315442 148.040934 322.864866 134.590359 309.415749 148.040934"></polyline>
            <polyline id="Fill-9" fill="#FFEE69" points="376.664251 107.690667 403.563943 80.7909744 390.114826 67.3418575 349.764558 107.690667 363.215134 121.141242 376.664251 107.690667"></polyline>
            <polyline id="Fill-10" fill="#FFEE69" points="349.764558 107.690667 282.469379 40.3954872 269.020262 53.8460627 309.39241 94.2182108 295.943293 107.667328 322.864866 134.590359 349.764558 107.690667"></polyline>
            <polyline id="Fill-11" fill="#343534" points="430.510313 188.436422 417.059738 201.885538 430.533652 215.357994 443.982769 201.908877 430.510313 188.436422"></polyline>
            <polyline id="Fill-12" fill="#343534" points="349.811236 269.135499 363.260353 255.684923 349.811236 242.235806 336.360661 255.684923 349.811236 269.135499"></polyline>
            <polyline id="Fill-13" fill="#343534" points="390.160046 201.885538 403.610621 215.336114 417.059738 201.885538 403.610621 188.436422 390.160046 201.885538"></polyline>
            <polyline id="Fill-14" fill="#343534" points="309.439088 228.761892 295.988513 215.312775 309.439088 201.862199 295.965174 188.389744 53.867943 430.486974 40.4188262 417.037858 282.516057 174.940627 269.065481 161.490051 255.616365 174.940627 215.244217 134.56702 201.793641 148.017595 242.165789 188.389744 13.5191339 417.037858 53.8912821 457.410006 282.539396 228.761892 322.911544 269.135499 336.360661 255.684923 309.439088 228.761892"></polyline>
            <polyline id="Fill-15" fill="#343534" points="363.238473 174.962507 349.787897 188.413083 363.238473 201.862199 336.338781 228.761892 349.811236 242.235806 390.160046 201.885538 363.238473 174.962507"></polyline>
            <polyline id="Fill-16" fill="#343534" points="376.68759 134.613698 430.510313 188.436422 443.95943 174.985846 403.587282 134.613698 417.037858 121.163123 403.587282 107.714006 376.68759 134.613698"></polyline>
            <polyline id="Fill-17" fill="#343534" points="403.587282 107.714006 417.036399 94.2634302 403.563943 80.7909744 390.114826 94.2415499 403.587282 107.714006"></polyline>
            <polyline id="Fill-18" fill="#343534" points="417.014519 67.3418575 403.563943 53.8912821 390.114826 67.3418575 403.563943 80.7909744 417.014519 67.3418575"></polyline>
            <polyline id="Fill-19" fill="#343534" points="390.114826 67.3418575 376.664251 53.8912821 363.215134 67.3418575 376.664251 80.7909744 390.114826 67.3418575"></polyline>
            <polyline id="Fill-20" fill="#343534" points="255.593026 121.117903 269.043601 107.667328 282.492718 121.117903 295.943293 107.667328 269.043601 80.7676353 228.693333 121.117903 242.143909 134.56702 255.593026 121.117903"></polyline>
            <polyline id="Fill-21" fill="#343534" points="309.39241 67.3185185 336.315442 94.2415499 363.215134 67.3418575 349.742678 53.867943 336.292103 67.3185185 295.919954 26.9463704 282.469379 40.3954872 309.39241 67.3185185"></polyline>
            <polyline id="Fill-22" fill="#343534" points="215.220877 107.645447 201.770302 121.094564 215.244217 134.56702 228.693333 121.117903 215.220877 107.645447"></polyline>
            <polyline id="Fill-23" fill="#343534" points="269.020262 53.8460627 255.569687 67.2951795 269.043601 80.7676353 282.492718 67.3185185 269.020262 53.8460627"></polyline>
            <polyline id="Fill-24" fill="#343534" points="269.020262 26.9463704 255.569687 40.3954872 269.020262 53.8460627 282.469379 40.3954872 269.020262 26.9463704"></polyline>
            <polyline id="Fill-28" fill="#FFE200" points="376.68759 161.51339 363.238473 174.962507 390.160046 201.885538 403.610621 188.436422 376.68759 161.51339"></polyline>
            <polyline id="Fill-29" fill="#FFE200" points="336.338781 201.862199 322.888205 188.413083 336.338781 174.962507 322.864866 161.490051 295.965174 188.389744 309.439088 201.862199 295.988513 215.312775 322.888205 242.212467 336.338781 228.761892 322.888205 215.312775 336.338781 201.862199"></polyline>
            <polyline id="Fill-30" fill="#FFE200" points="390.138165 121.163123 403.587282 107.714006 390.114826 94.2415499 363.215134 121.141242 376.68759 134.613698 390.138165 121.163123"></polyline>
            <polyline id="Fill-31" fill="#FFE200" points="349.764558 80.7909744 336.315442 94.2415499 349.764558 107.690667 376.664251 80.7909744 363.215134 67.3418575 349.764558 80.7909744"></polyline>
            <polyline id="Fill-32" fill="#FFE200" points="295.943293 107.667328 282.492718 121.117903 269.043601 107.667328 242.143909 134.56702 255.593026 148.017595 269.043601 134.56702 282.516057 148.040934 295.965174 134.590359 309.415749 148.040934 322.864866 134.590359 295.943293 107.667328"></polyline>
            <polyline id="Fill-33" fill="#E6CC00" points="295.943293 80.7676353 282.492718 67.3185185 269.043601 80.7676353 295.943293 107.667328 309.39241 94.2182108 295.943293 80.7676353"></polyline>
        </g>
    </g>
</svg>